<svg width="48" height="48" viewBox="0 0 484 493" fill="none" xmlns="http://www.w3.org/2000/svg">
<path d="M0.586914 460.239L6.97766 474.624L236.303 379.535L276.255 384.33L290.636 428.277L271.46 446.657C264.269 453.048 261.874 463.434 265.869 473.024L273.859 493L406.497 441.063L399.306 421.887C396.111 412.296 387.32 406.706 376.934 406.706H350.564L336.183 372.345L371.34 354.768C382.525 349.173 387.32 336.388 383.325 325.202L337.782 202.951C332.987 190.166 319.402 184.571 306.617 188.566C306.617 188.566 305.821 188.566 305.821 189.366L272.26 203.747L267.465 191.761L285.845 170.19C298.626 155.805 306.617 138.228 309.016 119.052L332.188 91.0856C347.369 73.5052 344.173 47.1386 326.593 31.9537C323.397 29.5582 320.202 27.1626 317.007 25.563C308.216 21.5678 299.426 20.768 289.84 23.1674L287.441 15.973C283.446 3.19148 269.064 -3.20316 257.079 1.59185L88.4811 62.3195C75.6957 67.1145 69.3049 80.6958 74.1 92.6814V93.4812L78.0951 103.867C57.3194 113.457 47.7294 137.428 54.9199 158.204C60.5147 174.185 74.8959 185.371 91.6764 187.766L129.233 191.761C144.414 202.951 162.79 210.141 181.17 211.737L207.537 214.137L212.332 226.122C206.737 229.318 202.742 234.912 201.146 242.103L195.551 269.27L0.586914 348.373L6.18174 363.554L118.047 318.811L145.214 400.311L0.586914 460.239ZM383.325 426.681L384.925 431.473L282.646 472.224L280.25 467.429C279.45 464.234 280.25 461.039 281.85 458.643L309.016 433.072L343.373 421.887H375.335C379.33 421.887 381.729 423.482 383.325 426.681ZM332.987 407.501L304.221 417.091L293.835 386.73C298.626 387.526 302.622 386.73 306.617 384.33L320.202 377.939L332.987 407.501ZM311.412 201.351C315.407 199.752 320.202 201.351 321.802 205.346L328.192 222.127L289.04 234.912L293.835 250.093L332.987 237.308L342.574 262.879L305.021 275.66L309.816 290.845L348.168 278.06L357.758 303.627L321.002 315.612L325.797 330.797L363.349 318.012L367.344 328.398C368.944 332.393 367.344 336.388 363.349 337.988L300.226 369.149C298.626 369.949 297.031 369.949 295.431 369.949L241.098 363.554L211.532 274.864L217.127 245.298C217.927 242.903 219.522 240.503 221.922 239.704L311.412 201.351ZM310.612 39.9441C323.397 45.5389 329.792 60.7199 324.197 74.3051C323.397 76.7006 321.802 78.3003 320.202 80.6958L310.612 92.6814C309.816 84.691 308.216 77.5004 305.821 69.5101L295.431 38.3484C301.026 37.5485 305.821 38.3484 310.612 39.9441ZM70.9007 154.209C66.1096 140.624 71.7005 126.243 84.4859 119.848L95.6716 147.018C99.6668 156.604 105.262 166.194 111.652 174.185L94.8718 172.585C83.6861 171.785 74.1 164.595 70.9007 154.209ZM184.366 196.556C151.604 193.361 122.838 172.585 110.853 141.423L90.0807 88.6862C88.4811 84.691 90.0807 79.896 94.0759 78.3003L262.67 17.5726C265.069 16.7728 266.665 16.7728 269.064 17.5726C270.66 18.3724 272.26 19.9682 273.06 22.3676L290.636 75.1049C300.226 104.667 293.835 136.628 273.859 159.8L249.088 188.566L256.279 207.742L227.513 219.728L219.522 199.752L184.366 196.556ZM133.228 312.417L151.604 305.226L171.58 365.954L186.761 361.159L165.989 298.835L197.951 286.05L225.117 366.754L160.394 393.92L133.228 312.417Z" fill="black"/>
<path d="M395.311 139.824V147.814H411.292V139.824C411.292 117.452 428.872 99.8719 451.243 99.8719V83.8912C428.872 83.8912 411.292 66.3147 411.292 43.9393V35.9489H395.311V43.9393C395.311 66.3147 377.734 83.8912 355.359 83.8912V99.8719C377.734 99.8719 395.311 117.452 395.311 139.824ZM403.301 72.7054C408.096 80.6958 414.487 87.0904 422.477 91.8816C414.487 96.6766 408.096 103.071 403.301 111.062C398.506 103.071 392.115 96.6766 384.125 91.8816C392.115 87.0904 398.506 80.6958 403.301 72.7054Z" fill="black"/>
<path d="M43.7342 299.631V307.622H59.7149V299.631C59.7149 277.26 77.2953 259.68 99.6668 259.68V243.699C77.2953 243.699 59.7149 226.122 59.7149 203.747V195.756H43.7342V203.747C43.7342 226.122 26.1577 243.699 3.78229 243.699V259.68C26.1577 259.68 43.7342 277.26 43.7342 299.631ZM51.7246 232.513C56.5196 240.503 62.9103 246.898 70.9007 251.689C62.9103 256.484 56.5196 262.879 51.7246 270.869C46.9295 262.879 40.5388 256.484 32.5484 251.689C40.5388 246.898 46.9295 240.503 51.7246 232.513Z" fill="black"/>
<path d="M443.253 203.747V195.756H427.272V203.747C427.272 226.122 409.696 243.699 387.32 243.699V259.68C409.696 259.68 427.272 277.26 427.272 299.631V307.622H443.253V299.631C443.253 277.26 460.833 259.68 483.205 259.68V243.699C460.833 243.699 443.253 226.122 443.253 203.747ZM435.263 270.869C430.468 262.879 424.077 256.484 416.087 251.689C424.077 246.898 430.468 240.503 435.263 232.513C440.058 240.503 446.448 246.898 454.439 251.689C446.448 256.484 440.058 262.879 435.263 270.869Z" fill="black"/>
<path d="M237.903 142.223L249.088 153.409C293.036 109.462 252.284 42.3436 249.888 39.9441L236.303 48.7343C237.103 48.7343 273.06 107.066 237.903 142.223Z" fill="black"/>
</svg>
