<svg width="16" height="16" viewBox="0 0 16 16" fill="none" xmlns="http://www.w3.org/2000/svg">
<path d="M5.78926 16C3.40798 15.9863 1.43823 11.1253 1.43823 8.64969C1.43823 4.60581 4.47183 3.7205 5.64095 3.7205C6.16783 3.7205 6.73042 3.92741 7.22664 4.1105C7.57364 4.23822 7.93251 4.37006 8.13211 4.37006C8.25158 4.37006 8.53311 4.25791 8.78167 4.1595C9.31176 3.94847 9.97139 3.68619 10.7395 3.68619C10.7409 3.68619 10.7427 3.68619 10.7441 3.68619C11.3176 3.68619 13.0567 3.81206 14.1022 5.38219L14.3471 5.75022L13.9947 6.01619C13.4911 6.39613 12.5724 7.08919 12.5724 8.46203C12.5724 10.088 13.6129 10.7133 14.1128 11.0141C14.3334 11.1468 14.5618 11.2837 14.5618 11.5831C14.5618 11.7785 13.0018 15.9757 10.7363 15.9757C10.182 15.9757 9.79011 15.8091 9.44448 15.6622C9.09476 15.5134 8.79308 15.3853 8.29458 15.3853C8.04189 15.3853 7.72236 15.5047 7.38408 15.6315C6.92179 15.8041 6.39855 16 5.80483 16H5.78926Z" fill="black"/>
<path d="M10.9795 0C11.0385 2.12737 9.51713 3.60325 7.9975 3.51069C7.74709 1.81297 9.51694 0 10.9795 0Z" fill="black"/>
</svg>
