<svg width="24" height="24" viewBox="0 0 24 24" fill="none" xmlns="http://www.w3.org/2000/svg">
<g clip-path="url(#clip0)">
<path d="M20.5 2H19.5C19.224 2 19 2.22402 19 2.50002C19 2.77602 19.224 2.99998 19.5 2.99998H20.5C21.879 2.99998 23 4.121 23 5.49997V20.5C23 21.879 21.879 23 20.5 23H3.50002C2.121 23 1.00003 21.8789 1.00003 20.5V5.49997C0.999984 4.121 2.121 2.99998 3.50002 2.99998H4.5C4.776 2.99998 5.00002 2.77597 5.00002 2.49997C5.00002 2.22397 4.776 2 4.5 2H3.50002C1.56998 2 0 3.56998 0 5.49997V20.5C0 22.43 1.56998 24 3.50002 24H20.5C22.43 24 24 22.43 24 20.5V5.49997C24 3.56998 22.43 2 20.5 2Z" fill="#0D172A"/>
<path d="M15.5001 2H8.50002C8.22402 2 8 2.22402 8 2.50002C8 2.77602 8.22402 2.99998 8.50002 2.99998H15.5C15.776 2.99998 16 2.77597 16 2.49997C16 2.22397 15.7761 2 15.5001 2Z" fill="#0D172A"/>
<path d="M23.5 7H0.500016C0.224016 7 0 7.22402 0 7.50002C0 7.77602 0.224016 8.00003 0.500016 8.00003H23.5C23.776 8.00003 24 7.77602 24 7.50002C24 7.22402 23.776 7 23.5 7Z" fill="#0D172A"/>
<path d="M6.50002 0C6.22402 0 6 0.224016 6 0.500016V4.5C6 4.776 6.22402 5.00002 6.50002 5.00002C6.77602 5.00002 7.00003 4.776 7.00003 4.5V0.500016C6.99998 0.224016 6.77602 0 6.50002 0Z" fill="#0D172A"/>
<path d="M17.5 0C17.224 0 17 0.224016 17 0.500016V4.5C17 4.776 17.224 5.00002 17.5 5.00002C17.776 5.00002 18 4.776 18 4.5V0.500016C18 0.224016 17.776 0 17.5 0Z" fill="#0D172A"/>
<path d="M7.75304 20.853C9.9583 20.853 11.5355 19.6401 11.5307 17.9622C11.5355 16.7397 10.7589 15.8672 9.3159 15.685V15.6083C10.4137 15.4118 11.1712 14.6351 11.1664 13.5325C11.1712 11.984 9.81448 10.7664 7.78181 10.7664C5.76831 10.7664 4.2534 11.9457 4.22463 13.6428H6.21416C6.23813 12.8949 6.92367 12.4107 7.77222 12.4107C8.61117 12.4107 9.17207 12.9189 9.16728 13.6572C9.17207 14.429 8.51529 14.9515 7.57087 14.9515H6.65521V16.476H7.57087C8.68308 16.476 9.37822 17.0322 9.37342 17.8232C9.37822 18.6046 8.70705 19.1415 7.75783 19.1415C6.84217 19.1415 6.15663 18.6621 6.11827 17.943H4.02808C4.06163 19.6593 5.59573 20.853 7.75304 20.853Z" fill="#0083FF"/>
<path d="M16.0625 20.9345C18.5314 20.9345 20.0224 19.0552 20.0272 15.8193C20.032 12.6073 18.5218 10.7664 16.0625 10.7664C13.5984 10.7664 12.1026 12.6025 12.0978 15.8193C12.0882 19.0456 13.5888 20.9297 16.0625 20.9345ZM16.0625 19.2134C14.9359 19.2134 14.2072 18.082 14.212 15.8193C14.2168 13.59 14.9407 12.4682 16.0625 12.4682C17.1795 12.4682 17.9082 13.59 17.9082 15.8193C17.913 18.082 17.1843 19.2134 16.0625 19.2134Z" fill="#0083FF"/>
</g>
<defs>
<clipPath id="clip0">
<rect width="24" height="24" fill="white"/>
</clipPath>
</defs>
</svg>
