<svg width="24" height="24" viewBox="0 0 24 24" fill="none" xmlns="http://www.w3.org/2000/svg">
<path d="M8.49994 18.9999H2.75006C1.23303 18.9999 0 17.767 0 16.25V4.74988C0 3.23285 1.23303 2 2.75006 2H17.25C18.767 2 20.0001 3.23285 20.0001 4.74988V8.75C20.0001 9.164 19.6641 9.5 19.2501 9.5C18.8361 9.5 18.5001 9.16492 18.5001 8.75V4.74988C18.5001 4.06085 17.939 3.5 17.25 3.5H2.75006C2.06104 3.5 1.5 4.06085 1.5 4.74988V16.25C1.5 16.939 2.06104 17.4999 2.75006 17.4999H8.49994C8.91394 17.4999 9.24994 17.8359 9.24994 18.2499C9.24994 18.6639 8.91394 18.9999 8.49994 18.9999V18.9999Z" fill="#0D172A"/>
<path d="M19.2501 7.5H0.75C0.335999 7.5 0 7.164 0 6.75C0 6.336 0.335999 6 0.75 6H19.2501C19.6641 6 20.0001 6.336 20.0001 6.75C20.0001 7.164 19.6641 7.5 19.2501 7.5Z" fill="#0D172A"/>
<path d="M4.75 5.49994C4.336 5.49994 4 5.16394 4 4.74994V0.75C4 0.335999 4.336 0 4.75 0C5.164 0 5.5 0.335999 5.5 0.75V4.74994C5.5 5.16394 5.164 5.49994 4.75 5.49994Z" fill="#0D172A"/>
<path d="M15.25 5.49994C14.836 5.49994 14.5 5.16394 14.5 4.74994V0.75C14.5 0.335999 14.836 0 15.25 0C15.664 0 16 0.335999 16 0.75V4.74994C16 5.16394 15.664 5.49994 15.25 5.49994Z" fill="#0D172A"/>
<path d="M17.4999 23.9999C13.916 23.9999 11 21.084 11 17.4999C11 13.916 13.916 11 17.4999 11C21.084 11 23.9999 13.916 23.9999 17.4999C23.9999 21.084 21.084 23.9999 17.4999 23.9999V23.9999ZM17.4999 12.5C14.7429 12.5 12.5 14.7429 12.5 17.4999C12.5 20.2569 14.7429 22.4999 17.4999 22.4999C20.2569 22.4999 22.4999 20.2569 22.4999 17.4999C22.4999 14.7429 20.2569 12.5 17.4999 12.5V12.5Z" fill="#0D172A"/>
<path d="M19.4439 20.1939C19.252 20.1939 19.06 20.1208 18.914 19.974L15.025 16.085C14.7319 15.7919 14.7319 15.3169 15.025 15.0239C15.318 14.731 15.793 14.731 16.086 15.0239L19.9749 18.9129C20.2679 19.2059 20.2679 19.681 19.9749 19.974C19.8279 20.1208 19.6369 20.1939 19.4439 20.1939V20.1939Z" fill="#0D172A"/>
<path d="M15.5561 20.1939C15.364 20.1939 15.1719 20.1208 15.026 19.974C14.733 19.681 14.733 19.2059 15.026 18.9129L18.915 15.0239C19.2079 14.731 19.6829 14.731 19.9761 15.0239C20.269 15.3169 20.269 15.7919 19.9761 16.085L16.0869 19.974C15.939 20.1208 15.748 20.1939 15.5561 20.1939V20.1939Z" fill="#0D172A"/>
</svg>
