<svg id="Layer_1" enable-background="new 0 0 512.002 512.002" height="48" viewBox="0 0 512.002 512.002" width="48" xmlns="http://www.w3.org/2000/svg" fill="#465568"><g><g><path d="m168.958 385.775c-2.699-12.591-6.584-17.969-14.205-26.458l-38.155-42.502c-.09-.1-.182-.198-.275-.294-20.962-20.561-55.506 8.923-37.785 33.451.036.051.073.102.11.152l17.364 23.604c6.578 8.935 6.499 9.126 4.458 14.024l-2.285 5.482c-.828-.263-2.263-.884-4.392-2.353l-23.84-16.441c-2.518-1.736-5.651-3.897-6.22-4.779-.585-.905-1.231-4.866-1.659-7.485l-4.372-26.805c-1.299-7.964-1.299-7.964 1.062-15.14.302-.917.632-1.919.99-3.029l8.667-26.839c4.598-14.237 7.373-22.83-4.044-38.052-3.336-4.448-9.828-9.013-18.05-8.464-4.377.289-12.655 2.436-18.905 13.567l-21.98 39.143c-5.309 9.453-5.506 14.072-5.426 22.808.008.896.017 1.861.019 2.912.014 9.448.264 17.852.506 25.979.289 9.694.562 18.851.465 29.647-.136 15.141 2.74 19.699 9.257 28.563 1.03 1.4 2.193 2.982 3.503 4.845 12.805 18.225 18.603 23.031 31.177 40.891 14.834 21.091 13.327 26.545 8.852 42.736-.395 1.43-.806 2.917-1.223 4.474-.805 3.003-.167 6.209 1.726 8.676 1.893 2.466 4.825 3.912 7.934 3.912h102.93c4.397 0 8.278-2.873 9.563-7.078 14.282-46.741 6.18-75.407-.97-100.698-1.792-6.339-3.484-12.328-4.797-18.449zm-11.344 106.227h-82.406c3.587-15.666 2.679-27.726-13.905-51.305-6.552-9.313-11.351-15.245-15.993-20.982-4.638-5.731-9.019-11.146-15.184-19.91-1.416-2.013-2.655-3.698-3.748-5.185-5.146-7-5.454-7.419-5.373-16.539.1-11.184-.191-20.964-.473-30.422-.238-7.988-.484-16.249-.498-25.414-.001-1.105-.011-2.121-.02-3.065-.063-6.886-.069-7.606 2.866-12.833l21.979-39.142c1.314-2.34 2.417-3.212 2.793-3.389.217.066.581.31.724.494 5.201 6.934 5.122 7.177 1.012 19.906l-8.667 26.839c-.346 1.071-.664 2.039-.956 2.924-3.301 10.035-3.734 12.768-1.803 24.61l4.372 26.805c2.309 14.147 4.285 17.246 16.263 25.508l23.84 16.441c7.944 5.479 15.316 7.274 21.911 5.333 5.438-1.599 9.779-5.71 12.224-11.577l2.357-5.658c6.472-15.529.315-23.891-6.813-33.573l-17.301-23.519c-.715-1.016-2.565-3.837 1.146-6.924.981-.816 4.14-2.724 5.939-1.044l37.969 42.295c6.301 7.02 7.815 9.281 9.532 17.29 7.86 34.918 20.217 54.891 8.213 102.036z"/><path d="m506.561 296.557-21.979-39.142c-10.48-18.241-28.033-16.407-36.956-5.104-11.417 15.222-8.642 23.814-4.045 38.051l8.668 26.842c.357 1.108.688 2.11.989 3.027 2.361 7.176 2.361 7.176 1.061 15.141l-4.37 26.802c-.428 2.621-1.074 6.581-1.659 7.487-.569.881-3.702 3.042-6.219 4.778l-23.842 16.442c-2.128 1.468-3.562 2.089-4.391 2.352l-2.286-5.482c-2.04-4.896-2.12-5.087 4.457-14.021l17.366-23.605c.036-.05.073-.101.109-.152 7.883-11.147 5.976-25.097-4.637-33.922-10.469-8.704-24.409-8.507-33.148.472-.094.096-.186.194-.275.294l-38.155 42.502c-7.619 8.488-11.505 13.865-14.204 26.457-1.313 6.122-3.006 12.11-4.798 18.451-7.149 25.292-15.252 53.957-.97 100.698 1.285 4.205 5.166 7.078 9.563 7.078h102.93c3.109 0 6.041-1.446 7.934-3.912 1.893-2.467 2.53-5.673 1.726-8.676-.417-1.557-.828-3.043-1.223-4.474-4.476-16.19-5.982-21.645 8.853-42.736 6.164-8.764 10.545-14.178 15.184-19.91 4.642-5.736 9.441-11.667 15.993-20.982 1.311-1.863 2.474-3.445 3.504-4.846 6.517-8.865 9.392-13.422 9.257-28.562-.098-10.795.176-19.952.465-29.646.242-8.128.492-16.533.506-25.98.002-1.05.011-2.015.019-2.911.078-8.738-.119-13.357-5.427-22.811zm-14.574 22.627c-.009.943-.018 1.958-.02 3.064-.014 9.165-.26 17.426-.497 25.415-.282 9.458-.573 19.237-.474 30.42.082 9.119-.227 9.538-5.371 16.538-1.094 1.487-2.332 3.172-3.748 5.186-6.165 8.763-10.545 14.176-15.183 19.908-4.643 5.737-9.442 11.669-15.995 20.984-16.584 23.579-17.493 35.639-13.905 51.305h-82.407c-9.733-36.922-3.213-59.985 3.105-82.336 1.799-6.366 3.659-12.948 5.106-19.698 1.718-8.01 3.231-10.271 9.532-17.29l37.97-42.296c1.797-1.677 4.957.229 5.938 1.045 3.712 3.086 1.861 5.907 1.146 6.924l-17.305 23.521c-7.126 9.682-13.281 18.042-6.811 33.571l2.358 5.657c6.302 14.461 20.993 15.686 34.134 6.245l23.842-16.442c11.977-8.261 13.952-11.36 16.263-25.51l4.37-26.802c1.934-11.843 1.5-14.577-1.802-24.612-.291-.886-.61-1.853-.955-2.922l-8.629-26.724-.039-.118c-4.109-12.727-4.188-12.97 1.011-19.901.145-.186.508-.43.726-.496.377.176 1.479 1.049 2.793 3.389l21.979 39.142c2.937 5.225 2.93 5.945 2.868 12.833z"/><path d="m398.387 267.256c2.238.724 4.872 1.076 7.384.898 4.378-.289 12.656-2.436 18.907-13.568l21.979-39.143c5.308-9.454 5.505-14.072 5.425-22.809-.008-.896-.017-1.861-.019-2.911-.014-9.448-.264-17.853-.506-25.98-.289-9.694-.562-18.851-.465-29.646.135-15.141-2.741-19.699-9.258-28.563-1.03-1.4-2.194-2.983-3.504-4.846-6.553-9.315-11.354-15.248-15.996-20.985-4.637-5.731-9.018-11.145-15.181-19.906-14.835-21.091-13.327-26.545-8.852-42.736.395-1.43.806-2.917 1.223-4.474.805-3.003.167-6.209-1.726-8.676-1.89-2.465-4.822-3.911-7.931-3.911h-102.93c-4.397 0-8.278 2.873-9.563 7.078-14.282 46.741-6.18 75.407.97 100.698 1.792 6.341 3.484 12.33 4.797 18.451 1.223 5.706 2.69 9.931 4.638 13.635-11.597 3.444-22.329 9.125-31.779 16.843-9.308-7.597-19.878-13.229-31.292-16.691 1.988-3.74 3.478-8.002 4.718-13.786 1.312-6.122 3.005-12.111 4.798-18.452 7.149-25.292 15.251-53.958.969-100.698-1.285-4.205-5.167-7.078-9.564-7.078h-102.93c-3.109 0-6.041 1.446-7.934 3.913-1.893 2.466-2.53 5.673-1.726 8.676.417 1.557.828 3.044 1.223 4.474 4.475 16.191 5.982 21.645-8.852 42.736-6.165 8.764-10.545 14.177-15.183 19.909-4.642 5.737-9.442 11.669-15.994 20.983-1.31 1.863-2.474 3.444-3.503 4.845-6.517 8.865-9.393 13.423-9.257 28.564.097 10.796-.176 19.953-.465 29.648-.242 8.127-.493 16.531-.506 25.978-.001 1.051-.011 2.016-.019 2.913-.08 8.736.117 13.354 5.425 22.808l21.979 39.142c6.25 11.131 14.528 13.279 18.906 13.568 2.333.164 4.78-.125 6.891-.748 4.557 9.82 10.843 18.844 18.541 26.541l11.573 11.573c9.74 9.014 23.153-4.412 14.142-14.143l-11.573-11.573c-7.624-7.624-13.481-16.901-17.067-26.993 6.02-11.253 3.446-19.226-.413-31.175l-2.361-7.311c1.853-9.353 5.493-18.137 10.723-25.976 1.555 2.779 3.692 5.356 6.392 7.602 10.468 8.706 24.409 8.508 33.149-.471.094-.096.186-.195.275-.294l34.052-37.931c14.364 2.686 27.371 9.547 37.813 19.988 3.905 3.905 10.237 3.905 14.142 0 10.579-10.579 23.743-17.465 38.296-20.079l34.133 38.022c.09.1.182.198.275.294 8.738 8.979 22.681 9.176 33.148.472 2.553-2.123 4.602-4.543 6.133-7.149 5.276 8.032 8.883 17.03 10.628 26.618l-2.008 6.219c-3.783 11.717-6.332 19.612-.75 30.525-3.566 10.349-9.497 19.845-17.292 27.641l-86.78 86.781c-12.599 12.601-33.104 12.603-45.706 0l-11.568-11.569c-3.904-3.906-10.237-3.905-14.142 0-3.906 3.905-3.906 10.237 0 14.142l11.568 11.569c20.4 20.399 53.591 20.399 73.991 0l86.78-86.781c7.745-7.749 14.048-16.817 18.609-26.695zm-281.045-84.735c.104-1.449.393-3.223.828-5.891l4.372-26.804c.401-2.461 1.074-6.58 1.658-7.486.569-.881 3.703-3.043 6.22-4.779l23.84-16.442c2.129-1.468 3.563-2.089 4.392-2.352l2.286 5.484c2.041 4.896 2.12 5.087-4.458 14.021l-9.362 12.727c-5.343 3.49-10.347 7.554-14.892 12.1-5.859 5.86-10.845 12.383-14.884 19.422zm45.027-.902c-1.799 1.677-4.958-.229-5.939-1.045-3.711-3.086-1.861-5.907-1.146-6.924l17.301-23.519c7.128-9.682 13.285-18.044 6.814-33.571l-2.359-5.659c-2.445-5.867-6.786-9.978-12.223-11.578-6.598-1.941-13.969-.146-21.912 5.333l-23.84 16.441c-11.978 8.262-13.954 11.361-16.262 25.509l-4.372 26.804c-1.932 11.842-1.499 14.575 1.803 24.61.291.886.61 1.854.956 2.924l8.666 26.839c4.111 12.729 4.189 12.972-1.01 19.904-.145.186-.508.43-.725.496-.376-.176-1.479-1.049-2.793-3.389l-21.979-39.142c-2.935-5.227-2.928-5.947-2.865-12.833.009-.944.018-1.959.02-3.065.014-9.164.26-17.424.498-25.413.282-9.458.573-19.238.473-30.422-.082-9.12.227-9.539 5.373-16.539 1.093-1.486 2.332-3.171 3.748-5.185 6.165-8.764 10.545-14.177 15.183-19.909 18.659-23.289 37.653-46.696 29.896-72.286h82.407c12.003 47.157-.352 67.107-8.212 102.035-1.717 8.008-3.231 10.27-9.532 17.289zm193.767-1.045c-.981.815-4.142 2.72-5.938 1.045l-37.97-42.295c-6.302-7.02-7.815-9.281-9.532-17.29-1.447-6.75-3.308-13.333-5.106-19.698-6.319-22.351-12.84-45.414-3.106-82.336h82.407c-3.588 15.666-2.679 27.726 13.905 51.305 6.551 9.313 11.351 15.245 15.992 20.98 4.638 5.732 9.019 11.146 15.184 19.911 1.417 2.014 2.656 3.699 3.749 5.186 5.146 7 5.454 7.418 5.372 16.538-.1 11.184.191 20.963.474 30.421.237 7.989.483 16.249.497 25.415.002 1.105.011 2.12.02 3.063.062 6.888.069 7.608-2.865 12.834l-21.979 39.142c-1.313 2.341-2.417 3.213-2.793 3.389-.218-.066-.58-.309-.724-.494-5.201-6.934-5.122-7.177-1.013-19.903l8.667-26.84c.346-1.071.665-2.039.956-2.924 3.302-10.035 3.735-12.769 1.803-24.611l-4.372-26.805c-2.31-14.148-4.285-17.247-16.263-25.508l-23.84-16.441c-7.801-5.168-14.175-7.361-21.912-5.333-5.438 1.599-9.778 5.711-12.223 11.576l-2.358 5.659c-6.471 15.528-.315 23.889 6.811 33.57l17.305 23.521c.714 1.016 2.564 3.837-1.148 6.923zm9.86-28.83-9.91-13.472c-6.576-8.934-6.497-9.125-4.457-14.021l2.286-5.483c.828.263 2.263.884 4.392 2.352l23.839 16.441c2.518 1.737 5.651 3.898 6.221 4.779.585.905 1.231 4.866 1.658 7.484l4.372 26.806c.547 3.348.863 5.289.871 6.947-4.138-7.436-9.329-14.316-15.49-20.478-4.218-4.215-8.848-8.029-13.782-11.355z"/><path d="m192.755 281.428c-.4 34.761 37.325 58.67 68.568 43.502 4.997-2.353 7.141-8.311 4.787-13.307-2.353-4.997-8.312-7.14-13.307-4.788-18.144 8.893-40.366-5.182-40.049-25.408 0-11.964 7.521-22.205 18.083-26.244v26.244c0 5.523 4.477 10 10 10h29.606l13.649 28.745c2.368 4.988 8.332 7.112 13.322 4.744 4.989-2.369 7.113-8.333 4.744-13.323l-16.36-34.455c-1.656-3.488-5.172-5.71-9.033-5.71h-25.928v-18.084h21.976c13.268-.529 13.258-19.476 0-20h-31.976c-26.512 0-48.082 21.571-48.082 48.084z"/><path d="m255.847 210.019c0-8.284-6.716-15-15-15h-.008c-8.284 0-14.996 6.716-14.996 15 .792 19.896 29.217 19.892 30.004 0z"/><path d="m182.694 320.267h-.007c-5.523 0-9.996 4.477-9.996 10 .528 13.263 19.479 13.263 20.003 0 0-5.523-4.477-10-10-10z"/></g></g></svg>