<svg width="48" height="48" viewBox="0 0 512 513" fill="none" xmlns="http://www.w3.org/2000/svg">
<path d="M441.754 376.467C444.464 362.08 444.394 347.307 441.549 332.947L480.632 238.628C480.636 238.565 480.636 238.503 480.632 238.44C486.965 221.101 496.246 204.986 508.066 190.807C511.007 187.7 512.19 183.324 511.215 179.159L495.189 109.954C494.999 109.23 494.712 108.536 494.336 107.889C494.268 107.761 494.242 107.607 494.174 107.487C494.106 107.368 493.807 107.078 493.636 106.856C493.287 106.345 492.884 105.873 492.433 105.448C492.136 105.239 491.826 105.051 491.503 104.885C491.087 104.579 490.644 104.31 490.18 104.083C489.537 103.84 488.866 103.676 488.183 103.596C487.987 103.596 487.817 103.468 487.62 103.451C485.985 103.342 484.352 103.707 482.918 104.501C482.79 104.569 482.637 104.595 482.509 104.671H482.423L422.17 142.278C418.521 144.537 416.256 148.483 416.145 152.774C414.471 171.199 409.618 189.194 401.801 205.962V206.056L382.268 253.271C372.681 248.175 362.418 244.468 351.787 242.263C355.811 214.486 357.29 186.4 356.207 158.355C372.092 139.296 379.715 114.687 377.387 89.9856C372.053 40.2533 327.108 4.33652 325.188 2.82612C322.303 0.553623 318.286 0.382718 315.218 2.40184C312.15 4.42095 310.718 8.17701 311.663 11.7264C316.058 28.2298 312.252 45.6464 279.791 81.4608C265.207 95.5432 260.584 117.046 268.092 135.878C270.962 143.081 275.075 149.724 280.243 155.505C278.178 168.689 276.557 181.173 275.439 193.333C273.514 213.445 273.018 233.669 273.954 253.851C266.342 257.978 259.215 262.944 252.706 268.657L211.319 91.6752C211.319 91.496 211.149 91.368 211.098 91.2058C210.959 90.6369 210.758 90.0847 210.5 89.5589L168.226 11.4874C163.995 3.67325 155.058 -0.342239 146.406 1.6841C137.754 3.71044 131.529 11.2771 131.209 20.1573L128 108.861C128.002 109.501 128.074 110.14 128.213 110.764C128.213 110.901 128.213 111.02 128.213 111.148L170.436 291.347C163.776 291.641 157.164 292.627 150.707 294.291L104.26 182.12C100.536 173.545 90.6576 169.499 81.9883 172.998L10.9995 202.387C2.31141 206.013 -1.81741 215.975 1.75787 224.684L64.7509 376.646C27.8315 378.584 -0.826253 409.577 0.126666 446.535C1.07958 483.492 31.2964 512.967 68.2667 513H443.733C468.123 512.646 490.471 499.308 502.359 478.009C514.248 456.711 513.87 430.688 501.369 409.743C488.868 388.798 466.143 376.113 441.754 376.467ZM433.058 155.59L468.83 133.267L456.166 163.85C454.361 168.205 456.428 173.198 460.783 175.003C465.138 176.808 470.131 174.741 471.936 170.387L484.599 139.803L494.08 180.874C483.937 193.249 475.604 207.003 469.333 221.723C460.437 225.847 450.22 226.061 441.159 222.313C432.097 218.566 425.017 211.198 421.632 201.994C427.625 187.147 431.473 171.522 433.058 155.59ZM413.431 222.585C419.077 229.487 426.403 234.821 434.705 238.073C441.304 240.912 448.403 242.408 455.586 242.476C457.315 242.47 459.041 242.364 460.757 242.161L433.527 307.867C425.374 289.89 412.761 274.295 396.885 262.564L413.431 222.585ZM296.525 161.64L339.396 164.26C339.661 172.23 339.567 180.473 339.302 188.844C325.02 189.865 310.668 189.171 296.55 186.779C295.475 186.626 294.426 186.506 293.359 186.361C294.212 178.323 295.253 170.182 296.508 161.64H296.525ZM292.454 92.9211C315.11 67.9269 326.852 48.7013 329.583 30.6277C345.868 47.3833 356.618 68.7338 360.38 91.7947C362.172 111.87 355.965 131.841 343.108 147.364C326.252 146.34 309.581 145.316 293.094 144.292C286.01 137.669 281.935 128.443 281.811 118.747C281.687 109.05 285.525 99.7225 292.437 92.9211H292.454ZM291.806 203.368L294.281 203.692C305.276 205.393 316.376 206.337 327.501 206.517C331.034 206.517 334.754 206.235 338.483 205.945C337.707 216.927 336.435 228.396 334.822 240.249C332.715 240.138 330.65 239.933 328.533 239.933C315.65 239.956 302.863 242.158 290.714 246.444C290.32 232.077 290.679 217.698 291.789 203.368H291.806ZM225.801 303.157L201.387 199.161C200.245 194.649 195.699 191.884 191.168 192.945C186.637 194.007 183.791 198.503 184.772 203.052L206.712 296.654C200.68 294.497 194.448 292.945 188.109 292.021L150.656 132.191C155.903 134.58 161.599 135.82 167.364 135.827C167.902 135.827 168.474 135.75 169.02 135.724L175.053 161.486C175.703 164.502 177.93 166.932 180.877 167.842C183.825 168.752 187.034 168 189.271 165.876C191.507 163.752 192.424 160.586 191.667 157.595L185.626 131.816C191.415 129.253 196.522 125.365 200.533 120.467L238.609 283.274C233.665 289.442 229.372 296.105 225.801 303.157ZM173.662 117.983C162.748 120.1 151.606 115.638 145.169 106.574L146.253 76.52C149.222 77.0745 152.235 77.3601 155.255 77.3733C158.173 77.3856 161.082 77.062 163.925 76.409C169.682 74.8972 175.067 72.2193 179.746 68.5413L194.116 95.0629C192.404 106.067 184.399 115.044 173.662 118.001V117.983ZM150.289 18.297C151.451 18.0278 152.651 18.5648 153.225 19.6112L171.52 53.4459C168.22 56.4316 164.279 58.621 160 59.8459C155.627 60.6485 151.128 60.4354 146.85 59.2229L148.241 20.7717C148.287 19.5793 149.126 18.5656 150.289 18.297ZM88.5333 188.733L95.0528 204.486L63.4795 217.559C59.7364 219.131 57.619 223.122 58.4163 227.103C59.2137 231.083 62.7051 233.951 66.7648 233.96C67.886 233.958 68.996 233.737 70.0331 233.311L101.606 220.23L108.134 235.999L92.3392 242.545C88.5747 244.102 86.4366 248.104 87.234 252.1C88.0314 256.095 91.5419 258.969 95.616 258.963C96.7342 258.959 97.8412 258.738 98.8757 258.314L114.671 251.769L121.199 267.539L89.6 280.637C85.8355 282.195 83.6974 286.197 84.4948 290.192C85.2922 294.188 88.8027 297.062 92.8768 297.055C93.9951 297.052 95.1022 296.832 96.1365 296.407L127.71 283.334L134.613 299.999C106.807 312.692 86.4161 337.51 79.36 367.251L17.5104 218.122L88.5333 188.733ZM443.733 495.933H68.2667C39.9897 495.933 17.0667 473.01 17.0667 444.733C17.0667 416.456 39.9897 393.533 68.2667 393.533C73.2111 393.517 78.1309 394.23 82.8672 395.65C85.4259 396.422 88.1988 395.952 90.3592 394.378C92.5196 392.804 93.8178 390.309 93.8667 387.637C94.4737 357.225 112.055 329.712 139.397 316.384C166.74 303.056 199.243 306.156 223.573 324.413C225.723 326.014 228.5 326.511 231.072 325.756C233.643 325.001 235.711 323.082 236.655 320.573C253.327 276.142 299.404 250.006 346.094 258.499C392.784 266.991 426.708 307.677 426.667 355.133C426.683 364.892 425.231 374.598 422.357 383.925C421.46 386.827 422.174 389.986 424.23 392.222C426.286 394.457 429.375 395.431 432.341 394.779C436.083 393.956 439.902 393.538 443.733 393.533C472.01 393.533 494.933 416.456 494.933 444.733C494.933 473.01 472.01 495.933 443.733 495.933Z" fill="black"/>
<path d="M330.112 134.973C332.791 134.983 335.318 133.735 336.939 131.603C347.592 117.183 351.709 98.9568 348.288 81.3584C347.56 78.3493 345.26 75.9704 342.277 75.1422C339.294 74.314 336.096 75.1664 333.921 77.3695C331.746 79.5726 330.935 82.781 331.802 85.7531C333.845 98.2581 330.796 111.061 323.337 121.303C321.397 123.889 321.085 127.348 322.531 130.239C323.976 133.13 326.931 134.956 330.163 134.956L330.112 134.973Z" fill="black"/>
<path d="M318.891 393.533C312.545 393.553 306.287 395.012 300.587 397.8C285.236 376.795 256.573 370.641 233.953 383.495C211.333 396.349 201.95 424.123 212.139 448.061C213.479 451.208 216.569 453.25 219.989 453.25C221.139 453.252 222.278 453.02 223.334 452.567C225.417 451.68 227.061 450.002 227.906 447.902C228.751 445.803 228.727 443.453 227.84 441.371C225.982 437.041 225.024 432.378 225.024 427.667C225.024 408.815 240.306 393.533 259.157 393.533C272.397 393.467 284.455 401.14 290.005 413.16C290.19 413.438 290.389 413.706 290.603 413.962C290.737 414.255 290.888 414.54 291.055 414.815C291.209 415.003 291.43 415.089 291.601 415.268C292.001 415.683 292.445 416.055 292.924 416.377C293.35 416.705 293.807 416.991 294.289 417.23C294.785 417.438 295.299 417.598 295.825 417.708C296.35 417.846 296.887 417.929 297.429 417.956C298.538 417.947 299.638 417.763 300.689 417.41C300.917 417.368 301.142 417.314 301.363 417.247C301.64 417.068 301.905 416.872 302.157 416.659C302.464 416.522 302.763 416.368 303.053 416.198C307.535 412.573 313.126 410.597 318.891 410.6C328.868 410.616 337.927 416.428 342.101 425.491C344.057 429.779 349.119 431.671 353.408 429.715C357.697 427.759 359.588 422.697 357.632 418.408C350.683 403.263 335.554 393.548 318.891 393.533Z" fill="black"/>
<path d="M150.903 334.235C149.615 334.653 119.467 345.081 119.467 376.467C119.467 381.18 123.287 385 128 385C132.713 385 136.533 381.18 136.533 376.467C137.23 364.563 145.062 354.265 156.348 350.414C160.825 348.911 163.236 344.063 161.732 339.586C160.229 335.108 155.381 332.698 150.903 334.201V334.235Z" fill="black"/>
<path d="M270.993 325.011C271.671 325.183 272.368 325.269 273.067 325.267C276.978 325.263 280.385 322.601 281.336 318.807C285.263 302.872 299.37 291.538 315.776 291.133C320.489 291.122 324.3 287.292 324.288 282.579C324.276 277.866 320.446 274.055 315.733 274.067C291.479 274.389 270.519 291.09 264.789 314.66C263.644 319.231 266.422 323.865 270.993 325.011Z" fill="black"/>
</svg>
