<svg enable-background="new 0 0 64 64" height="64" viewBox="0 0 64 64" width="64" xmlns="http://www.w3.org/2000/svg">
<path fill="currentColor" d="m62 25h-4c-.553 0-1 .448-1 1v3h-2v-3c0-.552-.447-1-1-1h-4c-.553 0-1 .448-1 1v3h-2v-3c0-.552-.447-1-1-1h-4c-3.431 0-6.653-1.678-8.623-4.492l-.117-.166c-2.342-3.345-6.177-5.342-10.26-5.342v-13c0-.552-.447-1-1-1h-4c-.553 0-1 .448-1 1v3h-2v-3c0-.552-.447-1-1-1h-4c-.553 0-1 .448-1 1v3h-2v-3c0-.552-.447-1-1-1h-4c-.553 0-1 .448-1 1v18c0 .552.447 1 1 1h20c3.086 0 5.817 2.076 6.642 5.049l1.789 6.438c1.064 3.834 4.588 6.513 8.569 6.513h2v10.177c-2.251 1.178-4.786 1.823-7.434 1.823h-8.566v-2.764l1.895-3.789c.155-.31.139-.678-.044-.973s-.504-.474-.851-.474h-1v-7c0-.553-.447-1-1-1h-1v-3c0-.477-.337-.887-.804-.98-2.901-.58-5.439-2.369-6.962-4.907l-.234-.391v-2.722h-2v2.722l-.234.39c-1.522 2.538-4.061 4.327-6.962 4.907-.467.094-.804.504-.804.981v3h-1c-.553 0-1 .447-1 1v7h-1c-.347 0-.668.18-.851.475s-.199.663-.044.973l1.895 3.788v12.764h-2v2h3 20 12.184 26.816v-2h-14.923c2.871-.984 5.627-2.314 8.205-4h5.718c.553 0 1-.447 1-1v-30c0-.552-.447-1-1-1zm-47-6h-6v-3c0-1.654 1.346-3 3-3s3 1.346 3 3zm6 0h-4v-3c0-2.757-2.243-5-5-5s-5 2.243-5 5v3h-4v-16h2v3c0 .552.447 1 1 1h4c.553 0 1-.448 1-1v-3h2v3c0 .552.447 1 1 1h4c.553 0 1-.448 1-1v-3h2zm20 7.939v3.987c-2.84-.35-5.323-2.158-6.489-4.824l-1.119-2.559c2.065 1.96 4.743 3.165 7.608 3.396zm-2 10.061c-3.086 0-5.817-2.076-6.642-5.049l-1.789-6.438c-.974-3.51-4.01-6.044-7.569-6.45v-2.063c3.248 0 6.188 1.922 7.489 4.898l2.189 5.006c1.485 3.393 4.687 5.663 8.321 6.023v4.073zm-5.434 16c6.064 0 11.613-2.983 14.967-8h5.895c-3.159 6.12-9.45 10-16.428 10h-13v-2zm21.434-10h-6v-3c0-1.654 1.346-3 3-3s3 1.346 3 3zm-51.382 2h20.764l-1 2h-18.764zm3.382-12.208c2.832-.765 5.317-2.508 7-4.91 1.683 2.402 4.168 4.145 7 4.91v2.208h-1c-.553 0-1 .447-1 1v3h-2v-3c0-.553-.447-1-1-1h-4c-.553 0-1 .447-1 1v3h-2v-3c0-.553-.447-1-1-1h-1zm-2 4.208h2v3c0 .553.447 1 1 1h4c.553 0 1-.447 1-1v-3h2v3c0 .553.447 1 1 1h4c.553 0 1-.447 1-1v-3h2v6h-18zm12 24h-6v-3c0-1.654 1.346-3 3-3s3 1.346 3 3zm2 0v-3c0-2.757-2.243-5-5-5s-5 2.243-5 5v3h-4v-12h18v12zm36-5.54c-5.622 3.626-12.116 5.54-18.816 5.54h-11.184v-4h13c6.925 0 13.242-3.445 17-9.036zm6-.46h-4v-11-4c0-2.757-2.243-5-5-5s-5 2.243-5 5v3.697c-1.087 1.676-2.443 3.108-4 4.244v-20.941h2v3c0 .552.447 1 1 1h4c.553 0 1-.448 1-1v-3h2v3c0 .552.447 1 1 1h4c.553 0 1-.448 1-1v-3h2z"/>
<path fill="currentColor" d="m49 13c.808 0 1.578-.238 2.232-.682 1.707.896 3.828.896 5.535 0 .655.444 1.425.682 2.233.682 2.206 0 4-1.794 4-4 0-1.975-1.439-3.621-3.323-3.943-.82-2.391-3.095-4.057-5.677-4.057s-4.857 1.666-5.677 4.057c-1.884.322-3.323 1.968-3.323 3.943 0 2.206 1.794 4 4 4zm-.089-6.005c.033.005.111.013.145.014.448.011.927-.318 1.024-.802.374-1.858 2.023-3.207 3.92-3.207s3.546 1.349 3.92 3.208c.095.469.506.803.979.803.037 0 .08-.003.143-.01 1.083.022 1.958.91 1.958 1.999 0 1.103-.897 2-2 2-.54 0-1.047-.214-1.427-.604-.194-.199-.454-.301-.716-.301-.199 0-.399.059-.573.181-1.355.947-3.213.947-4.568 0-.403-.282-.947-.23-1.289.121-.38.389-.887.603-1.427.603-1.103 0-2-.897-2-2s.897-2 1.911-2.005z"/>
<path fill="currentColor" d="m29 13c.808 0 1.578-.238 2.232-.682 1.707.896 3.828.896 5.535 0 .655.444 1.425.682 2.233.682 2.206 0 4-1.794 4-4 0-1.975-1.439-3.621-3.323-3.943-.82-2.391-3.095-4.057-5.677-4.057s-4.857 1.666-5.677 4.057c-1.884.322-3.323 1.968-3.323 3.943 0 2.206 1.794 4 4 4zm-.089-6.005c.033.005.111.013.145.014.45.011.926-.318 1.024-.802.374-1.858 2.023-3.207 3.92-3.207s3.546 1.349 3.92 3.208c.095.469.506.803.979.803.038 0 .08-.003.143-.01 1.083.022 1.958.91 1.958 1.999 0 1.103-.897 2-2 2-.54 0-1.047-.214-1.427-.604-.194-.199-.454-.301-.716-.301-.199 0-.399.059-.573.181-1.355.947-3.213.947-4.568 0-.403-.282-.947-.23-1.289.121-.38.389-.887.603-1.427.603-1.103 0-2-.897-2-2s.897-2 1.911-2.005z"/>
</svg>