<svg width="24" height="24" viewBox="0 0 24 24" fill="none" xmlns="http://www.w3.org/2000/svg">
<g clip-path="url(#clip0)">
<path d="M20.479 3.53168C15.9276 -1.09979 8.30457 -1.25219 3.52622 3.52625C-1.16998 8.2224 -1.17841 15.7633 3.52092 20.4683C8.0723 25.0998 15.6954 25.2521 20.4737 20.4737C25.1699 15.7776 25.1783 8.23669 20.479 3.53168V3.53168ZM12 1.40852C14.6676 1.40852 17.1077 2.40027 18.9719 4.03389L16.2078 6.79798H5.90752C4.74466 6.79798 3.7986 7.74405 3.7986 8.9069V15.0931C3.7986 16.222 4.6903 17.1465 5.80638 17.1994L4.03386 18.9719C2.40024 17.1077 1.40848 14.6676 1.40848 12C1.40848 6.15982 6.15979 1.40852 12 1.40852V1.40852ZM18.0924 8.20393C18.48 8.20393 18.7954 8.51928 18.7954 8.9069V9.79734H15.1968L16.7902 8.20393H18.0924ZM5.90752 15.796C5.5199 15.796 5.20454 15.4807 5.20454 15.0931V11.2033H11.8025L10.2091 12.7967H7.50093C7.1127 12.7967 6.79795 13.1114 6.79795 13.4997C6.79795 13.8879 7.1127 14.2026 7.50093 14.2026H8.80316L7.20975 15.796H5.90752ZM5.20454 9.79734V8.9069C5.20454 8.51928 5.5199 8.20393 5.90752 8.20393H14.8019L13.2085 9.79734H5.20454ZM13.7908 11.2033H18.7954V15.0931C18.7954 15.4807 18.48 15.796 18.0924 15.796H9.19805C11.8981 13.0959 6.67929 18.3148 13.7908 11.2033ZM12 22.5915C9.33231 22.5915 6.8922 21.5997 5.028 19.9661L7.7921 17.202H18.0924C19.2553 17.202 20.2013 16.2559 20.2013 15.0931V8.9069C20.2013 7.77798 19.3096 6.85352 18.1935 6.80056L19.9661 5.02804C21.5997 6.89228 22.5914 9.33234 22.5914 12C22.5914 17.8401 17.8401 22.5915 12 22.5915Z" fill="currentColor"/>
</g>
<defs>
<clipPath id="clip0">
<rect width="24" height="24" fill="white"/>
</clipPath>
</defs>
</svg>
