<svg width="16" height="16" viewBox="0 0 16 16" fill="none" xmlns="http://www.w3.org/2000/svg">
<g clip-path="url(#clip0)">
<path d="M8 16C5.24268 16 3 13.7573 3 11V4C3 3.63135 3.29871 3.33337 3.66663 3.33337C4.03467 3.33337 4.33337 3.63135 4.33337 4V11C4.33337 13.0214 5.97803 14.6666 8 14.6666C10.022 14.6666 11.6666 13.0214 11.6666 11V3.66663C11.6666 2.38 10.62 1.33337 9.33337 1.33337C8.04663 1.33337 7 2.38 7 3.66663V10.3334C7 10.8846 7.44861 11.3334 8 11.3334C8.55139 11.3334 9 10.8846 9 10.3334V4C9 3.63135 9.29871 3.33337 9.66663 3.33337C10.0347 3.33337 10.3334 3.63135 10.3334 4V10.3334C10.3334 11.62 9.28662 12.6666 8 12.6666C6.71338 12.6666 5.66663 11.62 5.66663 10.3334V3.66663C5.66663 1.64539 7.31128 0 9.33337 0C11.3553 0 13 1.64539 13 3.66663V11C13 13.7573 10.7573 16 8 16Z" fill="black"/>
</g>
<defs>
<clipPath id="clip0">
<rect width="16" height="16" fill="white"/>
</clipPath>
</defs>
</svg>
