<svg width="24" height="24" viewBox="0 0 24 24" fill="none" xmlns="http://www.w3.org/2000/svg">
<path d="M19.3618 11.4932C19.3618 7.43392 16.0593 4.13138 12 4.13138C7.94063 4.13138 4.63818 7.43392 4.63818 11.4932C4.63818 13.9826 5.90916 16.3093 7.98141 17.6623V19.9816C7.98141 22.1974 9.78408 24 11.9999 24C14.2157 24 16.0183 22.1973 16.0183 19.9816V18.6789C16.0183 18.6786 16.0183 17.6624 16.0183 17.6624C18.0908 16.3093 19.3618 13.9827 19.3618 11.4932ZM14.5992 19.9816C14.5992 21.4149 13.4332 22.5809 12 22.5809C10.5667 22.5809 9.40069 21.4148 9.40069 19.9816V19.3885H14.5992V19.9816ZM14.9553 16.6501C14.735 16.7766 14.5992 17.0113 14.5992 17.2654V17.9693H12.7095V14.3C13.6309 14.0002 14.299 13.1337 14.299 12.1136C14.299 11.7217 13.9812 11.404 13.5894 11.404C13.1975 11.404 12.8798 11.7217 12.8798 12.1136C12.8798 12.5987 12.4851 12.9934 12 12.9934C11.5149 12.9934 11.1201 12.5987 11.1201 12.1136C11.1201 11.7217 10.8024 11.404 10.4105 11.404C10.0186 11.404 9.70093 11.7217 9.70093 12.1136C9.70093 13.1336 10.3689 14.0002 11.2904 14.3V17.9693H9.40079V17.2654C9.40079 17.0113 9.26499 16.7766 9.04468 16.6501C7.20206 15.5915 6.05747 13.6155 6.05747 11.4932C6.05747 8.21645 8.7233 5.55057 12.0001 5.55057C15.2769 5.55057 17.9427 8.21641 17.9427 11.4932C17.9426 13.6156 16.798 15.5916 14.9553 16.6501Z" fill="#99ABCE"/>
<path d="M12 0C11.6081 0 11.2904 0.317719 11.2904 0.709595V1.9553C11.2904 2.34718 11.6081 2.6649 12 2.6649C12.3918 2.6649 12.7096 2.34718 12.7096 1.9553V0.709595C12.7096 0.317719 12.3919 0 12 0Z" fill="#99ABCE"/>
<path d="M10.0039 2.13732L9.56349 0.972002C9.42493 0.605439 9.01529 0.42061 8.64886 0.559126C8.2823 0.697689 8.09743 1.10719 8.23599 1.47375L8.67638 2.63907C8.78372 2.92304 9.05363 3.09797 9.34027 3.09797C9.42362 3.09797 9.50846 3.08316 9.59105 3.05194C9.95762 2.91338 10.1425 2.50388 10.0039 2.13732Z" fill="#99ABCE"/>
<path d="M15.3511 0.559126C14.9845 0.420516 14.575 0.605486 14.4364 0.972049L13.996 2.13736C13.8575 2.50388 14.0424 2.91338 14.4089 3.05194C14.4915 3.08316 14.5763 3.09797 14.6597 3.09797C14.9463 3.09797 15.2163 2.92304 15.3236 2.63907L15.764 1.47375C15.9026 1.10714 15.7177 0.697689 15.3511 0.559126Z" fill="#99ABCE"/>
</svg>
