<svg id="Layer_3" enable-background="new 0 0 64 64" height="48" viewBox="0 0 64 64" width="48" xmlns="http://www.w3.org/2000/svg" fill="#465568"><g><path d="m62.895 61.553-15-30c-.17-.339-.516-.553-.895-.553h-9.893l.126-.545c4.014-1.371 6.767-5.176 6.767-9.455 0-5.514-4.486-10-10-10s-10 4.486-10 10c0 4.279 2.753 8.084 6.767 9.455l.126.545h-13.893c-.379 0-.725.214-.895.553l-15 30c-.155.31-.139.678.044.973.183.294.504.474.851.474h60c.347 0 .668-.18.851-.474.182-.295.199-.663.044-.973zm-32.602-4.846 4.293 4.293h-3.172l-7.707-7.707c-.391-.391-1.023-.391-1.414 0l-7.707 7.707h-3.172l9.293-9.293c.391-.391.391-1.023 0-1.414l-7.824-7.824 1.057-2.115 4.352 4.352c.196.196.452.294.708.294s.512-.098.707-.293l5-5c.188-.187.293-.442.293-.707v-6h2v7.586l-5.707 5.707c-.391.391-.391 1.023 0 1.414l6 6c.195.195.451.293.707.293s.512-.098.707-.293l8.707-8.707h14.968l1 2h-14.382c-.266 0-.52.105-.707.293l-8 8c-.391.391-.391 1.023 0 1.414zm-1.707 4.293h-11.172l5.586-5.586zm-2.586-40c0-4.411 3.589-8 8-8s8 3.589 8 8c0 3.585-2.417 6.753-5.877 7.705-.354.098-.626.381-.709.739l-1.414 6.117-1.414-6.117c-.083-.358-.355-.642-.709-.739-3.46-.952-5.877-4.12-5.877-7.705zm7.025 19.225c.106.454.509.775.975.775s.869-.321.975-.775l1.67-7.225h9.737l5 10h-14.382c-.266 0-.52.105-.707.293l-8.293 8.293-4.586-4.586 5.293-5.293c.188-.187.293-.442.293-.707v-8h2.355zm-15.407-7.225h5.382v5.586l-4 4-4.117-4.117zm-5.677 11.355 6.645 6.645-10 10h-4.968zm25.473 16.645-5-5 7-7h14.968l4 8h-4.847l-3.703-5.555c-.166-.25-.436-.411-.733-.44-.302-.031-.594.077-.806.288l-1.893 1.892-1.532-2.682c-.355-.623-1.381-.623-1.736 0l-3.712 6.497h-2.42v2h22.382l1 2zm8.863-4h-4.554l2.277-3.984zm2.303 0-1.151-2.015 1.416-1.415 2.287 3.43z"/><path d="m38 21h2c0-3.309-2.691-6-6-6v2c2.206 0 4 1.794 4 4z"/><path d="m36.399 24.2 1.201 1.6c.83-.624 1.486-1.453 1.899-2.4l-1.832-.8c-.274.631-.713 1.184-1.268 1.6z"/><path d="m4 15c-.334 0-.646.167-.832.445l-2 3c-.224.336-.224.773 0 1.109l2 3c.186.279.498.446.832.446h5v9c0 .552.447 1 1 1h4c.553 0 1-.448 1-1v-9h7c.369 0 .708-.203.882-.528s.154-.72-.05-1.026l-1.63-2.446 1.63-2.445c.204-.307.224-.701.05-1.026s-.513-.529-.882-.529h-7v-2h5c.334 0 .646-.167.832-.445l2-3c.224-.336.224-.773 0-1.109l-2-3c-.186-.279-.498-.446-.832-.446h-5v-3c0-.552-.447-1-1-1h-4c-.553 0-1 .448-1 1v3h-7c-.369 0-.708.203-.882.528s-.154.72.05 1.026l1.63 2.446-1.63 2.445c-.204.307-.224.701-.05 1.026s.513.529.882.529h7v2zm9 16h-2v-8h2zm6.168-11.445.964 1.445h-15.597l-1.333-2 1.333-2h15.597l-.964 1.445c-.224.336-.224.774 0 1.11zm-8.168-16.555h2v2h-2zm-6.168 5.445-.964-1.445h15.597l1.333 2-1.333 2h-15.597l.964-1.445c.224-.336.224-.774 0-1.11zm6.168 4.555h2v2h-2z"/><path d="m5 18h2v2h-2z"/><path d="m9 18h2v2h-2z"/><path d="m17 8h2v2h-2z"/><path d="m13 8h2v2h-2z"/></g></svg>