<svg enable-background="new 0 0 64 64" width="48" height="48"  viewBox="0 0 64 64"  xmlns="http://www.w3.org/2000/svg"><path d="m5 62h54c1.7 0 3-1.3 3-3v-1.8c0-.2 0-.4-.1-.6l-4.6-21.2c-.3-1.4-1.5-2.4-2.9-2.4h-5.4v-15.7c0-1.2-.7-2.3-1.8-2.7l-14-6.1c-.8-.3-1.6-.3-2.4 0l-14 6.1c-1.1.4-1.8 1.5-1.8 2.7v15.7h-5.4c-1.4 0-2.6 1-2.9 2.4l-4.6 21.2c-.1.2-.1.4-.1.6v1.8c0 1.7 1.3 3 3 3zm54-2h-54c-.6 0-1-.4-1-1v-1h56v1c0 .6-.4 1-1 1zm-42.2-16.6 14 6.1c.8.3 1.6.3 2.4 0l14-6.1c1.1-.5 1.8-1.6 1.8-2.7v-1.7h2.2l2.6 13h-43.6l2.6-13h2.2v1.7c0 1.2.7 2.3 1.8 2.7zm14.2-19.7v23.8l-13.4-5.9c-.4-.2-.6-.5-.6-.9v-23.2zm16-6.2v23.2c0 .4-.2.8-.6.9l-13.4 5.9v-23.8zm-15.4-7.2c.3-.1.5-.1.8 0l13.1 5.7-13.5 5.9-13.5-5.9zm-23 25.5c.1-.5.5-.8 1-.8h5.4v2h-2.2c-1 0-1.8.7-2 1.6l-2.6 13c-.2 1.1.5 2.1 1.6 2.4h.4 43.6c1.1 0 2-.9 2-2 0-.1 0-.3 0-.4l-2.6-13c-.2-.9-1-1.6-2-1.6h-2.2v-2h5.4c.5 0 .9.3 1 .8l4.4 20.2h-55.6z"/><path d="m47.4 11.9 5.9-2.4-2.4-5.9-1.9.7 1 2.6-2.4-1.2c-9.9-4.9-21.4-4.9-31.3 0l-2.4 1.2 1-2.6-1.9-.7-2.4 5.9 5.9 2.4.7-1.9-2.9-1.2 2.8-1.4c9.3-4.6 20.2-4.6 29.5 0l2.8 1.4-2.9 1.2z"/></svg>