<svg height="48" viewBox="0 0 512 512" width="48" xmlns="http://www.w3.org/2000/svg" fill="#465568"><g id="outline"><path d="m160 40a8 8 0 0 0 -16 0v16a8 8 0 0 0 16 0z"/><path d="m140.687 57.374-11.314-11.313a8 8 0 0 0 -11.314 11.314l11.313 11.313a8 8 0 1 0 11.315-11.314z"/><path d="m136 80a8 8 0 0 0 -8-8h-16a8 8 0 0 0 0 16h16a8 8 0 0 0 8-8z"/><path d="m123.716 116.284a7.974 7.974 0 0 0 5.657-2.343l11.314-11.313a8 8 0 0 0 -11.315-11.315l-11.313 11.314a8 8 0 0 0 5.657 13.657z"/><path d="m152 128a8 8 0 0 0 8-8v-16a8 8 0 0 0 -16 0v16a8 8 0 0 0 8 8z"/><path d="m163.312 102.628 11.313 11.313a8 8 0 0 0 11.314-11.314l-11.313-11.314a8 8 0 1 0 -11.314 11.315z"/><path d="m200 80a8 8 0 0 0 -8-8h-16a8 8 0 0 0 0 16h16a8 8 0 0 0 8-8z"/><path d="m168.969 71.031a7.976 7.976 0 0 0 5.657-2.343l11.313-11.313a8 8 0 0 0 -11.314-11.314l-11.313 11.313a8 8 0 0 0 5.657 13.657z"/><path d="m416 320a8 8 0 0 0 8-8v-16a8 8 0 0 0 -16 0v16a8 8 0 0 0 8 8z"/><path d="m404.688 313.372-11.313-11.313a8 8 0 1 0 -11.314 11.314l11.313 11.314a8 8 0 0 0 11.314-11.315z"/><path d="m368 336a8 8 0 0 0 8 8h16a8 8 0 0 0 0-16h-16a8 8 0 0 0 -8 8z"/><path d="m404.688 358.626a8 8 0 0 0 -11.314-11.314l-11.313 11.313a8 8 0 0 0 11.314 11.314z"/><path d="m408 376a8 8 0 1 0 16 0v-16a8 8 0 0 0 -16 0z"/><path d="m427.313 358.626 11.314 11.313a8 8 0 1 0 11.314-11.314l-11.313-11.313a8 8 0 0 0 -11.315 11.314z"/><path d="m456 328h-16a8 8 0 0 0 0 16h16a8 8 0 0 0 0-16z"/><path d="m432.971 327.029a7.979 7.979 0 0 0 5.657-2.342l11.313-11.314a8 8 0 0 0 -11.314-11.314l-11.314 11.313a8 8 0 0 0 5.658 13.657z"/><path d="m112 304a8 8 0 0 0 8-8v-16a8 8 0 0 0 -16 0v16a8 8 0 0 0 8 8z"/><path d="m100.687 297.374-11.314-11.313a8 8 0 1 0 -11.314 11.314l11.313 11.313a8 8 0 0 0 11.315-11.314z"/><path d="m64 320a8 8 0 0 0 8 8h16a8 8 0 0 0 0-16h-16a8 8 0 0 0 -8 8z"/><path d="m89.372 331.313-11.313 11.314a8 8 0 0 0 11.314 11.314l11.314-11.313a8 8 0 0 0 -11.315-11.315z"/><path d="m104 360a8 8 0 0 0 16 0v-16a8 8 0 0 0 -16 0z"/><path d="m123.312 342.628 11.313 11.313a8 8 0 0 0 11.314-11.314l-11.313-11.314a8 8 0 0 0 -11.314 11.315z"/><path d="m128 320a8 8 0 0 0 8 8h16a8 8 0 0 0 0-16h-16a8 8 0 0 0 -8 8z"/><path d="m134.625 286.061-11.313 11.313a8 8 0 0 0 11.314 11.314l11.313-11.313a8 8 0 1 0 -11.314-11.314z"/><path d="m328 80.609v16a8 8 0 0 0 16 0v-16a8 8 0 1 0 -16 0z"/><path d="m324.688 97.98-11.313-11.313a8 8 0 1 0 -11.314 11.314l11.313 11.319a8 8 0 0 0 11.314-11.32z"/><path d="m312 112.607h-16a8 8 0 0 0 0 16h16a8 8 0 0 0 0-16z"/><path d="m358.627 154.548a8 8 0 1 0 11.314-11.313l-11.313-11.314a8 8 0 0 0 -11.315 11.312z"/><path d="m384 120.607a8 8 0 0 0 -8-8h-16a8 8 0 0 0 0 16h16a8 8 0 0 0 8-8z"/><path d="m358.628 109.3 11.313-11.314a8 8 0 0 0 -11.314-11.314l-11.314 11.308a8 8 0 0 0 11.315 11.32z"/><path d="m308.486 445.936a24 24 0 1 0 -12.679-13.29 23.947 23.947 0 0 0 12.679 13.29zm6.817-29.413a8 8 0 1 1 -4.574 10.349 7.947 7.947 0 0 1 4.571-10.349z"/><path d="m200.673 401.6a24 24 0 1 0 13.291 12.679 23.833 23.833 0 0 0 -13.291-12.679zm-1.2 25.27a8 8 0 0 1 -10.347 4.573 8 8 0 1 1 10.348-4.573z"/><path d="m488 176.609h-145.625a50.163 50.163 0 0 0 -21.13-36.906 8 8 0 0 0 -12.071 3.651l-12.867 33.255h-82.407l-12.868-33.255a8 8 0 0 0 -12.071-3.651 50.506 50.506 0 0 0 -21.086 36.906h-143.875a8 8 0 0 0 -8 8v64a8 8 0 0 0 8 8h169.382l35.985 93-9.892 25.567a56 56 0 1 0 24.765 69.012l10.86-28.067 10.861 28.071a56 56 0 1 0 24.765-69.012l-9.711-25.1c-.059-.15-.129-.291-.195-.436l36-93.037h171.18a8 8 0 0 0 8-8v-64a8 8 0 0 0 -8-7.998zm-168.231-16.3a34.2 34.2 0 0 1 4.459 32.813l-60.268 155.765-14.922-5.774zm-64.669 122.796-10.251-26.5h20.5zm-64.655-122.764 6.3 16.268h-12.812a34.548 34.548 0 0 1 6.512-16.268zm-158.445 32.268h258.116l-18.573 48h-239.543zm195.694 64 18.829 48.665-8.578 22.17-27.407-70.835zm1.624 181.81a40 40 0 1 1 -11.818-45.259 8 8 0 0 0 11.263-1.068l14.5-34.057 14.922 5.775zm52.119-46.327a8 8 0 0 0 11.263 1.068 40 40 0 1 1 -11.814 45.259l-17.206-44.467 8.578-22.17zm198.563-151.483h-156.989l16.138-41.709a50.714 50.714 0 0 0 1.972-6.289h138.879z"/><path d="m311.2 329.15a8 8 0 0 0 -10.347 4.575l-4.291 11.075a8 8 0 1 0 14.922 5.773l4.286-11.073a8 8 0 0 0 -4.57-10.35z"/><path d="m325.056 315.5 12.382-32a8 8 0 1 0 -14.922-5.773l-12.382 32a8 8 0 1 0 14.922 5.773z"/></g></svg>