<svg xmlns="http://www.w3.org/2000/svg" height="34" version="1.1" viewBox="-88 0 644 644.215" width="34">
<g id="surface1">
<path d="M 58.625 87.816406 L 409.894531 87.816406 C 442.230469 87.816406 468.441406 114.027344 468.441406 146.363281 L 468.441406 585.453125 C 468.441406 617.789062 442.230469 644 409.894531 644 L 58.625 644 C 26.289062 644 0.078125 617.789062 0.078125 585.453125 L 0.078125 146.363281 C 0.078125 114.03125 26.289062 87.816406 58.625 87.816406 Z M 58.625 87.816406 " style=" stroke:none;fill-rule:nonzero;fill:rgb(100%,74.509804%,0%);fill-opacity:1;" />
<path d="M 409.894531 87.816406 L 58.113281 87.816406 L 58.035156 87.820312 L 57.664062 87.820312 L 57.628906 87.824219 L 57.4375 87.824219 L 57.402344 87.828125 L 57.28125 87.828125 L 57.1875 87.832031 L 57.070312 87.832031 L 57.039062 87.835938 L 56.925781 87.835938 L 56.816406 87.839844 L 56.789062 87.839844 L 56.707031 87.84375 L 56.667969 87.84375 L 56.59375 87.847656 L 56.558594 87.851562 L 56.449219 87.855469 L 56.441406 87.855469 L 56.339844 87.859375 L 56.308594 87.859375 L 56.230469 87.863281 L 56.195312 87.863281 L 56.113281 87.867188 L 56.082031 87.867188 L 55.972656 87.871094 L 55.949219 87.871094 L 55.863281 87.875 L 55.828125 87.878906 L 55.753906 87.882812 L 55.714844 87.882812 L 55.613281 87.886719 L 55.609375 87.886719 L 55.503906 87.894531 L 55.464844 87.898438 L 55.394531 87.902344 L 55.351562 87.902344 L 55.277344 87.90625 L 55.242188 87.910156 L 55.140625 87.914062 L 55.109375 87.917969 L 55.03125 87.921875 L 54.988281 87.921875 L 54.917969 87.925781 L 54.882812 87.929688 L 54.800781 87.933594 L 54.773438 87.9375 L 54.667969 87.945312 L 54.632812 87.945312 L 54.558594 87.949219 L 54.519531 87.953125 L 54.445312 87.957031 L 54.410156 87.960938 L 54.304688 87.96875 L 54.28125 87.96875 L 54.195312 87.976562 L 54.160156 87.980469 L 54.085938 87.984375 L 54.046875 87.988281 L 53.972656 87.992188 L 53.941406 87.996094 L 53.835938 88.003906 L 53.800781 88.007812 L 53.726562 88.011719 L 53.6875 88.019531 L 53.613281 88.023438 L 53.578125 88.027344 L 53.363281 88.046875 L 53.328125 88.046875 L 53.253906 88.054688 L 53.21875 88.058594 L 53.140625 88.066406 L 53.109375 88.070312 L 53.003906 88.078125 L 52.976562 88.082031 L 52.898438 88.089844 L 52.855469 88.09375 L 52.75 88.105469 L 52.652344 88.113281 L 52.644531 88.117188 L 52.535156 88.125 L 52.503906 88.128906 L 52.425781 88.136719 L 52.390625 88.140625 L 52.3125 88.148438 L 52.28125 88.152344 L 52.175781 88.164062 L 52.152344 88.167969 L 52.066406 88.175781 L 51.960938 88.1875 L 51.917969 88.191406 L 51.84375 88.203125 L 51.8125 88.207031 L 51.710938 88.21875 L 51.675781 88.222656 L 51.601562 88.230469 L 51.5625 88.234375 L 51.496094 88.242188 L 51.453125 88.246094 L 51.363281 88.257812 L 51.328125 88.261719 L 51.246094 88.273438 L 51.207031 88.277344 L 51.140625 88.285156 L 51.097656 88.292969 L 51.03125 88.300781 L 50.988281 88.304688 L 50.890625 88.320312 L 50.851562 88.324219 L 50.785156 88.332031 L 50.738281 88.339844 L 50.679688 88.347656 L 50.632812 88.351562 L 50.5625 88.363281 L 50.511719 88.371094 L 50.429688 88.382812 L 50.386719 88.386719 L 50.324219 88.398438 L 50.277344 88.402344 L 50.210938 88.414062 L 50.171875 88.417969 L 50.074219 88.433594 L 50.039062 88.4375 L 49.96875 88.449219 L 49.925781 88.453125 L 49.859375 88.464844 L 49.816406 88.46875 L 49.738281 88.480469 L 49.714844 88.484375 L 49.613281 88.5 L 49.570312 88.507812 L 49.507812 88.519531 L 49.460938 88.527344 L 49.398438 88.535156 L 49.359375 88.542969 L 49.265625 88.558594 L 49.226562 88.5625 L 49.15625 88.574219 L 49.105469 88.582031 L 49.050781 88.59375 L 49.003906 88.601562 L 48.9375 88.613281 L 48.898438 88.617188 L 48.800781 88.636719 L 48.761719 88.640625 L 48.695312 88.652344 L 48.652344 88.660156 L 48.589844 88.671875 L 48.546875 88.679688 L 48.464844 88.691406 L 48.429688 88.699219 L 48.34375 88.714844 L 48.300781 88.71875 L 48.238281 88.730469 L 48.191406 88.742188 L 48.128906 88.75 L 47.992188 88.777344 L 47.949219 88.785156 L 47.886719 88.796875 L 47.839844 88.804688 L 47.785156 88.8125 L 47.734375 88.824219 L 47.667969 88.835938 L 47.628906 88.84375 L 47.535156 88.863281 L 47.492188 88.871094 L 47.433594 88.882812 L 47.382812 88.890625 L 47.332031 88.902344 L 47.28125 88.910156 L 47.195312 88.929688 L 47.144531 88.9375 L 47.085938 88.949219 L 47.035156 88.960938 L 46.980469 88.972656 L 46.933594 88.980469 L 46.867188 88.996094 L 46.832031 89 L 46.695312 89.027344 L 46.628906 89.042969 L 46.585938 89.050781 L 46.527344 89.066406 L 46.484375 89.074219 L 46.414062 89.089844 L 46.347656 89.101562 L 46.285156 89.117188 L 46.238281 89.125 L 46.179688 89.140625 L 46.136719 89.148438 L 46.074219 89.164062 L 46.03125 89.171875 L 45.9375 89.191406 L 45.734375 89.238281 L 45.679688 89.25 L 45.628906 89.261719 L 45.542969 89.28125 L 45.488281 89.296875 L 45.386719 89.320312 L 45.332031 89.332031 L 45.230469 89.355469 L 45.164062 89.371094 L 45.09375 89.386719 L 45.039062 89.402344 L 44.886719 89.4375 L 44.835938 89.453125 L 44.757812 89.46875 L 44.691406 89.484375 L 44.640625 89.5 L 44.59375 89.511719 L 44.539062 89.523438 L 44.496094 89.535156 L 44.4375 89.550781 L 44.382812 89.5625 L 44.304688 89.582031 L 44.25 89.597656 L 44.199219 89.609375 L 44.148438 89.625 L 44.097656 89.636719 L 44.039062 89.652344 L 43.996094 89.660156 L 43.90625 89.6875 L 43.804688 89.710938 L 43.75 89.726562 L 43.707031 89.738281 L 43.652344 89.753906 L 43.609375 89.765625 L 43.507812 89.792969 L 43.460938 89.804688 L 43.410156 89.816406 L 43.363281 89.832031 L 43.3125 89.84375 L 43.261719 89.859375 L 43.210938 89.871094 L 43.121094 89.894531 L 43.019531 89.925781 L 42.972656 89.9375 L 42.914062 89.949219 L 42.867188 89.964844 L 42.816406 89.976562 L 42.738281 90 L 42.675781 90.015625 L 42.632812 90.027344 L 42.574219 90.046875 L 42.527344 90.058594 L 42.476562 90.074219 L 42.429688 90.085938 L 42.355469 90.109375 L 42.238281 90.140625 L 42.1875 90.15625 L 42.140625 90.167969 L 42.039062 90.199219 L 41.992188 90.214844 L 41.902344 90.242188 L 41.851562 90.257812 L 41.804688 90.269531 L 41.75 90.285156 L 41.707031 90.300781 L 41.652344 90.316406 L 41.601562 90.332031 L 41.515625 90.355469 L 41.363281 90.402344 L 41.316406 90.417969 L 41.257812 90.433594 L 41.21875 90.449219 L 41.125 90.476562 L 41.082031 90.492188 L 40.929688 90.539062 L 40.882812 90.554688 L 40.828125 90.570312 L 40.75 90.59375 L 40.695312 90.613281 L 40.644531 90.628906 L 40.597656 90.644531 L 40.496094 90.675781 L 40.445312 90.695312 L 40.398438 90.710938 L 40.304688 90.738281 L 40.265625 90.753906 L 40.207031 90.773438 L 40.167969 90.785156 L 40.074219 90.816406 L 39.976562 90.847656 L 39.929688 90.863281 L 39.878906 90.882812 L 39.832031 90.898438 L 39.78125 90.914062 L 39.734375 90.929688 L 39.683594 90.949219 L 39.636719 90.964844 L 39.546875 90.996094 L 39.5 91.011719 L 39.445312 91.03125 L 39.40625 91.042969 L 39.351562 91.0625 L 39.308594 91.078125 L 39.21875 91.113281 L 39.167969 91.128906 L 39.117188 91.148438 L 39.070312 91.164062 L 39.015625 91.183594 L 38.976562 91.199219 L 38.921875 91.21875 L 38.882812 91.230469 L 38.777344 91.269531 L 38.742188 91.28125 L 38.6875 91.300781 L 38.644531 91.316406 L 38.589844 91.335938 L 38.546875 91.351562 L 38.445312 91.390625 L 38.355469 91.421875 L 38.316406 91.4375 L 38.261719 91.457031 L 38.21875 91.472656 L 38.167969 91.492188 L 38.121094 91.507812 L 38.035156 91.542969 L 37.988281 91.558594 L 37.933594 91.578125 L 37.890625 91.59375 L 37.839844 91.613281 L 37.792969 91.632812 L 37.742188 91.652344 L 37.707031 91.667969 L 37.605469 91.707031 L 37.566406 91.71875 L 37.511719 91.742188 L 37.46875 91.757812 L 37.417969 91.777344 L 37.375 91.792969 L 37.304688 91.824219 L 37.238281 91.847656 L 37.191406 91.867188 L 37.140625 91.886719 L 37.09375 91.90625 L 37.046875 91.921875 L 36.996094 91.941406 L 36.953125 91.960938 L 36.859375 92 L 36.816406 92.015625 L 36.765625 92.035156 L 36.667969 92.074219 L 36.632812 92.089844 L 36.574219 92.113281 L 36.550781 92.121094 L 36.4375 92.167969 L 36.402344 92.183594 L 36.347656 92.207031 L 36.308594 92.222656 L 36.253906 92.246094 L 36.210938 92.265625 L 36.132812 92.296875 L 36.078125 92.320312 L 36.027344 92.339844 L 35.886719 92.398438 L 35.839844 92.421875 L 35.773438 92.449219 L 35.710938 92.476562 L 35.660156 92.496094 L 35.566406 92.535156 L 35.519531 92.558594 L 35.472656 92.578125 L 35.398438 92.609375 L 35.339844 92.632812 L 35.292969 92.65625 L 35.25 92.675781 L 35.199219 92.695312 L 35.15625 92.714844 L 35.105469 92.738281 L 35.066406 92.753906 L 34.96875 92.796875 L 34.929688 92.8125 L 34.878906 92.835938 L 34.835938 92.855469 L 34.785156 92.878906 L 34.746094 92.898438 L 34.691406 92.921875 L 34.632812 92.945312 L 34.5625 92.980469 L 34.515625 93 L 34.464844 93.023438 L 34.425781 93.039062 L 34.375 93.0625 L 34.335938 93.082031 L 34.242188 93.125 L 34.203125 93.144531 L 34.148438 93.167969 L 34.109375 93.183594 L 34.058594 93.210938 L 34.019531 93.226562 L 33.964844 93.253906 L 33.945312 93.261719 L 33.832031 93.3125 L 33.792969 93.332031 L 33.738281 93.355469 L 33.703125 93.375 L 33.648438 93.398438 L 33.613281 93.414062 L 33.480469 93.480469 L 33.425781 93.503906 L 33.390625 93.523438 L 33.335938 93.546875 L 33.296875 93.566406 L 33.195312 93.613281 L 33.117188 93.652344 L 33.074219 93.675781 L 33.023438 93.699219 L 32.984375 93.71875 L 32.933594 93.742188 L 32.890625 93.765625 L 32.832031 93.792969 L 32.761719 93.824219 L 32.714844 93.851562 L 32.671875 93.871094 L 32.621094 93.894531 L 32.582031 93.914062 L 32.53125 93.941406 L 32.492188 93.960938 L 32.402344 94.003906 L 32.359375 94.027344 L 32.308594 94.050781 L 32.269531 94.070312 L 32.21875 94.097656 L 32.179688 94.117188 L 32.003906 94.207031 L 31.910156 94.253906 L 31.871094 94.277344 L 31.820312 94.300781 L 31.785156 94.320312 L 31.652344 94.386719 L 31.601562 94.414062 L 31.5625 94.433594 L 31.511719 94.460938 L 31.46875 94.484375 L 31.421875 94.507812 L 31.371094 94.535156 L 31.296875 94.574219 L 31.253906 94.597656 L 31.207031 94.621094 L 31.164062 94.644531 L 31.117188 94.667969 L 31.070312 94.695312 L 31.011719 94.726562 L 30.949219 94.757812 L 30.902344 94.785156 L 30.859375 94.808594 L 30.765625 94.855469 L 30.722656 94.878906 L 30.667969 94.910156 L 30.601562 94.949219 L 30.554688 94.972656 L 30.507812 95 L 30.464844 95.019531 L 30.417969 95.046875 L 30.378906 95.070312 L 30.269531 95.128906 L 30.25 95.136719 L 30.199219 95.167969 L 30.164062 95.1875 L 30.113281 95.214844 L 30.074219 95.238281 L 30.023438 95.265625 L 29.988281 95.285156 L 29.898438 95.335938 L 29.859375 95.355469 L 29.8125 95.382812 L 29.773438 95.40625 L 29.722656 95.433594 L 29.683594 95.457031 L 29.636719 95.484375 L 29.59375 95.507812 L 29.511719 95.554688 L 29.46875 95.582031 L 29.421875 95.605469 L 29.386719 95.628906 L 29.335938 95.65625 L 29.21875 95.726562 L 29.171875 95.753906 L 29.128906 95.78125 L 29.085938 95.804688 L 29.039062 95.832031 L 29 95.855469 L 28.953125 95.882812 L 28.898438 95.914062 L 28.832031 95.953125 L 28.789062 95.980469 L 28.742188 96.007812 L 28.699219 96.03125 L 28.570312 96.113281 L 28.492188 96.160156 L 28.449219 96.183594 L 28.402344 96.210938 L 28.359375 96.238281 L 28.3125 96.265625 L 28.277344 96.289062 L 28.214844 96.324219 L 28.105469 96.394531 L 28.066406 96.417969 L 28.019531 96.445312 L 27.980469 96.472656 L 27.929688 96.5 L 27.890625 96.523438 L 27.8125 96.574219 L 27.773438 96.597656 L 27.726562 96.625 L 27.6875 96.652344 L 27.640625 96.683594 L 27.601562 96.707031 L 27.546875 96.738281 L 27.503906 96.765625 L 27.433594 96.808594 L 27.394531 96.832031 L 27.347656 96.863281 L 27.308594 96.886719 L 27.257812 96.921875 L 27.222656 96.941406 L 27.140625 96.996094 L 27.113281 97.011719 L 27.019531 97.074219 L 26.96875 97.105469 L 26.933594 97.128906 L 26.878906 97.164062 L 26.847656 97.183594 L 26.765625 97.238281 L 26.734375 97.257812 L 26.679688 97.292969 L 26.644531 97.316406 L 26.589844 97.351562 L 26.558594 97.371094 L 26.464844 97.433594 L 26.394531 97.484375 L 26.363281 97.503906 L 26.308594 97.539062 L 26.191406 97.617188 L 26.105469 97.671875 L 26.082031 97.6875 L 26.019531 97.730469 L 25.992188 97.75 L 25.929688 97.792969 L 25.824219 97.863281 L 25.820312 97.867188 L 25.738281 97.921875 L 25.707031 97.941406 L 25.652344 97.980469 L 25.621094 98.003906 L 25.5625 98.042969 L 25.535156 98.0625 L 25.453125 98.117188 L 25.433594 98.128906 L 25.367188 98.175781 L 25.339844 98.195312 L 25.28125 98.234375 L 25.25 98.253906 L 25.183594 98.304688 L 25.167969 98.3125 L 25.082031 98.375 L 25.0625 98.390625 L 25 98.433594 L 24.972656 98.453125 L 24.910156 98.496094 L 24.886719 98.511719 L 24.804688 98.570312 L 24.792969 98.578125 L 24.71875 98.632812 L 24.695312 98.648438 L 24.632812 98.691406 L 24.605469 98.710938 L 24.535156 98.761719 L 24.523438 98.769531 L 24.441406 98.832031 L 24.421875 98.84375 L 24.355469 98.890625 L 24.332031 98.910156 L 24.269531 98.953125 L 24.246094 98.972656 L 24.082031 99.089844 L 24.054688 99.113281 L 23.996094 99.152344 L 23.96875 99.175781 L 23.902344 99.222656 L 23.886719 99.234375 L 23.804688 99.296875 L 23.792969 99.304688 L 23.71875 99.359375 L 23.695312 99.375 L 23.632812 99.421875 L 23.613281 99.4375 C 23.554688 99.480469 23.5 99.519531 23.445312 99.566406 L 23.429688 99.574219 L 23.359375 99.625 L 23.339844 99.644531 L 23.269531 99.695312 L 23.257812 99.707031 L 23.171875 99.773438 L 23.167969 99.773438 L 23.085938 99.835938 L 23.070312 99.847656 L 23.003906 99.898438 L 22.90625 99.976562 L 22.902344 99.976562 L 22.816406 100.042969 L 22.804688 100.050781 L 22.734375 100.109375 L 22.714844 100.121094 L 22.648438 100.171875 L 22.628906 100.1875 C 22.574219 100.230469 22.519531 100.277344 22.464844 100.320312 L 22.449219 100.328125 L 22.378906 100.382812 L 22.363281 100.394531 L 22.289062 100.457031 L 22.28125 100.460938 C 22.226562 100.503906 22.167969 100.550781 22.113281 100.59375 L 22.097656 100.605469 L 22.027344 100.664062 L 22.015625 100.671875 C 21.957031 100.71875 21.902344 100.761719 21.847656 100.808594 L 21.835938 100.816406 L 21.761719 100.875 L 21.746094 100.886719 L 21.667969 100.953125 C 21.609375 101 21.554688 101.042969 21.496094 101.089844 L 21.488281 101.097656 L 21.410156 101.164062 L 21.402344 101.167969 C 21.347656 101.214844 21.289062 101.261719 21.234375 101.308594 L 21.226562 101.3125 L 21.152344 101.375 L 21.140625 101.382812 L 21.0625 101.449219 L 21.058594 101.453125 L 20.890625 101.59375 L 20.882812 101.601562 L 20.804688 101.667969 L 20.800781 101.671875 C 20.71875 101.742188 20.632812 101.8125 20.550781 101.882812 L 20.539062 101.894531 L 20.460938 101.960938 C 20.375 102.03125 20.292969 102.105469 20.207031 102.179688 L 20.203125 102.183594 C 20.121094 102.253906 20.035156 102.328125 19.953125 102.402344 L 19.949219 102.40625 L 19.871094 102.472656 L 19.863281 102.480469 C 19.78125 102.550781 19.699219 102.625 19.617188 102.699219 L 19.613281 102.703125 C 19.53125 102.777344 19.445312 102.851562 19.363281 102.925781 C 19.253906 103.027344 19.144531 103.125 19.03125 103.230469 C 15.328125 106.628906 12.078125 110.492188 9.355469 114.71875 C 4.972656 121.515625 6.933594 130.574219 13.726562 134.949219 C 20.523438 139.332031 29.582031 137.371094 33.957031 130.578125 C 33.960938 130.570312 33.964844 130.566406 33.96875 130.558594 C 39.347656 122.152344 48.640625 117.074219 58.621094 117.085938 L 409.894531 117.085938 C 417.644531 117.066406 425.085938 120.140625 430.558594 125.628906 C 436.292969 131.328125 445.558594 131.300781 451.257812 125.570312 C 456.949219 119.847656 456.9375 110.601562 451.226562 104.898438 C 448.160156 101.835938 444.761719 99.125 441.097656 96.8125 L 440.949219 96.71875 C 440.898438 96.6875 440.851562 96.65625 440.804688 96.628906 L 440.796875 96.625 L 440.730469 96.582031 L 440.722656 96.578125 L 440.65625 96.535156 L 440.648438 96.53125 L 440.574219 96.488281 L 440.507812 96.445312 L 440.5 96.441406 L 440.429688 96.398438 L 440.425781 96.394531 L 440.355469 96.351562 L 440.347656 96.347656 L 440.277344 96.304688 L 440.273438 96.300781 L 440.210938 96.265625 L 440.195312 96.253906 L 440.136719 96.21875 L 440.121094 96.210938 L 440.058594 96.171875 L 440.046875 96.164062 L 439.980469 96.125 L 439.972656 96.117188 L 439.910156 96.082031 L 439.894531 96.070312 L 439.832031 96.035156 L 439.820312 96.027344 L 439.757812 95.992188 L 439.742188 95.980469 L 439.679688 95.945312 L 439.667969 95.9375 L 439.53125 95.855469 L 439.515625 95.847656 L 439.453125 95.8125 L 439.4375 95.800781 L 439.375 95.765625 L 439.363281 95.757812 L 439.304688 95.726562 L 439.28125 95.710938 L 439.226562 95.679688 L 439.207031 95.667969 L 439.152344 95.636719 L 439.128906 95.625 L 439.070312 95.589844 L 439.054688 95.582031 L 439 95.546875 L 438.976562 95.535156 L 438.921875 95.503906 L 438.902344 95.492188 L 438.84375 95.460938 L 438.824219 95.445312 L 438.769531 95.417969 L 438.746094 95.402344 L 438.695312 95.375 L 438.667969 95.359375 L 438.617188 95.332031 L 438.59375 95.316406 L 438.539062 95.289062 L 438.515625 95.273438 L 438.457031 95.242188 L 438.441406 95.230469 L 438.382812 95.199219 L 438.359375 95.1875 L 438.304688 95.15625 L 438.285156 95.144531 L 438.230469 95.113281 L 438.207031 95.101562 L 438.152344 95.070312 L 438.128906 95.058594 L 438.074219 95.027344 L 438.050781 95.015625 L 437.996094 94.984375 L 437.976562 94.972656 L 437.921875 94.941406 L 437.898438 94.929688 L 437.839844 94.898438 L 437.820312 94.886719 L 437.765625 94.859375 L 437.742188 94.84375 L 437.6875 94.816406 L 437.667969 94.804688 L 437.609375 94.773438 L 437.589844 94.761719 L 437.53125 94.730469 L 437.511719 94.71875 L 437.453125 94.6875 L 437.375 94.648438 L 437.355469 94.636719 L 437.296875 94.605469 L 437.273438 94.59375 L 437.21875 94.5625 L 437.195312 94.550781 L 437.144531 94.523438 L 437.117188 94.507812 L 437.066406 94.484375 L 437.039062 94.46875 L 436.988281 94.441406 L 436.960938 94.425781 L 436.910156 94.402344 L 436.882812 94.386719 L 436.832031 94.363281 L 436.804688 94.34375 L 436.753906 94.320312 L 436.726562 94.304688 L 436.675781 94.277344 L 436.644531 94.265625 L 436.59375 94.238281 L 436.570312 94.222656 L 436.519531 94.199219 L 436.488281 94.183594 L 436.441406 94.15625 L 436.410156 94.140625 L 436.359375 94.117188 L 436.332031 94.101562 L 436.28125 94.078125 L 436.171875 94.023438 L 436.125 93.996094 L 436.09375 93.980469 L 436.046875 93.96875 L 436.011719 93.953125 L 435.777344 93.835938 L 435.726562 93.8125 L 435.695312 93.796875 L 435.644531 93.769531 L 435.617188 93.757812 L 435.566406 93.730469 L 435.535156 93.714844 L 435.488281 93.695312 L 435.457031 93.679688 L 435.40625 93.65625 L 435.378906 93.640625 L 435.328125 93.617188 L 435.300781 93.601562 L 435.25 93.578125 L 435.214844 93.5625 L 435.171875 93.539062 L 435.136719 93.523438 L 435.058594 93.484375 L 435.011719 93.464844 L 434.976562 93.449219 L 434.929688 93.425781 L 434.894531 93.410156 L 434.847656 93.390625 L 434.738281 93.335938 L 434.6875 93.3125 L 434.660156 93.296875 L 434.609375 93.273438 L 434.574219 93.257812 L 434.527344 93.238281 L 434.496094 93.222656 L 434.445312 93.199219 L 434.363281 93.164062 L 434.335938 93.148438 L 434.285156 93.125 L 434.253906 93.113281 L 434.203125 93.089844 L 434.175781 93.074219 L 434.011719 93.003906 L 433.960938 92.980469 L 433.929688 92.964844 L 433.878906 92.945312 L 433.800781 92.90625 L 433.765625 92.890625 L 433.71875 92.871094 L 433.6875 92.855469 L 433.636719 92.835938 L 433.605469 92.820312 L 433.554688 92.800781 L 433.523438 92.785156 L 433.472656 92.761719 L 433.441406 92.746094 L 433.390625 92.726562 L 433.363281 92.714844 L 433.3125 92.691406 L 433.277344 92.675781 L 433.230469 92.65625 L 433.199219 92.640625 L 433.148438 92.621094 L 433.117188 92.605469 L 433.066406 92.585938 L 433.039062 92.570312 L 432.988281 92.550781 L 432.953125 92.535156 L 432.90625 92.515625 L 432.875 92.5 L 432.824219 92.480469 L 432.792969 92.464844 L 432.738281 92.445312 L 432.710938 92.429688 L 432.660156 92.410156 L 432.628906 92.394531 L 432.578125 92.375 L 432.546875 92.363281 L 432.496094 92.339844 L 432.460938 92.328125 L 432.414062 92.308594 L 432.378906 92.292969 L 432.332031 92.273438 L 432.296875 92.257812 L 432.25 92.238281 L 432.214844 92.222656 L 432.171875 92.207031 L 432.132812 92.191406 L 432.085938 92.171875 L 432.050781 92.15625 L 432.003906 92.136719 L 431.96875 92.125 L 431.921875 92.105469 L 431.886719 92.089844 L 431.835938 92.070312 L 431.800781 92.058594 L 431.753906 92.039062 L 431.71875 92.023438 L 431.671875 92.003906 L 431.636719 91.992188 L 431.585938 91.972656 L 431.554688 91.960938 L 431.503906 91.9375 L 431.46875 91.925781 L 431.421875 91.90625 L 431.386719 91.894531 L 431.339844 91.875 L 431.304688 91.859375 L 431.257812 91.84375 L 431.222656 91.828125 L 431.175781 91.808594 L 431.140625 91.796875 L 431.089844 91.777344 L 431.054688 91.761719 L 431.011719 91.746094 L 430.972656 91.730469 L 430.925781 91.714844 L 430.886719 91.699219 L 430.84375 91.683594 L 430.804688 91.667969 L 430.757812 91.652344 L 430.722656 91.636719 L 430.671875 91.617188 L 430.636719 91.605469 L 430.589844 91.585938 L 430.554688 91.574219 L 430.503906 91.554688 L 430.46875 91.542969 L 430.421875 91.523438 L 430.386719 91.511719 L 430.339844 91.492188 L 430.300781 91.480469 L 430.253906 91.460938 L 430.21875 91.449219 L 430.167969 91.429688 L 430.132812 91.417969 L 430.085938 91.390625 L 430.003906 91.363281 L 429.964844 91.347656 L 429.917969 91.332031 L 429.882812 91.316406 L 429.835938 91.300781 L 429.796875 91.285156 L 429.714844 91.257812 L 429.667969 91.238281 L 429.632812 91.226562 L 429.582031 91.207031 L 429.546875 91.195312 L 429.496094 91.175781 L 429.460938 91.164062 L 429.410156 91.148438 L 429.378906 91.136719 L 429.328125 91.117188 L 429.246094 91.089844 L 429.207031 91.078125 L 429.160156 91.058594 L 429.125 91.046875 L 429.074219 91.03125 L 429.042969 91.019531 L 428.988281 91 L 428.957031 90.988281 L 428.902344 90.972656 L 428.871094 90.960938 L 428.820312 90.941406 L 428.785156 90.933594 L 428.734375 90.914062 L 428.703125 90.902344 L 428.648438 90.882812 L 428.53125 90.84375 L 428.480469 90.828125 L 428.445312 90.816406 L 428.394531 90.800781 L 428.359375 90.789062 L 428.308594 90.773438 L 428.273438 90.761719 L 428.222656 90.742188 L 428.191406 90.734375 L 428.136719 90.714844 L 428.105469 90.707031 L 428.050781 90.6875 L 428.023438 90.679688 L 427.96875 90.660156 L 427.933594 90.652344 L 427.882812 90.632812 L 427.851562 90.625 L 427.796875 90.605469 L 427.765625 90.597656 L 427.710938 90.578125 L 427.683594 90.570312 L 427.625 90.550781 L 427.59375 90.539062 L 427.511719 90.515625 L 427.457031 90.496094 L 427.425781 90.488281 L 427.371094 90.472656 L 427.339844 90.460938 L 427.285156 90.445312 L 427.25 90.433594 L 427.199219 90.417969 L 427.164062 90.410156 L 427.113281 90.394531 L 427.078125 90.382812 L 427.027344 90.367188 L 426.996094 90.355469 L 426.941406 90.339844 L 426.90625 90.328125 L 426.855469 90.3125 L 426.820312 90.304688 L 426.769531 90.289062 L 426.734375 90.277344 L 426.683594 90.261719 L 426.648438 90.25 L 426.597656 90.234375 L 426.5625 90.226562 L 426.507812 90.210938 L 426.480469 90.199219 L 426.421875 90.183594 L 426.390625 90.175781 L 426.335938 90.160156 L 426.304688 90.148438 L 426.25 90.136719 L 426.214844 90.125 L 426.164062 90.109375 L 426.128906 90.101562 L 426.078125 90.085938 L 426.042969 90.074219 L 425.988281 90.058594 L 425.953125 90.050781 L 425.902344 90.035156 L 425.867188 90.023438 L 425.816406 90.011719 L 425.78125 90 L 425.730469 89.984375 L 425.691406 89.976562 L 425.640625 89.960938 L 425.609375 89.953125 L 425.554688 89.9375 L 425.519531 89.929688 L 425.464844 89.914062 L 425.433594 89.902344 L 425.378906 89.890625 L 425.347656 89.878906 L 425.292969 89.863281 L 425.261719 89.855469 L 425.207031 89.84375 L 425.171875 89.832031 L 425.121094 89.820312 L 425.082031 89.808594 L 425.03125 89.796875 L 424.996094 89.785156 L 424.945312 89.773438 L 424.90625 89.761719 L 424.855469 89.75 L 424.820312 89.738281 L 424.769531 89.726562 L 424.734375 89.71875 L 424.679688 89.703125 L 424.644531 89.695312 L 424.59375 89.683594 L 424.558594 89.671875 L 424.507812 89.660156 L 424.46875 89.652344 L 424.417969 89.636719 L 424.382812 89.628906 L 424.332031 89.613281 L 424.292969 89.605469 L 424.246094 89.59375 L 424.160156 89.570312 L 424.113281 89.558594 L 424.070312 89.550781 L 423.941406 89.515625 L 423.894531 89.503906 L 423.855469 89.496094 L 423.804688 89.484375 L 423.765625 89.472656 L 423.71875 89.460938 L 423.679688 89.453125 L 423.628906 89.441406 L 423.589844 89.433594 L 423.542969 89.421875 L 423.503906 89.410156 L 423.453125 89.398438 L 423.414062 89.390625 L 423.367188 89.378906 L 423.328125 89.371094 L 423.277344 89.355469 L 423.238281 89.347656 L 423.191406 89.335938 L 423.148438 89.328125 L 423.101562 89.316406 L 423.058594 89.308594 L 423.015625 89.296875 L 422.972656 89.289062 L 422.925781 89.277344 L 422.882812 89.269531 L 422.835938 89.257812 L 422.796875 89.25 L 422.75 89.238281 L 422.707031 89.226562 L 422.660156 89.21875 L 422.617188 89.210938 L 422.570312 89.199219 L 422.53125 89.191406 L 422.480469 89.179688 L 422.441406 89.171875 L 422.390625 89.160156 L 422.351562 89.152344 L 422.304688 89.140625 L 422.265625 89.132812 L 422.214844 89.121094 L 422.175781 89.113281 L 422.125 89.101562 L 422.089844 89.089844 L 422.039062 89.078125 L 422 89.070312 L 421.949219 89.058594 L 421.914062 89.054688 L 421.859375 89.042969 L 421.824219 89.035156 L 421.769531 89.023438 L 421.738281 89.015625 L 421.640625 88.996094 L 421.59375 88.988281 L 421.554688 88.980469 L 421.503906 88.96875 L 421.460938 88.960938 L 421.414062 88.953125 L 421.375 88.941406 L 421.324219 88.933594 L 421.285156 88.925781 L 421.234375 88.917969 L 421.199219 88.910156 L 421.148438 88.898438 L 421.109375 88.890625 L 421.054688 88.882812 L 421.019531 88.875 L 420.96875 88.863281 L 420.925781 88.855469 L 420.878906 88.847656 L 420.839844 88.839844 L 420.789062 88.832031 L 420.75 88.824219 L 420.699219 88.8125 L 420.660156 88.804688 L 420.609375 88.796875 L 420.566406 88.789062 L 420.519531 88.78125 L 420.480469 88.769531 L 420.429688 88.761719 L 420.390625 88.753906 L 420.339844 88.746094 L 420.300781 88.738281 L 420.25 88.730469 L 420.207031 88.722656 L 420.160156 88.714844 L 420.117188 88.707031 L 420.023438 88.691406 L 419.980469 88.683594 L 419.933594 88.675781 L 419.847656 88.660156 L 419.800781 88.652344 L 419.757812 88.644531 L 419.707031 88.636719 L 419.664062 88.628906 L 419.617188 88.621094 L 419.574219 88.613281 L 419.527344 88.605469 L 419.484375 88.597656 L 419.4375 88.589844 L 419.398438 88.582031 L 419.34375 88.574219 L 419.308594 88.570312 L 419.253906 88.5625 L 419.214844 88.554688 L 419.164062 88.546875 L 419.121094 88.542969 L 419.074219 88.535156 L 419.03125 88.527344 L 418.980469 88.519531 L 418.9375 88.511719 L 418.890625 88.503906 L 418.851562 88.5 L 418.800781 88.492188 L 418.761719 88.484375 L 418.707031 88.476562 L 418.671875 88.46875 L 418.617188 88.460938 L 418.578125 88.457031 L 418.527344 88.449219 L 418.488281 88.445312 L 418.4375 88.433594 L 418.398438 88.429688 L 418.34375 88.421875 L 418.3125 88.417969 L 418.253906 88.410156 L 418.214844 88.40625 L 418.164062 88.398438 L 418.121094 88.390625 L 418.074219 88.386719 L 418.03125 88.378906 L 417.980469 88.371094 L 417.941406 88.367188 L 417.890625 88.359375 L 417.847656 88.355469 L 417.800781 88.347656 L 417.761719 88.34375 L 417.707031 88.335938 L 417.667969 88.332031 L 417.617188 88.324219 L 417.574219 88.320312 L 417.527344 88.3125 L 417.484375 88.308594 L 417.433594 88.300781 L 417.394531 88.296875 L 417.34375 88.289062 L 417.304688 88.285156 L 417.25 88.277344 L 417.210938 88.273438 L 417.160156 88.265625 L 417.117188 88.261719 L 417.066406 88.253906 L 417.027344 88.25 L 416.976562 88.246094 L 416.9375 88.238281 L 416.882812 88.234375 L 416.847656 88.230469 L 416.792969 88.222656 L 416.753906 88.21875 L 416.699219 88.210938 L 416.660156 88.207031 L 416.605469 88.203125 L 416.570312 88.199219 L 416.515625 88.191406 L 416.390625 88.175781 L 416.332031 88.171875 L 416.296875 88.167969 L 416.238281 88.160156 L 416.144531 88.148438 L 416.117188 88.148438 L 416.054688 88.140625 L 416.019531 88.136719 L 415.964844 88.128906 L 415.929688 88.125 L 415.871094 88.121094 L 415.832031 88.117188 L 415.78125 88.113281 L 415.738281 88.109375 L 415.6875 88.101562 L 415.640625 88.097656 L 415.597656 88.09375 L 415.503906 88.085938 L 415.453125 88.082031 L 415.367188 88.074219 L 415.320312 88.070312 L 415.28125 88.066406 L 415.226562 88.0625 L 415.1875 88.058594 L 415.132812 88.054688 L 415.09375 88.050781 L 415.039062 88.046875 L 415.003906 88.042969 L 414.949219 88.039062 L 414.855469 88.03125 L 414.8125 88.027344 L 414.71875 88.019531 L 414.671875 88.011719 L 414.484375 87.996094 L 414.441406 87.996094 L 414.390625 87.992188 L 414.347656 87.988281 L 414.296875 87.984375 L 414.257812 87.980469 L 414.207031 87.976562 L 414.164062 87.972656 L 414.113281 87.96875 L 414.070312 87.964844 L 414.019531 87.960938 L 413.976562 87.960938 L 413.929688 87.957031 L 413.890625 87.953125 L 413.835938 87.949219 L 413.796875 87.949219 L 413.742188 87.945312 L 413.699219 87.941406 L 413.648438 87.9375 L 413.554688 87.929688 L 413.503906 87.925781 L 413.464844 87.925781 L 413.402344 87.921875 L 413.371094 87.917969 L 413.308594 87.917969 L 413.277344 87.914062 L 413.21875 87.910156 L 413.183594 87.910156 L 413.128906 87.90625 L 413.089844 87.90625 L 413.039062 87.902344 L 412.996094 87.898438 L 412.953125 87.898438 L 412.902344 87.894531 L 412.851562 87.894531 L 412.808594 87.890625 L 412.761719 87.886719 L 412.714844 87.886719 L 412.675781 87.882812 L 412.621094 87.882812 L 412.585938 87.878906 L 412.527344 87.878906 L 412.492188 87.875 L 412.429688 87.875 L 412.402344 87.871094 L 412.339844 87.871094 L 412.308594 87.867188 L 412.246094 87.867188 L 412.21875 87.863281 L 412.152344 87.863281 L 412.109375 87.859375 L 412.058594 87.859375 L 412.011719 87.855469 L 411.921875 87.855469 L 411.871094 87.851562 L 411.835938 87.851562 L 411.777344 87.847656 L 411.742188 87.847656 L 411.683594 87.84375 L 411.539062 87.84375 L 411.496094 87.839844 L 411.359375 87.839844 L 411.304688 87.835938 L 411.171875 87.835938 L 411.117188 87.832031 L 410.835938 87.832031 L 410.777344 87.828125 L 410.050781 87.828125 C 410 87.820312 409.949219 87.820312 409.894531 87.816406 Z M 409.894531 87.816406 " style=" stroke:none;fill-rule:nonzero;fill:rgb(100%,84.313725%,0%);fill-opacity:1;" />
<path d="M 409.894531 175.636719 L 117.167969 175.636719 C 101.003906 175.636719 87.894531 188.742188 87.894531 204.910156 L 87.894531 585.453125 C 87.894531 601.621094 101 614.726562 117.167969 614.726562 L 356.375 614.726562 C 371.898438 614.726562 386.792969 608.558594 397.769531 597.582031 L 422.019531 573.332031 C 433 562.351562 439.167969 547.460938 439.167969 531.933594 L 439.167969 204.910156 C 439.167969 188.742188 426.0625 175.636719 409.894531 175.636719 Z M 409.894531 175.636719 " style=" stroke:none;fill-rule:nonzero;fill:rgb(100%,63.921569%,0%);fill-opacity:1;" />
<path d="M 401.320312 506.210938 L 330.652344 576.878906 C 325.160156 582.371094 317.714844 585.453125 309.953125 585.453125 L 87.894531 585.453125 C 71.730469 585.453125 58.625 572.347656 58.625 556.183594 L 58.625 175.636719 C 58.625 159.46875 71.730469 146.363281 87.894531 146.363281 L 380.625 146.363281 C 396.789062 146.363281 409.894531 159.46875 409.894531 175.636719 L 409.894531 485.511719 C 409.894531 493.273438 406.8125 500.722656 401.320312 506.210938 Z M 401.320312 506.210938 " style=" stroke:none;fill-rule:nonzero;fill:rgb(80%,83.137255%,100%);fill-opacity:1;" />
<path d="M 292.804688 468.363281 C 308.972656 468.363281 322.078125 481.46875 322.078125 497.636719 L 322.078125 556.179688 C 322.078125 572.347656 308.972656 585.453125 292.804688 585.453125 C 276.640625 585.453125 263.535156 572.347656 263.535156 556.179688 L 263.535156 497.636719 C 263.53125 481.46875 276.636719 468.363281 292.804688 468.363281 Z M 292.804688 468.363281 " style=" stroke:none;fill-rule:nonzero;fill:rgb(64.313725%,69.411765%,100%);fill-opacity:1;" />
<path d="M 117.167969 146.363281 L 351.351562 146.363281 C 367.515625 146.363281 380.621094 159.46875 380.621094 175.636719 C 380.621094 191.804688 367.515625 204.910156 351.351562 204.910156 L 117.167969 204.910156 C 101 204.910156 87.894531 191.804688 87.894531 175.636719 C 87.894531 159.46875 101 146.363281 117.167969 146.363281 Z M 117.167969 146.363281 " style=" stroke:none;fill-rule:nonzero;fill:rgb(64.313725%,69.411765%,100%);fill-opacity:1;" />
<path d="M 175.714844 292.726562 C 175.714844 308.894531 162.609375 322 146.441406 322 C 130.273438 322 117.167969 308.894531 117.167969 292.726562 C 117.167969 276.5625 130.273438 263.453125 146.441406 263.453125 C 162.609375 263.453125 175.714844 276.5625 175.714844 292.726562 Z M 175.714844 292.726562 " style=" stroke:none;fill-rule:nonzero;fill:rgb(75.686275%,45.882353%,100%);fill-opacity:1;" />
<path d="M 234.257812 263.453125 L 322.078125 263.453125 C 338.246094 263.453125 351.351562 276.558594 351.351562 292.726562 C 351.351562 308.894531 338.246094 322 322.078125 322 L 234.257812 322 C 218.09375 322 204.988281 308.894531 204.988281 292.726562 C 204.988281 276.5625 218.09375 263.453125 234.257812 263.453125 Z M 234.257812 263.453125 " style=" stroke:none;fill-rule:nonzero;fill:rgb(20%,32.156863%,49.019608%);fill-opacity:1;" />
<path d="M 234.257812 351.273438 L 322.078125 351.273438 C 338.246094 351.273438 351.351562 364.378906 351.351562 380.546875 C 351.351562 396.710938 338.246094 409.816406 322.078125 409.816406 L 234.257812 409.816406 C 218.09375 409.816406 204.988281 396.710938 204.988281 380.546875 C 204.988281 364.378906 218.09375 351.273438 234.257812 351.273438 Z M 234.257812 351.273438 " style=" stroke:none;fill-rule:nonzero;fill:rgb(20%,32.156863%,49.019608%);fill-opacity:1;" />
<path d="M 234.257812 439.089844 L 322.078125 439.089844 C 338.246094 439.089844 351.351562 452.195312 351.351562 468.363281 C 351.351562 484.527344 338.246094 497.636719 322.078125 497.636719 L 234.257812 497.636719 C 218.09375 497.636719 204.988281 484.527344 204.988281 468.363281 C 204.988281 452.195312 218.09375 439.089844 234.257812 439.089844 Z M 234.257812 439.089844 " style=" stroke:none;fill-rule:nonzero;fill:rgb(20%,32.156863%,49.019608%);fill-opacity:1;" />
<path d="M 175.714844 380.546875 C 175.714844 396.710938 162.609375 409.816406 146.441406 409.816406 C 130.273438 409.816406 117.167969 396.710938 117.167969 380.546875 C 117.167969 364.378906 130.273438 351.273438 146.441406 351.273438 C 162.609375 351.273438 175.714844 364.378906 175.714844 380.546875 Z M 175.714844 380.546875 " style=" stroke:none;fill-rule:nonzero;fill:rgb(2.745098%,61.176471%,100%);fill-opacity:1;" />
<path d="M 175.714844 468.363281 C 175.714844 484.53125 162.609375 497.636719 146.441406 497.636719 C 130.273438 497.636719 117.167969 484.53125 117.167969 468.363281 C 117.167969 452.195312 130.273438 439.089844 146.441406 439.089844 C 162.609375 439.089844 175.714844 452.195312 175.714844 468.363281 Z M 175.714844 468.363281 " style=" stroke:none;fill-rule:nonzero;fill:rgb(100%,74.509804%,0%);fill-opacity:1;" />
<path d="M 336.714844 87.816406 L 322.078125 87.816406 C 322.078125 39.316406 282.761719 0 234.257812 0 C 185.757812 0 146.441406 39.316406 146.441406 87.816406 L 131.804688 87.816406 C 107.554688 87.816406 87.894531 107.476562 87.894531 131.726562 C 87.894531 155.976562 107.554688 175.636719 131.804688 175.636719 L 336.714844 175.636719 C 360.964844 175.636719 380.625 155.976562 380.625 131.726562 C 380.625 107.476562 360.964844 87.816406 336.714844 87.816406 Z M 234.257812 117.089844 C 218.09375 117.089844 204.984375 103.984375 204.984375 87.816406 C 204.984375 71.652344 218.089844 58.542969 234.257812 58.542969 C 250.425781 58.542969 263.53125 71.648438 263.53125 87.816406 C 263.53125 103.984375 250.425781 117.089844 234.257812 117.089844 Z M 234.257812 117.089844 " style=" stroke:none;fill-rule:nonzero;fill:rgb(49.019608%,56.078431%,67.45098%);fill-opacity:1;" />
<path d="M 276.617188 13.488281 C 268.535156 13.480469 261.976562 20.027344 261.96875 28.113281 C 261.964844 32.855469 264.261719 37.304688 268.125 40.054688 C 283.585938 51.054688 292.777344 68.84375 292.804688 87.820312 C 292.804688 103.984375 305.910156 117.09375 322.078125 117.09375 L 326.140625 117.09375 C 334.226562 117.09375 340.777344 110.539062 340.777344 102.457031 C 340.777344 94.375 334.226562 87.820312 326.140625 87.820312 L 322.078125 87.820312 L 322.078125 87.101562 L 322.074219 86.984375 L 322.074219 86.671875 L 322.070312 86.558594 L 322.070312 86.390625 L 322.066406 86.265625 L 322.066406 86.109375 L 322.0625 85.992188 L 322.0625 85.835938 L 322.058594 85.714844 L 322.058594 85.683594 L 322.054688 85.566406 L 322.050781 85.539062 L 322.050781 85.414062 L 322.046875 85.289062 L 322.046875 85.261719 L 322.042969 85.136719 L 322.042969 85.121094 L 322.039062 85 L 322.039062 84.988281 L 322.035156 84.859375 L 322.03125 84.839844 L 322.027344 84.710938 L 322.027344 84.703125 L 322.023438 84.582031 L 322.023438 84.5625 L 322.019531 84.441406 L 322.019531 84.414062 L 322.011719 84.289062 L 322.011719 84.285156 L 322.007812 84.160156 L 322.007812 84.136719 L 322 84.015625 L 322 83.996094 L 321.996094 83.875 L 321.996094 83.863281 L 321.988281 83.738281 L 321.988281 83.714844 L 321.984375 83.59375 L 321.980469 83.570312 L 321.976562 83.457031 L 321.976562 83.441406 L 321.96875 83.320312 L 321.96875 83.289062 L 321.960938 83.171875 L 321.960938 83.152344 L 321.953125 83.035156 L 321.953125 83.019531 L 321.945312 82.894531 L 321.945312 82.871094 L 321.9375 82.746094 L 321.9375 82.738281 L 321.933594 82.613281 L 321.929688 82.59375 L 321.921875 82.46875 L 321.921875 82.449219 L 321.90625 82.195312 L 321.902344 82.171875 L 321.894531 82.050781 L 321.894531 82.027344 L 321.886719 81.910156 L 321.882812 81.898438 L 321.875 81.773438 L 321.875 81.75 L 321.867188 81.628906 L 321.867188 81.609375 L 321.859375 81.496094 L 321.855469 81.476562 L 321.847656 81.359375 L 321.847656 81.328125 L 321.835938 81.207031 L 321.835938 81.1875 L 321.828125 81.082031 L 321.824219 81.054688 L 321.816406 80.9375 L 321.816406 80.910156 L 321.804688 80.789062 L 321.804688 80.777344 L 321.792969 80.664062 L 321.792969 80.636719 L 321.78125 80.519531 L 321.78125 80.492188 L 321.773438 80.378906 L 321.769531 80.367188 L 321.761719 80.246094 L 321.757812 80.21875 L 321.75 80.097656 L 321.746094 80.078125 L 321.738281 79.96875 L 321.734375 79.945312 L 321.722656 79.828125 L 321.722656 79.800781 L 321.710938 79.679688 L 321.707031 79.664062 L 321.699219 79.546875 L 321.695312 79.53125 L 321.683594 79.410156 L 321.683594 79.382812 L 321.667969 79.261719 L 321.667969 79.25 L 321.65625 79.136719 L 321.65625 79.113281 L 321.644531 78.996094 L 321.640625 78.964844 L 321.628906 78.855469 L 321.625 78.832031 L 321.613281 78.722656 L 321.613281 78.695312 L 321.601562 78.578125 L 321.597656 78.550781 L 321.585938 78.4375 L 321.582031 78.425781 L 321.570312 78.308594 L 321.566406 78.277344 L 321.554688 78.160156 L 321.554688 78.140625 L 321.539062 78.03125 L 321.539062 78.007812 L 321.527344 77.890625 L 321.523438 77.863281 L 321.511719 77.746094 L 321.507812 77.722656 L 321.496094 77.617188 L 321.492188 77.59375 L 321.476562 77.476562 L 321.476562 77.449219 L 321.460938 77.328125 L 321.460938 77.320312 L 321.445312 77.207031 L 321.441406 77.175781 L 321.429688 77.058594 L 321.425781 77.035156 L 321.410156 76.914062 L 321.410156 76.910156 L 321.394531 76.792969 L 321.390625 76.761719 L 321.378906 76.648438 L 321.375 76.617188 L 321.359375 76.515625 L 321.359375 76.496094 L 321.34375 76.378906 L 321.339844 76.347656 L 321.324219 76.234375 L 321.320312 76.207031 L 321.308594 76.109375 L 321.304688 76.078125 L 321.289062 75.964844 L 321.285156 75.933594 L 321.269531 75.820312 L 321.265625 75.796875 L 321.253906 75.695312 L 321.25 75.667969 L 321.234375 75.554688 L 321.230469 75.523438 L 321.214844 75.40625 L 321.210938 75.394531 L 321.191406 75.257812 L 321.175781 75.144531 L 321.171875 75.109375 L 321.15625 75.015625 L 321.152344 74.980469 L 321.136719 74.878906 L 321.132812 74.839844 L 321.117188 74.734375 L 321.109375 74.695312 L 321.097656 74.605469 L 321.078125 74.46875 L 321.070312 74.429688 L 321.050781 74.292969 L 321.035156 74.195312 L 321.03125 74.164062 L 321.011719 74.054688 L 321.007812 74.019531 L 320.988281 73.910156 L 320.984375 73.882812 L 320.972656 73.792969 L 320.964844 73.753906 L 320.949219 73.648438 L 320.941406 73.613281 L 320.925781 73.511719 L 320.921875 73.480469 L 320.90625 73.382812 L 320.898438 73.34375 L 320.878906 73.234375 L 320.875 73.207031 L 320.859375 73.105469 L 320.855469 73.082031 L 320.835938 72.96875 L 320.832031 72.941406 L 320.8125 72.828125 L 320.808594 72.796875 L 320.792969 72.703125 L 320.785156 72.671875 L 320.765625 72.566406 L 320.761719 72.527344 L 320.742188 72.417969 L 320.734375 72.386719 L 320.71875 72.300781 L 320.714844 72.261719 L 320.695312 72.15625 L 320.6875 72.117188 L 320.671875 72.023438 L 320.664062 71.980469 L 320.648438 71.890625 L 320.640625 71.855469 L 320.621094 71.75 L 320.613281 71.710938 L 320.597656 71.613281 L 320.59375 71.589844 L 320.570312 71.484375 L 320.566406 71.445312 L 320.546875 71.34375 L 320.539062 71.304688 L 320.523438 71.222656 L 320.511719 71.171875 L 320.496094 71.082031 L 320.488281 71.039062 L 320.46875 70.9375 L 320.445312 70.820312 L 320.4375 70.777344 L 320.417969 70.679688 L 320.410156 70.632812 L 320.390625 70.546875 L 320.378906 70.492188 L 320.367188 70.417969 L 320.355469 70.371094 L 320.335938 70.273438 L 320.328125 70.230469 L 320.3125 70.152344 L 320.296875 70.085938 L 320.285156 70.015625 L 320.273438 69.96875 L 320.253906 69.871094 L 320.246094 69.828125 L 320.226562 69.746094 L 320.21875 69.699219 L 320.199219 69.609375 L 320.191406 69.566406 L 320.167969 69.464844 L 320.160156 69.429688 L 320.140625 69.34375 L 320.125 69.308594 L 320.101562 69.203125 L 320.09375 69.164062 L 320.070312 69.058594 L 320.0625 69.027344 L 320.042969 68.9375 L 320.039062 68.90625 L 320.015625 68.800781 L 320.003906 68.761719 L 319.980469 68.65625 L 319.976562 68.628906 L 319.957031 68.542969 L 319.949219 68.5 L 319.925781 68.398438 L 319.917969 68.359375 L 319.898438 68.277344 L 319.886719 68.222656 L 319.867188 68.144531 L 319.859375 68.097656 L 319.835938 68 L 319.824219 67.957031 L 319.804688 67.878906 L 319.796875 67.839844 L 319.773438 67.742188 L 319.765625 67.703125 L 319.734375 67.5625 L 319.714844 67.484375 L 319.703125 67.441406 L 319.679688 67.339844 L 319.667969 67.300781 L 319.644531 67.199219 L 319.636719 67.164062 L 319.617188 67.082031 L 319.609375 67.042969 L 319.582031 66.945312 L 319.570312 66.898438 L 319.550781 66.816406 L 319.539062 66.769531 L 319.519531 66.683594 L 319.507812 66.644531 L 319.484375 66.542969 L 319.472656 66.507812 L 319.449219 66.417969 L 319.441406 66.382812 L 319.417969 66.285156 L 319.410156 66.25 L 319.382812 66.148438 L 319.375 66.105469 L 319.355469 66.03125 L 319.339844 65.980469 L 319.320312 65.894531 L 319.308594 65.847656 L 319.28125 65.75 L 319.273438 65.710938 L 319.253906 65.636719 L 319.242188 65.597656 L 319.214844 65.5 L 319.203125 65.453125 L 319.179688 65.363281 L 319.167969 65.316406 L 319.148438 65.242188 L 319.136719 65.199219 L 319.113281 65.101562 L 319.101562 65.058594 L 319.078125 64.980469 L 319.0625 64.925781 L 319.03125 64.800781 L 319.003906 64.707031 L 318.992188 64.664062 L 318.972656 64.589844 L 318.957031 64.539062 L 318.921875 64.410156 L 318.894531 64.3125 L 318.882812 64.269531 L 318.863281 64.199219 L 318.851562 64.15625 L 318.824219 64.0625 L 318.8125 64.015625 L 318.785156 63.917969 L 318.773438 63.882812 L 318.753906 63.808594 L 318.742188 63.761719 L 318.714844 63.667969 L 318.699219 63.621094 L 318.679688 63.546875 L 318.664062 63.488281 L 318.644531 63.417969 L 318.628906 63.371094 L 318.601562 63.277344 L 318.585938 63.230469 L 318.566406 63.152344 L 318.550781 63.101562 L 318.527344 63.023438 L 318.515625 62.976562 L 318.484375 62.882812 L 318.472656 62.839844 L 318.453125 62.773438 L 318.433594 62.710938 L 318.414062 62.632812 L 318.398438 62.589844 L 318.371094 62.496094 L 318.355469 62.445312 L 318.335938 62.382812 L 318.296875 62.246094 L 318.277344 62.195312 L 318.257812 62.121094 L 318.21875 61.996094 L 318.203125 61.945312 L 318.175781 61.855469 L 318.160156 61.804688 L 318.113281 61.664062 L 318.097656 61.605469 L 318.082031 61.554688 L 318.054688 61.464844 L 318.035156 61.414062 L 318.015625 61.347656 L 317.996094 61.292969 L 317.972656 61.21875 L 317.957031 61.167969 L 317.929688 61.078125 L 317.914062 61.03125 L 317.894531 60.964844 L 317.875 60.902344 L 317.851562 60.832031 L 317.835938 60.777344 L 317.808594 60.703125 L 317.789062 60.636719 L 317.773438 60.585938 L 317.726562 60.445312 L 317.710938 60.390625 L 317.6875 60.328125 L 317.664062 60.253906 L 317.644531 60.195312 L 317.625 60.144531 L 317.597656 60.054688 L 317.582031 60.007812 L 317.558594 59.945312 L 317.53125 59.867188 L 317.515625 59.8125 L 317.496094 59.757812 L 317.449219 59.617188 L 317.429688 59.566406 L 317.402344 59.488281 L 317.382812 59.425781 L 317.367188 59.375 L 317.335938 59.292969 L 317.316406 59.234375 L 317.300781 59.179688 L 317.277344 59.113281 L 317.25 59.042969 L 317.234375 58.992188 L 317.207031 58.914062 L 317.1875 58.859375 L 317.164062 58.792969 L 317.148438 58.746094 L 317.121094 58.660156 L 317.082031 58.550781 L 317.050781 58.46875 L 317.035156 58.417969 L 317.011719 58.363281 L 316.964844 58.222656 L 316.945312 58.171875 L 316.914062 58.085938 L 316.894531 58.035156 L 316.847656 57.894531 L 316.824219 57.835938 L 316.808594 57.792969 L 316.773438 57.695312 L 316.757812 57.65625 L 316.738281 57.59375 L 316.71875 57.542969 L 316.6875 57.457031 L 316.667969 57.410156 L 316.640625 57.328125 L 316.617188 57.269531 L 316.59375 57.214844 L 316.578125 57.171875 L 316.542969 57.074219 L 316.527344 57.03125 L 316.507812 56.972656 L 316.453125 56.835938 L 316.4375 56.789062 L 316.402344 56.695312 L 316.382812 56.652344 L 316.363281 56.59375 L 316.332031 56.511719 L 316.3125 56.457031 L 316.289062 56.40625 L 316.257812 56.324219 L 316.238281 56.273438 L 316.21875 56.21875 L 316.195312 56.164062 L 316.164062 56.078125 L 316.144531 56.035156 L 316.109375 55.9375 L 316.09375 55.898438 L 316.066406 55.835938 L 316.054688 55.804688 L 316.015625 55.695312 L 316 55.664062 L 315.949219 55.53125 L 315.945312 55.527344 L 315.917969 55.460938 L 315.90625 55.425781 L 315.863281 55.320312 L 315.851562 55.285156 L 315.804688 55.167969 L 315.792969 55.144531 L 315.765625 55.078125 L 315.757812 55.054688 L 315.710938 54.9375 L 315.699219 54.914062 L 315.617188 54.703125 L 315.605469 54.679688 L 315.558594 54.5625 L 315.546875 54.535156 L 315.519531 54.46875 L 315.511719 54.453125 L 315.460938 54.328125 L 315.449219 54.300781 L 315.398438 54.175781 L 315.394531 54.164062 L 315.363281 54.09375 L 315.308594 53.957031 L 315.296875 53.925781 C 315.265625 53.859375 315.234375 53.785156 315.207031 53.71875 L 315.203125 53.707031 L 315.144531 53.570312 L 315.140625 53.5625 L 315.050781 53.347656 L 315.042969 53.324219 L 314.988281 53.203125 L 314.980469 53.1875 L 314.890625 52.976562 L 314.882812 52.957031 L 314.828125 52.828125 L 314.820312 52.8125 L 314.792969 52.746094 L 314.785156 52.726562 L 314.730469 52.601562 L 314.722656 52.585938 L 314.628906 52.371094 L 314.625 52.363281 L 314.566406 52.230469 L 314.558594 52.214844 L 314.464844 52.003906 L 314.457031 51.984375 L 314.402344 51.863281 L 314.394531 51.84375 L 314.300781 51.632812 L 314.292969 51.613281 L 314.238281 51.496094 L 314.226562 51.472656 L 314.132812 51.265625 L 314.125 51.246094 L 314.0625 51.117188 L 314.058594 51.109375 L 314.027344 51.039062 L 314.023438 51.027344 L 313.960938 50.898438 L 313.953125 50.882812 L 313.855469 50.671875 L 313.851562 50.664062 L 313.789062 50.527344 L 313.785156 50.519531 L 313.683594 50.304688 L 313.679688 50.300781 L 313.613281 50.160156 L 313.613281 50.152344 C 313.578125 50.082031 313.542969 50.011719 313.511719 49.941406 L 313.503906 49.929688 L 313.4375 49.789062 C 313.402344 49.714844 313.367188 49.644531 313.332031 49.570312 L 313.328125 49.566406 L 313.222656 49.351562 L 313.222656 49.347656 L 313.160156 49.214844 L 313.148438 49.195312 C 313.113281 49.125 313.082031 49.058594 313.046875 48.988281 L 313.039062 48.976562 L 312.976562 48.851562 L 312.972656 48.835938 L 312.867188 48.628906 L 312.859375 48.609375 L 312.796875 48.484375 L 312.789062 48.476562 C 312.753906 48.40625 312.71875 48.335938 312.683594 48.265625 L 312.679688 48.253906 L 312.609375 48.117188 L 312.570312 48.039062 L 312.5 47.90625 L 312.496094 47.894531 C 312.4375 47.777344 312.375 47.660156 312.316406 47.542969 L 312.3125 47.535156 L 312.203125 47.324219 L 312.199219 47.320312 L 312.128906 47.1875 L 312.125 47.171875 L 312.015625 46.964844 L 312.011719 46.957031 L 311.941406 46.820312 L 311.9375 46.816406 C 311.902344 46.746094 311.867188 46.679688 311.828125 46.609375 L 311.820312 46.597656 C 311.757812 46.480469 311.695312 46.363281 311.632812 46.246094 C 311.339844 45.703125 311.042969 45.160156 310.738281 44.621094 L 310.734375 44.617188 C 304.367188 33.378906 295.613281 23.679688 285.085938 16.195312 C 282.613281 14.433594 279.652344 13.484375 276.617188 13.488281 Z M 276.617188 13.488281 " style=" stroke:none;fill-rule:nonzero;fill:rgb(36.862745%,45.882353%,60%);fill-opacity:1;" />
<path d="M 365.929688 118.710938 C 358.160156 118.71875 351.75 124.796875 351.328125 132.558594 C 350.898438 140.308594 344.480469 146.375 336.714844 146.363281 L 131.804688 146.363281 C 123.722656 146.371094 117.175781 152.933594 117.183594 161.015625 C 117.191406 169.085938 123.734375 175.628906 131.804688 175.636719 L 337.585938 175.636719 L 337.621094 175.632812 L 337.792969 175.632812 L 337.832031 175.628906 L 337.933594 175.628906 L 337.96875 175.625 L 338.074219 175.625 L 338.109375 175.621094 L 338.210938 175.621094 L 338.246094 175.617188 L 338.347656 175.617188 L 338.386719 175.613281 L 338.488281 175.613281 L 338.527344 175.609375 L 338.558594 175.609375 L 338.605469 175.605469 L 338.667969 175.605469 L 338.710938 175.601562 L 338.835938 175.597656 L 338.839844 175.597656 L 338.90625 175.59375 L 338.910156 175.59375 L 338.972656 175.589844 L 339.007812 175.589844 L 339.042969 175.585938 L 339.074219 175.585938 L 339.109375 175.582031 L 339.179688 175.582031 L 339.207031 175.578125 L 339.246094 175.578125 L 339.28125 175.574219 L 339.320312 175.574219 L 339.347656 175.570312 L 339.386719 175.570312 L 339.417969 175.566406 L 339.453125 175.5625 L 339.488281 175.5625 L 339.523438 175.558594 L 339.558594 175.558594 L 339.589844 175.554688 L 339.625 175.554688 L 339.660156 175.550781 L 339.695312 175.550781 L 339.730469 175.546875 L 339.765625 175.546875 L 339.796875 175.542969 L 339.832031 175.539062 L 339.867188 175.539062 L 339.902344 175.535156 L 339.9375 175.535156 L 339.96875 175.53125 L 340.007812 175.527344 L 340.035156 175.527344 L 340.074219 175.523438 L 340.105469 175.519531 L 340.144531 175.515625 L 340.171875 175.515625 L 340.214844 175.511719 L 340.242188 175.511719 L 340.28125 175.507812 L 340.3125 175.503906 L 340.347656 175.5 L 340.378906 175.5 L 340.421875 175.496094 L 340.449219 175.492188 L 340.492188 175.488281 L 340.515625 175.488281 L 340.566406 175.480469 L 340.585938 175.480469 L 340.632812 175.476562 L 340.652344 175.472656 C 340.722656 175.46875 340.789062 175.460938 340.859375 175.457031 L 340.863281 175.457031 L 340.925781 175.449219 L 340.941406 175.449219 L 340.996094 175.445312 L 341.007812 175.441406 L 341.066406 175.4375 L 341.082031 175.433594 L 341.132812 175.429688 L 341.15625 175.425781 L 341.199219 175.421875 L 341.230469 175.421875 L 341.269531 175.417969 L 341.296875 175.414062 L 341.335938 175.410156 L 341.367188 175.40625 L 341.40625 175.402344 L 341.433594 175.398438 L 341.472656 175.394531 L 341.5 175.390625 L 341.542969 175.386719 L 341.5625 175.386719 L 341.613281 175.382812 L 341.632812 175.378906 L 341.679688 175.375 L 341.703125 175.371094 L 341.746094 175.367188 L 341.773438 175.363281 L 341.816406 175.359375 L 341.839844 175.355469 L 341.882812 175.351562 L 341.90625 175.347656 L 341.953125 175.34375 L 341.972656 175.339844 L 342.019531 175.335938 L 342.042969 175.332031 L 342.089844 175.328125 L 342.109375 175.324219 L 342.160156 175.320312 L 342.179688 175.316406 L 342.226562 175.308594 L 342.246094 175.304688 L 342.289062 175.300781 L 342.316406 175.296875 L 342.363281 175.292969 L 342.382812 175.289062 L 342.429688 175.28125 L 342.449219 175.28125 L 342.5 175.273438 L 342.519531 175.273438 L 342.570312 175.265625 L 342.585938 175.261719 C 342.675781 175.25 342.765625 175.238281 342.859375 175.222656 C 342.90625 175.21875 342.949219 175.210938 342.992188 175.207031 L 343 175.203125 L 343.0625 175.195312 L 343.070312 175.195312 L 343.128906 175.1875 L 343.140625 175.183594 L 343.199219 175.175781 L 343.203125 175.175781 L 343.261719 175.167969 L 343.277344 175.164062 L 343.332031 175.15625 L 343.347656 175.15625 L 343.398438 175.148438 L 343.417969 175.144531 L 343.464844 175.136719 L 343.484375 175.132812 L 343.53125 175.125 L 343.550781 175.125 L 343.601562 175.117188 L 343.621094 175.113281 L 343.667969 175.105469 L 343.6875 175.101562 L 343.738281 175.09375 L 343.753906 175.089844 L 343.800781 175.082031 L 343.820312 175.078125 L 343.871094 175.070312 L 343.886719 175.070312 L 343.933594 175.0625 L 343.957031 175.054688 L 344.003906 175.046875 L 344.023438 175.046875 L 344.070312 175.039062 L 344.089844 175.035156 L 344.140625 175.027344 L 344.15625 175.023438 L 344.210938 175.015625 L 344.222656 175.011719 L 344.285156 175 L 344.289062 175 L 344.347656 174.992188 L 344.355469 174.988281 L 344.421875 174.976562 L 344.484375 174.964844 L 344.488281 174.964844 L 344.554688 174.953125 C 344.734375 174.921875 344.917969 174.886719 345.09375 174.851562 L 345.160156 174.839844 L 345.164062 174.839844 L 345.226562 174.828125 L 345.230469 174.828125 L 345.292969 174.8125 L 345.300781 174.8125 L 345.359375 174.800781 L 345.367188 174.796875 L 345.425781 174.789062 L 345.4375 174.785156 L 345.492188 174.773438 L 345.507812 174.769531 L 345.558594 174.757812 L 345.574219 174.753906 L 345.625 174.746094 L 345.640625 174.742188 L 345.691406 174.730469 L 345.707031 174.730469 L 345.761719 174.71875 L 345.773438 174.714844 L 345.824219 174.703125 L 345.839844 174.699219 L 345.894531 174.691406 L 345.90625 174.6875 L 345.960938 174.675781 L 345.972656 174.671875 L 346.027344 174.660156 L 346.039062 174.65625 L 346.09375 174.644531 L 346.105469 174.644531 L 346.160156 174.628906 L 346.167969 174.628906 L 346.230469 174.617188 L 346.234375 174.613281 C 346.546875 174.546875 346.851562 174.476562 347.164062 174.398438 L 347.167969 174.398438 L 347.230469 174.382812 L 347.296875 174.367188 L 347.425781 174.335938 L 347.433594 174.332031 L 347.492188 174.320312 L 347.5 174.316406 L 347.554688 174.304688 L 347.566406 174.300781 L 347.621094 174.285156 L 347.628906 174.285156 L 347.6875 174.269531 L 347.695312 174.265625 L 347.753906 174.25 L 347.761719 174.25 L 347.820312 174.234375 L 347.824219 174.234375 L 347.886719 174.21875 L 347.890625 174.214844 L 347.953125 174.199219 C 348.566406 174.035156 349.171875 173.863281 349.773438 173.675781 L 349.777344 173.675781 C 367.292969 168.210938 379.570312 152.433594 380.5625 134.109375 C 380.976562 126.054688 374.792969 119.179688 366.738281 118.746094 C 366.46875 118.730469 366.199219 118.726562 365.933594 118.726562 Z M 365.929688 118.710938 " style=" stroke:none;fill-rule:nonzero;fill:rgb(36.862745%,45.882353%,60%);fill-opacity:1;" />
<path d="M 322.078125 468.363281 L 380.625 468.363281 C 396.789062 468.363281 409.894531 481.46875 409.894531 497.636719 L 409.894531 514.785156 C 409.894531 522.546875 406.8125 529.992188 401.320312 535.484375 L 359.921875 576.882812 C 354.433594 582.371094 346.988281 585.457031 339.222656 585.457031 L 322.078125 585.457031 C 305.910156 585.457031 292.804688 572.351562 292.804688 556.183594 L 292.804688 497.636719 C 292.804688 481.46875 305.910156 468.363281 322.078125 468.363281 Z M 322.078125 468.363281 " style=" stroke:none;fill-rule:nonzero;fill:rgb(87.45098%,89.803922%,100%);fill-opacity:1;" />
<path d="M 131.804688 117.089844 L 161.078125 117.089844 C 169.160156 117.089844 175.714844 123.644531 175.714844 131.726562 C 175.714844 139.808594 169.160156 146.363281 161.078125 146.363281 L 131.804688 146.363281 C 123.722656 146.363281 117.167969 139.808594 117.167969 131.726562 C 117.167969 123.644531 123.722656 117.089844 131.804688 117.089844 Z M 131.804688 117.089844 " style=" stroke:none;fill-rule:nonzero;fill:rgb(80.392157%,83.137255%,87.45098%);fill-opacity:1;" />
<path d="M 234.257812 29.273438 L 233.335938 29.273438 L 233.289062 29.277344 L 233.105469 29.277344 L 233.058594 29.28125 L 232.964844 29.28125 L 232.921875 29.285156 L 232.78125 29.285156 L 232.734375 29.289062 L 232.59375 29.289062 L 232.550781 29.292969 L 232.417969 29.292969 L 232.367188 29.296875 L 232.277344 29.296875 L 232.234375 29.300781 L 232.15625 29.300781 L 232.09375 29.304688 L 232.054688 29.304688 L 232.003906 29.308594 L 231.953125 29.308594 L 231.910156 29.3125 L 231.867188 29.3125 L 231.816406 29.316406 L 231.777344 29.316406 L 231.726562 29.320312 L 231.683594 29.320312 L 231.636719 29.324219 L 231.589844 29.324219 L 231.542969 29.328125 L 231.5 29.328125 L 231.449219 29.332031 L 231.410156 29.332031 L 231.359375 29.335938 L 231.316406 29.335938 L 231.222656 29.34375 L 231.175781 29.34375 L 231.132812 29.347656 L 231.085938 29.347656 L 231.042969 29.351562 L 230.992188 29.355469 L 230.949219 29.355469 L 230.902344 29.359375 L 230.859375 29.363281 L 230.808594 29.363281 L 230.769531 29.367188 L 230.71875 29.371094 L 230.679688 29.375 L 230.628906 29.378906 L 230.585938 29.378906 L 230.542969 29.382812 L 230.492188 29.386719 L 230.453125 29.386719 L 230.402344 29.390625 L 230.359375 29.394531 L 230.308594 29.398438 L 230.265625 29.402344 L 230.21875 29.402344 L 230.167969 29.40625 L 230.109375 29.410156 L 230.039062 29.417969 L 230.003906 29.417969 L 229.949219 29.421875 L 229.90625 29.425781 L 229.859375 29.429688 L 229.808594 29.433594 L 229.769531 29.4375 L 229.71875 29.441406 L 229.632812 29.449219 L 229.539062 29.457031 L 229.496094 29.460938 L 229.449219 29.464844 L 229.40625 29.46875 L 229.3125 29.476562 L 229.269531 29.480469 L 229.175781 29.488281 L 229.132812 29.492188 L 229.085938 29.496094 L 229.042969 29.5 L 228.992188 29.503906 L 228.953125 29.507812 L 228.8125 29.519531 L 228.726562 29.527344 L 228.585938 29.539062 L 228.542969 29.542969 L 228.496094 29.550781 L 228.453125 29.554688 L 228.414062 29.558594 L 228.359375 29.5625 L 228.328125 29.566406 L 228.269531 29.570312 L 228.257812 29.570312 L 228.179688 29.582031 L 228.160156 29.582031 C 228.058594 29.59375 227.957031 29.601562 227.851562 29.613281 L 227.769531 29.625 L 227.734375 29.628906 L 227.679688 29.632812 L 227.644531 29.636719 L 227.589844 29.644531 L 227.554688 29.648438 L 227.503906 29.652344 L 227.460938 29.660156 L 227.375 29.667969 L 227.328125 29.675781 L 227.285156 29.679688 L 227.238281 29.683594 L 227.191406 29.691406 L 227.148438 29.695312 L 227.101562 29.699219 L 227.058594 29.707031 L 227.011719 29.710938 L 226.96875 29.71875 L 226.925781 29.722656 L 226.875 29.726562 L 226.839844 29.734375 L 226.789062 29.738281 L 226.746094 29.746094 L 226.699219 29.75 L 226.65625 29.757812 L 226.609375 29.761719 L 226.570312 29.765625 L 226.519531 29.773438 L 226.480469 29.777344 L 226.429688 29.785156 L 226.390625 29.789062 L 226.34375 29.796875 L 226.300781 29.800781 L 226.253906 29.808594 L 226.21875 29.8125 L 226.164062 29.820312 L 226.144531 29.824219 C 226.070312 29.832031 225.996094 29.84375 225.921875 29.855469 L 225.898438 29.859375 L 225.84375 29.867188 L 225.808594 29.871094 L 225.757812 29.878906 L 225.71875 29.882812 L 225.667969 29.890625 L 225.632812 29.898438 L 225.578125 29.90625 L 225.542969 29.910156 L 225.488281 29.917969 L 225.453125 29.921875 L 225.398438 29.929688 L 225.367188 29.9375 L 225.308594 29.945312 L 225.277344 29.949219 L 225.222656 29.957031 L 225.191406 29.960938 L 225.136719 29.96875 L 225.101562 29.976562 L 225.050781 29.984375 L 225.011719 29.988281 L 224.960938 29.996094 L 224.925781 30.003906 L 224.871094 30.011719 L 224.835938 30.015625 L 224.78125 30.023438 L 224.75 30.03125 L 224.691406 30.039062 L 224.660156 30.042969 L 224.601562 30.054688 L 224.519531 30.066406 L 224.484375 30.074219 L 224.429688 30.082031 L 224.398438 30.089844 L 224.34375 30.097656 L 224.308594 30.101562 L 224.25 30.113281 L 224.238281 30.113281 L 224.164062 30.128906 L 224.15625 30.128906 C 224.019531 30.152344 223.882812 30.175781 223.746094 30.203125 L 223.730469 30.203125 L 223.671875 30.214844 L 223.640625 30.222656 L 223.578125 30.230469 L 223.554688 30.234375 L 223.496094 30.246094 L 223.464844 30.253906 L 223.410156 30.265625 L 223.378906 30.269531 L 223.324219 30.28125 L 223.292969 30.285156 L 223.234375 30.296875 L 223.207031 30.300781 L 223.148438 30.3125 L 223.117188 30.320312 L 223.0625 30.328125 L 223.03125 30.335938 L 222.976562 30.347656 L 222.941406 30.351562 L 222.886719 30.363281 L 222.855469 30.367188 L 222.800781 30.378906 L 222.769531 30.386719 L 222.710938 30.398438 L 222.6875 30.402344 L 222.625 30.414062 L 222.601562 30.417969 L 222.535156 30.433594 L 222.523438 30.433594 L 222.449219 30.449219 L 222.441406 30.449219 C 222.1875 30.503906 221.9375 30.554688 221.6875 30.609375 L 221.679688 30.613281 L 221.613281 30.625 L 221.589844 30.632812 L 221.527344 30.644531 L 221.503906 30.652344 L 221.441406 30.664062 L 221.417969 30.667969 L 221.355469 30.683594 L 221.332031 30.6875 L 221.269531 30.703125 L 221.246094 30.707031 L 221.183594 30.722656 L 221.160156 30.726562 L 221.097656 30.742188 L 221.078125 30.746094 L 221.011719 30.761719 L 220.988281 30.765625 L 220.925781 30.78125 L 220.902344 30.785156 L 220.839844 30.800781 L 220.820312 30.804688 L 220.753906 30.820312 L 220.734375 30.824219 L 220.667969 30.839844 L 220.648438 30.847656 L 220.585938 30.863281 L 220.5625 30.867188 L 220.484375 30.886719 L 220.414062 30.902344 L 220.402344 30.90625 C 220.125 30.972656 219.851562 31.042969 219.574219 31.113281 L 219.566406 31.113281 L 219.488281 31.136719 L 219.484375 31.136719 L 219.40625 31.15625 L 219.398438 31.160156 L 219.324219 31.179688 L 219.316406 31.179688 L 219.242188 31.199219 L 219.226562 31.203125 L 219.15625 31.222656 L 219.144531 31.226562 L 219.070312 31.246094 L 219.0625 31.25 L 218.988281 31.269531 L 218.976562 31.273438 L 218.90625 31.292969 L 218.894531 31.296875 L 218.820312 31.316406 L 218.8125 31.320312 L 218.734375 31.339844 L 218.730469 31.339844 C 218.34375 31.449219 217.960938 31.558594 217.578125 31.671875 L 217.570312 31.671875 L 217.492188 31.695312 L 217.488281 31.699219 L 217.414062 31.71875 L 217.402344 31.722656 L 217.328125 31.746094 L 217.320312 31.746094 L 217.246094 31.769531 L 217.238281 31.773438 L 217.160156 31.796875 L 217.078125 31.820312 L 217.074219 31.824219 C 216.472656 32.007812 215.875 32.203125 215.28125 32.40625 L 215.277344 32.40625 L 215.199219 32.433594 L 215.035156 32.488281 L 214.957031 32.515625 L 214.953125 32.519531 C 203.820312 36.417969 194.121094 43.585938 187.125 53.082031 C 186.792969 53.53125 186.464844 53.988281 186.144531 54.449219 C 185.839844 54.890625 185.542969 55.332031 185.25 55.777344 L 185.25 55.78125 L 185.207031 55.84375 L 185.199219 55.851562 L 185.160156 55.914062 L 185.15625 55.921875 L 185.113281 55.984375 L 185.066406 56.054688 L 185.0625 56.066406 L 185.015625 56.136719 L 184.972656 56.199219 L 184.972656 56.207031 L 184.929688 56.269531 L 184.921875 56.277344 L 184.882812 56.34375 L 184.878906 56.351562 L 184.839844 56.414062 L 184.832031 56.425781 L 184.792969 56.488281 L 184.789062 56.492188 C 184.640625 56.722656 184.492188 56.960938 184.347656 57.195312 L 184.34375 57.207031 L 184.308594 57.261719 L 184.296875 57.28125 L 184.265625 57.332031 L 184.25 57.351562 L 184.21875 57.40625 L 184.207031 57.425781 L 184.167969 57.496094 L 184.15625 57.519531 L 184.128906 57.5625 L 184.109375 57.59375 L 184.082031 57.636719 L 184.0625 57.667969 L 184.035156 57.710938 L 184.019531 57.738281 L 183.992188 57.785156 L 183.976562 57.816406 L 183.949219 57.859375 L 183.933594 57.890625 L 183.90625 57.933594 L 183.890625 57.960938 L 183.863281 58.007812 L 183.84375 58.035156 L 183.816406 58.082031 L 183.800781 58.113281 L 183.773438 58.15625 L 183.757812 58.1875 L 183.730469 58.230469 L 183.714844 58.257812 L 183.6875 58.304688 L 183.671875 58.332031 L 183.644531 58.378906 L 183.628906 58.402344 L 183.601562 58.453125 L 183.585938 58.480469 C 183.539062 58.558594 183.492188 58.636719 183.445312 58.71875 L 183.429688 58.75 L 183.40625 58.785156 L 183.386719 58.824219 L 183.359375 58.871094 L 183.34375 58.898438 L 183.316406 58.949219 L 183.300781 58.972656 L 183.277344 59.015625 L 183.257812 59.050781 L 183.234375 59.089844 L 183.214844 59.125 L 183.191406 59.164062 L 183.171875 59.199219 L 183.152344 59.238281 L 183.132812 59.273438 L 183.109375 59.316406 L 183.089844 59.351562 L 183.066406 59.390625 L 183.046875 59.425781 L 183.023438 59.464844 L 182.984375 59.542969 L 182.960938 59.578125 L 182.921875 59.65625 L 182.898438 59.691406 L 182.878906 59.730469 L 182.859375 59.765625 L 182.835938 59.808594 L 182.816406 59.84375 L 182.792969 59.886719 L 182.773438 59.921875 L 182.753906 59.964844 L 182.734375 59.996094 L 182.710938 60.039062 L 182.691406 60.074219 L 182.667969 60.121094 L 182.652344 60.148438 L 182.621094 60.207031 L 182.609375 60.226562 L 182.527344 60.378906 L 182.519531 60.398438 L 182.488281 60.457031 L 182.476562 60.476562 L 182.449219 60.535156 L 182.433594 60.558594 L 182.40625 60.609375 L 182.390625 60.636719 L 182.367188 60.6875 L 182.351562 60.714844 L 182.324219 60.765625 L 182.3125 60.789062 L 182.285156 60.839844 L 182.246094 60.917969 L 182.230469 60.945312 L 182.203125 60.996094 L 182.191406 61.023438 L 182.164062 61.078125 L 182.152344 61.097656 L 182.125 61.15625 L 182.109375 61.179688 L 182.082031 61.234375 L 182.070312 61.253906 L 182.042969 61.3125 L 181.992188 61.414062 L 181.960938 61.46875 L 181.953125 61.492188 L 181.921875 61.550781 L 181.914062 61.570312 L 181.882812 61.632812 L 181.875 61.644531 L 181.835938 61.722656 L 181.800781 61.796875 L 181.796875 61.800781 C 181.691406 62.015625 181.589844 62.222656 181.488281 62.4375 L 181.484375 62.441406 L 181.410156 62.597656 L 181.40625 62.605469 L 181.371094 62.679688 L 181.328125 62.765625 L 181.296875 62.835938 L 181.253906 62.921875 L 181.21875 62.996094 L 181.214844 63.003906 L 181.183594 63.074219 L 181.175781 63.085938 L 181.144531 63.160156 L 181.140625 63.160156 C 180.953125 63.566406 180.773438 63.96875 180.59375 64.375 L 180.59375 64.378906 C 180.558594 64.460938 180.523438 64.539062 180.488281 64.621094 L 180.488281 64.625 L 180.453125 64.703125 L 180.453125 64.707031 C 180.40625 64.816406 180.359375 64.921875 180.3125 65.03125 L 180.3125 65.035156 C 177.800781 70.976562 176.292969 77.296875 175.851562 83.730469 C 175.324219 91.773438 181.394531 98.730469 189.433594 99.292969 C 189.78125 99.316406 190.128906 99.328125 190.472656 99.328125 C 198.152344 99.320312 204.519531 93.375 205.058594 85.714844 C 206.191406 70.417969 218.917969 58.578125 234.257812 58.546875 C 242.339844 58.554688 248.898438 52.007812 248.910156 43.925781 C 248.917969 35.84375 242.371094 29.285156 234.289062 29.273438 C 234.28125 29.273438 234.269531 29.273438 234.257812 29.273438 Z M 234.257812 29.273438 " style=" stroke:none;fill-rule:nonzero;fill:rgb(80.392157%,83.137255%,87.45098%);fill-opacity:1;" />
<path d="M 328.140625 520.847656 L 345.289062 503.699219 C 353.371094 495.617188 366.476562 495.617188 374.558594 503.699219 C 382.644531 511.78125 382.644531 524.886719 374.558594 532.972656 L 357.414062 550.117188 C 349.328125 558.203125 336.222656 558.203125 328.140625 550.117188 C 320.054688 542.035156 320.054688 528.929688 328.140625 520.847656 Z M 328.140625 520.847656 " style=" stroke:none;fill-rule:nonzero;fill:rgb(93.72549%,94.901961%,100%);fill-opacity:1;" />
</g>
</svg>