<svg enable-background="new 0 0 64 64" height="48" viewBox="0 0 64 64" width="48" xmlns="http://www.w3.org/2000/svg">
<g fill="#465568"><path d="m15 21h34c.553 0 1-.448 1-1v-18c0-.552-.447-1-1-1h-34c-.553 0-1 .448-1 1v18c0 .552.447 1 1 1zm22-2h-1v-2h-2v2h-4v-2h-2v2h-1v-3c0-.551.448-1 1-1h8c.552 0 1 .449 1 1zm-21-16h16 16v16h-9v-3c0-1.654-1.346-3-3-3h-4-4c-1.654 0-3 1.346-3 3v3h-9z"/><path d="m1.439 24.828c.168.114.364.172.561.172.126 0 .252-.023.371-.071l10-4c.38-.153.629-.52.629-.929v-18c0-.332-.165-.642-.439-.828-.276-.187-.626-.224-.932-.101l-10 4c-.38.153-.629.52-.629.929v18c0 .332.165.642.439.828zm1.561-18.151 8-3.2v15.846l-8 3.2z"/><path d="m62.371 5.071-10-4c-.306-.122-.656-.086-.932.101-.274.186-.439.496-.439.828v18c0 .409.249.776.629.929l10 4c.119.048.245.071.371.071.197 0 .393-.058.561-.172.274-.186.439-.496.439-.828v-18c0-.409-.249-.776-.629-.929zm-1.371 17.452-8-3.2v-15.846l8 3.2z"/><path d="m28 7v2c0 2.206 1.794 4 4 4s4-1.794 4-4v-2c0-2.206-1.794-4-4-4s-4 1.794-4 4zm2 0c0-1.103.897-2 2-2s2 .897 2 2v2c0 1.103-.897 2-2 2s-2-.897-2-2z"/><path d="m36.34 43.132c1.026-1.077 1.66-2.53 1.66-4.132v-2c0-3.309-2.691-6-6-6s-6 2.691-6 6v2c0 1.602.634 3.055 1.66 4.132-3.22.627-5.66 3.467-5.66 6.868v4c0 .553.447 1 1 1h18c.553 0 1-.447 1-1v-4c0-3.401-2.44-6.241-5.66-6.868zm-8.34-6.132c0-2.206 1.794-4 4-4s4 1.794 4 4v2c0 2.206-1.794 4-4 4s-4-1.794-4-4zm12 16h-2v-4h-2v4h-8v-4h-2v4h-2v-3c0-2.757 2.243-5 5-5h6c2.757 0 5 2.243 5 5z"/><path d="m57.34 51.132c1.026-1.077 1.66-2.53 1.66-4.132v-2c0-3.309-2.691-6-6-6s-6 2.691-6 6v2c0 1.602.634 3.055 1.66 4.132-3.22.627-5.66 3.467-5.66 6.868v4c0 .553.447 1 1 1h18c.553 0 1-.447 1-1v-4c0-3.401-2.44-6.241-5.66-6.868zm-8.34-6.132c0-2.206 1.794-4 4-4s4 1.794 4 4v2c0 2.206-1.794 4-4 4s-4-1.794-4-4zm12 16h-2v-4h-2v4h-8v-4h-2v4h-2v-3c0-2.757 2.243-5 5-5h6c2.757 0 5 2.243 5 5z"/><path d="m15.34 51.132c1.026-1.077 1.66-2.53 1.66-4.132v-2c0-3.309-2.691-6-6-6s-6 2.691-6 6v2c0 1.602.634 3.055 1.66 4.132-3.22.627-5.66 3.467-5.66 6.868v4c0 .553.447 1 1 1h18c.553 0 1-.447 1-1v-4c0-3.401-2.44-6.241-5.66-6.868zm-8.34-6.132c0-2.206 1.794-4 4-4s4 1.794 4 4v2c0 2.206-1.794 4-4 4s-4-1.794-4-4zm12 16h-2v-4h-2v4h-8v-4h-2v4h-2v-3c0-2.757 2.243-5 5-5h6c2.757 0 5 2.243 5 5z"/><path d="m14 27h2v2h-2z"/><path d="m17 27h2v2h-2z"/><path d="m20 27h2v2h-2z"/><path d="m22 33h1c1.654 0 3-1.346 3-3v-4c0-1.654-1.346-3-3-3h-10c-1.654 0-3 1.346-3 3v4c0 1.654 1.346 3 3 3h3.667l3.733 2.8c.176.133.388.2.6.2.152 0 .306-.035.447-.105.339-.17.553-.516.553-.895zm-1-2c-.553 0-1 .448-1 1v1l-2.4-1.8c-.173-.13-.383-.2-.6-.2h-4c-.552 0-1-.449-1-1v-4c0-.551.448-1 1-1h10c.552 0 1 .449 1 1v4c0 .551-.448 1-1 1z"/><path d="m48 30h2v2h-2z"/><path d="m45 30h2v2h-2z"/><path d="m42 30h2v2h-2z"/><path d="m43.6 23.2c-.303-.228-.709-.265-1.047-.095-.339.17-.553.516-.553.895v2h-1c-1.654 0-3 1.346-3 3v4c0 1.654 1.346 3 3 3h10c1.654 0 3-1.346 3-3v-4c0-1.654-1.346-3-3-3h-3.667zm8.4 5.8v4c0 .552-.448 1-1 1h-10c-.552 0-1-.448-1-1v-4c0-.551.448-1 1-1h2c.553 0 1-.448 1-1v-1l2.4 1.8c.173.13.383.2.6.2h4c.552 0 1 .449 1 1z"/></g></svg>