<svg id="Capa_1" enable-background="new 0 0 511.999 511.999" height="48" viewBox="0 0 511.999 511.999" width="48" xmlns="http://www.w3.org/2000/svg" fill="#465568"><g><path d="m495.585 288.267 16.032-88.175c2.323-12.765-6.174-25.041-18.943-27.365-6.199-1.125-12.458.226-17.623 3.807-5.158 3.576-8.617 8.952-9.739 15.136l-7.808 42.949c-.741 4.075 1.962 7.979 6.038 8.72 4.077.74 7.979-1.962 8.72-6.038l7.808-42.951c.408-2.246 1.661-4.196 3.528-5.49 1.869-1.297 4.14-1.785 6.392-1.375 4.63.843 7.711 5.293 6.869 9.922l-16.032 88.177c-.738 4.058-4.268 7.004-8.395 7.004h-47.722l-1.706-17.064h36.05c4.142 0 7.5-3.358 7.5-7.5s-3.358-7.5-7.5-7.5h-37.55l-5.738-57.374c-.383-3.834-3.61-6.754-7.463-6.754h-22.458l5.686-22.746c.561-2.24.057-4.614-1.364-6.435s-3.602-2.884-5.912-2.884h-56.112c-2.31 0-4.49 1.064-5.912 2.884s-1.925 4.194-1.364 6.435l5.686 22.746h-43.445l11.918-29.795c.924-2.311.643-4.929-.753-6.99-1.395-2.061-3.722-3.295-6.21-3.295h-5.219c2.979-4.814 4.703-10.483 4.703-16.548 0-17.396-14.152-31.548-31.548-31.548s-31.548 14.152-31.548 31.548c0 6.065 1.725 11.734 4.703 16.548h-5.219c-2.489 0-4.815 1.234-6.21 3.295-1.396 2.061-1.677 4.679-.753 6.99l11.918 29.795h-43.445l5.687-22.746c.561-2.24.057-4.614-1.364-6.435s-3.602-2.884-5.912-2.884h-56.112c-2.31 0-4.49 1.064-5.912 2.884s-1.925 4.194-1.364 6.435l5.687 22.746h-22.458c-3.853 0-7.08 2.92-7.463 6.754l-5.738 57.374h-37.55c-4.142 0-7.5 3.358-7.5 7.5s3.358 7.5 7.5 7.5h36.05l-1.706 17.064h-47.723c-4.126 0-7.657-2.946-8.395-7.004l-16.032-88.178c-.842-4.628 2.239-9.079 6.866-9.921 2.252-.411 4.525.079 6.395 1.375 1.867 1.294 3.12 3.244 3.528 5.492l7.808 42.949c.741 4.076 4.65 6.779 8.72 6.038 4.076-.741 6.779-4.645 6.038-8.72l-7.807-42.948c-1.123-6.186-4.582-11.562-9.74-15.138-5.164-3.581-11.422-4.931-17.625-3.806-12.767 2.324-21.263 14.6-18.94 27.364l16.032 88.176c.967 5.321 3.688 9.934 7.485 13.325l-7.839 94.065c-.344 4.128 2.724 7.753 6.851 8.097.212.018.422.026.631.026 3.86 0 7.14-2.962 7.466-6.877l7.447-89.365c.37.017.737.049 1.111.049h46.222l-5.589 55.883c-.211 2.108.48 4.208 1.902 5.779s3.442 2.467 5.561 2.467c13.049 0 19.997-5.296 25.58-9.551 1.362-1.038 2.62-1.992 3.895-2.836l3.131 37.574c.326 3.916 3.605 6.877 7.466 6.877.208 0 .419-.009.631-.026 4.127-.344 7.195-3.969 6.851-8.097l-3.324-39.893c6.505.456 9.86 2.997 14.325 6.4 5.583 4.255 12.531 9.551 25.58 9.551s19.998-5.296 25.581-9.551c4.937-3.763 8.503-6.481 16.488-6.481 7.988 0 11.555 2.719 16.493 6.481 4.411 3.362 9.689 7.362 18.141 8.898v17.716h-40.596c-4.142 0-7.5 3.358-7.5 7.5s3.358 7.5 7.5 7.5h96.192c4.142 0 7.5-3.358 7.5-7.5s-3.358-7.5-7.5-7.5h-40.597v-17.738c8.382-1.552 13.63-5.531 18.02-8.878 4.935-3.762 8.5-6.48 16.481-6.48 7.992 0 11.562 2.719 16.501 6.482 5.585 4.255 12.537 9.55 25.591 9.55 13.061 0 20.016-5.294 25.604-9.548 4.485-3.415 7.853-5.962 14.41-6.407l-3.325 39.896c-.344 4.128 2.724 7.753 6.851 8.097.212.018.422.026.631.026 3.86 0 7.14-2.962 7.466-6.877l3.13-37.554c1.267.84 2.519 1.788 3.873 2.818 5.588 4.254 12.543 9.548 25.604 9.548 2.119 0 4.139-.896 5.561-2.467s2.113-3.67 1.902-5.779l-5.588-55.882h46.222c.374 0 .741-.032 1.111-.049l7.447 89.365c.326 3.916 3.605 6.877 7.466 6.877.208 0 .419-.009.631-.026 4.127-.344 7.195-3.969 6.851-8.097l-7.839-94.065c3.795-3.39 6.516-8.002 7.484-13.323zm-157.835-108.936h36.9l-4.266 17.064h-28.368zm-98.298-39.564c0-9.125 7.423-16.548 16.548-16.548 9.124 0 16.548 7.423 16.548 16.548s-7.423 16.548-16.548 16.548-16.548-7.423-16.548-16.548zm-4.439 31.548h41.973l-10.032 25.08h-21.909zm-97.664 8.016h36.9l-4.266 17.064h-28.368zm270.47 170.901c-5.588-4.254-12.543-9.548-25.604-9.548-13.06 0-20.015 5.294-25.604 9.548-4.945 3.764-8.517 6.484-16.518 6.484-7.992 0-11.561-2.719-16.501-6.482-5.585-4.255-12.537-9.55-25.591-9.55-13.047 0-19.994 5.296-25.576 9.552-4.935 3.762-8.5 6.48-16.48 6.48-7.988 0-11.556-2.719-16.494-6.481-5.584-4.255-12.534-9.551-25.585-9.551-13.049 0-19.998 5.296-25.581 9.551-4.937 3.762-8.503 6.481-16.488 6.481-7.984 0-11.55-2.718-16.487-6.481-5.583-4.255-12.531-9.551-25.58-9.551s-19.997 5.296-25.58 9.551c-2.776 2.116-5.119 3.901-8.058 5.059l14.39-143.898h291.033l14.392 143.904c-2.952-1.158-5.303-2.947-8.088-5.068z"/></g></svg>