<svg width="48" height="48" viewBox="0 0 48 48" fill="none" xmlns="http://www.w3.org/2000/svg">
<path d="M24 6.40034C24.4419 6.40034 24.8001 6.04212 24.8001 5.60029V0.800042C24.8001 0.358219 24.4419 0 24 0C23.5582 0 23.2 0.358219 23.2 0.800042V5.60029C23.2 6.04212 23.5581 6.40034 24 6.40034Z" fill="black"/>
<path d="M12.1066 4.19783L14.5067 8.35804C14.7251 8.74216 15.2136 8.87647 15.5977 8.65806C15.9818 8.43965 16.1161 7.95122 15.8977 7.5671C15.896 7.564 15.8942 7.561 15.8924 7.5579L13.4923 3.39768C13.2739 3.01356 12.7854 2.87926 12.4013 3.09767C12.0172 3.31608 11.8829 3.8045 12.1013 4.18862C12.103 4.19173 12.1048 4.19483 12.1066 4.19783Z" fill="black"/>
<path d="M4.19984 12.6935L8.36006 15.0936C8.74418 15.312 9.23261 15.1777 9.45102 14.7936C9.66733 14.4131 9.53773 13.9293 9.16011 13.7079L4.99989 11.3078C4.61577 11.0894 4.12734 11.2237 3.90893 11.6078C3.69252 11.9883 3.82212 12.472 4.19984 12.6935Z" fill="black"/>
<path d="M7.19916 23.2012C7.19916 22.7594 6.84094 22.4012 6.39912 22.4012H1.59887C1.15705 22.4012 0.798828 22.7594 0.798828 23.2012C0.798828 23.643 1.15705 24.0013 1.59887 24.0013H6.39912C6.84094 24.0013 7.19916 23.643 7.19916 23.2012Z" fill="black"/>
<path d="M8.36622 31.3035C8.36312 31.3053 8.36002 31.3071 8.35692 31.3089L4.1967 33.709C3.81258 33.9273 3.67817 34.4157 3.89648 34.7998C4.11479 35.184 4.60322 35.3184 4.98734 35.1C4.99044 35.0982 4.99354 35.0965 4.99664 35.0947L9.15686 32.6945C9.54098 32.4762 9.67539 31.9878 9.45708 31.6037C9.23876 31.2196 8.75034 31.0851 8.36622 31.3035Z" fill="black"/>
<path d="M43.8002 33.709L39.64 31.3088C39.2589 31.0853 38.7686 31.2131 38.5451 31.5942C38.3216 31.9754 38.4494 32.4656 38.8306 32.6891C38.8337 32.6909 38.8368 32.6927 38.8399 32.6945L43.0001 35.0946C43.3842 35.3129 43.8726 35.1785 44.0909 34.7944C44.3072 34.414 44.1777 33.9304 43.8002 33.709Z" fill="black"/>
<path d="M46.4012 22.4012H41.6009C41.1591 22.4012 40.8009 22.7594 40.8009 23.2012C40.8009 23.643 41.1591 24.0013 41.6009 24.0013H46.4012C46.843 24.0013 47.2012 23.643 47.2012 23.2012C47.2012 22.7594 46.843 22.4012 46.4012 22.4012Z" fill="black"/>
<path d="M39.2441 15.2008C39.3845 15.2008 39.5225 15.1638 39.6441 15.0936L43.8043 12.6935C44.1855 12.4701 44.3133 11.9798 44.0899 11.5987C43.8685 11.2211 43.3848 11.0915 43.0043 11.3078L38.844 13.7079C38.4614 13.9288 38.3303 14.4182 38.5512 14.8008C38.6941 15.0483 38.9582 15.2008 39.2441 15.2008Z" fill="black"/>
<path d="M32.4005 8.65084C32.7831 8.87176 33.2724 8.74065 33.4933 8.35803L35.8935 4.19782C36.117 3.8167 35.9892 3.32647 35.608 3.10296C35.2269 2.87945 34.7367 3.00725 34.5132 3.38837C34.5114 3.39147 34.5096 3.39457 34.5078 3.39767L32.1077 7.55789C31.8866 7.94061 32.0178 8.42993 32.4005 8.65084Z" fill="black"/>
<path d="M24 11.2006C17.3754 11.2081 12.0069 16.5766 11.9994 23.2012C11.9994 23.643 12.3576 24.0013 12.7995 24.0013C13.2413 24.0013 13.5995 23.643 13.5995 23.2012C13.6061 17.4599 18.2587 12.8073 24 12.8007C24.4419 12.8007 24.8001 12.4424 24.8001 12.0006C24.8001 11.5588 24.4419 11.2006 24 11.2006Z" fill="black"/>
<path d="M38.6408 27.2766V27.2726C38.6664 27.1926 38.6896 27.1062 38.7096 27.0278C38.7384 26.9174 38.7624 26.8062 38.7896 26.695C38.8168 26.5838 38.8424 26.4726 38.8576 26.3837C40.6314 18.1781 35.4174 10.0882 27.2118 8.31432C19.0061 6.54043 10.9162 11.7545 9.14233 19.9601C8.91212 21.0251 8.79711 22.1116 8.79921 23.2012C8.79921 23.5572 8.81441 23.9108 8.83921 24.262C8.85201 24.4564 8.87121 24.6541 8.89522 24.8613C8.94002 25.2693 8.99762 25.6741 9.07523 26.0749C9.08163 26.1077 9.08403 26.1413 9.09283 26.1741C9.12803 26.3573 9.17283 26.535 9.21523 26.7126C9.24003 26.8158 9.26404 26.919 9.29044 27.0214C9.30244 27.0646 9.30884 27.1014 9.32244 27.151C9.35444 27.2702 9.39204 27.383 9.42724 27.4998C9.46485 27.6294 9.50085 27.759 9.54245 27.887L9.54725 27.9022C9.61925 28.135 9.70086 28.3614 9.79926 28.6135C9.81766 28.6623 9.83686 28.7103 9.85607 28.7583C9.87367 28.8179 9.89677 28.8757 9.92487 28.9311L9.92887 28.9407C9.98247 29.0831 10.0449 29.2247 10.1073 29.3575L10.1177 29.3775C10.1577 29.4679 10.1977 29.5575 10.2409 29.6479C10.2609 29.6927 10.2801 29.7423 10.3001 29.7831C10.5144 30.2347 10.7532 30.6744 11.0153 31.1L11.0897 31.2184C11.1377 31.2984 11.1865 31.3784 11.2353 31.4464L11.3337 31.5928C11.3817 31.6632 11.4313 31.7344 11.4802 31.8048C11.5154 31.856 11.5482 31.9072 11.5842 31.9576C11.6018 31.9864 11.6186 32.0144 11.641 32.0448C11.6578 32.0672 11.6762 32.0896 11.6938 32.112C11.725 32.1552 11.757 32.192 11.7882 32.2344C11.9194 32.4121 12.0522 32.5881 12.1882 32.7601L12.1978 32.7729C12.2234 32.8033 12.2498 32.8321 12.2778 32.8625C12.4378 33.0561 12.5978 33.2481 12.7698 33.4345H12.7738C12.9162 33.5945 13.0674 33.7449 13.2178 33.8969C13.2658 33.9441 13.3098 33.9945 13.3578 34.0417C13.3787 34.0617 13.3971 34.0841 13.4179 34.1041C13.6339 34.3122 13.8579 34.5114 14.0795 34.7082C14.4995 35.0764 14.9425 35.4173 15.406 35.729C15.489 35.8227 15.5929 35.8956 15.7092 35.9418L16.022 38.2716C16.0107 38.3143 16.0032 38.358 15.9996 38.402C16.0018 38.525 16.0327 38.6459 16.09 38.7548L16.6788 43.1326C16.6885 43.208 16.7092 43.2816 16.7404 43.351C16.9097 43.7337 17.1137 44.1001 17.3501 44.4455V44.4511L17.3565 44.4583C19.815 48.1243 24.7799 49.1032 28.4459 46.6447C29.3101 46.0652 30.0528 45.3224 30.6323 44.4583L30.6387 44.4511L30.6427 44.4455C30.8791 44.1001 31.0831 43.7337 31.2524 43.351C31.2836 43.2816 31.3043 43.208 31.314 43.1326L32.2812 35.941C32.3372 35.9223 32.3908 35.8973 32.4412 35.8666C35.46 33.8437 37.6548 30.8071 38.6288 27.3062C38.636 27.2966 38.6408 27.287 38.6408 27.2766ZM19.7742 44.8023H28.2258C25.8125 46.9357 22.1874 46.9357 19.7742 44.8023ZM29.7507 42.8022C29.6875 42.9382 29.6179 43.0718 29.5435 43.2022H18.4564C18.382 43.0726 18.3124 42.939 18.2492 42.8022L17.7652 39.202H30.2346L29.7507 42.8022ZM30.4483 37.6115C30.4315 37.6107 30.4171 37.6019 30.4003 37.6019H17.5501L17.3349 36.0018H30.6651L30.4483 37.6115ZM22.3999 34.4018V26.9102L23.5272 27.7222C23.8065 27.9234 24.1831 27.9234 24.4624 27.7222L25.6001 26.903V34.4018H22.3999ZM37.5703 24.0812C37.5551 24.3276 37.5327 24.5661 37.5031 24.8061V24.8245C37.4933 24.8682 37.4866 24.9126 37.4831 24.9573V24.9733C37.4783 24.9973 37.4751 25.0213 37.4719 25.0469C37.4687 25.0725 37.4671 25.0869 37.4647 25.1085C37.4647 25.1317 37.4583 25.1541 37.4551 25.1773C37.4375 25.3013 37.4191 25.4245 37.3975 25.5477C37.3871 25.6037 37.3791 25.6557 37.3655 25.7189C37.3527 25.8037 37.3327 25.8949 37.3031 26.0309V26.0453C37.2831 26.1413 37.2623 26.2373 37.2399 26.3325C37.2319 26.3645 37.2263 26.3917 37.2167 26.4277C37.1898 26.5593 37.1561 26.6893 37.1159 26.8174C37.1007 26.8742 37.0839 26.931 37.0679 26.9878C37.0287 27.1326 36.9879 27.2742 36.9335 27.4286C36.8679 27.6334 36.8031 27.8382 36.7231 28.0342L36.6919 28.1142C36.6545 28.2182 36.6118 28.3202 36.5639 28.4198C36.5464 28.4544 36.5317 28.4903 36.5199 28.5271L36.5039 28.5631C36.4326 28.7423 36.3534 28.9135 36.251 29.1231C36.1934 29.2527 36.1294 29.3751 36.0654 29.4975L35.9686 29.6887C34.9421 31.5807 33.4798 33.2012 31.7028 34.4162C31.6612 34.4078 31.6189 34.403 31.5764 34.4018H27.2002V27.6766L27.2642 27.7222C27.5431 27.9226 27.9189 27.9226 28.1978 27.7222L30.0667 26.3797C30.4326 26.132 30.5285 25.6347 30.2808 25.2688C30.0331 24.9029 29.5358 24.807 29.1699 25.0547C29.1577 25.063 29.1457 25.0716 29.1339 25.0805L27.7306 26.0877L26.3281 25.0805C26.049 24.8797 25.6728 24.8797 25.3937 25.0805L23.9952 26.0869L22.5967 25.0805C22.3174 24.8793 21.9408 24.8793 21.6615 25.0805L20.2638 26.0869L18.8677 25.0805C18.5092 24.822 18.009 24.9032 17.7505 25.2617C17.492 25.6202 17.5732 26.1204 17.9317 26.3789L19.7958 27.7222C20.0751 27.9234 20.4517 27.9234 20.731 27.7222L20.7998 27.6726V34.4018H16.4236C16.3896 34.4022 16.3557 34.4046 16.322 34.409C15.4582 33.8175 14.6649 33.129 13.9579 32.3569C13.8051 32.1904 13.6571 32.0144 13.5083 31.8344C13.4811 31.8016 13.4515 31.7696 13.4243 31.736C13.289 31.576 13.165 31.4064 13.0418 31.2352C12.9946 31.1712 12.9442 31.1096 12.8986 31.0448V31.04C12.8922 31.0304 12.8866 31.0216 12.8802 31.0136L12.8538 30.9744C12.833 30.9472 12.8162 30.9192 12.7962 30.8944C12.6098 30.624 12.4362 30.3455 12.2698 30.0631C12.1098 29.7943 11.965 29.5247 11.8306 29.2503C11.777 29.1439 11.7218 29.0383 11.6706 28.9303C11.6554 28.8927 11.637 28.8503 11.6274 28.8271L11.5882 28.7471L11.5786 28.7279V28.7239C11.3832 28.2883 11.2115 27.8426 11.0641 27.3886C11.0497 27.3454 11.0361 27.2998 11.0217 27.2558C10.9489 27.023 10.8809 26.7878 10.8201 26.5494C10.8201 26.5366 10.8129 26.5246 10.8105 26.5118C10.8057 26.4798 10.7993 26.448 10.7913 26.4165C10.7769 26.3621 10.7665 26.3053 10.7537 26.2509C10.7153 26.0845 10.6737 25.9189 10.6433 25.7509C10.6433 25.7325 10.6393 25.7141 10.6361 25.6957C10.5937 25.4773 10.5561 25.2509 10.5289 25.0245C10.5283 24.9748 10.5219 24.9254 10.5097 24.8773C10.5097 24.8605 10.5041 24.8333 10.4993 24.8053C10.4697 24.5653 10.4481 24.3316 10.4321 24.0732C10.4065 23.7828 10.3993 23.4916 10.3993 23.2012C10.4077 15.6932 16.492 9.60889 24 9.60048C31.508 9.60889 37.5923 15.6932 37.6007 23.2012C37.6007 23.4916 37.5935 23.7828 37.5703 24.0812Z" fill="black"/>
</svg>
