<svg width="24" height="24" viewBox="0 0 24 24" fill="none" xmlns="http://www.w3.org/2000/svg">
<path d="M9.19959 6.25662L8.78198 8.69145C8.7368 8.95494 8.84511 9.2213 9.0614 9.37845C9.2777 9.5356 9.56451 9.5563 9.80113 9.43193L11.9878 8.28232L14.1744 9.43188C14.2772 9.48592 14.3894 9.51256 14.5012 9.51256C14.6469 9.51256 14.7918 9.46733 14.9142 9.3784C15.1304 9.22125 15.2388 8.95494 15.1936 8.6914L14.776 6.25657L16.545 4.5322C16.7364 4.3456 16.8053 4.06646 16.7227 3.81219C16.6401 3.55792 16.4203 3.37257 16.1557 3.33413L13.7109 2.9789L12.6176 0.763593C12.4993 0.523837 12.2551 0.37207 11.9877 0.37207C11.7204 0.37207 11.4762 0.523884 11.3579 0.763593L10.2645 2.9789L7.81982 3.33413C7.55525 3.37257 7.33544 3.55792 7.25284 3.81219C7.17019 4.06646 7.23912 4.3456 7.43055 4.5322L9.19959 6.25662ZM10.832 4.31605C11.0608 4.2828 11.2586 4.13909 11.3609 3.93178L11.9878 2.6616L12.6147 3.93178C12.717 4.13909 12.9148 4.2828 13.1435 4.31605L14.5452 4.51975L13.531 5.50846C13.3654 5.66983 13.2899 5.90232 13.329 6.13018L13.5684 7.52625L12.3146 6.8671C12.2123 6.8133 12.1 6.78642 11.9878 6.78642C11.8755 6.78642 11.7632 6.8133 11.6609 6.8671L10.4072 7.52625L10.6466 6.13018C10.6857 5.90232 10.6102 5.66983 10.4446 5.50846L9.43035 4.51975L10.832 4.31605Z" fill="#99ABCE"/>
<path d="M11.9878 10.053C11.5999 10.053 11.2854 10.3674 11.2854 10.7554V22.9255C11.2854 23.3134 11.5999 23.6279 11.9878 23.6279C12.3757 23.6279 12.6902 23.3134 12.6902 22.9255V10.7554C12.6902 10.3674 12.3757 10.053 11.9878 10.053Z" fill="#99ABCE"/>
<path d="M4.3629 8.00754C4.74395 8.00754 5.05285 7.69863 5.05285 7.31758C5.05285 6.93653 4.74395 6.62763 4.3629 6.62763C3.98184 6.62763 3.67294 6.93653 3.67294 7.31758C3.67294 7.69863 3.98184 8.00754 4.3629 8.00754Z" fill="#99ABCE"/>
<path d="M4.37999 1.83842C4.76104 1.83842 5.06994 1.52952 5.06994 1.14847C5.06994 0.767416 4.76104 0.458513 4.37999 0.458513C3.99894 0.458513 3.69003 0.767416 3.69003 1.14847C3.69003 1.52952 3.99894 1.83842 4.37999 1.83842Z" fill="#99ABCE"/>
<path d="M0.714537 4.92298C1.09559 4.92298 1.40449 4.61408 1.40449 4.23302C1.40449 3.85197 1.09559 3.54307 0.714537 3.54307C0.333487 3.54307 0.0245843 3.85197 0.0245843 4.23302C0.0245843 4.61408 0.333487 4.92298 0.714537 4.92298Z" fill="#99ABCE"/>
<path d="M23.2699 20.6532H22.4824V19.8365C22.4824 19.4486 22.1679 19.1341 21.78 19.1341C21.392 19.1341 21.0776 19.4486 21.0776 19.8365V20.6532H20.2185C19.8305 20.6532 19.5161 20.9677 19.5161 21.3556C19.5161 21.7435 19.8305 22.058 20.2185 22.058H21.0776V22.8879C21.0776 23.2758 21.392 23.5903 21.78 23.5903C22.1679 23.5903 22.4824 23.2758 22.4824 22.8879V22.058H23.2699C23.6578 22.058 23.9723 21.7435 23.9723 21.3556C23.9723 20.9677 23.6578 20.6532 23.2699 20.6532Z" fill="#99ABCE"/>
<path d="M21.8285 16.8428C22.0651 16.9671 22.3519 16.9464 22.5683 16.7893C22.7845 16.6321 22.8929 16.3658 22.8477 16.1023L22.5571 14.4084L23.7878 13.2087C23.9793 13.0221 24.0482 12.743 23.9655 12.4887C23.8829 12.2344 23.6631 12.0491 23.3986 12.0107L21.6978 11.7636L20.9372 10.2224C20.8188 9.98262 20.5746 9.83085 20.3073 9.83085C20.04 9.83085 19.7958 9.98266 19.6774 10.2224L18.9168 11.7636L17.216 12.0107C16.9515 12.0491 16.7316 12.2344 16.649 12.4887C16.5664 12.743 16.6353 13.0221 16.8267 13.2087L18.0574 14.4084L17.7669 16.1023C17.7217 16.3658 17.83 16.6321 18.0463 16.7893C18.1687 16.8782 18.3136 16.9234 18.4593 16.9234C18.5711 16.9234 18.6833 16.8968 18.7861 16.8428L20.3073 16.043L21.8285 16.8428ZM19.3921 14.937L19.5044 14.2819C19.5435 14.0541 19.468 13.8216 19.3024 13.6602L18.8264 13.1962L19.4842 13.1007C19.713 13.0674 19.9108 12.9237 20.0131 12.7164L20.3072 12.1203L20.6014 12.7164C20.7037 12.9237 20.9015 13.0674 21.1303 13.1007L21.788 13.1962L21.312 13.6602C21.1465 13.8216 21.071 14.0541 21.11 14.2819L21.2223 14.937L20.634 14.6277C20.5317 14.5739 20.4194 14.5471 20.3072 14.5471C20.1949 14.5471 20.0826 14.5739 19.9803 14.6277L19.3921 14.937Z" fill="#99ABCE"/>
<path d="M6.24769 16.1023L5.95718 14.4084L7.18789 13.2088C7.37932 13.0222 7.44825 12.743 7.3656 12.4888C7.283 12.2345 7.06319 12.0491 6.79857 12.0107L5.0978 11.7636L4.33719 10.2224C4.21885 9.98262 3.97465 9.83085 3.70731 9.83085C3.43998 9.83085 3.19577 9.98262 3.07744 10.2224L2.31683 11.7636L0.616059 12.0107C0.351485 12.0491 0.131678 12.2344 0.049075 12.4887C-0.0335751 12.743 0.0353546 13.0221 0.226784 13.2087L1.4575 14.4084L1.16694 16.1023C1.12175 16.3658 1.23006 16.6321 1.44635 16.7893C1.6627 16.9464 1.94947 16.9671 2.18608 16.8428L3.70731 16.043L5.22854 16.8428C5.33133 16.8968 5.44353 16.9234 5.55535 16.9234C5.70098 16.9234 5.84591 16.8782 5.96827 16.7893C6.18457 16.6322 6.29288 16.3658 6.24769 16.1023ZM4.71213 13.6602C4.5466 13.8216 4.47107 14.0541 4.51012 14.282L4.62246 14.9371L4.03412 14.6278C3.82953 14.5202 3.58505 14.5202 3.38041 14.6278L2.79208 14.9371L2.90441 14.282C2.94347 14.0541 2.86794 13.8216 2.7024 13.6602L2.2264 13.1963L2.88414 13.1007C3.11294 13.0675 3.31069 12.9238 3.413 12.7164L3.70717 12.1204L4.00134 12.7164C4.10366 12.9237 4.30146 13.0675 4.53021 13.1007L5.18799 13.1963L4.71213 13.6602Z" fill="#99ABCE"/>
<path d="M7.36237 18.0045C7.05565 17.7682 6.61636 17.8252 6.37923 18.1313C6.1421 18.4373 6.19806 18.8782 6.50346 19.1161C6.52327 19.1316 8.48646 20.6869 8.55052 22.9282C8.56138 23.3091 8.87358 23.6105 9.25227 23.6105C9.25906 23.6105 9.2659 23.6104 9.27273 23.6102C9.66051 23.5992 9.96587 23.2758 9.95477 22.8881C9.87137 19.9704 7.46478 18.0834 7.36237 18.0045Z" fill="#99ABCE"/>
<path d="M16.5857 17.9719C16.4833 18.0508 14.0766 19.9378 13.9933 22.8555C13.9822 23.2433 14.2876 23.5666 14.6754 23.5776C14.6822 23.5778 14.689 23.5779 14.6958 23.5779C15.0744 23.5779 15.3867 23.2765 15.3976 22.8956C15.4616 20.6547 17.424 19.0995 17.4446 19.0835C17.7506 18.8465 17.8072 18.4063 17.5708 18.0996C17.334 17.7923 16.893 17.7351 16.5857 17.9719Z" fill="#99ABCE"/>
<path d="M19.6344 1.83842C20.0154 1.83842 20.3243 1.52952 20.3243 1.14847C20.3243 0.767416 20.0154 0.458513 19.6344 0.458513C19.2533 0.458513 18.9444 0.767416 18.9444 1.14847C18.9444 1.52952 19.2533 1.83842 19.6344 1.83842Z" fill="#99ABCE"/>
<path d="M19.6173 8.00754C19.9983 8.00754 20.3072 7.69863 20.3072 7.31758C20.3072 6.93653 19.9983 6.62763 19.6173 6.62763C19.2362 6.62763 18.9273 6.93653 18.9273 7.31758C18.9273 7.69863 19.2362 8.00754 19.6173 8.00754Z" fill="#99ABCE"/>
<path d="M23.2827 4.92298C23.6638 4.92298 23.9727 4.61408 23.9727 4.23302C23.9727 3.85197 23.6638 3.54307 23.2827 3.54307C22.9017 3.54307 22.5928 3.85197 22.5928 4.23302C22.5928 4.61408 22.9017 4.92298 23.2827 4.92298Z" fill="#99ABCE"/>
<path d="M3.75386 20.6832H2.96632V19.8665C2.96632 19.4786 2.65183 19.1641 2.26391 19.1641C1.87599 19.1641 1.5615 19.4786 1.5615 19.8665V20.6832H0.702409C0.314492 20.6832 0 20.9977 0 21.3856C0 21.7735 0.314492 22.088 0.702409 22.088H1.5615V22.9179C1.5615 23.3059 1.87599 23.6204 2.26391 23.6204C2.65183 23.6204 2.96632 23.3059 2.96632 22.9179V22.088H3.75386C4.14178 22.088 4.45627 21.7735 4.45627 21.3856C4.45627 20.9977 4.14178 20.6832 3.75386 20.6832Z" fill="#99ABCE"/>
</svg>
