<svg width="48" height="48" viewBox="-16 0 480 480.12399" xmlns="http://www.w3.org/2000/svg"><path d="m374.460938 124.800781 17.601562-17.601562 10.398438 10.402343 11.199218-11.203124-32-32-11.199218 11.203124 10.402343 10.398438-19.203125 19.199219c-24-16.800781-52-28-81.597656-32.800781v-28l32-8v-22.398438c0-13.601562-10.402344-24-24-24h-80c-13.601562 0-24 10.398438-24 24v22.398438l32 8v28c-5.601562.800781-11.199219 2.402343-16 3.203124-.800781-12-11.199219-21.601562-24-21.601562h-152c-13.601562 0-24 10.398438-24 24v104c0 13.601562 10.398438 24 24 24h52l28 37.601562 28-37.601562h44c13.597656 0 24-10.398438 24-24v-89.601562c97.597656-26.398438 198.398438 32 224.800781 129.601562 26.398438 97.601562-32 198.398438-129.601562 224.800781-97.601563 26.398438-198.398438-32-224.800781-129.601562-8-30.398438-8-62.398438-.800782-93.597657l-15.199218-4c-28 107.199219 36.800781 216 143.199218 244 106.402344 28 216-36.800781 244-143.203124 20-76-6.398437-156-67.199218-205.597657zm-174.398438-91.199219v-9.601562c0-4.800781 3.199219-8 8-8h80c4.800781 0 8 3.199219 8 8v9.601562l-24.800781 6.398438h-46.398438zm-16 158.398438c0 4.800781-3.199219 8-8 8h-52l-20 26.398438-20-26.398438h-60c-4.800781 0-8-3.199219-8-8v-104c0-4.800781 3.199219-8 8-8h152c4.800781 0 8 3.199219 8 8zm48-111.199219v-24.800781h32v24.800781c-5.601562-.800781-10.402344-.800781-16-.800781-5.601562 0-10.402344 0-16 .800781zm0 0"/><path d="m128.0625 272h-48v8c0 92.800781 75.199219 168 168 168s168-75.199219 168-168c0-56.800781-28.800781-110.398438-76.800781-141.601562l-.800781-.796876c-27.199219-16-58.398438-25.601562-90.398438-25.601562h-8v40h16v-24c24.800781 1.601562 49.597656 8.800781 70.398438 21.601562l-12 12 11.199218 11.199219 14.402344-14.402343c35.199219 27.203124 57.597656 68 59.199219 112.800781h-24v16h23.199219c-1.597657 34.402343-15.199219 68-38.398438 93.601562l-19.199219-19.199219-11.203125 11.199219 19.203125 19.199219c-25.601562 23.199219-59.203125 36.800781-93.601562 38.398438v-22.398438h-16v24c-32.800781-1.601562-64-13.601562-89.601563-35.199219l15.203125-15.199219-11.203125-11.203124-15.199218 15.203124c-25.597657-26.402343-40.800782-60.800781-43.199219-97.601562h32v-16zm0 0"/><path d="m240.863281 269.601562-64.800781 46.398438v44h44.800781l36.796875-73.601562zm-29.601562 74.398438h-19.199219v-20l44.800781-32zm0 0"/><path d="m40.0625 168h16v16h-16zm0 0"/><path d="m40.0625 96h16v56h-16zm0 0"/><path d="m80.0625 112h80v16h-80zm0 0"/><path d="m80.0625 144h80v16h-80zm0 0"/></svg>