<svg id="Layer_3" enable-background="new 0 0 64 64" height="64" viewBox="0 0 64 64" width="64" xmlns="http://www.w3.org/2000/svg">
<path fill="currentColor" d="m61 61v-5c0-.553-.447-1-1-1h-1v-3c0-.553-.447-1-1-1h-1v-19c0-.552-.447-1-1-1h-1v-9c0-.552-.447-1-1-1h-1v-9c0-.552-.447-1-1-1h-1v-3c0-.265-.105-.52-.293-.707l-1.707-1.707v-4.586h-2v4.586l-1.707 1.707c-.188.187-.293.442-.293.707v3h-1c-.553 0-1 .448-1 1v9h-1c-.553 0-1 .448-1 1v9h-1c-.553 0-1 .448-1 1v5h-14v-5c0-.552-.447-1-1-1h-1v-9c0-.552-.447-1-1-1h-1v-3.556c.591.344 1.268.556 2 .556.808 0 1.578-.238 2.232-.682 1.707.896 3.828.896 5.535 0 .655.444 1.425.682 2.233.682 2.206 0 4-1.794 4-4 0-1.975-1.439-3.621-3.323-3.943-.82-2.391-3.095-4.057-5.677-4.057s-4.857 1.666-5.677 4.057c-.773.132-1.463.496-2.017 1.005-.098-.032-.197-.062-.306-.062h-1v-3c0-.265-.105-.52-.293-.707l-1.707-1.707v-4.586h-2v4.586l-1.707 1.707c-.188.187-.293.442-.293.707v3h-1c-.553 0-1 .448-1 1v9h-1c-.553 0-1 .448-1 1v9h-1c-.553 0-1 .448-1 1v19h-1c-.553 0-1 .447-1 1v3h-1c-.553 0-1 .447-1 1v5h-2v2h62v-2zm-22-15-4.001-3h4.001zm-14-3h4.001l-4.001 3zm0 5.5 7-5.25 7 5.25v2.5h-14zm2 4.5h10v8h-10zm12 4h20v4h-20zm0-2v-2h18v2zm2-4v-14h14v14zm6-42.586 1-1 1 1v2.586h-2zm4 4.586v2h-6v-2zm-6 4h6v4h-6zm8 6v2h-10v-2zm-10 4h10v4h-10zm12 6v2h-14v-2zm-16 6v2h-6.997c-.002 0-.004 0-.006 0h-6.997v-2zm-16.089-27.005c.033.005.111.013.145.015.458.011.927-.318 1.024-.802.374-1.859 2.023-3.208 3.92-3.208s3.546 1.349 3.92 3.208c.095.469.506.803.979.803.037 0 .08-.003.143-.01 1.083.022 1.958.91 1.958 1.999 0 1.103-.897 2-2 2-.54 0-1.047-.214-1.427-.604-.194-.199-.454-.301-.716-.301-.199 0-.399.059-.573.181-1.355.947-3.213.947-4.568 0-.402-.282-.947-.229-1.289.121-.38.389-.887.603-1.427.603-1.103 0-2-.897-2-2s.897-2 1.911-2.005zm-7.911-3.581 1-1 1 1v2.586h-2zm4 4.586v2h-6v-2zm-6 4h6v4h-6zm8 6v2h-10v-2zm-10 4h10v4h-10zm12 6v2h-14v-2zm-14 4h14v14h-14zm-2 16h18v2h-18zm-2 4h20v4h-20z"/>
<path fill="currentColor" d="m11 39h2v2h-2z"/>
<path fill="currentColor" d="m15 39h2v2h-2z"/>
<path fill="currentColor" d="m19 39h2v2h-2z"/>
<path fill="currentColor" d="m11 43h2v2h-2z"/>
<path fill="currentColor" d="m15 43h2v2h-2z"/>
<path fill="currentColor" d="m19 43h2v2h-2z"/>
<path fill="currentColor" d="m11 47h2v2h-2z"/>
<path fill="currentColor" d="m15 47h2v2h-2z"/>
<path fill="currentColor" d="m19 47h2v2h-2z"/>
<path fill="currentColor" d="m43 39h2v2h-2z"/>
<path fill="currentColor" d="m47 39h2v2h-2z"/>
<path fill="currentColor" d="m51 39h2v2h-2z"/>
<path fill="currentColor" d="m43 43h2v2h-2z"/>
<path fill="currentColor" d="m47 43h2v2h-2z"/>
<path fill="currentColor" d="m51 43h2v2h-2z"/>
<path fill="currentColor" d="m43 47h2v2h-2z"/>
<path fill="currentColor" d="m47 47h2v2h-2z"/>
<path fill="currentColor" d="m51 47h2v2h-2z"/>
<path fill="currentColor" d="m29 55h2v2h-2z"/>
<path fill="currentColor" d="m33 55h2v2h-2z"/>
</svg>