<svg width="48" height="48" viewBox="0 0 512 501" fill="none" xmlns="http://www.w3.org/2000/svg">
<path d="M210.359 447.886L208.855 455.234L210.304 447.879C206.242 447.078 202.297 449.722 201.496 453.785C200.695 457.851 203.339 461.793 207.406 462.593C207.418 462.597 207.531 462.617 207.543 462.621C208.019 462.711 208.492 462.757 208.961 462.757C212.488 462.757 215.632 460.257 216.316 456.664C217.097 452.593 214.429 448.664 210.359 447.886Z" fill="black"/>
<path d="M267.703 450.297L268.449 457.757L267.679 450.3C263.558 450.722 260.562 454.406 260.988 458.527C261.382 462.386 264.64 465.261 268.437 465.261C268.695 465.261 268.957 465.246 269.214 465.222L269.421 465.199C273.523 464.718 276.433 461.019 275.976 456.918C275.515 452.82 271.804 449.867 267.703 450.297Z" fill="black"/>
<path d="M238.992 451.242C238.992 451.242 238.886 451.238 238.882 451.238C234.75 451.05 231.296 454.261 231.109 458.398C230.925 462.535 234.175 466.039 238.312 466.226C238.429 466.234 238.543 466.234 238.66 466.234C242.644 466.234 245.964 463.097 246.144 459.074C246.332 454.937 243.132 451.429 238.992 451.242Z" fill="black"/>
<path d="M182.656 440.265L182.562 440.23C178.664 438.832 174.414 440.871 173.015 444.769C171.613 448.668 173.683 452.98 177.582 454.382C178.422 454.683 179.277 454.824 180.117 454.824C183.191 454.824 186.078 452.922 187.175 449.859C188.578 445.961 186.554 441.664 182.656 440.265Z" fill="black"/>
<path d="M296.007 445.047L297.855 452.316L295.984 445.054C291.972 446.086 289.558 450.175 290.589 454.187C291.46 457.57 294.507 459.82 297.847 459.82C298.468 459.82 299.097 459.742 299.726 459.578C299.757 459.57 299.89 459.535 299.925 459.527C303.906 458.441 306.234 454.351 305.171 450.363C304.109 446.379 300.003 444.007 296.007 445.047Z" fill="black"/>
<path d="M323.121 435.59L326.093 442.472L323.097 435.597C319.3 437.254 317.562 441.672 319.214 445.468C320.445 448.293 323.203 449.976 326.097 449.976C327.093 449.976 328.113 449.773 329.085 449.351C329.117 449.336 329.238 449.285 329.269 449.269C333.031 447.57 334.691 443.164 333.011 439.394C331.331 435.621 326.902 433.929 323.121 435.59Z" fill="black"/>
<path d="M154.008 93.6995C155.211 93.6995 156.433 93.4104 157.562 92.8089C161.219 90.8597 162.597 86.3167 160.648 82.6604C158.699 79.0081 154.16 77.6214 150.504 79.5745L150.414 79.6214C146.761 81.5706 145.422 86.0901 147.371 89.7464C148.715 92.2698 151.324 93.6995 154.008 93.6995Z" fill="black"/>
<path d="M67.2538 177.469C68.3671 178.051 69.5585 178.328 70.7343 178.328C73.4335 178.328 76.0429 176.867 77.3827 174.309L77.5155 174.047C79.3436 170.328 77.8124 165.832 74.0936 164.008C70.4022 162.188 65.9413 163.688 64.0897 167.356C62.1757 171.02 63.5897 175.547 67.2538 177.469Z" fill="black"/>
<path d="M56.6952 205.684C57.4921 205.953 58.3007 206.082 59.1015 206.082C62.2265 206.082 65.1444 204.109 66.203 200.984L66.3007 200.688C67.5194 196.731 65.2968 192.531 61.3358 191.317C57.4101 190.106 53.2421 192.285 51.9882 196.192C50.6718 200.109 52.7773 204.359 56.6952 205.684Z" fill="black"/>
<path d="M82.0506 151.231C83.3827 152.199 84.9256 152.668 86.4569 152.668C88.7733 152.668 91.0624 151.594 92.5272 149.578L92.6249 149.446C95.0311 146.078 94.2459 141.406 90.8866 139C87.5233 136.59 82.8358 137.363 80.4217 140.723L86.4647 145.168L80.3983 140.754C77.9608 144.106 78.703 148.797 82.0506 151.231Z" fill="black"/>
<path d="M128.547 109.899C130.121 109.899 131.707 109.403 133.062 108.371C136.406 105.926 137.129 101.235 134.683 97.8909C132.234 94.5471 127.543 93.8245 124.203 96.2698L124.015 96.4065C120.719 98.9104 120.062 103.625 122.566 106.926C124.043 108.871 126.281 109.899 128.547 109.899Z" fill="black"/>
<path d="M49.9999 319.426C50.9921 322.648 53.953 324.715 57.1562 324.715C57.8866 324.715 58.6327 324.605 59.3671 324.379C63.3046 323.172 65.5273 319 64.3476 315.055C63.2187 311.117 59.1366 308.805 55.164 309.887C51.1679 310.976 48.8124 315.101 49.9023 319.098C49.9257 319.176 49.9765 319.348 49.9999 319.426Z" fill="black"/>
<path d="M105.89 129.664C107.84 129.664 109.789 128.91 111.262 127.41C114.187 124.481 114.187 119.731 111.262 116.805C108.332 113.875 103.582 113.875 100.652 116.805L100.527 116.93C97.6287 119.887 97.6873 124.629 100.644 127.528C102.101 128.957 103.996 129.664 105.89 129.664Z" fill="black"/>
<path d="M58.289 286.727C57.7616 282.652 54.039 279.762 49.9609 280.246C45.8515 280.738 42.914 284.469 43.4023 288.582L43.4452 288.883C43.9921 292.609 47.1913 295.281 50.8515 295.281C51.2109 295.281 51.578 295.254 51.9491 295.199C56.0312 294.605 58.8632 290.809 58.289 286.727Z" fill="black"/>
<path d="M48.8671 265.246C48.9452 265.246 49.0195 265.25 49.0937 265.25C53.1327 265.25 56.4687 262.035 56.5859 257.969L56.5937 257.648C56.5937 253.504 53.2343 250.148 49.0937 250.148C44.9804 250.148 41.6445 253.453 41.5937 257.551C41.4843 261.684 44.7382 265.125 48.8671 265.246Z" fill="black"/>
<path d="M50.5116 235.168C50.9609 235.246 51.4023 235.285 51.8437 235.285C55.4062 235.285 58.5663 232.734 59.2187 229.106C59.2382 228.996 59.2538 228.887 59.2695 228.777C59.8749 224.68 57.0429 220.867 52.9413 220.266C48.8905 219.664 45.0976 222.449 44.4452 226.488C43.7343 230.559 46.4452 234.438 50.5116 235.168Z" fill="black"/>
<path d="M404.3 153.598C405.753 155.707 408.089 156.836 410.472 156.836C411.937 156.836 413.421 156.406 414.718 155.512C418.128 153.168 418.991 148.496 416.648 145.082L410.413 149.254L416.624 145.047C414.296 141.617 409.632 140.723 406.206 143.047C402.777 145.371 401.882 150.035 404.206 153.465L404.3 153.598Z" fill="black"/>
<path d="M442.601 229.07C438.484 229.531 435.523 233.246 435.988 237.363L436.027 237.688C436.562 241.426 439.773 244.125 443.445 244.125C443.796 244.125 444.155 244.102 444.515 244.051C448.581 243.469 451.417 239.723 450.89 235.66C450.417 231.555 446.691 228.609 442.601 229.07Z" fill="black"/>
<path d="M429.945 207.906L429.976 208.004C430.937 211.274 433.925 213.391 437.167 213.391C437.866 213.391 438.577 213.293 439.284 213.082C443.261 211.914 445.534 207.746 444.366 203.77L444.335 203.672C443.167 199.695 438.999 197.422 435.023 198.594C431.05 199.762 428.777 203.93 429.945 207.906Z" fill="black"/>
<path d="M419.351 179.863C420.659 182.524 423.335 184.074 426.116 184.074C427.222 184.074 428.347 183.828 429.406 183.305C433.12 181.477 434.663 177.008 432.831 173.289L426.034 176.457L432.823 173.274C431.066 169.524 426.601 167.91 422.851 169.668C419.101 171.426 417.484 175.891 419.241 179.641L419.351 179.863Z" fill="black"/>
<path d="M385.409 130.176C386.878 131.676 388.82 132.426 390.765 132.426C392.659 132.426 394.554 131.715 396.015 130.281C398.952 127.406 399.019 122.707 396.187 119.746C393.378 116.719 388.644 116.535 385.605 119.34C382.562 122.149 382.374 126.895 385.183 129.938L385.409 130.176Z" fill="black"/>
<path d="M445.038 260.387C440.917 260.281 437.468 263.512 437.323 267.633C437.136 271.738 440.288 275.234 444.398 275.465C444.542 275.473 444.679 275.477 444.823 275.477C448.773 275.477 452.081 272.387 452.304 268.391L452.316 268.082C452.433 263.945 449.175 260.508 445.038 260.387Z" fill="black"/>
<path d="M337.449 93.3479L337.628 93.4456C338.746 94.0394 339.945 94.3206 341.124 94.3206C343.792 94.3206 346.374 92.8831 347.73 90.3636C349.683 86.7269 348.308 82.18 344.683 80.2112L341.054 86.7737L344.66 80.1956C341.027 78.2034 336.468 79.5354 334.476 83.1683C332.488 86.7972 333.816 91.3597 337.449 93.3479Z" fill="black"/>
<path d="M362.816 109.797L362.933 109.887C364.288 110.914 365.878 111.41 367.46 111.41C369.726 111.41 371.964 110.387 373.441 108.442C375.945 105.141 375.296 100.438 371.999 97.9339L371.949 97.8987C368.663 95.3753 363.956 95.9924 361.433 99.2776C358.91 102.563 359.531 107.274 362.816 109.797Z" fill="black"/>
<path d="M507.371 373.93L472.164 338.661C469.168 335.661 465.187 334.008 460.949 334.008C456.715 334.008 452.73 335.661 449.738 338.661L448.922 339.477L446.609 337.164C443.754 334.301 441.543 330.969 440.043 327.34C439.91 326.86 439.734 326.391 439.508 325.95C438.359 322.723 437.762 319.289 437.762 315.762V305.786C438.445 306.145 439.191 306.407 439.992 306.543C440.422 306.618 440.848 306.653 441.27 306.653C444.828 306.653 447.977 304.114 448.637 300.504C449.437 296.45 446.809 292.508 442.75 291.696C440.965 291.34 439.199 291.649 437.715 292.454C437.254 281.797 432.898 271.844 425.32 264.25L391.164 230.036C383.5 222.36 373.309 218.133 362.469 218.133C354.078 218.133 346.086 220.676 339.344 225.383L335.719 221.739V135.957C335.719 125.618 331.965 115.641 325.152 107.872C320.305 102.348 317.637 95.2543 317.637 87.895V81.6098H318.152C326.895 81.6098 334.008 74.4965 334.008 65.7504V15.8598C334.008 7.11371 326.895 0.000427246 318.152 0.000427246H178.055C169.312 0.000427246 162.199 7.11371 162.199 15.8598V65.7504C162.199 74.4965 169.312 81.6098 178.055 81.6098H179.211V84.8989C179.211 92.9848 176.066 100.586 170.359 106.301L155.238 121.45C147.215 129.489 142.797 140.172 142.797 151.539V199.926C142.797 206.5 144.375 212.707 147.152 218.207C137.207 218.782 127.937 222.926 120.836 230.036L86.6797 264.25C78.6562 272.289 74.2383 282.977 74.2383 294.34V315.762C74.2383 323.848 71.0977 331.45 65.3906 337.164L63.1055 339.454C63.0937 339.461 63.0859 339.469 63.0781 339.477L62.2656 338.661C59.2695 335.661 55.2891 334.008 51.0508 334.008C46.8164 334.008 42.832 335.661 39.8398 338.661L4.62891 373.93C-1.54297 380.114 -1.54297 390.176 4.62891 396.36L16.6875 408.434C19.6133 411.368 24.3633 411.372 27.293 408.446C30.2227 405.516 30.2305 400.77 27.3008 397.836L15.2461 385.758C14.9062 385.418 14.9062 384.868 15.2461 384.528L50.457 349.258C50.7852 348.93 51.3203 348.926 51.6484 349.258L57.7695 355.391H57.7734L150.719 448.5C151.059 448.84 151.059 449.391 150.719 449.731L115.512 485C115.18 485.332 114.645 485.332 114.316 485L48.5352 419.106C45.6094 416.172 40.8594 416.168 37.9297 419.094C34.9961 422.024 34.9922 426.77 37.918 429.704L103.703 495.598C106.695 498.598 110.68 500.25 114.918 500.25C119.152 500.25 123.133 498.598 126.129 495.598L161.336 460.329C167.508 454.149 167.508 444.086 161.336 437.903L160.953 437.52L165.395 433.071C170.582 427.872 177.473 424.747 184.797 424.274C195.105 423.606 204.805 419.207 212.105 411.891L244.449 379.477C253.777 377.028 261.039 369.43 263.012 359.914C266.336 361.497 270.051 362.387 273.973 362.387C288.078 362.387 299.555 350.899 299.555 336.774V318.965C302.781 320.438 306.363 321.266 310.137 321.266C324.242 321.266 335.715 309.778 335.715 295.653V243.004L358.785 266.188C360.25 267.661 362.176 268.395 364.102 268.395C366.016 268.395 367.93 267.668 369.395 266.211C372.328 263.289 372.34 258.543 369.418 255.606L350.184 236.278C353.906 234.227 358.102 233.133 362.469 233.133C369.297 233.133 375.719 235.797 380.547 240.637L414.703 274.848C419.898 280.055 422.762 286.977 422.762 294.34V315.762C422.762 327.852 427.461 339.215 435.992 347.762L438.32 350.094L361.645 426.903L357.977 423.227C357.938 423.192 357.902 423.153 357.863 423.118L357.219 422.469C349.453 414.692 339.137 410.016 328.176 409.305C321.508 408.872 315.234 406.028 310.488 401.278L285.844 376.766C282.906 373.844 278.156 373.856 275.234 376.793C272.316 379.731 272.328 384.481 275.266 387.399L299.895 411.891C307.195 419.207 316.895 423.606 327.207 424.274C334.527 424.747 341.418 427.872 346.605 433.067L346.969 433.43C347.164 433.653 347.371 433.86 347.59 434.055L351.047 437.516L350.664 437.903C344.492 444.086 344.492 454.145 350.664 460.329L385.871 495.598C388.867 498.598 392.848 500.25 397.086 500.25C401.32 500.25 405.305 498.598 408.301 495.598L507.371 396.356C513.543 390.172 513.543 380.114 507.371 373.93ZM442.789 299.352L442.648 299.329L441.281 299.051L442.789 299.352ZM201.488 401.293C196.766 406.028 190.492 408.872 183.828 409.305C172.863 410.016 162.547 414.692 154.781 422.469L150.355 426.903L146.371 422.911C146.32 422.86 146.27 422.805 146.219 422.758L73.6797 350.094L76.0078 347.762C84.5391 339.215 89.2383 327.852 89.2383 315.762V294.34C89.2383 286.977 92.0977 280.055 97.2969 274.848L131.453 240.637C136.281 235.797 142.703 233.133 149.531 233.133C153.91 233.133 158.121 234.235 161.855 236.301L142.59 255.598C139.664 258.528 139.668 263.278 142.598 266.204C144.063 267.664 145.98 268.395 147.898 268.395C149.82 268.395 151.742 267.661 153.207 266.196L176.219 243.141V336.774C176.219 350.899 187.695 362.387 201.801 362.387C205.777 362.387 209.543 361.473 212.902 359.848C214.426 367.282 219.176 373.547 225.613 377.118L201.488 401.293ZM320.719 295.657C320.719 301.508 315.969 306.27 310.137 306.27C304.301 306.27 299.555 301.508 299.555 295.657V211.997C299.555 207.856 296.199 204.497 292.055 204.497C287.91 204.497 284.555 207.856 284.555 211.997V336.778C284.555 342.629 279.809 347.387 273.973 347.387C268.734 347.387 264.387 343.551 263.547 338.532V211.911C263.547 207.766 260.191 204.411 256.047 204.411C254.715 204.411 253.461 204.762 252.375 205.372C250.004 206.633 248.391 209.125 248.391 211.997V336.774C248.391 337.727 248.445 338.661 248.547 339.586V354.7C248.547 360.551 243.801 365.313 237.965 365.313C232.133 365.313 227.387 360.551 227.387 354.7V211.821C227.387 207.68 224.027 204.321 219.887 204.321C215.742 204.321 212.383 207.68 212.383 211.821V336.774C212.383 342.625 207.637 347.387 201.805 347.387C195.969 347.387 191.223 342.625 191.223 336.774V197.262C191.223 193.118 187.863 189.758 183.723 189.758C179.578 189.758 176.223 193.118 176.223 197.262V223.067C175.594 223.27 174.984 223.555 174.418 223.93C164.719 220.286 157.797 210.903 157.797 199.926V151.539C157.797 144.176 160.66 137.254 165.855 132.047L180.977 116.899C189.512 108.352 194.211 96.9887 194.211 84.8989V81.6098H209.289C213.434 81.6098 216.789 78.2504 216.789 74.1098C216.789 69.9653 213.434 66.6098 209.289 66.6098H178.055C177.582 66.6098 177.199 66.2231 177.199 65.7504V15.8598C177.199 15.3871 177.582 15.0004 178.055 15.0004H318.148C318.625 15.0004 319.008 15.3871 319.008 15.8598V65.7504C319.008 66.227 318.625 66.6098 318.148 66.6098H244.5C240.359 66.6098 237 69.9653 237 74.1098C237 78.2504 240.359 81.6098 244.5 81.6098H302.637V87.895C302.637 98.895 306.625 109.5 313.871 117.766C318.285 122.797 320.719 129.258 320.719 135.957V295.657ZM496.754 385.758L397.684 485C397.52 485.168 397.32 485.25 397.086 485.25C396.855 485.25 396.656 485.168 396.488 485L361.281 449.731C360.941 449.391 360.941 448.84 361.281 448.5L366.949 442.821L460.352 349.258C460.68 348.926 461.215 348.926 461.543 349.258L496.754 384.528C497.094 384.868 497.094 385.418 496.754 385.758Z" fill="black"/>
<path d="M201.8 32.8051C197.398 32.8051 193.816 36.3949 193.816 40.8051C193.816 45.2191 197.398 48.8051 201.8 48.8051C206.207 48.8051 209.789 45.2191 209.789 40.8051C209.789 36.3949 206.207 32.8051 201.8 32.8051Z" fill="black"/>
<path d="M463.402 374.687C458.995 374.687 455.413 378.277 455.413 382.687C455.413 387.097 458.995 390.687 463.402 390.687C467.804 390.687 471.386 387.097 471.386 382.687C471.386 378.277 467.804 374.687 463.402 374.687Z" fill="black"/>
<path d="M124.984 451.203C124.984 446.793 121.402 443.203 117 443.203C112.594 443.203 109.012 446.793 109.012 451.203C109.012 455.613 112.594 459.203 117 459.203C121.402 459.203 124.984 455.613 124.984 451.203Z" fill="black"/>
</svg>
