<svg width="100" height="28" viewBox="0 0 100 28" fill="none" xmlns="http://www.w3.org/2000/svg">
<g clip-path="url(#clip0)">
<path d="M99.3846 24.1154C99.3846 22.5749 98.2921 21.4468 96.7871 21.4468C95.2846 21.4468 94.1908 22.5749 94.1908 24.1154C94.1908 25.6535 95.2846 26.7798 96.7871 26.7798C98.2921 26.7798 99.3846 25.6517 99.3846 24.1154ZM96.1046 24.2523V25.9954H95.5414V22.1517H96.9408C97.7608 22.1517 98.1371 22.5099 98.1371 23.208C98.1371 23.638 97.8465 23.9786 97.4721 24.0279V24.0442C97.7971 24.0961 97.9165 24.3861 97.9833 24.9167C98.0346 25.2604 98.1027 25.8567 98.2252 25.9967H97.559C97.404 25.6354 97.4196 25.1242 97.3002 24.6961C97.2015 24.3704 97.0277 24.2517 96.6546 24.2517H96.1077V24.2536L96.1046 24.2523V24.2523ZM96.8027 23.7555C97.3496 23.7555 97.5058 23.4642 97.5058 23.2073C97.5058 22.9036 97.3496 22.6636 96.8027 22.6636H96.1046V23.7567H96.8027V23.7555ZM93.5714 24.1154C93.5714 22.2174 95.0783 20.9343 96.7846 20.9343C98.4958 20.9343 100.001 22.2174 100.001 24.1154C100.001 26.0098 98.4965 27.2941 96.7846 27.2941C95.0783 27.2941 93.5714 26.0098 93.5714 24.1154Z" fill="#FF5A00"/>
<path d="M82.4358 26.7398L78.7315 22.5855L75.0597 26.7398H67.3336L74.8847 18.2562L67.3336 9.77008H75.3009L79.0427 13.8925L82.6433 9.77008H90.3318L82.8183 18.2205L90.4362 26.7398H82.4358ZM52.4977 26.7398V0.00714111H67.3336V5.96578H58.7819V9.77008H67.3336V15.5037H58.7819V20.7661H67.3336V26.7398H52.4977Z" fill="#FF5A00"/>
<path d="M46.2367 0.00714111V10.9476H46.1674C44.7818 9.35509 43.0499 8.8001 41.0418 8.8001C36.9269 8.8001 33.8269 11.5994 32.7388 15.2975C31.4976 11.2219 28.297 8.72385 23.5521 8.72385C19.6978 8.72385 16.6554 10.4532 15.066 13.2719V9.76946H7.10051V5.96641H15.7941V0.00839279H0V26.7398H7.10051V15.5037H14.1779C13.9599 16.3678 13.8509 17.2557 13.8535 18.1468C13.8535 23.7204 18.1128 27.6372 23.5509 27.6372C28.122 27.6372 31.137 25.4892 32.7301 21.5786H26.6446C25.8221 22.7555 25.1971 23.103 23.5515 23.103C21.644 23.103 19.9978 21.438 19.9978 19.4668H32.3888C32.9263 23.8948 36.3763 27.7129 41.1112 27.7129C43.1537 27.7129 45.0236 26.7085 46.1667 25.0117H46.2355V26.7435H52.496V0.00839279H46.2367V0.00714111V0.00714111ZM20.1953 15.5837C20.5909 13.885 21.9078 12.775 23.5515 12.775C25.3615 12.775 26.6114 13.8506 26.9396 15.5837H20.1953ZM42.4374 22.6717C40.1306 22.6717 38.6969 20.5224 38.6969 18.2774C38.6969 15.8775 39.9443 13.5719 42.4374 13.5719C45.0243 13.5719 46.0549 15.8787 46.0549 18.2774C46.0549 20.5511 44.9636 22.6717 42.4374 22.6717Z" fill="#29007C"/>
</g>
<defs>
<clipPath id="clip0">
<rect width="100" height="27.72" fill="white"/>
</clipPath>
</defs>
</svg>
