<svg width="128" height="40" viewBox="0 0 128 40" fill="none" xmlns="http://www.w3.org/2000/svg">
<rect width="128" height="40" fill="white"/>
<path d="M17.5821 8.66432L0 7.6864L11.4586 19.9744L17.5821 8.66432ZM8.78593 7.3536L16.896 7.93216L6.84545 4L8.78593 7.3536ZM18.9389 7.93216L23.2602 4L26.1735 8.17792L18.9389 7.93216ZM18.4525 8.7104L12.0883 20.4608L17.8688 26.8198L24.3712 20.7526L26.1684 9.09952L18.4525 8.7104ZM12.4314 22.304L9.36961 35.0784L17.3312 27.5008L12.4314 22.304ZM24.1818 4.19456L27.2896 8.17792L41.7127 4.19456H24.1818Z" fill="#29B2FE"/>
<path d="M37.6934 11.4291C37.6985 12.4173 37.6371 13.4003 37.5091 14.3783C36.4902 14.4141 35.2153 14.0455 35.2512 15.7965C36.8179 15.7607 37.2377 15.7965 37.2377 15.7965C37.2377 15.7965 37.166 18.8941 34.8313 18.7763C33.9916 23.5123 33.1929 27.6647 33.1929 27.6647H29.4553L31.4931 14.4192C31.4931 14.4192 31.9641 11.7261 34.4064 11.4394L37.6934 11.4291ZM36.055 27.6749L38.0211 15.5866H41.4464L41.7126 16.4979C41.7126 16.4979 42.5728 15.2947 45.1584 15.5866C44.5388 18.5357 44.4313 18.976 44.4313 18.976C44.4313 18.976 41.5897 18.6842 41.3696 19.5955C41.1494 20.5069 40.023 27.68 40.023 27.68L36.055 27.6749ZM66.391 17.7677C65.6281 16.3853 64.2406 15.1207 60.9638 15.5354C57.687 15.9501 55.3369 19.1757 55.5008 23.5533C55.8336 27.1936 58.4192 27.8387 59.3254 27.9616C65.4796 28.6887 65.5564 25.4835 65.5923 24.2803C64.3174 24.2803 63.7184 24.3059 63.1859 24.3162C63.0323 24.8179 60.5388 24.5722 60.5388 24.5722C60.5388 24.5722 59.5916 24.5005 59.52 22.8263H66.4064C66.4012 22.8263 67.159 19.1552 66.391 17.7677ZM62.8582 20.7168C62.167 20.7885 59.8374 20.7168 59.8374 20.7168C60.7488 17.1123 63.2576 18.6791 62.8582 20.7168ZM114.755 17.7677C113.992 16.3853 112.604 15.1207 109.327 15.5354C106.051 15.9501 103.7 19.1757 103.864 23.5533C104.197 27.1936 106.783 27.8387 107.689 27.9616C113.843 28.6887 113.92 25.4835 113.956 24.2803C112.681 24.2803 112.082 24.3059 111.549 24.3162C111.396 24.8179 108.902 24.5722 108.902 24.5722C108.902 24.5722 107.955 24.5005 107.883 22.8263H114.76C114.755 22.8263 115.502 19.1552 114.755 17.7677ZM111.222 20.7168C110.531 20.7885 108.201 20.7168 108.201 20.7168C109.097 17.1123 111.611 18.6791 111.206 20.7168H111.222Z" fill="black"/>
<path d="M55.1526 17.7677C54.3897 16.3853 53.0022 15.1206 49.7254 15.5353C46.4486 15.9501 44.0985 19.1757 44.2623 23.5533C44.5951 27.1936 47.1807 27.8387 48.087 27.9616C54.2412 28.6886 54.318 25.4835 54.3539 24.2803C53.079 24.2803 52.4799 24.3059 51.9475 24.3161C51.7939 24.8179 49.3004 24.5721 49.3004 24.5721C49.3004 24.5721 48.3532 24.5005 48.2815 22.8262H55.1577C55.1526 22.8262 55.9206 19.1552 55.1526 17.7677ZM51.6147 20.7168C50.9235 20.7885 48.5939 20.7168 48.5939 20.7168C49.5206 17.1123 52.0191 18.679 51.6147 20.7168ZM68.9766 11.7209L66.4627 27.6697H70.4716L73.1647 11.7209H68.9766ZM82.4166 27.6749L84.4543 15.5405H88.023V16.4672C88.023 16.4672 89.262 15.1206 92.5388 15.5405C95.8156 15.9552 94.1772 21.7766 94.1772 21.7766L93.3017 27.6851H89.3695C89.3695 27.6851 90.2809 21.7254 90.4601 20.1433C90.2758 18.3565 88.1663 18.4333 87.6543 19.7081C87.3983 21.2749 86.2361 27.6851 86.2361 27.6851L82.4166 27.6749ZM100.152 19.0067H103.757L104.09 16.6413C104.09 16.6413 104.525 15.5507 102.999 15.5302C101.473 15.5097 99.1743 15.5302 99.1743 15.5302C99.1743 15.5302 94.6943 16.1651 94.9503 24.9459C95.1859 26.5126 96.3788 27.767 97.9302 28.0742C98.263 28.1459 100.577 28.0742 100.577 28.0742C100.577 28.0742 103.163 27.7414 102.799 24.5056C100.106 24.5773 98.9747 24.6899 98.8262 23.9219C98.6726 23.159 99.1334 19.2985 100.152 19.0067ZM115.666 19.5853L120.376 15.5251L118.579 27.6749H114.601L115.666 19.5853Z" fill="black"/>
<path d="M121.349 15.5251L120.668 19.8771L128 15.4586L121.349 15.5251Z" fill="#29B2FE"/>
<path d="M80.0871 15.5353C77.0663 15.5097 76.37 15.5609 75.2436 15.5353C74.1121 15.5097 73.3493 17.1891 73.4209 18.9709H78.0545C78.0545 18.9709 78.5255 18.8992 78.5665 19.3037C78.587 19.6928 78.587 20.0819 78.5665 20.471H75.2078C75.2078 20.471 70.4718 20.9062 71.9669 26.6253C72.2587 27.5008 73.7128 28.1101 74.5166 28.0794C75.3204 28.0486 77.3223 27.3165 77.65 27.0246L77.6859 27.7158L81.2545 27.68C81.2545 27.68 82.4577 20.215 82.601 19.5955C82.7444 18.976 83.0004 16.5849 80.0871 15.5353ZM76.9639 25.0278C75.556 25.0278 75.3614 23.6659 76.4827 22.9389C77.5988 22.4525 78.2798 22.7443 78.2798 22.7443C78.2798 22.7443 78.331 25.079 76.9639 25.0278Z" fill="black"/>
</svg>
