<svg width="128" height="40" viewBox="0 0 128 40" fill="none" xmlns="http://www.w3.org/2000/svg">
<rect width="128" height="40" fill="white"/>
<path fill-rule="evenodd" clip-rule="evenodd" d="M127.985 12.8731C127.981 12.7998 127.958 12.7287 127.919 12.6666C127.88 12.6045 127.825 12.5534 127.761 12.5177C127.471 12.3718 127.048 12.2723 126.187 12.2723C124.244 12.2723 122.525 13.2369 121.775 14.851V12.8794C121.776 12.8388 121.768 12.7985 121.752 12.7609C121.737 12.7233 121.714 12.6892 121.685 12.6604C121.657 12.6316 121.622 12.6087 121.585 12.5932C121.547 12.5776 121.507 12.5695 121.466 12.5695H118.557C118.516 12.5695 118.476 12.5776 118.438 12.5932C118.401 12.6087 118.367 12.6316 118.338 12.6604C118.309 12.6892 118.286 12.7233 118.271 12.7609C118.256 12.7985 118.248 12.8388 118.248 12.8794V26.1709C118.248 26.3412 118.385 26.4797 118.557 26.4797H121.605C121.646 26.4797 121.686 26.4717 121.723 26.4562C121.761 26.4407 121.795 26.4179 121.823 26.3892C121.852 26.3605 121.875 26.3265 121.89 26.289C121.906 26.2515 121.914 26.2114 121.914 26.1709V20.1926C121.914 17.5218 123.771 16.1944 126.187 16.1944C126.751 16.1944 127.314 16.3192 127.596 16.4123C127.79 16.4758 127.985 16.317 127.985 16.1129V12.8731ZM108.507 23.2177C106.423 23.2177 104.813 21.7443 104.813 19.5189C104.813 17.2934 106.425 15.8189 108.507 15.8189C110.59 15.8189 112.201 17.2934 112.201 19.5189C112.201 21.7443 110.59 23.2187 108.507 23.2187V23.2177ZM108.507 12.2289C104.23 12.2289 101.036 15.179 101.036 19.5189C101.036 23.8587 104.231 26.8077 108.507 26.8077C112.783 26.8077 115.977 23.8587 115.977 19.5199C115.977 15.179 112.783 12.2289 108.507 12.2289ZM91.5476 23.2187C89.4639 23.2187 87.8529 21.7443 87.8529 19.5189C87.8529 17.2934 89.4639 15.8189 91.5476 15.8189C93.6303 15.8189 95.2401 17.2934 95.2401 19.5189C95.2401 21.7443 93.6303 23.2187 91.5476 23.2187ZM91.5476 12.2289C87.2701 12.2289 84.0758 15.179 84.0758 19.5189C84.0758 23.8587 87.2701 26.8077 91.5476 26.8077C95.8229 26.8077 99.0172 23.8587 99.0172 19.5189C99.0172 15.179 95.8229 12.2289 91.5476 12.2289ZM74.6112 23.2526C72.5285 23.2526 70.9726 21.7782 70.9726 19.5252C70.9726 17.2712 72.5285 15.7967 74.6112 15.7967C76.6674 15.7967 78.2498 17.2162 78.2498 19.5252C78.2498 21.8057 76.6674 23.2526 74.6112 23.2526ZM81.4959 7.00585H78.4476C78.3657 7.00585 78.2871 7.03844 78.2292 7.09637C78.1713 7.15429 78.1387 7.23279 78.1387 7.3147V14.5729C77.1942 13.237 75.6393 12.2067 73.4741 12.2067C70.0852 12.2067 67.1965 14.8236 67.1965 19.5252C67.1965 24.2268 70.0841 26.8415 73.5281 26.8415C75.5558 26.8415 77.1392 25.9509 78.1398 24.5325V26.1709C78.1398 26.3412 78.2773 26.4797 78.4465 26.4797H81.4959C81.6652 26.4797 81.8037 26.3422 81.8037 26.1709V7.3147C81.8037 7.23297 81.7714 7.15464 81.7137 7.09675C81.656 7.03886 81.5777 7.00613 81.4959 7.00585V7.00585ZM65.1773 22.2689C65.1773 25.4421 62.8725 26.8045 59.18 26.8045C56.6277 26.8045 54.4329 26.117 53.1774 24.6933C53.1299 24.6374 53.1033 24.5669 53.1019 24.4936C53.1006 24.4204 53.1246 24.3489 53.17 24.2913L54.9322 22.0003C54.9593 21.9657 54.9937 21.9374 55.0329 21.9174C55.0721 21.8974 55.1151 21.8861 55.1591 21.8844C55.203 21.8827 55.2469 21.8905 55.2875 21.9074C55.3281 21.9243 55.3645 21.9499 55.3943 21.9823C56.3251 22.9374 57.7573 23.5213 59.5407 23.5213C60.5667 23.5213 61.4002 23.2441 61.4002 22.4646C61.4002 21.7136 60.6513 21.5465 58.3179 21.0452C56.2628 20.6284 53.7073 19.6828 53.7073 16.6503C53.7073 13.8399 55.9306 12.2268 59.5671 12.2268C61.9607 12.2268 63.6817 12.9503 64.8938 14.0885C65.0102 14.1974 65.0208 14.3814 64.9224 14.5073L63.2501 16.682C63.2256 16.7154 63.1945 16.7433 63.1586 16.764C63.1228 16.7848 63.083 16.7978 63.0418 16.8024C63.0007 16.807 62.959 16.803 62.9195 16.7906C62.88 16.7783 62.8434 16.7578 62.8122 16.7306C61.9924 15.9976 60.6291 15.5375 59.29 15.5375C58.1519 15.5375 57.513 15.8993 57.513 16.5107C57.513 17.2067 58.264 17.3737 60.7348 17.9026C63.1496 18.4315 65.1773 19.3485 65.1773 22.27V22.2689ZM51.082 22.2773C51.082 25.4495 48.7761 26.813 45.0836 26.813C42.5324 26.813 40.3375 26.1254 39.082 24.7006C39.0347 24.645 39.008 24.5747 39.0065 24.5016C39.0049 24.4286 39.0286 24.3573 39.0736 24.2997L40.8358 22.0076C40.8631 21.9732 40.8976 21.9452 40.9368 21.9254C40.976 21.9056 41.0191 21.8946 41.063 21.893C41.1069 21.8914 41.1507 21.8992 41.1912 21.9161C41.2318 21.933 41.2682 21.9584 41.298 21.9907C42.2299 22.9448 43.662 23.5298 45.4443 23.5298C46.4713 23.5298 47.3049 23.2527 47.3049 22.4721C47.3049 21.7211 46.5549 21.5549 44.2226 21.0536C42.1664 20.6358 39.6109 19.6901 39.6109 16.6587C39.6109 13.8483 41.8343 12.2352 45.4718 12.2352C47.8644 12.2352 49.5843 12.9577 50.7975 14.0969C50.9138 14.2058 50.9244 14.3888 50.8271 14.5157L49.1538 16.6904C49.048 16.8279 48.847 16.8555 48.7169 16.7391C47.8961 16.0061 46.5338 15.5449 45.1947 15.5449C44.0555 15.5449 43.4166 15.9077 43.4166 16.5191C43.4166 17.2151 44.1676 17.3822 46.6385 17.9111C49.0543 18.4389 51.081 19.357 51.081 22.2773H51.082ZM32.8118 20.86C32.8118 22.3895 31.5637 23.7254 29.6186 23.7254C28.3408 23.7254 27.6469 23.1404 27.6469 22.2498C27.6469 21.4714 28.2308 20.8864 29.3689 20.7193L32.8118 20.3026V20.859V20.86ZM30.397 12.2627C27.4883 12.2627 25.2977 13.238 24.3183 15.1662C24.286 15.2331 24.2783 15.3093 24.2967 15.3813C24.315 15.4533 24.3583 15.5165 24.4187 15.5598L26.641 17.1506C26.7807 17.25 26.9774 17.2172 27.0609 17.0659C27.6787 15.9532 29.06 15.5734 30.397 15.5734C32.0354 15.5734 32.8118 16.1574 32.8118 16.9644V17.1865C32.8118 17.5207 32.6183 17.6878 32.0904 17.7439L28.2858 18.0772C25.7314 18.3268 23.8433 19.9134 23.8433 22.4445C23.8433 25.0043 25.7864 26.7843 28.5355 26.7843C30.7017 26.7843 32.0905 25.7277 32.8118 24.615V26.1973C32.8118 26.3687 32.9493 26.5072 33.1207 26.5072H36.1691C36.251 26.5072 36.3296 26.4746 36.3875 26.4167C36.4454 26.3588 36.4779 26.2803 36.4779 26.1984V17.9101C36.4779 14.043 34.4503 12.2627 30.396 12.2627H30.397ZM21.3281 7.31367V26.1698C21.3281 26.3401 21.1906 26.4787 21.0192 26.4787H17.9433C17.8614 26.4787 17.7828 26.4461 17.7249 26.3882C17.667 26.3303 17.6345 26.2518 17.6345 26.1698V7.30838C17.6345 7.1402 17.7699 7.00482 17.937 7.00482H21.0192C21.1895 7.00482 21.3281 7.14232 21.3281 7.31367V7.31367ZM7.41469 23.2378C5.33097 23.2378 3.7761 21.7633 3.7761 19.5104C3.7761 17.2574 5.33203 15.7818 7.41469 15.7818C9.49842 15.7818 11.0247 17.2013 11.0247 19.5104C11.0247 21.7908 9.49736 23.2378 7.41469 23.2378ZM14.2984 12.5547H11.2543C11.1712 12.5547 11.0916 12.5878 11.0329 12.6465C10.9742 12.7052 10.9411 12.7847 10.9411 12.8678V14.5031C10.1637 13.2507 8.5528 12.2205 6.41513 12.2205C2.97116 12.2205 0 14.8087 0 19.4554C0 24.0723 2.83258 26.6035 6.52617 26.6035C8.52528 26.6035 10.0801 25.769 10.9972 24.4616V25.3521C10.9972 27.3544 10.0241 28.9411 6.91436 28.9411C5.35104 28.9411 4.09552 28.4196 2.99443 27.4433C2.96155 27.413 2.92234 27.3903 2.87964 27.377C2.83695 27.3636 2.79187 27.3598 2.74755 27.366C2.70324 27.3722 2.66082 27.3881 2.62341 27.4126C2.58599 27.4371 2.55449 27.4697 2.53115 27.5079L1.15082 29.8264C0.972067 30.1258 0.996353 30.295 1.10847 30.3934C2.52795 31.6278 4.37266 32.3903 7.05401 32.3903C12.8853 32.3903 14.6072 29.1368 14.6072 25.5469V12.8647C14.6074 12.824 14.5995 12.7837 14.5841 12.7462C14.5686 12.7086 14.5459 12.6744 14.5172 12.6456C14.4885 12.6168 14.4544 12.5939 14.4169 12.5783C14.3793 12.5627 14.339 12.5547 14.2984 12.5547V12.5547Z" fill="#0CAA41"/>
</svg>
