<svg width="90" height="36" viewBox="0 0 90 36" fill="none" xmlns="http://www.w3.org/2000/svg">
<path d="M0 0V2.46303H17.5183V0H0ZM20.0003 0V2.46303H44.9648C44.9648 2.46303 42.4148 0 39.0375 0H20.0003ZM49.8621 0V2.46303H64.9652L64.0688 0H49.8621ZM75.7933 0L74.8968 2.46303H89.8628V0H75.7933ZM0 4.78998V7.25301H17.5183V4.78998H0ZM20.0003 4.79349V7.2531H47.8616C47.8616 7.2531 47.5363 5.35743 46.9687 4.79349H20.0003ZM49.8621 4.79349V7.2531H66.6211L65.7914 4.79349H49.8621ZM74.0003 4.79349L73.1706 7.2531H89.8628V4.79349H74.0003V4.79349ZM5.03433 9.57996V12.0465H12.6211V9.57996H5.03433V9.57996ZM25.0348 9.57996V12.0465H32.6215V9.57996H25.0348V9.57996ZM40.0008 9.57996V12.0465H47.5875C47.5875 12.0465 48.0692 10.7439 48.0692 9.57996H40.0008V9.57996ZM54.8965 9.57996V12.0465H68.3473L67.4508 9.57996H54.8965V9.57996ZM72.348 9.57996L71.448 12.0465H84.9656V9.57996H72.348V9.57996ZM5.03433 14.3735V16.8366H12.6211V14.3735H5.03433V14.3735ZM25.0348 14.3735V16.8366H44.4128C44.4128 16.8366 46.0339 15.5728 46.5503 14.3735H25.0348ZM54.8965 14.3735V16.8366H62.4832V15.4655L62.9649 16.8366H76.8622L77.3789 15.4655V16.8366H84.9657V14.3735H70.7238L69.968 16.4597L69.2086 14.3735H54.8965ZM5.03433 19.1635V21.6266H12.6211V19.1635H5.03433ZM25.0348 19.1635V21.6266H46.5503C46.0338 20.4313 44.4128 19.1635 44.4128 19.1635H25.0348ZM54.8965 19.1635V21.6266H62.4832V19.1635H54.8965ZM63.8613 19.1635L64.7789 21.6266H75.1991L76.0711 19.1635H63.8613ZM77.3789 19.1635V21.6266H84.9656V19.1635H77.3789ZM5.03433 23.9535V26.4164H12.6211V23.9535H5.03433ZM25.0348 23.9535V26.4164H32.6215V23.9535H25.0348ZM40.0008 23.9535V26.4164H48.0691C48.0691 25.2541 47.5874 23.9535 47.5874 23.9535H40.0008V23.9535ZM54.8965 23.9535V26.4164H62.4832V23.9535H54.8965ZM65.584 23.9535L66.4735 26.4164H73.459L74.3555 23.9535H65.584ZM77.3789 23.9535V26.4164H84.9656V23.9535H77.3789ZM0.13707 28.7435V31.21H17.6554V28.7435H0.13707ZM20.0003 28.7435V31.21H46.9687C47.5363 30.6453 47.8616 28.7435 47.8616 28.7435H20.0003V28.7435ZM49.9992 28.7435V31.21H62.4832V28.7435H49.9992ZM67.3101 28.7435L68.2241 31.21H71.7784L72.6362 28.7435H67.3101ZM77.3789 28.7435V31.21H90V28.7435H77.3789ZM0.13707 33.537V36H17.6554V33.537H0.13707ZM20.0003 33.537V35.9965H39.0375C42.4148 35.9965 44.9648 33.537 44.9648 33.537H20.0003ZM49.9992 33.537V36H62.4832V33.537H49.9992ZM69.0433 33.537L69.9223 35.9931L70.0735 35.9965L70.9664 33.537H69.0433V33.537ZM77.3789 33.537V36H90V33.537H77.3789Z" fill="#1F70C1"/>
</svg>
