<svg width="128" height="40" viewBox="0 0 128 40" fill="none" xmlns="http://www.w3.org/2000/svg">
<rect width="128" height="40" fill="white"/>
<path d="M35.0294 25.1547C32.9494 25.1547 31.0003 24.274 29.2295 22.8404L29.6607 20.8166L29.6794 20.7416C30.0634 18.5868 31.2815 14.9699 35.0294 14.9699C37.8401 14.9699 40.1264 17.2562 40.1264 20.0669C40.1169 22.8684 37.8309 25.1547 35.0294 25.1547V25.1547ZM35.0294 9.80739C30.2414 9.80739 26.5312 12.9181 25.0229 18.0339C22.7178 14.5764 20.975 10.4258 19.9538 6.93091H14.8006V20.3387C14.8006 22.9809 12.6455 25.1357 10.0033 25.1357C7.36104 25.1357 5.20625 22.9809 5.20625 20.3387V6.93091H0.052488V20.3387C0.0337398 25.8294 4.50306 30.336 9.99354 30.336C15.4843 30.336 19.9536 25.8294 19.9536 20.3387V18.0901C20.956 20.1794 22.1834 22.2875 23.6732 24.1616L20.5155 39.0027H25.7908L28.0768 28.2372C30.0819 29.5208 32.3869 30.3267 35.0292 30.3267C40.6789 30.3267 45.2794 25.6982 45.2794 20.0482C45.2794 14.4077 40.6789 9.80739 35.0292 9.80739H35.0294Z" fill="#6FDA44"/>
<path d="M61.011 10.3883L64.3372 23.7961L68.0009 10.3883H72.367L66.736 29.7645H62.3696L58.9125 16.2723L55.4643 29.755H51.0982L45.4667 10.3791H49.8331L53.4965 23.7868L56.8227 10.3791H61.0108V10.3886L61.011 10.3883ZM82.814 9.8074C77.1455 9.8074 72.5544 14.4077 72.5544 20.0669C72.5544 25.7356 77.1548 30.3267 82.814 30.3267C88.4827 30.3267 93.083 25.7356 93.083 20.0669C93.083 14.3985 88.4827 9.8074 82.814 9.8074ZM82.814 26.1104C79.4785 26.1104 76.78 23.4119 76.78 20.0764C76.78 16.7407 79.4878 14.0425 82.814 14.0425C86.1497 14.0425 88.8479 16.7407 88.8479 20.0764C88.8479 23.4026 86.1497 26.1104 82.814 26.1104ZM105.554 14.7264C102.621 14.7264 100.251 17.1062 100.251 20.0294V29.755H95.8562V10.3883H100.251V13.3678C100.251 13.3678 102.125 10.3788 105.976 10.3788H107.325V14.7264H105.554V14.7264ZM120.302 19.3175C123.421 17.5559 125.539 14.211 125.539 10.3788H121.145C121.145 13.6113 118.521 16.2348 115.289 16.2348H114.698V1.03748H110.304V29.7548H114.698V20.6291H115.223C115.654 20.6291 116.217 20.9104 116.47 21.2568L122.709 29.755H127.975L120.302 19.3175V19.3175Z" fill="black"/>
</svg>
