<svg width="100" height="24" viewBox="0 0 100 24" fill="none" xmlns="http://www.w3.org/2000/svg">
<g clip-path="url(#clip0)">
<path d="M87.826 7.9986C88.3827 7.9986 88.841 7.70913 88.9029 7.33515L89.4525 1.11883C89.4525 0.504405 88.7328 0 87.8278 0C86.9236 0 86.2045 0.504403 86.2045 1.11894L86.7539 7.33515C86.8143 7.70902 87.2726 7.9986 87.8279 7.9986H87.826V7.9986ZM84.4663 9.94024C84.7455 9.45869 84.7245 8.91746 84.4301 8.67701L79.3206 5.09284C78.7894 4.78519 77.9929 5.1555 77.5408 5.9395C77.0872 6.7225 77.1676 7.597 77.6974 7.90477L83.3551 10.539C83.7088 10.6701 84.191 10.4178 84.4681 9.93658L84.4663 9.94024V9.94024ZM91.1887 9.93691C91.4675 10.4181 91.9473 10.6706 92.3013 10.5394L97.959 7.9051C98.4921 7.59745 98.5679 6.72284 98.1185 5.93983C97.6642 5.15661 96.8662 4.78552 96.3364 5.09317L91.2266 8.67734C90.9345 8.91746 90.9127 9.45913 91.1905 9.94057L91.1887 9.93691V9.93691ZM87.826 15.7637C88.3827 15.7637 88.841 16.0508 88.9029 16.4251L89.4525 22.6405C89.4525 23.2568 88.7328 23.7601 87.8278 23.7601C86.9236 23.7601 86.2045 23.2568 86.2045 22.6405L86.7539 16.4251C86.8143 16.0508 87.2726 15.7637 87.8279 15.7637H87.826V15.7637ZM91.1887 13.8216C91.4675 13.3391 91.9473 13.0889 92.3013 13.2215L97.959 15.854C98.4921 16.162 98.5679 17.0374 98.1185 17.8211C97.6642 18.6017 96.8662 18.9738 96.3364 18.6666L91.2266 15.0858C90.9345 14.8438 90.9127 14.3018 91.1905 13.8206H91.1882L91.1887 13.8216ZM84.4663 13.821C84.7455 14.3018 84.7245 14.8438 84.4301 15.0862L79.3206 18.6669C78.7894 18.9742 77.9929 18.6021 77.5408 17.8214C77.0872 17.0377 77.1676 16.1623 77.6974 15.8543L83.3551 13.2219C83.7088 13.0892 84.191 13.3394 84.4681 13.8221H84.4663" fill="#FDBB30"/>
<path d="M55.5967 15.0745C55.5967 15.2652 55.5798 15.462 55.5275 15.6348C55.3108 16.3524 54.5677 16.9593 53.6381 16.9593C52.863 16.9593 52.2474 16.519 52.2474 15.5891C52.2474 14.1658 53.8139 13.7727 55.5972 13.7826L55.5967 15.0743V15.0745ZM58.3938 12.5941C58.3938 10.2472 57.391 8.18215 54.0026 8.18215C52.2632 8.18215 50.8828 8.67069 50.1293 9.10611L50.6811 10.9929C51.3697 10.5581 52.4673 10.1982 53.5059 10.1982C55.2246 10.1934 55.5061 11.1715 55.5061 11.7975V11.9457C51.7596 11.9401 49.3913 13.2374 49.3913 15.8801C49.3913 17.4949 50.5975 19.0073 52.6943 19.0073C53.9827 19.0073 55.0618 18.493 55.7076 17.6684H55.7714C55.7714 17.6684 56.1987 19.4587 58.5578 18.7737C58.4347 18.0292 58.3942 17.2345 58.3942 16.2788L58.3939 12.5941H58.3938ZM0.0189209 4.98604C0.0189209 4.98604 2.46719 15.018 2.85813 16.6461C3.31418 18.5465 4.13611 19.2461 6.50475 18.7737L8.03338 12.5543C8.421 11.0087 8.68041 9.90675 8.93017 8.33609H8.97364C9.14899 9.92339 9.39775 11.0135 9.71672 12.5594C9.71672 12.5594 10.3387 15.3831 10.6578 16.8657C10.9772 18.3479 11.8662 19.2826 14.1866 18.7737L17.8292 4.9856H14.8891L13.6449 10.9472C13.3104 12.6817 13.0072 14.0387 12.7732 15.6252H12.7316C12.519 14.0527 12.2483 12.7511 11.9086 11.0606L10.6143 4.9856H7.55038L6.16515 10.9075C5.7731 12.7075 5.40544 14.1604 5.17253 15.6941H5.13017C4.89105 14.2499 4.57275 12.4231 4.22828 10.6815C4.22828 10.6815 3.4059 6.44568 3.11666 4.9856L0.0189209 4.98604V4.98604ZM23.3907 15.0745C23.3907 15.2652 23.3738 15.462 23.3208 15.6348C23.1045 16.3524 22.361 16.9593 21.4314 16.9593C20.6561 16.9593 20.0414 16.519 20.0414 15.5891C20.0414 14.1658 21.6075 13.7727 23.3911 13.7826L23.3907 15.0743V15.0745ZM26.1875 12.5941C26.1875 10.2472 25.1847 8.18215 21.7969 8.18215C20.0571 8.18215 18.6755 8.67069 17.9225 9.10611L18.4737 10.9929C19.1622 10.5581 20.2597 10.1982 21.2987 10.1982C23.0187 10.1934 23.3001 11.1715 23.3001 11.7975V11.9457C19.552 11.9401 17.1848 13.2374 17.1848 15.8801C17.1848 17.4949 18.3904 19.0073 20.4857 19.0073C21.7758 19.0073 22.8543 18.493 23.5009 17.6684H23.5639C23.5639 17.6684 23.9924 19.4587 26.351 18.7737C26.2276 18.0292 26.1875 17.2345 26.1875 16.2788V12.5941V12.5941ZM30.8551 15.8469V4.98604H28.0547V18.7742H30.8551V15.8469ZM67.4894 4.98604V15.1573C67.4894 16.5603 67.7539 17.5421 68.3179 18.143C68.8121 18.6684 69.624 19.0084 70.5978 19.0084C71.426 19.0084 72.2403 18.8504 72.6246 18.7079L72.5884 16.5201C72.3025 16.59 71.9742 16.6466 71.5248 16.6466C70.5706 16.6466 70.2515 16.0352 70.2515 14.7763V10.8846H72.6901V8.24614H70.2515V4.98604H67.4894V4.98604ZM60.2611 8.41605V18.7742H63.1499V13.4706C63.1499 13.1839 63.1672 12.9342 63.2126 12.7057C63.4263 11.5942 64.2759 10.8846 65.4962 10.8846C65.8307 10.8846 66.0701 10.921 66.3295 10.9578V8.24614C66.1118 8.20278 65.9641 8.18248 65.6932 8.18248C64.6152 8.18248 63.3887 8.87809 62.874 10.3702H62.7959V8.41605H60.2611ZM32.8159 8.41605V18.7742H35.6304V12.7002C35.6304 12.4151 35.6639 12.1137 35.7626 11.8524C35.9959 11.2408 36.565 10.5246 37.4732 10.5246C38.6095 10.5246 39.1401 11.4847 39.1401 12.8704V18.7734H41.9523V12.6254C41.9523 12.3535 41.9895 12.0256 42.0699 11.7858C42.3008 11.0898 42.9139 10.5238 43.7583 10.5238C44.9097 10.5238 45.4623 11.4671 45.4623 13.0981V18.7731H48.2764V12.6721C48.2764 9.45503 46.6428 8.18149 44.7984 8.18149C43.9824 8.18149 43.3375 8.38589 42.7544 8.74323C42.2647 9.0449 41.8256 9.47233 41.4424 10.0342H41.4008C40.956 8.91791 39.9096 8.18204 38.546 8.18204C36.7943 8.18204 36.0069 9.07007 35.5294 9.82313H35.4875V8.41572H32.8159" fill="#1A75CF"/>
<path d="M99.3781 18.2705H99.4206C99.4769 18.2705 99.5131 18.2473 99.5131 18.2127C99.5131 18.1733 99.4792 18.1519 99.4268 18.1519C99.4089 18.1519 99.3904 18.1555 99.3782 18.1555V18.2715V18.2704L99.3781 18.2705ZM99.3716 18.5498H99.222V18.0624C99.2559 18.0557 99.3351 18.0438 99.4365 18.0438C99.5466 18.0438 99.596 18.0594 99.6321 18.0838C99.6626 18.1051 99.6848 18.1414 99.6848 18.1906C99.6848 18.2406 99.6388 18.283 99.5709 18.3015V18.3077C99.6262 18.3224 99.6564 18.3626 99.6723 18.433C99.6873 18.5033 99.6967 18.5321 99.7061 18.5501H99.5366C99.5219 18.5321 99.5131 18.4889 99.5031 18.4459C99.4936 18.3965 99.4703 18.3718 99.4203 18.3718H99.3713L99.3716 18.5498V18.5498ZM99.4335 17.9036C99.2186 17.9036 99.0566 18.0786 99.0566 18.3017C99.0566 18.5191 99.2191 18.6964 99.4394 18.6964C99.6605 18.7001 99.823 18.5192 99.823 18.2982C99.823 18.0781 99.6605 17.9036 99.4368 17.9036H99.4335ZM99.4431 17.7712C99.7426 17.7712 99.9814 18.007 99.9814 18.298C99.9814 18.5925 99.7426 18.8286 99.439 18.8286C99.1355 18.8286 98.8937 18.5922 98.8937 18.2982C98.8937 18.007 99.1358 17.7714 99.439 17.7714H99.4423" fill="#FDBB30"/>
</g>
<defs>
<clipPath id="clip0">
<rect width="100" height="23.76" fill="white"/>
</clipPath>
</defs>
</svg>
