<svg width="24" height="24" viewBox="0 0 24 24" fill="none" xmlns="http://www.w3.org/2000/svg">
<path opacity="0.4" fill-rule="evenodd" clip-rule="evenodd" d="M11.9902 3.8819H12C13.3951 3.8819 14.7512 4.21663 16 4.84573L12.7415 8.13497C12.5073 8.09559 12.2537 8.06606 12 8.06606C9.8439 8.06606 8.09756 9.82833 8.09756 12.0041C8.09756 12.2601 8.12683 12.516 8.16585 12.7523L4.5561 16.395C3.58049 15.253 2.73171 13.8737 2.05854 12.2896C1.98049 12.1124 1.98049 11.8958 2.05854 11.7087C4.14634 6.80589 7.86341 3.8819 11.9902 3.8819ZM18.4293 6.54991C19.8439 7.84947 21.0439 9.60189 21.9415 11.7087C22.0195 11.8958 22.0195 12.1124 21.9415 12.2896C19.8537 17.1925 16.1366 20.1263 12 20.1263H11.9902C10.1073 20.1263 8.30244 19.506 6.71219 18.3739L9.80488 15.253C10.4293 15.6753 11.1902 15.9323 12 15.9323C14.1463 15.9323 15.8927 14.17 15.8927 12.0041C15.8927 11.1869 15.639 10.419 15.2195 9.78895L18.4293 6.54991Z" fill="#200E32"/>
<path fill-rule="evenodd" clip-rule="evenodd" d="M16.982 6.87014L18.6532 5.18373C18.9286 4.91501 18.9286 4.47025 18.6532 4.20154C18.3869 3.93282 17.9553 3.93282 17.6798 4.20154L16.8167 5.07254C16.8075 5.09107 16.7892 5.1096 16.7708 5.12813C16.7616 5.14667 16.7432 5.1652 16.7249 5.18373L15.9077 6.00933L12.9969 8.94664L3.1444 18.8881L3.11685 18.9252C2.93321 19.1939 2.96994 19.5655 3.19949 19.7971C3.32804 19.9352 3.51169 20 3.68615 20C3.86061 20 4.03507 19.9352 4.17281 19.7971L13.961 9.91864L16.982 6.87014ZM10.931 14.3111C12.189 14.3111 13.2174 13.2733 13.2174 12.0039C13.2174 11.6147 13.1255 11.244 12.9603 10.929L9.86587 14.0516C10.1781 14.2184 10.5453 14.3111 10.931 14.3111Z" fill="#200E32"/>
</svg>
