<svg width="100" height="20" viewBox="0 0 100 20" fill="none" xmlns="http://www.w3.org/2000/svg">
<g clip-path="url(#clip0)">
<path d="M95.7381 2.51257C95.7381 1.37726 96.65 0.44668 97.7667 0.44668C98.3065 0.44668 98.809 0.670019 99.1998 1.04225C99.5907 1.4331 99.7954 1.95422 99.7954 2.49396C99.7954 3.0337 99.5907 3.55482 99.1998 3.94567C98.809 4.33651 98.3065 4.55985 97.7667 4.55985C96.65 4.55985 95.7381 3.64788 95.7381 2.51257ZM95.5706 2.51257C95.5706 3.74094 96.557 4.74597 97.7853 4.74597C98.3809 4.74597 98.9206 4.52263 99.3301 4.09456C99.7395 3.66649 99.9815 3.10814 99.9815 2.51257C99.9815 1.917 99.7582 1.35865 99.3301 0.930582C98.902 0.502514 98.3623 0.279175 97.7853 0.279175C96.557 0.279175 95.5706 1.2842 95.5706 2.51257ZM96.9478 3.834H97.2642V2.79175H97.9714C98.0831 2.79175 98.1762 2.79175 98.2506 2.82897C98.3437 2.88481 98.3995 2.99647 98.4181 3.14537L98.4554 3.55482V3.74094C98.474 3.77816 98.474 3.79678 98.4926 3.81539H98.8834V3.75955C98.8276 3.74094 98.809 3.68511 98.7904 3.61066C98.7718 3.57344 98.7717 3.49899 98.7717 3.40593L98.7531 3.08953C98.7531 2.94064 98.7159 2.84758 98.6787 2.79175C98.6229 2.73591 98.5484 2.68008 98.4554 2.64285C98.567 2.58702 98.6415 2.51257 98.6973 2.41951C98.7531 2.32646 98.7717 2.21479 98.7717 2.06589C98.7717 1.78672 98.6601 1.6006 98.4554 1.48893C98.3437 1.4331 98.1948 1.41449 98.0273 1.41449H96.9664L96.9478 3.834ZM97.2456 2.51257V1.67505H97.9901C98.1017 1.67505 98.1948 1.69366 98.2506 1.73088C98.3623 1.78672 98.4181 1.917 98.4181 2.0845C98.4181 2.25201 98.3809 2.36368 98.2878 2.41951C98.2134 2.47535 98.1017 2.51257 97.9528 2.51257H97.2456ZM9.0638 5.58349L0.0185547 19.8028H6.19761L14.9078 6.21629L9.0638 5.58349ZM46.3056 5.2671V0H28.7177C26.3168 0.148893 25.2745 1.30282 24.4928 2.12173C23.6553 2.99647 23.19 4.83903 23.19 4.83903V0.0372233H13.8284C13.1211 0.0372233 12.4511 0.33501 11.9486 1.04225C11.4275 1.73088 9.28714 5.2671 9.28714 5.2671H46.3056ZM94.1375 5.2671V0H75.3211C72.9388 0.148893 71.878 1.30282 71.0963 2.12173C70.2588 2.99647 69.7935 4.83903 69.7935 4.83903V5.2671H94.1375ZM52.4847 0.0186116H47.2176V5.2671H52.4847V0.0186116ZM69.7376 0.0186116H64.4892V5.2671H69.7376V0.0186116ZM69.7376 7.16548L64.5636 6.84909V12.9351C64.5636 12.9351 64.545 14.6846 62.8513 14.6846H53.9922C53.9922 14.6846 52.4847 14.5543 52.4847 12.9537V6.03017L47.2734 5.65794V14.9824C48.1109 19.4492 52.1497 19.8028 52.1497 19.8028C52.1497 19.8028 52.5591 19.8214 52.6336 19.84H64.6381C64.6381 19.84 69.7749 19.4306 69.7749 14.4799L69.7376 7.16548ZM17.8299 19.8028H42.4344C46.7151 18.9467 47.1618 15.0382 47.1618 15.0382C47.3665 13.8843 47.2548 12.9351 47.2548 12.9351C47.1245 12.1534 45.6356 8.69164 42.4344 8.39385C40.5174 8.20774 23.4506 6.84909 23.4506 6.84909C23.7856 8.56136 24.5487 9.4361 25.0698 9.92001C26.2609 11.0553 28.1407 11.3903 28.1407 11.3903L41.2991 12.4884C41.7086 12.507 42.4716 12.6187 42.453 13.6237C42.453 13.754 42.3414 14.6288 41.3735 14.6288H22.9667V6.81186L17.8485 6.43963C17.8299 6.43963 17.8299 19.8028 17.8299 19.8028V19.8028ZM69.7749 19.84H88.6098C93.3372 19.5608 94.0072 15.0754 94.0072 15.0754C94.1747 13.9029 94.0444 12.9351 94.0444 12.9351C93.9141 11.8742 92.4066 8.67303 89.1868 8.35663C87.2884 8.17051 70.1099 7.16548 70.1099 7.16548C70.6124 8.93359 71.301 9.47333 71.8221 9.95723C73.0133 11.1112 74.7814 11.3717 74.7814 11.3717C75.2281 11.4089 88.0701 12.4884 88.0701 12.4884C88.4795 12.507 89.317 12.5442 89.317 13.5493C89.317 13.8471 89.1682 14.1635 88.982 14.331C88.982 14.331 88.5354 14.5729 88.1073 14.5729H69.8307L69.7749 19.84Z" fill="#00539B"/>
</g>
<defs>
<clipPath id="clip0">
<rect width="100" height="19.84" fill="white"/>
</clipPath>
</defs>
</svg>
