<svg width="128" height="40" viewBox="0 0 128 40" fill="none" xmlns="http://www.w3.org/2000/svg">
<g clip-path="url(#clip0)">
<rect width="128" height="40" fill="white"/>
<path d="M0 16.3893H11.7333H18.8587V9.328L0 16.3893Z" fill="#FF9D28"/>
<path d="M18.8587 9.328V34.288L27.776 6L18.8587 9.328Z" fill="#68C5ED"/>
<path d="M18.8587 16.3893H11.7333L18.8587 34.2667V16.3893Z" fill="#044D80"/>
<path d="M0 16.3893L13.568 20.976L11.7333 16.3893H0Z" fill="#E54747"/>
<path d="M43.2213 27.696C43.1147 27.8026 42.944 27.9306 42.7093 28.08C42.4747 28.2293 42.1547 28.4 41.7707 28.5493C41.3867 28.6986 40.9173 28.848 40.3413 28.9546C39.7867 29.0613 39.1467 29.1253 38.4213 29.1253C37.0347 29.1253 35.8187 28.8906 34.7947 28.464C33.7707 28.016 32.9387 27.3973 32.2773 26.5866C31.616 25.776 31.1253 24.8373 30.8267 23.7493C30.5067 22.6613 30.3573 21.4453 30.3573 20.144C30.3573 18.8426 30.528 17.6266 30.8693 16.5173C31.2107 15.408 31.7013 14.448 32.384 13.6373C33.0453 12.8266 33.8987 12.1866 34.9013 11.7386C35.904 11.2906 37.0987 11.056 38.464 11.056C39.1253 11.056 39.744 11.12 40.2773 11.2266C40.8107 11.3546 41.3013 11.4826 41.7067 11.6533C42.112 11.824 42.4533 11.9946 42.7093 12.1653C42.9867 12.336 43.1787 12.5066 43.3067 12.6133C43.456 12.7413 43.6053 12.912 43.712 13.104C43.8187 13.296 43.8827 13.5093 43.8827 13.7226C43.8827 14.064 43.7547 14.4053 43.4987 14.7466C43.2427 15.088 42.9653 15.408 42.6453 15.7066C42.432 15.4933 42.1973 15.28 41.9413 15.0666C41.6853 14.8533 41.3867 14.6613 41.0667 14.4906C40.7467 14.32 40.384 14.192 39.9787 14.0853C39.5733 13.9786 39.1253 13.9146 38.6133 13.9146C37.7387 13.9146 36.992 14.0853 36.3947 14.448C35.7973 14.8106 35.328 15.2586 34.9653 15.8346C34.6027 16.4106 34.3467 17.0506 34.1973 17.776C34.048 18.5013 33.9627 19.248 33.9627 20.016C33.9627 20.8266 34.048 21.5946 34.1973 22.3413C34.3467 23.088 34.624 23.728 35.008 24.304C35.392 24.88 35.8827 25.328 36.5013 25.6693C37.12 26.0106 37.8667 26.1813 38.784 26.1813C39.2747 26.1813 39.7013 26.1173 40.1067 26.0106C40.512 25.8826 40.8747 25.7333 41.1733 25.5626C41.4933 25.392 41.7493 25.2 41.984 25.0293C42.2187 24.8373 42.4107 24.6666 42.56 24.5386C42.6667 24.6666 42.7733 24.816 42.9227 24.9866C43.072 25.1573 43.2 25.3493 43.3067 25.52C43.4347 25.712 43.52 25.904 43.6267 26.096C43.712 26.288 43.7547 26.4586 43.7547 26.608C43.7547 26.8426 43.712 27.0133 43.6267 27.184C43.5413 27.3333 43.392 27.504 43.2213 27.696ZM56.5333 25.712C56.5333 27.0773 56.7253 28.08 57.1307 28.6986C56.8107 28.8266 56.5333 28.912 56.256 28.9546C55.9787 28.9973 55.7013 29.04 55.4027 29.04C54.784 29.04 54.3147 28.912 53.9947 28.6773C53.6747 28.4426 53.4613 28.08 53.376 27.632C52.992 28.0373 52.5013 28.3786 51.8613 28.656C51.2427 28.9333 50.4747 29.0613 49.5787 29.0613C49.1093 29.0613 48.64 28.9973 48.1707 28.8693C47.7013 28.7413 47.2747 28.528 46.8907 28.2293C46.5067 27.9306 46.208 27.5466 45.952 27.056C45.7173 26.5653 45.5893 25.968 45.5893 25.264C45.5893 24.3893 45.8027 23.664 46.2293 23.1093C46.656 22.5546 47.1893 22.128 47.8293 21.808C48.4693 21.488 49.1733 21.2746 49.8987 21.1466C50.6453 21.0186 51.328 20.9546 51.9467 20.912C52.16 20.8906 52.352 20.8906 52.5653 20.8906H53.12V20.4213C53.12 19.76 52.9493 19.2906 52.5867 18.992C52.224 18.7146 51.648 18.5653 50.8587 18.5653C50.112 18.5653 49.4507 18.6933 48.8747 18.928C48.2987 19.1626 47.7227 19.44 47.168 19.76C46.9333 19.4613 46.72 19.1413 46.592 18.7786C46.4427 18.416 46.3787 18.16 46.3787 17.9893C46.3787 17.7546 46.5067 17.52 46.784 17.2853C47.0613 17.0506 47.424 16.8586 47.8933 16.6666C48.3627 16.4746 48.896 16.3466 49.5147 16.2186C50.112 16.112 50.752 16.048 51.4347 16.048C52.3733 16.048 53.1627 16.1333 53.8027 16.3253C54.4427 16.5173 54.976 16.816 55.3813 17.2C55.7867 17.6053 56.0853 18.096 56.256 18.6933C56.4267 19.2906 56.512 19.9946 56.512 20.784L56.5333 25.712ZM53.2053 22.704H52.8427C52.7147 22.704 52.608 22.704 52.48 22.7253C52.0533 22.768 51.6267 22.8106 51.2 22.8746C50.7733 22.9386 50.3893 23.0666 50.0693 23.2373C49.7493 23.408 49.472 23.6426 49.2587 23.92C49.0453 24.1973 48.9387 24.56 48.9387 24.9866C48.9387 25.4773 49.0667 25.8826 49.344 26.224C49.6213 26.5653 50.0907 26.736 50.752 26.736C51.072 26.736 51.392 26.6933 51.6907 26.608C51.9893 26.5226 52.2453 26.416 52.48 26.2666C52.7147 26.1173 52.8853 25.968 53.0133 25.8186C53.1413 25.648 53.2053 25.4986 53.2053 25.3706V22.704ZM62.9973 17.584C63.2747 17.264 63.7013 16.9226 64.2987 16.5813C64.896 16.24 65.6213 16.0693 66.5173 16.0693C67.1573 16.0693 67.776 16.176 68.352 16.3893C68.928 16.6026 69.44 16.9653 69.888 17.4346C70.336 17.9253 70.6987 18.5653 70.9547 19.3546C71.232 20.144 71.36 21.1253 71.36 22.2986C71.36 23.6426 71.2107 24.7733 70.8907 25.648C70.5707 26.5226 70.1867 27.2266 69.696 27.7173C69.2053 28.2293 68.6507 28.592 68.0533 28.8053C67.456 29.0186 66.8373 29.1253 66.24 29.1253C65.7493 29.1253 65.3013 29.0613 64.9387 28.9546C64.576 28.848 64.256 28.72 64 28.5706C63.744 28.4426 63.552 28.2933 63.4027 28.1653C63.2747 28.0373 63.168 27.9306 63.1467 27.888V34.288H59.6053V16.4533C59.6907 16.432 59.7973 16.4106 59.9253 16.4106C60.032 16.3893 60.16 16.3893 60.288 16.368C60.4373 16.368 60.5867 16.3466 60.7787 16.3466C61.3547 16.3466 61.8453 16.432 62.2507 16.624C62.6347 16.816 62.8907 17.136 62.9973 17.584ZM67.6907 22.384C67.6907 21.872 67.648 21.3813 67.5627 20.9333C67.4773 20.4853 67.328 20.1013 67.136 19.76C66.944 19.44 66.6667 19.184 66.3253 18.992C65.984 18.8 65.5787 18.7146 65.088 18.7146C64.3627 18.7146 63.8507 18.864 63.5733 19.12C63.296 19.3973 63.1467 19.696 63.1467 20.0373V25.5626C63.2747 25.712 63.5307 25.8613 63.8933 26.0533C64.256 26.2453 64.6613 26.3306 65.1307 26.3306C66.0053 26.3306 66.6453 25.9893 67.072 25.2853C67.4773 24.6026 67.6907 23.6426 67.6907 22.384ZM74.0907 26.864C73.9627 26.5226 73.8987 26.16 73.856 25.776C73.8133 25.392 73.8133 25.008 73.8133 24.624V12.5706C73.9413 12.5493 74.0693 12.528 74.1973 12.528C74.3253 12.5066 74.4533 12.5066 74.5813 12.4853C74.7093 12.4853 74.8587 12.464 74.9867 12.464C75.264 12.464 75.5413 12.4853 75.8187 12.5493C76.096 12.592 76.352 12.6986 76.5653 12.8693C76.8 13.0186 76.9707 13.232 77.12 13.5093C77.248 13.7866 77.3333 14.128 77.3333 14.5546V16.4106H80.9813V19.0346H77.3547V24.5813C77.3547 25.7973 77.8453 26.3946 78.8267 26.3946C79.0613 26.3946 79.296 26.352 79.5093 26.288C79.7227 26.2026 79.9147 26.1173 80.0853 26.032C80.256 25.9466 80.4053 25.84 80.5333 25.7333C80.6613 25.6266 80.7467 25.5413 80.8107 25.4986C81.0667 25.8826 81.28 26.2026 81.408 26.48C81.536 26.7573 81.6213 27.0133 81.6213 27.2693C81.6213 27.504 81.536 27.7173 81.344 27.9306C81.152 28.144 80.896 28.3573 80.576 28.528C80.256 28.72 79.8507 28.8693 79.3813 28.976C78.912 29.0826 78.4 29.1466 77.8453 29.1466C76.7787 29.1466 75.9253 28.9333 75.328 28.528C74.7733 28.08 74.3467 27.5466 74.0907 26.864ZM89.9413 26.5226C90.368 26.5226 90.752 26.48 91.0933 26.3733C91.4133 26.288 91.712 26.16 91.9893 26.032C92.2453 25.904 92.48 25.7333 92.672 25.584C92.864 25.4133 93.0347 25.264 93.184 25.136C93.3973 25.392 93.6107 25.7333 93.8453 26.1386C94.08 26.544 94.1867 26.8853 94.1867 27.1413C94.1867 27.5253 93.9733 27.8666 93.5467 28.1866C93.184 28.464 92.672 28.6986 91.9893 28.912C91.328 29.104 90.5387 29.2106 89.6427 29.2106C88.832 29.2106 88.0213 29.104 87.232 28.8906C86.4427 28.6773 85.7387 28.3146 85.12 27.8026C84.5013 27.2906 84.0107 26.5866 83.6267 25.712C83.2427 24.8373 83.0507 23.728 83.0507 22.4053C83.0507 21.3173 83.2213 20.3786 83.5627 19.5893C83.904 18.8 84.352 18.1386 84.9067 17.6266C85.4613 17.1146 86.1013 16.7306 86.8267 16.4746C87.5307 16.24 88.256 16.112 89.0027 16.112C89.9627 16.112 90.7947 16.2613 91.4773 16.56C92.16 16.8586 92.6933 17.264 93.12 17.776C93.5467 18.288 93.8453 18.864 94.0373 19.5253C94.2293 20.1866 94.3147 20.8693 94.3147 21.5946V21.9573C94.3147 22.1066 94.3147 22.2346 94.2933 22.4053C94.2933 22.5546 94.272 22.704 94.272 22.8533C94.272 23.0026 94.2507 23.1093 94.2293 23.1946H86.5707C86.6347 24.1546 86.9333 24.944 87.4667 25.584C87.9787 26.2026 88.8107 26.5226 89.9413 26.5226ZM91.136 21.2533C91.136 20.4213 90.9653 19.7386 90.6453 19.2266C90.3253 18.7146 89.7493 18.4373 88.9173 18.4373C88.192 18.4373 87.6373 18.6933 87.2107 19.184C86.784 19.6746 86.5707 20.3573 86.5707 21.2533H91.136ZM100.48 17.648C100.587 17.4986 100.715 17.328 100.885 17.136C101.056 16.944 101.269 16.7733 101.525 16.624C101.781 16.4746 102.059 16.3466 102.357 16.24C102.656 16.1333 102.976 16.0906 103.339 16.0906C103.552 16.0906 103.765 16.112 104 16.1333C104.235 16.176 104.448 16.24 104.64 16.3253C104.832 16.4106 105.003 16.5386 105.131 16.7093C105.259 16.88 105.323 17.072 105.323 17.3066C105.323 17.6906 105.237 18.1173 105.045 18.608C104.853 19.0986 104.661 19.5253 104.469 19.8666C104.171 19.632 103.872 19.44 103.595 19.312C103.296 19.184 102.955 19.12 102.549 19.12C102.016 19.12 101.568 19.2693 101.205 19.5893C100.843 19.9093 100.651 20.272 100.651 20.72V29.1253H97.1093V16.432C97.1947 16.4106 97.3013 16.3893 97.4293 16.3893C97.536 16.368 97.664 16.368 97.792 16.3466C97.92 16.3466 98.0907 16.3253 98.2827 16.3253C98.8373 16.3253 99.328 16.432 99.7333 16.6453C100.117 16.88 100.373 17.2 100.48 17.648ZM110.528 17.648C110.635 17.4986 110.763 17.328 110.933 17.136C111.104 16.944 111.317 16.7733 111.573 16.624C111.829 16.4746 112.107 16.3466 112.405 16.24C112.704 16.1333 113.024 16.0906 113.387 16.0906C113.6 16.0906 113.813 16.112 114.048 16.1333C114.283 16.176 114.496 16.24 114.688 16.3253C114.88 16.4106 115.051 16.5386 115.179 16.7093C115.307 16.88 115.371 17.072 115.371 17.3066C115.371 17.6906 115.285 18.1173 115.093 18.608C114.901 19.0986 114.709 19.5253 114.517 19.8666C114.219 19.632 113.92 19.44 113.643 19.312C113.344 19.184 113.003 19.12 112.597 19.12C112.064 19.12 111.616 19.2693 111.253 19.5893C110.891 19.9093 110.699 20.272 110.699 20.72V29.1253H107.157V16.432C107.243 16.4106 107.349 16.3893 107.477 16.3893C107.584 16.368 107.712 16.368 107.84 16.3466C107.968 16.3466 108.139 16.3253 108.331 16.3253C108.885 16.3253 109.376 16.432 109.781 16.6453C110.165 16.88 110.421 17.2 110.528 17.648ZM127.403 25.712C127.403 27.0773 127.595 28.08 128 28.6986C127.68 28.8266 127.403 28.912 127.125 28.9546C126.848 28.9973 126.571 29.04 126.272 29.04C125.653 29.04 125.184 28.912 124.864 28.6773C124.544 28.4426 124.331 28.08 124.245 27.632C123.861 28.0373 123.371 28.3786 122.731 28.656C122.112 28.9333 121.344 29.0613 120.448 29.0613C119.979 29.0613 119.509 28.9973 119.04 28.8693C118.571 28.7413 118.144 28.528 117.76 28.2293C117.376 27.9306 117.077 27.5466 116.821 27.056C116.587 26.5653 116.459 25.968 116.459 25.264C116.459 24.3893 116.672 23.664 117.099 23.1093C117.525 22.5546 118.059 22.128 118.699 21.808C119.339 21.488 120.043 21.2746 120.768 21.1466C121.515 21.0186 122.197 20.9546 122.816 20.912C123.029 20.8906 123.221 20.8906 123.435 20.8906H123.989V20.4213C123.989 19.76 123.819 19.2906 123.456 18.992C123.093 18.7146 122.517 18.5653 121.728 18.5653C120.981 18.5653 120.32 18.6933 119.744 18.928C119.168 19.1626 118.592 19.44 118.037 19.76C117.803 19.4613 117.589 19.1413 117.461 18.7786C117.312 18.416 117.248 18.16 117.248 17.9893C117.248 17.7546 117.376 17.52 117.653 17.2853C117.931 17.0506 118.293 16.8586 118.763 16.6666C119.232 16.4746 119.765 16.3466 120.384 16.2186C120.981 16.112 121.621 16.048 122.304 16.048C123.243 16.048 124.032 16.1333 124.672 16.3253C125.312 16.5173 125.845 16.816 126.251 17.2C126.656 17.6053 126.955 18.096 127.125 18.6933C127.296 19.2906 127.381 19.9946 127.381 20.784L127.403 25.712ZM124.075 22.704H123.712C123.584 22.704 123.477 22.704 123.349 22.7253C122.923 22.768 122.496 22.8106 122.069 22.8746C121.643 22.9386 121.259 23.0666 120.939 23.2373C120.619 23.408 120.341 23.6426 120.128 23.92C119.915 24.1973 119.808 24.56 119.808 24.9866C119.808 25.4773 119.936 25.8826 120.213 26.224C120.491 26.5653 120.96 26.736 121.621 26.736C121.941 26.736 122.261 26.6933 122.56 26.608C122.859 26.5226 123.115 26.416 123.349 26.2666C123.584 26.1173 123.755 25.968 123.883 25.8186C124.011 25.648 124.075 25.4986 124.075 25.3706V22.704Z" fill="#044D80"/>
</g>
<defs>
<clipPath id="clip0">
<rect width="128" height="40" fill="white"/>
</clipPath>
</defs>
</svg>
