<svg width="100" height="16" viewBox="0 0 100 16" fill="none" xmlns="http://www.w3.org/2000/svg">
<g clip-path="url(#clip0)">
<path d="M98.4774 0.753235C97.6614 0.753235 96.946 1.38094 96.946 2.23461C96.946 3.10084 97.6616 3.7411 98.4774 3.7411C99.3059 3.7411 99.9965 3.10084 99.9965 2.23461C99.9964 1.38094 99.3059 0.753235 98.4774 0.753235V0.753235ZM98.4774 3.49002C97.7993 3.49002 97.2723 2.96275 97.2723 2.23461C97.2723 1.53159 97.7993 1.00414 98.4774 1.00414C99.1554 1.00414 99.6951 1.53141 99.6951 2.23461C99.6951 2.96275 99.1553 3.49002 98.4774 3.49002Z" fill="black"/>
<path d="M99.1683 1.87055C99.1683 1.53159 98.9675 1.38094 98.5656 1.38094H97.9128V3.10085H98.1764V2.36016H98.4651L98.4777 2.37271L98.9171 3.10085H99.2186L98.7288 2.34761C98.9799 2.30994 99.1683 2.17185 99.1683 1.87055V1.87055ZM98.1762 2.13419V1.60692H98.5277C98.7038 1.60692 98.8921 1.64458 98.8921 1.858C98.8921 2.12163 98.7038 2.13419 98.4777 2.13419H98.1762V2.13419ZM7.49855 12.9307L4.24705 15.5796C4.14662 15.5796 4.04619 15.5921 3.95831 15.5921C0.932958 15.5921 0.00378418 14.3618 0.00378418 11.7506V3.85409C0.00378418 1.24285 0.932958 0 3.95831 0C7.07171 0 8.00071 1.24285 8.00071 3.85409V6.51555H4.91241V3.30171C4.91241 2.81211 4.54835 2.56102 4.04619 2.56102C3.61935 2.56102 3.1674 2.81211 3.1674 3.30171V12.3281C3.1674 12.8302 3.61935 13.1566 4.04619 13.1566C4.47302 13.1566 4.91241 12.8928 4.91241 12.3281V9.25216H8.00071V11.7504C8.00071 12.0643 7.85006 12.6545 7.49855 12.9307V12.9307ZM16.0353 0.477054H11.2648L8.67863 12.0268L13.5747 8.07225L13.6626 8.00948L18.6214 12.0268L16.0353 0.477054V0.477054ZM13.5747 7.44455H12.6457L13.5747 3.2515V3.26388L14.5039 7.44455H13.5747ZM23.166 15.68L20.3037 13.3826V3.36448H18.0188V0.477054H26.1036V3.36448H23.8314V15.68H23.166V15.68ZM26.995 15.68H34.4772V12.8553H30.2716V9.26488H33.7993V6.47789H30.2716V3.26405H34.2512V0.477054H26.995V15.68ZM44.7087 13.8346V10.1437C44.7087 8.43632 43.7044 7.93415 42.8256 7.74602V7.68307C43.5286 7.43217 44.7087 6.64126 44.7087 5.0469V3.26405C44.7087 1.50649 42.9637 0.477228 41.4698 0.477228H36.0592V15.68H39.386V9.02636L40.4154 9.0138H40.4531C40.9678 9.00142 41.5202 9.64168 41.5202 10.1062V13.7718C41.5202 14.5378 41.6081 15.1653 41.834 15.68H45.0102C44.7841 15.1653 44.7087 14.5376 44.7087 13.8346V13.8346ZM41.4321 5.56144C41.4321 6.15148 40.905 6.50299 40.4152 6.55321C40.3776 6.56576 40.3274 6.56576 40.2897 6.56576H39.3858V2.97513L40.4152 3.00042H40.478C41.0932 3.01297 41.4321 3.40215 41.4321 4.05496V5.56144V5.56144ZM96.1299 13.8346V10.1437C96.1299 8.43632 95.1381 7.93415 94.247 7.74602V7.68307C94.9498 7.43217 96.1299 6.64126 96.1299 5.0469V3.26405C96.1299 1.50649 94.3975 0.477228 92.8913 0.477228H87.4803V15.68H90.8197V9.02636L91.8366 9.0138H91.8744C92.4015 9.00142 92.9539 9.64168 92.9539 10.1062V13.7718C92.9539 14.5378 93.0292 15.1653 93.2554 15.68H96.4314C96.2054 15.1653 96.1299 14.5376 96.1299 13.8346V13.8346ZM92.866 5.56144C92.866 6.15148 92.3389 6.50299 91.8366 6.55321C91.7988 6.56576 91.7613 6.56576 91.7236 6.56576H90.8197V2.97513L91.8366 3.00042H91.8992C92.5269 3.01297 92.866 3.40215 92.866 4.05496V5.56144V5.56144ZM52.0401 0.477054H46.4035V15.6798H49.7052V9.55363H51.4126C54.2371 9.55363 54.9778 8.12247 54.9778 4.85841C54.9778 2.87488 54.5258 0.477054 52.0401 0.477054V0.477054ZM50.697 6.98005C50.584 6.9926 50.4709 6.9926 50.3329 6.9926H49.7052V3.08829H50.2574C50.421 3.08829 50.5715 3.10085 50.697 3.11358C51.8771 3.25167 51.7013 4.00474 51.7013 5.05945C51.7013 6.05105 51.8896 6.85451 50.697 6.98005V6.98005ZM56.07 15.68H59.334V0.477054H56.07V15.68V15.68ZM61.2673 15.68H68.1973V12.8302H64.632V0.477054H61.2673V15.68ZM69.0636 15.68H75.9808V12.8302H72.4153V0.477054H69.0636V15.68ZM83.6763 0.477054H79.1821L76.596 15.6798H79.9228L80.2869 12.9305H82.7599L83.0864 15.6798H86.5637L83.6763 0.477054V0.477054ZM81.4542 10.2064H80.6007L81.4542 3.42725L81.4795 3.26388L82.3081 10.2063H81.4542V10.2064Z" fill="black"/>
<path d="M13.6752 9.25214L5.70337 15.68H21.647L13.6752 9.25214V9.25214Z" fill="#FADF3C"/>
</g>
<defs>
<clipPath id="clip0">
<rect width="100" height="15.68" fill="white"/>
</clipPath>
</defs>
</svg>
