<svg width="118" height="40" viewBox="0 0 118 40" fill="none" xmlns="http://www.w3.org/2000/svg">
<rect width="118" height="40" fill="white"/>
<path d="M31.352 3.33331H36.6512V36.0501H31.352V3.33331Z" fill="#17313B"/>
<path d="M55.0832 25.6821C55.0832 30.7509 50.936 31.2117 49.5536 31.2117C46.328 31.2117 45.8672 28.2165 45.8672 26.6037V13.9317H40.568V26.3733C40.568 29.3685 41.4896 32.1333 43.3328 33.7461C44.9456 35.3589 47.0192 36.0501 49.5536 36.0501C51.3968 36.0501 53.7008 35.5893 55.0832 34.2069V36.0501H60.3824V13.9317H55.0832V25.6821Z" fill="#17313B"/>
<path d="M70.7504 5.86774H65.4512V13.9317H61.5344V19.0005H65.4512V36.0501H70.7504V19.0005H74.6672V13.9317H70.7504V5.86774Z" fill="#17313B"/>
<path d="M91.256 29.3686C90.104 30.2902 88.4912 30.9814 86.8784 30.9814C83.192 30.9814 80.6576 28.2165 80.6576 24.5301C80.6576 20.8437 83.192 18.3093 86.8784 18.3093C88.4912 18.3093 90.104 18.7701 91.256 19.9221L91.9472 20.6133L95.6336 17.1573L94.712 16.4661C92.6384 14.6229 89.8736 13.4709 86.8784 13.4709C80.4272 13.4709 75.5888 18.3093 75.5888 24.7605C75.5888 31.2117 80.4272 36.0502 86.8784 36.0502C89.8736 36.0502 92.6384 34.8982 94.712 33.055L95.6336 32.3638L91.9472 28.6774L91.256 29.3686Z" fill="#17313B"/>
<path d="M114.296 15.7749C112.683 14.1621 111.07 13.4709 108.536 13.4709C106.693 13.4709 104.85 13.9317 103.467 15.3141V3.33331H98.168V36.0501H103.467V23.8389C103.467 18.7701 106.923 18.3093 108.306 18.3093C111.531 18.3093 111.301 21.3045 111.301 22.9173V35.8197H116.6V23.1477C116.6 20.1525 115.909 17.3877 114.296 15.7749Z" fill="#17313B"/>
<path d="M86.648 28.4469C88.684 28.4469 90.3344 26.7964 90.3344 24.7605C90.3344 22.7245 88.684 21.0741 86.648 21.0741C84.612 21.0741 82.9616 22.7245 82.9616 24.7605C82.9616 26.7964 84.612 28.4469 86.648 28.4469Z" fill="#EF4335"/>
<path d="M23.9792 27.9861C22.136 29.8293 19.3712 30.9813 16.376 30.9813C10.616 30.9813 6.4688 26.3733 6.4688 20.1525C6.4688 13.9317 10.616 9.32374 16.6064 9.32374C19.3712 9.32374 22.136 10.4757 24.2096 12.5493L24.9008 13.2405L28.3568 9.78454L27.6656 9.09334C24.6704 6.09813 20.7536 4.48533 16.6064 4.48533C7.8512 4.25493 1.4 11.1669 1.4 20.1525C1.4 29.1381 7.8512 36.0501 16.376 36.0501C20.5232 36.0501 24.6704 34.4373 27.4352 31.4421L28.1264 30.7509L24.6704 27.2949L23.9792 27.9861Z" fill="#17313B"/>
</svg>
