<svg width="100" height="33" viewBox="0 0 100 33" fill="none" xmlns="http://www.w3.org/2000/svg">
<g clip-path="url(#clip0)">
<path d="M12.3156 0.00292969H13.2048C16.2921 0.0700438 19.329 1.31165 21.5102 3.50964C20.7048 4.33179 19.8827 5.12038 19.0941 5.94253C17.8693 4.83514 16.3927 3.97944 14.782 3.67743C12.3995 3.17407 9.83234 3.62709 7.83569 4.98615C5.65449 6.41233 4.17798 8.82843 3.85918 11.4123C3.50683 13.9627 4.22831 16.6472 5.88938 18.6271C7.48334 20.5566 9.91623 21.7647 12.433 21.8486C14.782 21.9828 17.2317 21.2613 18.9431 19.617C20.2854 18.4593 20.9062 16.6976 21.1075 14.9862C18.3223 14.9862 15.537 15.0029 12.7518 14.9862V11.5298H24.48C25.084 15.2378 24.2115 19.4157 21.3927 22.0667C19.5135 23.9459 16.9129 25.0533 14.2619 25.2714C11.6948 25.5231 9.04375 25.0365 6.76187 23.7949C4.02697 22.3351 1.84576 19.8687 0.771934 16.966C-0.234777 14.2982 -0.251556 11.2781 0.688042 8.59353C1.54375 6.14387 3.18804 3.97944 5.30214 2.46937C7.33234 0.976084 9.79878 0.153936 12.3156 0.00292969Z" fill="black"/>
<path d="M79.5974 0.875427H83.188V24.8352C81.9967 24.8352 80.7887 24.8519 79.5974 24.8184C79.6142 16.8486 79.5974 8.862 79.5974 0.875427V0.875427Z" fill="black"/>
<path d="M32.4663 9.18076C34.6811 8.7613 37.0804 9.2311 38.9093 10.5566C40.5704 11.7311 41.7281 13.5767 42.0804 15.5902C42.5334 17.9224 41.963 20.4727 40.4529 22.3183C38.8254 24.3821 36.1576 25.4895 33.5569 25.3217C31.1744 25.1875 28.8589 23.9962 27.4495 22.0499C25.8556 19.9022 25.4697 16.9492 26.3422 14.4324C27.2146 11.7311 29.6811 9.66734 32.4663 9.18076V9.18076ZM32.9697 12.3687C32.0636 12.6036 31.2247 13.1237 30.6207 13.862C28.9932 15.8083 29.0938 18.9794 30.8891 20.7915C31.9126 21.8318 33.4563 22.3183 34.8824 22.0331C36.2079 21.7982 37.3657 20.9089 38.0032 19.7344C39.1106 17.7378 38.7918 14.9861 37.0972 13.4257C36.0066 12.419 34.4126 11.9995 32.9697 12.3687Z" fill="black"/>
<path d="M50.2516 9.18077C52.7852 8.6942 55.5536 9.39889 57.4496 11.1774C60.5368 13.9459 60.8724 19.1304 58.2382 22.3184C56.6442 24.3318 54.0603 25.4392 51.51 25.3217C49.0771 25.2546 46.6778 24.0465 45.2348 22.0499C43.6073 19.8519 43.2549 16.8318 44.1778 14.2647C45.1006 11.6472 47.5167 9.65057 50.2516 9.18077V9.18077ZM50.7549 12.3687C49.8489 12.6036 49.01 13.1237 48.406 13.8452C46.7952 15.758 46.8623 18.8788 48.5905 20.7076C49.614 21.7982 51.208 22.3351 52.6845 22.0331C53.9932 21.7814 55.1677 20.909 55.8053 19.7345C56.8959 17.721 56.5771 14.9694 54.8657 13.409C53.7751 12.4023 52.1811 11.9996 50.7549 12.3687Z" fill="black"/>
<path d="M65.3356 10.1539C67.2652 8.94585 69.8323 8.61028 71.9128 9.65054C72.5672 9.93578 73.1041 10.4224 73.6242 10.9089C73.641 10.4559 73.6242 9.98611 73.641 9.51632C74.7652 9.53309 75.8893 9.51632 77.0303 9.53309V24.3317C77.0135 26.5633 76.443 28.929 74.8323 30.5566C73.0705 32.3519 70.3692 32.9056 67.9363 32.5364C65.3356 32.1505 63.0705 30.2546 62.0638 27.8552C63.0705 27.3686 64.1276 26.9827 65.1678 26.5297C65.7551 27.9056 66.9464 29.0801 68.4397 29.3485C69.933 29.617 71.6611 29.2478 72.6343 28.0062C73.6746 26.7311 73.6746 24.9861 73.6242 23.4257C72.8524 24.1807 71.9632 24.8519 70.8893 25.1036C68.5571 25.7579 65.99 24.9525 64.1947 23.3754C62.3826 21.7982 61.3088 19.3653 61.4095 16.9492C61.4598 14.2143 63.0034 11.5801 65.3356 10.1539V10.1539ZM68.8088 12.3015C67.7853 12.4693 66.8289 13.0398 66.1746 13.8284C64.5974 15.7076 64.5974 18.7109 66.1913 20.5566C67.0974 21.6472 68.5571 22.2512 69.9665 22.1002C71.292 21.966 72.5168 21.127 73.1712 19.9693C74.2786 18.0062 74.094 15.3385 72.6007 13.627C71.6779 12.57 70.2014 12.0499 68.8088 12.3015V12.3015Z" fill="black"/>
<path d="M87.5002 11.0096C89.5136 9.13045 92.6176 8.49286 95.2015 9.4828C97.6512 10.4056 99.2116 12.7378 100 15.1372C96.3592 16.6472 92.7351 18.1405 89.0941 19.6506C89.5975 20.607 90.3693 21.4795 91.4096 21.8318C92.8693 22.3519 94.6143 22.1674 95.8391 21.1942C96.3257 20.8251 96.7116 20.3385 97.0807 19.8687C98.0035 20.4895 98.9263 21.0935 99.8492 21.7143C98.5404 23.6774 96.3424 25.0533 93.9767 25.2714C91.3592 25.5902 88.574 24.5835 86.8793 22.5365C84.0941 19.315 84.3626 13.9123 87.5002 11.0096V11.0096ZM89.2955 14.1137C88.725 14.9358 88.4901 15.9425 88.5069 16.9325C90.9398 15.9258 93.3726 14.919 95.8055 13.8956C95.4029 12.956 94.4297 12.3855 93.4398 12.2345C91.8458 11.9492 90.1847 12.8049 89.2955 14.1137V14.1137Z" fill="black"/>
</g>
<defs>
<clipPath id="clip0">
<rect width="100" height="32.64" fill="white"/>
</clipPath>
</defs>
</svg>
