<svg width="100" height="22" viewBox="0 0 100 22" fill="none" xmlns="http://www.w3.org/2000/svg">
<g clip-path="url(#clip0)">
<path d="M100 9.66333V7.90468H97.8161V5.17064L97.7426 5.19328L95.6913 5.8209L95.6509 5.83318V7.90478H92.4133V6.75072C92.4133 6.21335 92.5334 5.80213 92.7702 5.52789C93.0054 5.25693 93.3417 5.11918 93.7707 5.11918C94.0791 5.11918 94.3985 5.19183 94.7198 5.33509L94.8004 5.37108V3.51898L94.7625 3.50505C94.4627 3.39729 94.055 3.34302 93.5495 3.34302C92.9125 3.34302 92.3337 3.48164 91.829 3.75637C91.3239 4.03148 90.9266 4.42423 90.6483 4.92358C90.371 5.42235 90.2302 5.99841 90.2302 6.6359V7.90468H88.7095V9.66333H90.2302V17.0722H92.4133V9.66333H95.6509V14.3715C95.6509 16.3106 96.5655 17.2933 98.3694 17.2933C98.6658 17.2933 98.9777 17.2585 99.2963 17.1905C99.6205 17.1207 99.8414 17.0509 99.9714 16.9764L100 16.9594V15.1845L99.9113 15.2432C99.7928 15.3222 99.6453 15.3867 99.4723 15.4347C99.2986 15.4835 99.1535 15.508 99.0411 15.508C98.6185 15.508 98.3059 15.3941 98.1119 15.1694C97.9158 14.9427 97.8162 14.5462 97.8162 13.9915V9.66333H100ZM83.8345 15.5083C83.0421 15.5083 82.4174 15.2456 81.9771 14.728C81.5342 14.2079 81.3098 13.4663 81.3098 12.5241C81.3098 11.552 81.5342 10.7912 81.9773 10.2618C82.4179 9.73598 83.0366 9.46909 83.8167 9.46909C84.5736 9.46909 85.1762 9.72399 85.6078 10.2271C86.0416 10.7328 86.2617 11.4876 86.2617 12.471C86.2617 13.4665 86.0547 14.2312 85.6465 14.7427C85.2411 15.2504 84.6315 15.5083 83.8345 15.5083V15.5083ZM83.9315 7.68383C82.4198 7.68383 81.2191 8.12678 80.363 9.0004C79.5075 9.87412 79.0737 11.0832 79.0737 12.5944C79.0737 14.0298 79.4971 15.1843 80.3323 16.0254C81.1675 16.8668 82.3042 17.2931 83.7104 17.2931C85.1758 17.2931 86.3526 16.8439 87.2083 15.9582C88.0639 15.0735 88.4974 13.8758 88.4974 12.3999C88.4974 10.9421 88.0906 9.77893 87.288 8.94343C86.485 8.10753 85.3555 7.68383 83.9315 7.68383V7.68383ZM75.554 7.68383C74.5257 7.68383 73.6751 7.94686 73.0253 8.46546C72.3716 8.98715 72.04 9.67136 72.04 10.4993C72.04 10.9297 72.1116 11.312 72.2524 11.6363C72.3941 11.9616 72.6134 12.248 72.9048 12.4884C73.1939 12.7269 73.6403 12.9766 74.2317 13.2307C74.7289 13.4353 75.0997 13.6084 75.3353 13.7448C75.5655 13.8785 75.7289 14.0129 75.8212 14.1437C75.9108 14.2718 75.9563 14.4471 75.9563 14.6634C75.9563 15.2793 75.4951 15.579 74.546 15.579C74.194 15.579 73.7924 15.5055 73.3526 15.3606C72.9158 15.2179 72.5036 15.0089 72.1304 14.7409L72.0398 14.6759V16.7777L72.0731 16.7931C72.3819 16.9357 72.7714 17.056 73.2304 17.1506C73.6885 17.2453 74.1048 17.2934 74.4664 17.2934C75.5822 17.2934 76.4808 17.0292 77.1365 16.5075C77.7963 15.9822 78.1307 15.2818 78.1307 14.4252C78.1307 13.8073 77.9507 13.2774 77.5959 12.85C77.2435 12.4261 76.6318 12.0369 75.7787 11.6929C75.099 11.4201 74.6636 11.1937 74.484 11.0199C74.3108 10.8519 74.2229 10.6144 74.2229 10.3137C74.2229 10.0471 74.3314 9.83349 74.5542 9.66053C74.7787 9.48669 75.0913 9.39828 75.4833 9.39828C75.847 9.39828 76.2191 9.45574 76.5892 9.56834C76.9591 9.68094 77.2839 9.83175 77.5551 10.0162L77.6442 10.0772V8.08345L77.61 8.06874C77.3598 7.96146 77.03 7.86966 76.6293 7.79518C76.2305 7.72117 75.8687 7.68383 75.554 7.68383V7.68383ZM66.3489 15.5083C65.5568 15.5083 64.9318 15.2456 64.4917 14.728C64.0486 14.2079 63.8246 13.4665 63.8246 12.5241C63.8246 11.552 64.0489 10.7912 64.4922 10.2618C64.9323 9.73598 65.5509 9.46909 66.3314 9.46909C67.0881 9.46909 67.6906 9.72399 68.1224 10.2271C68.5562 10.7328 68.7763 11.4876 68.7763 12.471C68.7763 13.4665 68.5692 14.2312 68.161 14.7427C67.7556 15.2504 67.1462 15.5083 66.3489 15.5083V15.5083ZM66.4462 7.68383C64.9342 7.68383 63.7334 8.12678 62.8778 9.0004C62.0222 9.87412 61.5882 11.0832 61.5882 12.5944C61.5882 14.0304 62.0119 15.1843 62.8471 16.0254C63.6823 16.8668 64.8189 17.2931 66.2251 17.2931C67.6903 17.2931 68.8673 16.8439 69.7231 15.9582C70.5785 15.0735 71.0122 13.8758 71.0122 12.3999C71.0122 10.9421 70.6053 9.77893 69.8025 8.94343C68.9993 8.10753 67.87 7.68383 66.4462 7.68383V7.68383ZM58.2744 9.4923V7.90468H56.118V17.072H58.2744V12.3826C58.2744 11.5852 58.4552 10.9301 58.812 10.4353C59.1642 9.94638 59.6335 9.69864 60.2066 9.69864C60.4008 9.69864 60.6189 9.73066 60.855 9.79402C61.0887 9.857 61.258 9.92539 61.3578 9.99736L61.4485 10.063V7.88901L61.4136 7.87401C61.2127 7.78869 60.9286 7.74565 60.5692 7.74565C60.0272 7.74565 59.5423 7.91977 59.1269 8.2626C58.7623 8.56393 58.4988 8.97709 58.2973 9.4923H58.2744ZM52.2562 7.68383C51.2669 7.68383 50.3845 7.89597 49.6339 8.31416C48.8818 8.73332 48.3001 9.33172 47.9043 10.0926C47.5103 10.8517 47.3103 11.7384 47.3103 12.7272C47.3103 13.5934 47.5042 14.3883 47.8876 15.0888C48.2712 15.7906 48.814 16.3395 49.5013 16.7203C50.1875 17.1006 50.9806 17.2933 51.8588 17.2933C52.8836 17.2933 53.7586 17.0885 54.4601 16.6844L54.4885 16.6681V14.6925L54.3978 14.7587C54.08 14.9902 53.7249 15.1749 53.3428 15.308C52.9617 15.4411 52.6142 15.5083 52.3095 15.5083C51.4633 15.5083 50.7841 15.2435 50.291 14.7215C49.7969 14.1989 49.5463 13.4649 49.5463 12.5414C49.5463 11.6121 49.8076 10.8593 50.3225 10.3038C50.8359 9.75001 51.5165 9.46909 52.3451 9.46909C53.0539 9.46909 53.7446 9.70909 54.398 10.1831L54.4885 10.2488V8.16712L54.4592 8.15068C54.2133 8.01302 53.878 7.89936 53.4616 7.81317C53.047 7.72717 52.6415 7.68383 52.2562 7.68383V7.68383ZM45.8251 7.90478H43.6687V17.072H45.8251V7.90478V7.90478ZM44.769 3.99947C44.414 3.99947 44.1045 4.12029 43.8502 4.35971C43.5948 4.59981 43.4652 4.9021 43.4652 5.25887C43.4652 5.61002 43.5932 5.9068 43.8462 6.14051C44.0975 6.37355 44.408 6.49166 44.7691 6.49166C45.13 6.49166 45.4417 6.37355 45.696 6.1409C45.9519 5.9068 46.0818 5.61011 46.0818 5.25887C46.0818 4.91458 45.9554 4.61538 45.7065 4.36938C45.4578 4.12387 45.1423 3.99947 44.769 3.99947ZM39.3885 7.2284V17.072H41.5893V4.28009H38.5433L34.6718 13.7816L30.9147 4.28009H27.7448V17.0719H29.8129V7.22743H29.8839L33.8513 17.072H35.412L39.3175 7.2284H39.3885V7.2284Z" fill="#706D6E"/>
<path d="M10.1445 10.15H0V0.00549316H10.1445V10.15Z" fill="#F1511B"/>
<path d="M21.3451 10.15H11.2008V0.00549316H21.3451V10.15Z" fill="#80CC28"/>
<path d="M10.1442 21.3545H0V11.2101H10.1442V21.3545Z" fill="#00ADEF"/>
<path d="M21.3451 21.3545H11.2008V11.2101H21.3451V21.3545Z" fill="#FBBC09"/>
</g>
<defs>
<clipPath id="clip0">
<rect width="100" height="21.36" fill="white"/>
</clipPath>
</defs>
</svg>
