<svg width="100" height="26" viewBox="0 0 100 26" fill="none" xmlns="http://www.w3.org/2000/svg">
<g clip-path="url(#clip0)">
<path d="M22.9819 8.91103C24.0661 8.91103 25.1063 8.00838 25.2873 6.89478C25.5011 5.81086 24.7662 4.90821 23.6828 4.90821C22.599 4.90821 21.5586 5.81086 21.375 6.89478C21.1635 8.00838 21.8683 8.91103 22.9819 8.91103V8.91103ZM96.5586 12.1328H98.984C99.3164 12.1328 99.511 11.9978 99.5858 11.6877C99.702 11.2073 99.8214 10.7277 99.944 10.249C100.016 9.96979 99.8532 9.7582 99.5437 9.7582H97.1504C97.3228 9.0723 97.9941 6.84543 97.9941 5.39364C97.9941 2.49426 95.5321 0.0280617 92.0387 0.0280617C88.0935 0.0280617 85.5268 2.67569 85.5268 6.40128C85.5268 7.48795 85.9322 8.75459 86.4348 9.54032C86.2185 9.52796 86.0019 9.52183 85.7853 9.52193C82.7876 9.52193 80.8994 11.1481 80.8994 13.5143C80.8994 15.735 82.65 16.598 84.2982 17.1723C85.7623 17.6825 87.1105 17.9199 87.1105 19.0637C87.1105 19.8349 86.3686 20.2874 84.9169 20.2874C83.1943 20.2874 82.2476 19.4762 82.007 19.1685C82.1702 19.0403 82.4129 18.735 82.4129 18.2264C82.4129 17.5148 81.9131 16.9341 80.9848 16.9341C80.1994 16.9341 79.5355 17.5747 79.3687 18.4173C78.1072 19.4493 76.7304 20.1181 74.7777 20.1181C72.855 20.1181 71.8571 19.118 71.8571 16.99C72.3078 17.1273 73.4816 17.2921 74.2573 17.2921C77.5129 17.2921 79.7317 15.8129 79.7317 12.8506C79.7317 11.2577 78.3333 9.58483 75.5668 9.58483H75.5606C71.9219 9.58483 69.8837 11.8898 68.9938 14.425C68.7445 14.3649 68.4947 14.3066 68.2445 14.2502C68.4435 13.6878 68.5864 13.0361 68.5864 12.3136C68.5864 11.0615 67.811 9.58483 65.7361 9.58483C64.2907 9.58483 62.9197 10.5315 61.9695 11.9504C62.2059 11.0248 62.3627 10.4085 62.3729 10.3672C62.4348 10.1251 62.334 9.85545 61.9565 9.85545H59.8268C59.5233 9.85545 59.3091 9.96269 59.2229 10.3083C59.165 10.5388 58.4333 13.4098 57.7209 16.2053C57.2723 17.9483 54.9512 20.1181 52.0339 20.1181C50.1109 20.1181 49.1137 19.0522 49.1137 16.9234C49.6169 17.1237 50.7381 17.2919 51.5135 17.2919C54.9015 17.2919 56.9879 15.8127 56.9879 12.8505C56.9879 11.2576 55.5897 9.58467 52.8229 9.58467H52.8169C48.7196 9.58467 46.2097 12.7671 45.7844 16.3754C45.6075 17.8754 44.3415 19.9352 42.969 19.9352C42.3004 19.9352 41.9275 19.5153 41.9275 18.8023C41.9275 18.1865 42.361 16.6809 42.8361 14.794C42.9953 14.1627 43.2369 13.1998 43.5048 12.1328H45.7323C46.0639 12.1328 46.2584 11.9978 46.3337 11.6877C46.4403 11.2411 46.6359 10.462 46.6914 10.249C46.7632 9.96979 46.6016 9.7582 46.2911 9.7582H44.1007C44.1007 9.7582 45.1091 5.73441 45.1332 5.63104C45.2303 5.22189 44.8879 4.98578 44.5297 5.0611C44.5297 5.0611 42.8366 5.39251 42.5226 5.45799C42.207 5.52186 41.962 5.69523 41.848 6.15018L40.9513 9.7582H39.1925C38.8609 9.7582 38.6659 9.89351 38.5916 10.203C38.4747 10.6833 38.3555 11.163 38.2339 11.642C38.1611 11.9212 38.3235 12.1328 38.6337 12.1328H40.3585C40.3462 12.1821 39.7355 14.5055 39.2415 16.586C39.009 17.5866 38.2302 19.9278 36.9548 19.9278C36.193 19.9278 35.8711 19.5435 35.8711 18.7192C35.8711 17.4211 37.1488 14.1716 37.1488 12.6971C37.1488 10.7275 36.0922 9.58628 33.9274 9.58628C32.5628 9.58628 31.148 10.4673 30.5484 11.2406C30.5484 11.2406 30.7303 10.6076 30.7925 10.3643C30.859 10.1072 30.7211 9.85464 30.3835 9.85464H28.267C27.8166 9.85464 27.692 10.0954 27.6259 10.3602C27.5995 10.4665 26.8368 13.4614 26.1046 16.3364C25.6039 18.3051 24.3871 19.9501 23.0861 19.9501C22.4171 19.9501 22.1192 19.5303 22.1192 18.8173C22.1192 18.2012 22.5173 16.681 22.9922 14.7943C23.57 12.4973 24.0798 10.6057 24.1343 10.3847C24.2055 10.1015 24.0789 9.8548 23.7139 9.8548H21.5846C21.1988 9.8548 21.0611 10.0572 20.9798 10.3385C20.9798 10.3385 20.3805 12.6071 19.7459 15.1326C19.285 16.9655 18.776 18.8324 18.776 19.7096C18.776 21.2749 19.4789 22.4548 21.4111 22.4548C22.9024 22.4548 24.0826 21.6986 24.9838 20.735C24.8514 21.2565 24.7669 21.5867 24.7583 21.6204C24.6806 21.9186 24.7748 22.1821 25.126 22.1821H27.305C27.6843 22.1821 27.8301 22.0295 27.9093 21.6988C27.9856 21.3831 29.613 14.982 29.613 14.982C30.0431 13.2625 31.107 12.1239 32.6038 12.1239C33.3136 12.1239 33.9279 12.5939 33.8567 13.5072C33.7777 14.5119 32.5661 18.1214 32.5661 19.7056C32.5661 20.9046 33.0107 22.4559 35.2679 22.4559C36.8064 22.4559 37.9391 21.7183 38.7627 20.7663C39.0643 21.7767 39.8632 22.4559 41.3287 22.4559C43.7643 22.4559 45.2324 21.0114 46.0948 19.5604C46.8106 21.2462 48.4869 22.4551 50.945 22.4551C53.4504 22.4551 55.3892 21.3989 56.7633 19.9631L56.3348 21.6439C56.2569 21.9466 56.3886 22.1847 56.7441 22.1847H58.9006C59.1959 22.1847 59.4061 22.0345 59.4827 21.7244C59.5206 21.5722 59.8322 20.3679 60.2723 18.6568C61.114 15.3825 62.4667 11.9854 64.4994 11.9854C65.2163 11.9854 65.5103 12.3862 65.5103 13.0175C65.5103 13.3153 65.4238 13.5725 65.3492 13.7104C64.3639 13.5146 63.5713 14.001 63.5713 15.053C63.5713 15.7384 64.2925 16.3614 65.266 16.3614C66.0098 16.3614 66.6247 16.179 67.1151 15.8489C67.5978 15.9484 68.0795 16.0532 68.56 16.163C68.4861 16.6378 68.4483 17.1175 68.4469 17.598C68.4469 20.2262 70.3235 22.455 73.6872 22.455C76.3231 22.455 78.1319 21.4907 79.6934 20.2545C80.4439 21.4826 82.3391 22.4751 84.8254 22.4751C88.2331 22.4751 90.1658 20.7032 90.1658 18.361C90.1658 16.2411 88.4255 15.4608 86.6309 14.8112C85.172 14.2842 83.9552 13.9976 83.9552 12.9666C83.9552 12.1215 84.6204 11.7349 85.7606 11.7349C86.5004 11.7349 87.0558 11.8943 87.3524 11.9775C87.6466 12.7137 88.2552 13.5289 89.2943 13.5289C90.1736 13.5289 90.5684 12.8335 90.5684 12.1931C90.5684 10.3701 87.5316 10.179 87.5316 6.2692C87.5316 3.838 88.9073 1.83239 91.7563 1.83239C93.736 1.83239 95.0287 3.08775 95.0287 5.11383C95.0287 6.78431 94.0156 9.75804 94.0156 9.75804H92.2935C91.9626 9.75804 91.7673 9.89335 91.6925 10.2028C91.5759 10.6832 91.4564 11.1629 91.3341 11.6419C91.2617 11.921 91.4241 12.1326 91.7344 12.1326H93.4158C93.4158 12.1326 91.6776 18.5433 91.6776 19.7091C91.6776 21.2744 92.5598 22.454 94.4928 22.454C97.2269 22.454 98.9354 20.6772 99.6782 18.0936C99.736 17.8938 99.6228 17.7311 99.4204 17.7311H98.3772C98.169 17.7311 98.0483 17.8498 97.9957 18.0533C97.7601 18.9705 97.1761 19.9354 96.0262 19.9354C95.3576 19.9354 94.9849 19.5154 94.9849 18.8026C94.9849 18.1867 95.3926 16.7447 95.8941 14.7943C96.1331 13.8655 96.5586 12.1328 96.5586 12.1328V12.1328ZM75.0004 12.0233C75.9673 12.0233 76.4266 12.6664 76.4266 13.433C76.4266 14.7295 75.421 15.52 73.8483 15.52C73.2855 15.52 72.4986 15.3867 72.034 15.2318C72.2293 14.0395 73.0923 12.0233 75.0004 12.0233ZM52.2568 12.0233C53.3151 12.0233 53.6825 12.6664 53.6825 13.433C53.6825 14.7295 52.6774 15.52 51.1048 15.52C50.5418 15.52 49.755 15.3867 49.2905 15.2318C49.4847 14.0395 50.2499 12.0233 52.2568 12.0233ZM10.4166 0C3.51758 0 0.0390625 4.94627 0.0390625 9.07101C0.0390625 11.5685 0.984611 13.7904 3.01263 14.6182C3.34518 14.7543 3.64305 14.6229 3.73949 14.2547C3.80658 13.9999 3.96527 13.3572 4.03607 13.0893C4.13348 12.7252 4.09558 12.5974 3.82722 12.28C3.24245 11.5903 2.86877 10.6973 2.86877 9.43242C2.86877 5.7628 5.6143 2.47765 10.018 2.47765C13.9176 2.47765 16.0598 4.86031 16.0598 8.04241C16.0598 12.2292 14.2071 15.7629 11.4563 15.7629C9.93725 15.7629 8.8001 14.5066 9.16458 12.9658C9.60099 11.1263 10.4464 9.141 10.4464 7.81323C10.4464 6.62465 9.80839 5.6333 8.48804 5.6333C6.93513 5.6333 5.68768 7.23975 5.68768 9.39178C5.68768 10.7625 6.15086 11.6895 6.15086 11.6895C6.15086 11.6895 4.56167 18.4228 4.28315 19.602C3.72836 21.9505 4.19961 24.8294 4.23944 25.1202C4.26299 25.2924 4.48442 25.3334 4.58473 25.2034C4.72794 25.0165 6.57727 22.7332 7.20623 20.4515C7.38412 19.8054 8.22758 16.4603 8.22758 16.4603C8.73205 17.4226 10.2066 18.2702 11.7746 18.2702C16.4424 18.2702 19.6095 14.0147 19.6095 8.31851C19.6095 4.01137 15.9613 0 10.4166 0Z" fill="#CB2027"/>
</g>
<defs>
<clipPath id="clip0">
<rect width="100" height="25.28" fill="white"/>
</clipPath>
</defs>
</svg>
