<svg width="100" height="26" viewBox="0 0 100 26" fill="none" xmlns="http://www.w3.org/2000/svg">
<g clip-path="url(#clip0)">
<path fill-rule="evenodd" clip-rule="evenodd" d="M31.9919 19.924L33.2399 17.024C34.5879 18.032 36.3839 18.556 38.1559 18.556C39.4639 18.556 40.2919 18.052 40.2919 17.288C40.2719 15.152 32.4559 16.824 32.3959 11.468C32.3759 8.74797 34.7919 6.65197 38.2159 6.65197C40.2519 6.65197 42.2839 7.15597 43.7359 8.30397L42.5679 11.264C41.2399 10.416 39.5879 9.81197 38.0159 9.81197C36.9479 9.81197 36.2439 10.316 36.2439 10.96C36.2639 13.056 44.1399 11.908 44.2199 17.024C44.2199 19.804 41.8639 21.76 38.4799 21.76C35.9999 21.756 33.7239 21.172 31.9919 19.924V19.924ZM79.9159 15.976C79.2919 17.064 78.1239 17.808 76.7719 17.808C74.7759 17.808 73.1679 16.196 73.1679 14.204C73.1679 12.212 74.7799 10.6 76.7719 10.6C78.1199 10.6 79.2919 11.344 79.9159 12.432L83.3599 10.52C82.0719 8.22397 79.5919 6.65197 76.7719 6.65197C72.5999 6.65197 69.2159 10.036 69.2159 14.208C69.2159 18.38 72.5999 21.764 76.7719 21.764C79.6119 21.764 82.0719 20.212 83.3599 17.896L79.9159 15.976ZM45.9519 0.383972H50.2639V21.476H45.9519V0.383972ZM85.0519 0.383972V21.476H89.3639V15.148L94.4799 21.476H99.9999L93.4919 13.96L99.5159 6.94797H94.2359L89.3599 12.768V0.383972H85.0519Z" fill="black"/>
<path d="M63.076 16.016C62.452 17.044 61.164 17.808 59.712 17.808C57.716 17.808 56.108 16.196 56.108 14.204C56.108 12.212 57.72 10.6 59.712 10.6C61.164 10.6 62.452 11.404 63.076 12.452V16.016ZM63.076 6.95201V8.66401C62.372 7.47601 60.62 6.64801 58.784 6.64801C54.996 6.64801 52.016 9.99201 52.016 14.184C52.016 18.376 54.996 21.76 58.784 21.76C60.616 21.76 62.368 20.936 63.076 19.744V21.456H67.388V6.95201H63.076Z" fill="black"/>
<path fill-rule="evenodd" clip-rule="evenodd" d="M5.34002 15.996C5.34002 17.468 4.15202 18.656 2.68002 18.656C1.20802 18.656 0.0200195 17.464 0.0200195 15.996C0.0200195 14.528 1.20802 13.336 2.68002 13.336H5.34002V15.996ZM6.66802 15.996C6.66802 14.524 7.85602 13.336 9.32802 13.336C10.8 13.336 11.988 14.524 11.988 15.996V22.644C11.988 24.116 10.8 25.304 9.32802 25.304C7.85602 25.304 6.66802 24.116 6.66802 22.644V15.996Z" fill="#E01E5A"/>
<path fill-rule="evenodd" clip-rule="evenodd" d="M9.328 5.32C7.856 5.32 6.668 4.132 6.668 2.66C6.668 1.188 7.856 0 9.328 0C10.8 0 11.988 1.188 11.988 2.66V5.32H9.328ZM9.328 6.668C10.8 6.668 11.988 7.856 11.988 9.328C11.988 10.8 10.8 11.988 9.328 11.988H2.66C1.188 11.988 0 10.796 0 9.328C0 7.86 1.188 6.668 2.66 6.668H9.328Z" fill="#36C5F0"/>
<path fill-rule="evenodd" clip-rule="evenodd" d="M19.9839 9.328C19.9839 7.856 21.1719 6.668 22.6439 6.668C24.1159 6.668 25.3039 7.856 25.3039 9.328C25.3039 10.8 24.1159 11.988 22.6439 11.988H19.9839V9.328ZM18.6559 9.328C18.6559 10.8 17.4679 11.988 15.9959 11.988C14.5239 11.988 13.3359 10.8 13.3359 9.328V2.66C13.3359 1.188 14.5239 0 15.9959 0C17.4679 0 18.6559 1.188 18.6559 2.66V9.328Z" fill="#2EB67D"/>
<path fill-rule="evenodd" clip-rule="evenodd" d="M15.9959 19.984C17.4679 19.984 18.6559 21.172 18.6559 22.644C18.6559 24.116 17.4679 25.304 15.9959 25.304C14.5239 25.304 13.3359 24.116 13.3359 22.644V19.984H15.9959ZM15.9959 18.656C14.5239 18.656 13.3359 17.468 13.3359 15.996C13.3359 14.524 14.5239 13.336 15.9959 13.336H22.6639C24.1359 13.336 25.3239 14.524 25.3239 15.996C25.3239 17.468 24.1359 18.656 22.6639 18.656H15.9959Z" fill="#ECB22E"/>
</g>
<defs>
<clipPath id="clip0">
<rect width="100" height="25.304" fill="white"/>
</clipPath>
</defs>
</svg>
