<svg width="100" height="30" viewBox="0 0 100 30" fill="none" xmlns="http://www.w3.org/2000/svg">
<g clip-path="url(#clip0)">
<path d="M14.9963 0C6.71423 0 0 6.71405 0 14.9961C0 23.279 6.71423 29.9927 14.9963 29.9927C23.2786 29.9927 29.9925 23.279 29.9925 14.9961C29.9925 6.71458 23.279 0.000715751 14.9961 0.000715751L14.9963 0V0ZM21.8734 21.6286C21.6041 22.0704 21.0286 22.2089 20.5882 21.9397C17.0667 19.7874 12.6342 19.3012 7.41422 20.4937C6.9112 20.609 6.40979 20.2936 6.29519 19.7908C6.18004 19.2878 6.49396 18.7864 6.99823 18.6718C12.7107 17.3658 17.6107 17.9279 21.5635 20.3432C22.004 20.6137 22.1436 21.1885 21.8733 21.629L21.8734 21.6286V21.6286ZM23.709 17.5459C23.3698 18.0962 22.6503 18.2689 22.1007 17.9309C18.0706 15.4536 11.9253 14.7361 7.15743 16.1834C6.53908 16.3701 5.886 16.0216 5.69833 15.4044C5.51209 14.786 5.86076 14.1342 6.47802 13.9462C11.9242 12.2937 18.6947 13.0941 23.3238 15.9387C23.8735 16.2772 24.0472 16.9971 23.7088 17.5461L23.709 17.5459ZM23.8665 13.294C19.0326 10.4232 11.0591 10.1593 6.44452 11.5598C5.70352 11.7845 4.91989 11.3662 4.69533 10.6252C4.47077 9.88385 4.88873 9.10075 5.63027 8.87547C10.9275 7.26739 19.7335 7.57808 25.2981 10.8815C25.9646 11.277 26.1832 12.1379 25.7882 12.8035C25.3942 13.47 24.5311 13.6897 23.8667 13.294H23.8665V13.294ZM40.7999 13.8441C38.2106 13.2266 37.7497 12.7933 37.7497 11.8827C37.7497 11.0224 38.5596 10.4435 39.7641 10.4435C40.9316 10.4435 42.0894 10.8831 43.3031 11.7881C43.3398 11.8155 43.3859 11.8264 43.4312 11.8193C43.4765 11.8125 43.5166 11.7876 43.5431 11.7502L44.8074 9.96801C44.8593 9.89459 44.8451 9.79342 44.7751 9.73737C43.3305 8.57822 41.7038 8.01466 39.8024 8.01466C37.0067 8.01466 35.0539 9.69241 35.0539 12.0929C35.0539 14.6671 36.7384 15.5786 39.6495 16.2822C42.1272 16.8529 42.5453 17.331 42.5453 18.1858C42.5453 19.1329 41.6997 19.7217 40.3389 19.7217C38.8275 19.7217 37.5948 19.2126 36.2157 18.0183C36.1815 17.9888 36.1346 17.9754 36.0913 17.9779C36.0456 17.9816 36.0039 18.0027 35.9749 18.0377L34.5573 19.7247C34.4979 19.7947 34.5054 19.8993 34.5742 19.9599C36.1787 21.3923 38.1521 22.1489 40.2816 22.1489C43.2942 22.1489 45.2409 20.5028 45.2409 17.9551C45.2463 15.8044 43.9588 14.6136 40.8052 13.8464L40.7999 13.8441V13.8441ZM52.0565 11.2905C50.7507 11.2905 49.6796 11.8048 48.7964 12.8586V11.6724C48.7964 11.5788 48.7205 11.5025 48.627 11.5025H46.3085C46.2149 11.5025 46.1391 11.5788 46.1391 11.6724V24.8527C46.1391 24.9464 46.2149 25.0226 46.3085 25.0226H48.627C48.7205 25.0226 48.7964 24.9464 48.7964 24.8527V20.6923C49.6798 21.6836 50.751 22.168 52.0565 22.168C54.4828 22.168 56.939 20.3003 56.939 16.7299C56.9425 13.1586 54.4856 11.2903 52.0592 11.2903L52.0565 11.2905ZM54.243 16.7299C54.243 18.548 53.1231 19.8168 51.5194 19.8168C49.9341 19.8168 48.7382 18.4904 48.7382 16.7299C48.7382 14.9696 49.9341 13.643 51.5194 13.643C53.0971 13.6428 54.2432 14.9407 54.2432 16.7297L54.243 16.7299V16.7299ZM63.2343 11.2905C60.1097 11.2905 57.6617 13.6965 57.6617 16.7687C57.6617 19.8075 60.0928 22.1883 63.196 22.1883C66.3318 22.1883 68.7873 19.7903 68.7873 16.7299C68.7873 13.68 66.3483 11.2908 63.2342 11.2908L63.2343 11.2905V11.2905ZM63.2343 19.8349C61.5723 19.8349 60.3194 18.4995 60.3194 16.729C60.3194 14.9509 61.529 13.6607 63.196 13.6607C64.8687 13.6607 66.1301 14.9961 66.1301 16.7678C66.1301 18.5455 64.9124 19.8349 63.2345 19.8349H63.2343V19.8349ZM75.4598 11.5025H72.9085V8.89411C72.9085 8.80063 72.8329 8.72434 72.7393 8.72434H70.4211C70.3273 8.72434 70.2512 8.80063 70.2512 8.89411V11.5025H69.1365C69.0432 11.5025 68.9676 11.5788 68.9676 11.6725V13.665C68.9676 13.7585 69.0432 13.835 69.1365 13.835H70.2512V18.9907C70.2512 21.0742 71.2882 22.1306 73.3334 22.1306C74.1651 22.1306 74.855 21.9589 75.5052 21.5902C75.5581 21.5606 75.5908 21.5037 75.5908 21.4431V19.5457C75.5908 19.4871 75.5604 19.4318 75.5103 19.4011C75.4598 19.3694 75.3969 19.3678 75.3451 19.3934C74.8985 19.6182 74.4668 19.7219 73.9842 19.7219C73.2403 19.7219 72.9085 19.3841 72.9085 18.6272V13.8359H75.4598C75.5534 13.8359 75.6288 13.7596 75.6288 13.6659V11.6735C75.6324 11.5799 75.5572 11.5036 75.4623 11.5036L75.4598 11.5025V11.5025ZM84.349 11.5127V11.1923C84.349 10.2499 84.7104 9.82959 85.5209 9.82959C86.0042 9.82959 86.3925 9.92557 86.8273 10.0706C86.8808 10.0875 86.9367 10.079 86.9802 10.047C87.025 10.0149 87.0502 9.96353 87.0502 9.90909V7.95539C87.0502 7.88071 87.0022 7.81463 86.9302 7.7926C86.4709 7.65596 85.8832 7.51575 85.0032 7.51575C82.8618 7.51575 81.7299 8.72164 81.7299 11.0018V11.4925H80.616C80.5226 11.4925 80.4459 11.5688 80.4459 11.6622V13.665C80.4459 13.7585 80.5226 13.8349 80.616 13.8349H81.7299V21.7875C81.7299 21.8811 81.8055 21.9574 81.8989 21.9574H84.2174C84.3111 21.9574 84.3874 21.8811 84.3874 21.7875V13.8355H86.552L89.868 21.7861C89.4915 22.6214 89.1214 22.7876 88.616 22.7876C88.2076 22.7876 87.7774 22.6657 87.3376 22.425C87.2963 22.4022 87.2472 22.3985 87.2026 22.4123C87.1584 22.4279 87.1211 22.4608 87.1023 22.5038L86.3165 24.2277C86.2791 24.3092 86.3112 24.4049 86.3896 24.4471C87.2099 24.8914 87.9504 25.081 88.8657 25.081C90.5776 25.081 91.5239 24.2836 92.358 22.1383L96.3802 11.7448C96.4004 11.6925 96.3943 11.6334 96.3623 11.587C96.3304 11.541 96.279 11.5132 96.2228 11.5132H93.8092C93.7369 11.5132 93.6722 11.5593 93.6486 11.6271L91.1761 18.6895L88.468 11.6225C88.4433 11.5568 88.3799 11.5132 88.3097 11.5132H84.3485L84.349 11.5127V11.5127ZM79.1953 11.5025H76.8768C76.7831 11.5025 76.7068 11.5788 76.7068 11.6725V21.7875C76.7068 21.8811 76.7831 21.9574 76.8768 21.9574H79.1953C79.2887 21.9574 79.3652 21.8811 79.3652 21.7875V11.6732C79.3653 11.6508 79.3609 11.6287 79.3523 11.608C79.3438 11.5874 79.3313 11.5686 79.3155 11.5528C79.2997 11.537 79.2809 11.5245 79.2602 11.516C79.2396 11.5075 79.2174 11.5031 79.1951 11.5032L79.1953 11.5025ZM78.0492 6.89689C77.1307 6.89689 76.3854 7.6404 76.3854 8.55888C76.3854 9.47789 77.1309 10.2223 78.0492 10.2223C78.9673 10.2223 79.7119 9.47789 79.7119 8.55888C79.7119 7.64058 78.9669 6.89689 78.0501 6.89689H78.0492V6.89689ZM98.3598 14.7547C97.4423 14.7547 96.7283 14.0178 96.7283 13.1229C96.7283 12.2281 97.4516 11.4828 98.3684 11.4828C99.286 11.4828 100 12.2195 100 13.1136C100 14.0085 99.2765 14.7547 98.3597 14.7547H98.3598V14.7547ZM98.3688 11.645C97.5331 11.645 96.9007 12.3094 96.9007 13.1229C96.9007 13.9361 97.5286 14.5915 98.3604 14.5915C99.1959 14.5915 99.829 13.9277 99.829 13.1136C99.829 12.3005 99.2004 11.645 98.3695 11.645H98.3688V11.645ZM98.7305 13.2814L99.192 13.9275H98.8029L98.3874 13.3348H98.0302V13.9275H97.7045V12.2149H98.4682C98.8661 12.2149 99.1278 12.4185 99.1278 12.7612C99.1295 13.042 98.9666 13.2136 98.732 13.2814H98.7305V13.2814ZM98.4548 12.5087H98.03V13.0504H98.4548C98.6668 13.0504 98.7934 12.9468 98.7934 12.7793C98.7934 12.6031 98.6662 12.5087 98.4549 12.5087H98.4548V12.5087Z" fill="#2EBD59"/>
</g>
<defs>
<clipPath id="clip0">
<rect width="100" height="29.9927" fill="white"/>
</clipPath>
</defs>
</svg>
