<svg width="100" height="30" viewBox="0 0 100 30" fill="none" xmlns="http://www.w3.org/2000/svg">
<g clip-path="url(#clip0)">
<path d="M97.9067 17.6743C97.8498 17.9593 97.7501 18.2016 97.6146 18.4152C97.4796 18.6287 97.3013 18.8 97.0737 18.9351C96.8526 19.0636 96.5751 19.1345 96.2473 19.1345C95.9268 19.1345 95.6488 19.0706 95.4283 18.9351C95.208 18.8062 95.0202 18.6283 94.8797 18.4152C94.7442 18.2018 94.6445 17.9593 94.5806 17.6743C94.5178 17.3913 94.4867 17.1023 94.4879 16.8125C94.4879 16.5133 94.5166 16.214 94.5735 15.9366C94.6304 15.6515 94.7301 15.4022 94.8656 15.1886C95.0007 14.9674 95.179 14.7968 95.4066 14.6544C95.6277 14.5189 95.9053 14.4478 96.233 14.4478C96.5534 14.4478 96.8242 14.5189 97.0449 14.6544C97.2662 14.7913 97.4537 14.9762 97.5935 15.1956C97.7361 15.4163 97.8358 15.6726 97.8997 15.9507C97.9636 16.2355 97.9924 16.5204 97.9924 16.8125C97.9924 17.1045 97.9636 17.3894 97.9067 17.6743ZM99.8016 15.3737C99.6661 14.8965 99.4669 14.4834 99.1961 14.1201C98.9181 13.7641 98.5764 13.4718 98.1632 13.2583C97.7499 13.0446 97.2516 12.9306 96.6746 12.9306C96.2187 12.9306 95.8054 13.0233 95.4281 13.2014C95.0504 13.3795 94.7369 13.6714 94.4947 14.0632H94.4664V13.13H92.5574V23.0095H94.5661V19.5404H94.5944C94.8312 19.8889 95.1555 20.169 95.5348 20.3525C95.9196 20.5377 96.3327 20.6304 96.7884 20.6304C97.3228 20.6304 97.7928 20.5236 98.1988 20.317C98.5907 20.1162 98.9336 19.8317 99.2032 19.4835C99.4739 19.1345 99.6732 18.7355 99.8016 18.2798C99.9371 17.8238 100.001 17.354 100.001 16.8623C100.001 16.3425 99.9371 15.8439 99.8016 15.3665V15.3737V15.3737ZM89.8936 17.6743C89.8367 17.9593 89.737 18.2016 89.6015 18.4152C89.466 18.6289 89.2881 18.8 89.0602 18.9351C88.8394 19.0636 88.5616 19.1345 88.2341 19.1345C87.9133 19.1345 87.6429 19.0706 87.4147 18.9351C87.1945 18.8061 87.0068 18.6282 86.8661 18.4152C86.7311 18.2018 86.6313 17.9593 86.5674 17.6743C86.5044 17.3914 86.4734 17.1023 86.4747 16.8125C86.4747 16.5133 86.5031 16.214 86.56 15.9366C86.6173 15.6515 86.7166 15.4022 86.8521 15.1886C86.9876 14.9674 87.1655 14.7968 87.3934 14.6544C87.6142 14.5189 87.892 14.4478 88.2195 14.4478C88.5403 14.4478 88.8107 14.5189 89.0318 14.6544C89.253 14.7912 89.4404 14.9762 89.58 15.1956C89.7225 15.4163 89.8222 15.6726 89.8866 15.9507C89.9505 16.2355 89.9788 16.5204 89.9788 16.8125C89.9788 17.1045 89.9505 17.3894 89.8936 17.6743V17.6743ZM91.1826 14.1201C90.912 13.7641 90.563 13.4718 90.1499 13.2583C89.7368 13.0446 89.2383 12.9306 88.6611 12.9306C88.2052 12.9306 87.7923 13.0233 87.4145 13.2014C87.0372 13.3795 86.7238 13.6714 86.4816 14.0632H86.4528V13.13H84.5439V23.0095H86.5525V19.5404H86.5813C86.8181 19.8889 87.1424 20.169 87.5217 20.3525C87.9061 20.5377 88.3192 20.6304 88.7749 20.6304C89.3163 20.6304 89.7792 20.5236 90.1857 20.317C90.5774 20.1161 90.9201 19.8316 91.1896 19.4835C91.4606 19.1345 91.66 18.7355 91.7955 18.2798C91.9269 17.8187 91.994 17.3417 91.9949 16.8623C91.9949 16.3425 91.9306 15.8439 91.7955 15.3665C91.66 14.8894 91.4606 14.4761 91.1826 14.1131V14.1201V14.1201ZM77.9623 16.5419L79.28 12.8307H79.3085L80.5837 16.5419H77.9623ZM78.176 10.3378L74.351 20.445H76.5876L77.3785 18.1943H81.1606L81.9227 20.445H84.2305L80.4484 10.3378H78.1689H78.176V10.3378ZM74.1872 17.2398C74.0517 17.0119 73.8808 16.8125 73.6601 16.6559C73.4464 16.4993 73.1969 16.3778 72.9191 16.2783C72.6377 16.1859 72.3525 16.1051 72.0643 16.0363C71.7795 15.972 71.5017 15.9078 71.2309 15.8509C70.9601 15.7941 70.7108 15.7297 70.5044 15.6586C70.2909 15.5874 70.1198 15.4949 69.9915 15.3807C69.8561 15.2668 69.7921 15.1244 69.7921 14.9393C69.7921 14.7897 69.8277 14.6685 69.9059 14.5758C69.9843 14.4834 70.077 14.4192 70.1837 14.3694C70.2907 14.3195 70.4117 14.291 70.5472 14.2769C70.6702 14.2633 70.7938 14.2562 70.9175 14.2556C71.2737 14.2556 71.5871 14.3268 71.8508 14.462C72.1144 14.5973 72.264 14.8609 72.2853 15.2454H74.1942C74.1584 14.7895 74.0376 14.4192 73.8452 14.1199C73.6528 13.8206 73.4108 13.5858 73.1187 13.4077C72.8266 13.2295 72.4919 13.1015 72.1214 13.0231C71.7511 12.9447 71.3664 12.9091 70.9675 12.9091C70.5689 12.9091 70.1841 12.9449 69.8066 13.0159C69.4291 13.087 69.0873 13.2082 68.7882 13.3863C68.482 13.5645 68.2396 13.7997 68.0617 14.0986C67.8763 14.3977 67.7839 14.7897 67.7839 15.2595C67.7839 15.5802 67.8478 15.8507 67.9833 16.0715C68.1115 16.2926 68.2895 16.4775 68.5031 16.6271C68.7241 16.7696 68.9663 16.8909 69.2441 16.9833C69.5219 17.0758 69.8068 17.1544 70.0989 17.2183C70.8184 17.3679 71.374 17.5175 71.7799 17.667C72.1787 17.8166 72.3783 18.0446 72.3783 18.3437C72.3783 18.5218 72.3355 18.6714 72.2501 18.7924C72.1664 18.9106 72.0567 19.0081 71.9294 19.0772C71.8012 19.1484 71.6587 19.1984 71.5021 19.2338C71.3549 19.2673 71.2043 19.284 71.0534 19.2837C70.854 19.2837 70.6616 19.2626 70.4835 19.2125C70.2983 19.1627 70.1345 19.0911 69.9922 18.9916C69.8496 18.8919 69.7356 18.7636 69.6432 18.607C69.5505 18.4504 69.5077 18.2651 69.5077 18.0514H67.5987C67.62 18.5427 67.7272 18.9488 67.9336 19.2764C68.1331 19.6043 68.3966 19.8606 68.71 20.06C69.0234 20.2595 69.3867 20.4018 69.7927 20.4872C70.1988 20.5729 70.6117 20.6157 71.0391 20.6157C71.4524 20.6157 71.8653 20.5729 72.2644 20.4943C72.6632 20.4161 73.0194 20.2735 73.3328 20.0741C73.6462 19.8747 73.8955 19.6112 74.0879 19.2905C74.2801 18.963 74.3798 18.5642 74.3798 18.0797C74.3798 17.738 74.3158 17.4531 74.1803 17.225L74.1872 17.2398V17.2398ZM65.8745 10.9362H63.8659V13.13H62.6476V14.4761H63.8659V18.7928C63.8659 19.1633 63.9298 19.4554 64.051 19.6831C64.1722 19.9113 64.3431 20.082 64.5568 20.2104C64.7705 20.3314 65.0129 20.4169 65.2905 20.4597C65.5829 20.5032 65.8782 20.5246 66.1738 20.5236C66.3733 20.5236 66.5727 20.5166 66.7864 20.5095C66.975 20.5032 67.163 20.4841 67.349 20.4525V18.8925C67.2507 18.9147 67.1507 18.9289 67.0501 18.9351C66.9411 18.9436 66.8318 18.9484 66.7224 18.9494C66.3805 18.9494 66.1596 18.8925 66.0458 18.7783C65.9318 18.6645 65.8747 18.4364 65.8747 18.1018V14.4761H67.349V13.13H65.8747V10.9362H65.8745ZM60.1119 17.6174C60.1119 17.7311 60.0978 17.8809 60.0763 18.0733C60.0523 18.2701 59.9867 18.4595 59.8839 18.6289C59.7772 18.8143 59.6204 18.9709 59.3996 19.1064C59.1861 19.2415 58.8726 19.3058 58.481 19.3058C58.3242 19.3058 58.1673 19.2913 58.0107 19.263C57.8612 19.2342 57.7259 19.1844 57.6119 19.1134C57.4979 19.042 57.4125 18.9496 57.3411 18.8213C57.2772 18.7003 57.2414 18.5507 57.2414 18.3654C57.2414 18.173 57.2772 18.0234 57.3411 17.8954C57.4053 17.774 57.4977 17.6743 57.6049 17.589C57.7116 17.5106 57.8399 17.4467 57.9894 17.3968C58.139 17.347 58.2815 17.3112 58.4381 17.2827C58.599 17.255 58.7604 17.2313 58.9224 17.2115C59.0862 17.1902 59.236 17.1687 59.3856 17.1403C59.5351 17.112 59.6704 17.0762 59.7987 17.0336C59.9269 16.991 60.0337 16.9339 60.1193 16.8555V17.6035L60.1119 17.6174V17.6174ZM62.1205 18.8211V15.0102C62.1205 14.5688 62.0208 14.2126 61.8216 13.942C61.6222 13.6712 61.3655 13.4647 61.0593 13.3152C60.7459 13.1656 60.404 13.0659 60.0264 13.009C59.6559 12.9584 59.2824 12.9322 58.9083 12.9306C58.5021 12.9306 58.0962 12.9734 57.6973 13.0518C57.2987 13.1302 56.9353 13.2653 56.6146 13.4579C56.299 13.6457 56.029 13.9012 55.824 14.2059C55.6175 14.5193 55.4963 14.9109 55.468 15.3811H57.4766C57.5122 14.9825 57.6475 14.7047 57.8753 14.5336C58.1034 14.3625 58.4096 14.2773 58.8086 14.2773C58.9867 14.2773 59.1574 14.2914 59.3144 14.3129C59.4603 14.3321 59.6008 14.3805 59.7275 14.4554C59.8487 14.5266 59.9412 14.6263 60.0126 14.7545C60.0837 14.8828 60.1193 15.0535 60.1193 15.2744C60.1264 15.4808 60.0695 15.6379 59.934 15.7516C59.7987 15.8584 59.6206 15.944 59.3928 16.0009C59.165 16.0578 58.9085 16.1006 58.6164 16.1292C58.3243 16.1577 58.0252 16.1933 57.7261 16.2431C57.427 16.293 57.1276 16.3569 56.8285 16.4353C56.5294 16.5137 56.2656 16.6347 56.0377 16.7988C55.8027 16.9624 55.6175 17.1761 55.468 17.4397C55.3184 17.7104 55.247 18.0524 55.247 18.4655C55.247 18.843 55.311 19.1707 55.4394 19.4413C55.5597 19.7051 55.7402 19.9369 55.9665 20.1181C56.2017 20.3011 56.4702 20.4365 56.7571 20.517C57.0563 20.6024 57.3839 20.645 57.7329 20.645C58.1889 20.645 58.6305 20.5811 59.0649 20.4456C59.4946 20.3145 59.8842 20.0769 60.1975 19.7549C60.2046 19.8759 60.2261 19.9967 60.2474 20.1181C60.2687 20.2319 60.3043 20.3531 60.34 20.4671H62.3773C62.2846 20.3176 62.2134 20.0894 62.1778 19.7903C62.1401 19.4759 62.1211 19.1596 62.1207 18.843V18.8211H62.1205ZM53.8439 13.7639C53.6444 13.5076 53.3737 13.3009 53.0319 13.1584C52.69 13.0088 52.2485 12.9375 51.7069 12.9375C51.3294 12.9375 50.9449 13.0372 50.546 13.2295C50.1472 13.4219 49.8265 13.7353 49.5702 14.1555H49.5274V10.3448H47.5188V20.4523H49.5274V16.613C49.5274 15.865 49.6486 15.3309 49.8979 15.0032C50.1401 14.6755 50.539 14.5189 51.0874 14.5189C51.5646 14.5189 51.9066 14.6685 52.0917 14.9674C52.2771 15.2666 52.3768 15.7154 52.3768 16.3207V20.4523H54.3854V15.9507C54.3854 15.4947 54.3426 15.0818 54.2642 14.7113C54.1858 14.3408 54.0433 14.0204 53.8439 13.7639ZM43.2234 17.3112H43.1949L41.4713 10.345H39.3912L37.6389 17.2258H37.6103L36.0076 10.345H33.7854L36.4635 20.4525H38.7144L40.3954 13.5715H40.4239L42.1334 20.4525H44.3415L45.5523 15.9649L47.0624 10.345H44.8827L43.2234 17.3112V17.3112Z" fill="#272525"/>
<path d="M14.9437 26.5354C12.4861 26.5354 10.1926 25.7946 8.27662 24.534L3.61801 26.0224L5.12813 21.5208C3.6751 19.5262 2.82053 17.0688 2.82053 14.4191C2.82053 7.73771 8.25532 2.30294 14.9367 2.30294C21.618 2.30294 27.0528 7.73771 27.0528 14.4191C27.0528 21.1002 21.618 26.5352 14.9367 26.5352H14.9437V26.5354ZM14.9437 0.00921631C6.98703 0.00921631 0.533843 6.463 0.533843 14.4193C0.533843 17.1402 1.2889 19.6902 2.5994 21.8627L-0.000488281 29.5912L7.9775 27.0341C10.1099 28.2132 12.507 28.8309 14.9437 28.8291C22.9002 28.8291 29.3536 22.3757 29.3536 14.4193C29.3534 6.463 22.9002 0.00921631 14.9437 0.00921631Z" fill="#FEFEFE"/>
<path d="M14.9437 2.30292C8.26241 2.30292 2.82764 7.73768 2.82764 14.419C2.82764 17.0687 3.6824 19.5261 5.13543 21.5207L3.62531 26.0223L8.28372 24.5339C10.1997 25.8018 12.4862 26.5353 14.9508 26.5353C21.6321 26.5353 27.0669 21.1003 27.0669 14.4192C27.0669 7.73788 21.6321 2.30312 14.9508 2.30312H14.9437V2.30292Z" fill="url(#paint0_linear)"/>
<path d="M11.5611 8.45738C11.3261 7.8947 11.1479 7.87339 10.7919 7.85892C10.6567 7.85021 10.5213 7.84552 10.3858 7.84485C9.92268 7.84485 9.43841 7.98014 9.14632 8.27927C8.7903 8.64253 7.90698 9.49006 7.90698 11.2281C7.90698 12.9662 9.17486 14.6472 9.34573 14.8824C9.52384 15.1172 11.8176 18.7357 15.379 20.2105C18.164 21.3644 18.9904 21.2574 19.6243 21.1221C20.5502 20.9227 21.7113 20.2386 22.0034 19.4126C22.2955 18.5862 22.2955 17.881 22.2099 17.7314C22.1244 17.5818 21.8892 17.4966 21.5332 17.3183C21.1772 17.1402 19.4461 16.2854 19.1185 16.1714C18.7978 16.0504 18.4917 16.0932 18.2496 16.4352C17.9077 16.9124 17.573 17.3969 17.3022 17.6888C17.0885 17.9167 16.7393 17.9453 16.4474 17.8241C16.0556 17.6604 14.9588 17.2755 13.6053 16.0717C12.5581 15.1387 11.8459 13.9778 11.6395 13.6288C11.4328 13.2728 11.6181 13.0659 11.7818 12.8738C11.9599 12.6528 12.1308 12.4962 12.3089 12.2896C12.487 12.0831 12.5867 11.9762 12.7007 11.7339C12.8219 11.4989 12.7363 11.2567 12.6508 11.0786C12.5654 10.9005 11.8531 9.16238 11.5611 8.45738V8.45738Z" fill="#FEFEFE"/>
</g>
<defs>
<linearGradient id="paint0_linear" x1="-88.2466" y1="-38.2909" x2="-88.2466" y2="-37.4018" gradientUnits="userSpaceOnUse">
<stop stop-color="#6EBF61"/>
<stop offset="0.231" stop-color="#50A557"/>
<stop offset="0.522" stop-color="#2A904F"/>
<stop offset="0.812" stop-color="#50A557"/>
<stop offset="1" stop-color="#6EBF63"/>
</linearGradient>
<clipPath id="clip0">
<rect width="100" height="29.6" fill="white"/>
</clipPath>
</defs>
</svg>
