<svg width="360" height="360" viewBox="0 0 360 360" fill="none" xmlns="http://www.w3.org/2000/svg">
<path opacity="0.8" d="M27.6218 84.1831C13.8028 106.159 4.90099 130.865 1.52686 156.605L83.6245 167.367C85.4465 153.467 90.2535 140.126 97.7158 128.259L27.6218 84.1831Z" fill="#B043FF"/>
<path d="M109.638 14.322C75.7907 28.6967 47.1581 53.0933 27.5926 84.2295L97.7 128.284C108.265 111.47 123.727 98.2962 142.005 90.5339L109.638 14.322Z" fill="#677FFE"/>
<path d="M178.52 0.00608775C154.857 0.200702 131.466 5.05902 109.683 14.3031L142.029 90.5237C153.791 85.5319 166.423 82.9084 179.201 82.8033L178.52 0.00608775Z" fill="#E8973E"/>
<path d="M1.78336 154.725C-3.37707 191.112 2.72392 228.206 19.2664 261.023C35.8089 293.84 62.0003 320.807 94.3206 338.3C126.641 355.794 163.541 362.975 200.063 358.878C236.585 354.782 270.978 339.605 298.62 315.386C326.261 291.168 345.828 259.068 354.689 223.402C363.55 187.735 361.282 150.211 348.189 115.872C335.096 81.5325 311.806 52.0237 281.448 31.3111C251.09 10.5985 215.119 -0.325438 178.37 0.00738137L179.12 82.804C198.964 82.6243 218.388 88.5232 234.782 99.708C251.175 110.893 263.752 126.828 270.822 145.371C277.892 163.914 279.117 184.177 274.332 203.437C269.547 222.697 258.981 240.03 244.055 253.109C229.128 266.187 210.556 274.382 190.834 276.594C171.112 278.806 151.186 274.929 133.733 265.482C116.28 256.036 102.137 241.474 93.2039 223.752C84.2709 206.031 80.9764 186 83.763 166.351L1.78336 154.725Z" fill="#0953E4"/>
<path d="M174.508 321.219C178.07 321.219 180.492 318.898 180.484 315.664C180.492 312.602 178.352 310.398 175.469 310.398C174.063 310.398 172.852 310.984 172.289 311.773H172.195L172.609 307.766H179.602V305H169.82L169.063 313.438L172.07 313.977C172.563 313.312 173.516 312.898 174.461 312.898C176.07 312.906 177.227 314.07 177.227 315.75C177.227 317.414 176.094 318.562 174.508 318.562C173.164 318.562 172.078 317.719 172 316.477H168.719C168.781 319.242 171.195 321.219 174.508 321.219ZM188.688 321.219C192.25 321.219 194.672 318.898 194.664 315.664C194.672 312.602 192.531 310.398 189.648 310.398C188.242 310.398 187.031 310.984 186.469 311.773H186.375L186.789 307.766H193.781V305H184L183.242 313.438L186.25 313.977C186.742 313.312 187.695 312.898 188.641 312.898C190.25 312.906 191.406 314.07 191.406 315.75C191.406 317.414 190.273 318.562 188.688 318.562C187.344 318.562 186.258 317.719 186.18 316.477H182.898C182.961 319.242 185.375 321.219 188.688 321.219ZM205.781 318C205.789 319.922 207.016 321.555 209.305 321.555C211.57 321.555 212.836 319.922 212.828 318V317.156C212.836 315.219 211.602 313.602 209.305 313.602C207.047 313.602 205.789 315.234 205.781 317.156V318ZM197.57 308.844C197.578 310.766 198.805 312.383 201.086 312.383C203.359 312.383 204.625 310.781 204.617 308.844V308C204.625 306.062 203.391 304.445 201.086 304.445C198.852 304.445 197.578 306.062 197.57 308V308.844ZM198.336 321H200.375L211.375 305H209.336L198.336 321ZM208.055 317.156C208.063 316.391 208.367 315.602 209.305 315.602C210.289 315.602 210.547 316.391 210.539 317.156V318C210.547 318.766 210.258 319.539 209.305 319.539C208.352 319.539 208.063 318.742 208.055 318V317.156ZM199.859 308C199.867 307.258 200.156 306.445 201.086 306.445C202.07 306.445 202.336 307.234 202.328 308V308.844C202.336 309.609 202.039 310.383 201.086 310.383C200.164 310.383 199.867 309.609 199.859 308.844V308Z" fill="white"/>
<path d="M38.8496 126H35.6699L31.709 128.508V131.508L35.373 129.211H35.4668V142H38.8496V126ZM48.9258 142.352C52.9492 142.352 55.3789 139.289 55.3867 134.016C55.3945 128.781 52.9336 125.781 48.9258 125.781C44.9102 125.781 42.4727 128.773 42.4648 134.016C42.4492 139.273 44.8945 142.344 48.9258 142.352ZM48.9258 139.547C47.0898 139.547 45.9023 137.703 45.9102 134.016C45.918 130.383 47.0977 128.555 48.9258 128.555C50.7461 128.555 51.9336 130.383 51.9336 134.016C51.9414 137.703 50.7539 139.547 48.9258 139.547ZM66.5566 139C66.5645 140.922 67.791 142.555 70.0801 142.555C72.3457 142.555 73.6113 140.922 73.6035 139V138.156C73.6113 136.219 72.377 134.602 70.0801 134.602C67.8223 134.602 66.5645 136.234 66.5566 138.156V139ZM58.3457 129.844C58.3535 131.766 59.5801 133.383 61.8613 133.383C64.1348 133.383 65.4004 131.781 65.3926 129.844V129C65.4004 127.062 64.166 125.445 61.8613 125.445C59.627 125.445 58.3535 127.062 58.3457 129V129.844ZM59.1113 142H61.1504L72.1504 126H70.1113L59.1113 142ZM68.8301 138.156C68.8379 137.391 69.1426 136.602 70.0801 136.602C71.0645 136.602 71.3223 137.391 71.3145 138.156V139C71.3223 139.766 71.0332 140.539 70.0801 140.539C69.127 140.539 68.8379 139.742 68.8301 139V138.156ZM60.6348 129C60.6426 128.258 60.9316 127.445 61.8613 127.445C62.8457 127.445 63.1113 128.234 63.1035 129V129.844C63.1113 130.609 62.8145 131.383 61.8613 131.383C60.9395 131.383 60.6426 130.609 60.6348 129.844V129Z" fill="white"/>
<path d="M71.3418 81H82.748V78.2344H76.0293V78.125L78.3652 75.8359C81.6543 72.8359 82.5371 71.3359 82.5371 69.5156C82.5371 66.7422 80.2715 64.7812 76.8418 64.7812C73.4824 64.7812 71.1777 66.7891 71.1855 69.9297H74.3965C74.3887 68.3984 75.3574 67.4609 76.8184 67.4609C78.2246 67.4609 79.2715 68.3359 79.2715 69.7422C79.2715 71.0156 78.4902 71.8906 77.0371 73.2891L71.3418 78.5625V81ZM91.4727 81.3516C95.4961 81.3516 97.9258 78.2891 97.9336 73.0156C97.9414 67.7812 95.4805 64.7812 91.4727 64.7812C87.457 64.7812 85.0195 67.7734 85.0117 73.0156C84.9961 78.2734 87.4414 81.3438 91.4727 81.3516ZM91.4727 78.5469C89.6367 78.5469 88.4492 76.7031 88.457 73.0156C88.4648 69.3828 89.6445 67.5547 91.4727 67.5547C93.293 67.5547 94.4805 69.3828 94.4805 73.0156C94.4883 76.7031 93.3008 78.5469 91.4727 78.5469ZM109.104 78C109.111 79.9219 110.338 81.5547 112.627 81.5547C114.893 81.5547 116.158 79.9219 116.15 78V77.1562C116.158 75.2187 114.924 73.6016 112.627 73.6016C110.369 73.6016 109.111 75.2344 109.104 77.1562V78ZM100.893 68.8438C100.9 70.7656 102.127 72.3828 104.408 72.3828C106.682 72.3828 107.947 70.7812 107.939 68.8438V68C107.947 66.0625 106.713 64.4453 104.408 64.4453C102.174 64.4453 100.9 66.0625 100.893 68V68.8438ZM101.658 81H103.697L114.697 65H112.658L101.658 81ZM111.377 77.1562C111.385 76.3906 111.689 75.6016 112.627 75.6016C113.611 75.6016 113.869 76.3906 113.861 77.1562V78C113.869 78.7656 113.58 79.5391 112.627 79.5391C111.674 79.5391 111.385 78.7422 111.377 78V77.1562ZM103.182 68C103.189 67.2578 103.479 66.4453 104.408 66.4453C105.393 66.4453 105.658 67.2344 105.65 68V68.8438C105.658 69.6094 105.361 70.3828 104.408 70.3828C103.486 70.3828 103.189 69.6094 103.182 68.8438V68Z" fill="white"/>
<path d="M148.786 26H145.606L141.646 28.5078V31.5078L145.31 29.2109H145.403V42H148.786V26ZM158.433 42.2187C161.995 42.2187 164.417 39.8984 164.409 36.6641C164.417 33.6016 162.276 31.3984 159.394 31.3984C157.987 31.3984 156.776 31.9844 156.214 32.7734H156.12L156.534 28.7656H163.526V26H153.745L152.987 34.4375L155.995 34.9766C156.487 34.3125 157.44 33.8984 158.386 33.8984C159.995 33.9062 161.151 35.0703 161.151 36.75C161.151 38.4141 160.019 39.5625 158.433 39.5625C157.089 39.5625 156.003 38.7187 155.925 37.4766H152.644C152.706 40.2422 155.12 42.2187 158.433 42.2187Z" fill="white"/>
</svg>
