<svg width="28" height="19" viewBox="0 0 28 19" fill="none" xmlns="http://www.w3.org/2000/svg">
<path d="M13.8962 8.49984C16.2319 8.49984 18.1253 6.60638 18.1253 4.27067C18.1253 1.93497 16.2319 0.0415039 13.8962 0.0415039C11.5605 0.0415039 9.66699 1.93497 9.66699 4.27067C9.66699 6.60638 11.5605 8.49984 13.8962 8.49984Z" fill="white"/>
<path d="M22.3538 10.9167C24.0222 10.9167 25.3747 9.56419 25.3747 7.89583C25.3747 6.22747 24.0222 4.875 22.3538 4.875C20.6855 4.875 19.333 6.22747 19.333 7.89583C19.333 9.56419 20.6855 10.9167 22.3538 10.9167Z" fill="white"/>
<path d="M5.52376 10.9167C7.19212 10.9167 8.5446 9.56419 8.5446 7.89583C8.5446 6.22747 7.19212 4.875 5.52376 4.875C3.8554 4.875 2.50293 6.22747 2.50293 7.89583C2.50293 9.56419 3.8554 10.9167 5.52376 10.9167Z" fill="white"/>
<path d="M13.8962 9.70801C9.56549 9.70801 6.04199 13.2315 6.04199 17.5622C6.04199 17.8957 6.31266 18.1663 6.64616 18.1663H21.1462C21.4797 18.1663 21.7503 17.8957 21.7503 17.5622C21.7503 13.2315 18.2268 9.70801 13.8962 9.70801Z" fill="white"/>
<path d="M6.56488 12.2555C6.19513 12.177 5.81933 12.125 5.4375 12.125C2.43963 12.125 0 14.5646 0 17.5625C0 17.896 0.270667 18.1667 0.604167 18.1667H4.9445C4.87683 17.977 4.83333 17.7752 4.83333 17.5625C4.83333 15.5796 5.481 13.749 6.56488 12.2555Z" fill="white"/>
<path d="M22.3539 12.125C21.9721 12.125 21.5963 12.177 21.2266 12.2555C22.3104 13.749 22.9581 15.5796 22.9581 17.5625C22.9581 17.7752 22.9146 17.977 22.8469 18.1667H27.1873C27.5208 18.1667 27.7914 17.896 27.7914 17.5625C27.7914 14.5646 25.3518 12.125 22.3539 12.125Z" fill="white"/>
</svg>
