<svg width="22" height="22" viewBox="0 0 22 22" fill="none" xmlns="http://www.w3.org/2000/svg">
<path fill-rule="evenodd" clip-rule="evenodd" d="M21.4195 10.3401L19.5595 8.22007L19.8195 5.41007C19.8695 4.91007 19.5295 4.45007 19.0495 4.34007L16.2895 3.71007L14.8495 1.28007C14.5895 0.850067 14.0595 0.670067 13.5995 0.870067L10.9995 2.00007L8.40953 0.890067C7.94953 0.690067 7.40953 0.870067 7.15953 1.30007L5.70953 3.72007L2.95953 4.34007C2.46953 4.45007 2.12953 4.90007 2.17953 5.41007L2.43953 8.21007L0.579531 10.3401C0.249531 10.7201 0.249531 11.2801 0.579531 11.6601L2.43953 13.7801L2.17953 16.6001C2.12953 17.1001 2.46953 17.5601 2.94953 17.6701L5.70953 18.3001L7.14953 20.7201C7.40953 21.1501 7.93953 21.3301 8.40953 21.1301L10.9995 20.0001L13.5895 21.1101C14.0495 21.3101 14.5895 21.1301 14.8395 20.7001L16.2795 18.2701L19.0395 17.6401C19.5295 17.5301 19.8595 17.0701 19.8095 16.5701L19.5495 13.7601L21.4095 11.6401C21.7495 11.2801 21.7495 10.7201 21.4195 10.3401ZM11.9995 16.0001H9.99953V14.0001H11.9995V16.0001ZM10.9995 12.0001C10.4495 12.0001 9.99953 11.5501 9.99953 11.0001V7.00007C9.99953 6.45007 10.4495 6.00007 10.9995 6.00007C11.5495 6.00007 11.9995 6.45007 11.9995 7.00007V11.0001C11.9995 11.5501 11.5495 12.0001 10.9995 12.0001Z" fill="white"/>
</svg>
