<svg width="18" height="18" viewBox="0 0 18 18" fill="none" xmlns="http://www.w3.org/2000/svg">
<path d="M5.12121 5.12121C6.29262 3.9498 6.29262 2.04996 5.12121 0.878555C3.9498 -0.292852 2.04996 -0.292852 0.878555 0.878555C-0.292852 2.04996 -0.292852 3.9498 0.878555 5.12121C2.05043 6.29309 3.9498 6.29309 5.12121 5.12121ZM17.1212 12.8786C15.9498 11.7071 14.05 11.7071 12.8786 12.8786C11.7071 14.05 11.7071 15.9498 12.8786 17.1212C14.05 18.2926 15.9498 18.2926 17.1212 17.1212C18.2931 15.9498 18.2931 14.0504 17.1212 12.8786ZM17.0303 2.03027L15.97 0.969961C15.384 0.384024 14.4343 0.384024 13.8489 0.969961L0.969961 13.8489C0.384023 14.4348 0.384023 15.3845 0.969961 15.97L2.03027 17.0303C2.61621 17.6162 3.5659 17.6162 4.15137 17.0303L17.0303 4.15137C17.6162 3.5659 17.6162 2.61621 17.0303 2.03027Z" fill="white"/>
</svg>
