<svg width="29" height="29" viewBox="0 0 29 29" fill="none" xmlns="http://www.w3.org/2000/svg">
<path d="M8.48449 14.8741H8.50987C8.72374 14.8656 8.91708 14.7436 9.01737 14.5539C9.66624 13.3347 10.7948 12.4707 12.1131 12.1856C12.3222 12.1396 12.4913 11.9874 12.559 11.7832C12.6255 11.5802 12.5795 11.3554 12.4382 11.1947L3.11345 0.609734C2.47424 -0.138224 1.22604 -0.192599 0.522786 0.498568C-0.0825886 1.09428 -0.174422 2.03436 0.29562 2.71948L7.97578 14.5974C8.08937 14.7714 8.28028 14.8741 8.48449 14.8741ZM9.66624 16.7084C9.66624 18.6079 11.8171 20.8094 14.1782 21.3266C15.488 21.6142 16.3157 21.7423 16.8607 21.7423C17.0757 21.7423 17.727 21.7423 18.0122 21.2396C18.3155 20.7031 17.9735 20.1364 17.5422 19.4186C17.089 18.6659 16.5259 17.7306 16.5259 16.7084C16.5259 14.8197 14.9877 13.2839 13.0967 13.2839C11.2057 13.2839 9.66624 14.8197 9.66624 16.7084ZM24.8308 7.89236C22.5664 5.53611 19.6241 4.26736 16.2505 4.22144C14.7775 4.22144 12.7922 4.88965 11.7023 8.0724C11.6322 8.27782 11.6769 8.50498 11.8207 8.66811L13.6272 10.7186C13.9643 11.1017 14.2241 11.5439 14.3969 12.0345C14.4561 12.2013 14.5842 12.333 14.7497 12.397C16.5622 13.0942 17.7331 14.7871 17.7331 16.7096C17.7331 17.3935 18.1995 18.1692 18.5765 18.7964C19.1758 19.792 19.6628 20.7732 19.0622 21.8353C18.7747 22.344 18.1584 22.9518 16.8594 22.9518C16.2154 22.9518 15.3357 22.8189 13.9172 22.5084C11.1887 21.909 8.76241 19.4863 8.50745 17.1071C8.48812 16.9319 8.39508 16.7736 8.25008 16.6745C7.93349 16.457 7.65679 16.2033 7.42599 15.9217C7.29187 15.7574 7.08403 15.6776 6.87137 15.7066C6.66233 15.7369 6.48349 15.8758 6.40133 16.0716C6.2237 16.4969 6.10287 16.9573 6.04487 17.4406C5.88174 18.7794 7.03329 22.2848 9.54541 25.1208C11.7881 27.6534 14.5455 28.9923 17.5192 28.9923C24.6399 28.9923 28.8232 25.2549 28.9984 18.7371C29.1023 14.8934 27.4662 10.6353 24.8308 7.89236ZM18.7287 11.4714C17.396 11.4714 16.3121 10.3876 16.3121 9.05477C16.3121 7.72198 17.396 6.63811 18.7287 6.63811C20.0615 6.63811 21.1454 7.72198 21.1454 9.05477C21.1454 10.3876 20.0615 11.4714 18.7287 11.4714ZM20.5412 13.2839C20.5412 11.9511 21.6251 10.8673 22.9579 10.8673C24.2907 10.8673 25.3746 11.9511 25.3746 13.2839C25.3746 14.6167 24.2907 15.7006 22.9579 15.7006C21.6251 15.7006 20.5412 14.6167 20.5412 13.2839ZM24.1662 21.7423C22.8334 21.7423 21.7496 20.6584 21.7496 19.3256C21.7496 17.9928 22.8334 16.9089 24.1662 16.9089C25.499 16.9089 26.5829 17.9928 26.5829 19.3256C26.5829 20.6584 25.499 21.7423 24.1662 21.7423Z" fill="white"/>
</svg>
