<svg width="80" height="80" viewBox="0 0 80 80" fill="none" xmlns="http://www.w3.org/2000/svg">
<rect width="80" height="80" rx="20" fill="#FF6443"/>
<path d="M42.3738 29.0909C42.3738 21.9531 37.9419 17.8835 32.1571 17.8835C26.3404 17.8835 21.9405 21.9531 21.9405 29.0909C21.9405 36.1967 26.3404 40.2983 32.1571 40.2983C33.5208 40.2983 34.8098 40.0746 35.9817 39.6271L37.7395 41.7898H42.0435L38.9221 37.8693C41.0527 35.9624 42.3738 32.9794 42.3738 29.0909ZM30.5591 32.4148L33.3503 36.1009C32.9775 36.1754 32.5726 36.218 32.1571 36.218C28.8013 36.218 26.6174 33.7145 26.6174 29.0909C26.6174 24.4673 28.8013 21.9638 32.1571 21.9638C35.5023 21.9638 37.6969 24.4673 37.6969 29.0909C37.6969 31.4666 37.111 33.2884 36.0989 34.4922L34.4796 32.4148H30.5591ZM55.1552 18.1818H50.8192L45.418 21.6016V25.6925L50.4144 22.5604H50.5423V40H55.1552V18.1818Z" fill="white"/>
<path d="M25.0824 62H31.304V60.4915H27.6392V60.4318L28.9134 59.1832C30.7074 57.5469 31.1889 56.7287 31.1889 55.7358C31.1889 54.223 29.9531 53.1534 28.0824 53.1534C26.25 53.1534 24.9929 54.2486 24.9972 55.9616H26.7486C26.7443 55.1264 27.2727 54.6151 28.0696 54.6151C28.8366 54.6151 29.4077 55.0923 29.4077 55.8594C29.4077 56.554 28.9815 57.0312 28.1889 57.794L25.0824 60.6705V62ZM36.0629 62.1918C38.2575 62.1918 39.5827 60.5213 39.587 57.6449C39.5913 54.7898 38.2489 53.1534 36.0629 53.1534C33.8725 53.1534 32.543 54.7855 32.5387 57.6449C32.5302 60.5128 33.864 62.1875 36.0629 62.1918ZM36.0629 60.6619C35.0614 60.6619 34.4137 59.6562 34.418 57.6449C34.4222 55.6634 35.0657 54.6662 36.0629 54.6662C37.0558 54.6662 37.7035 55.6634 37.7035 57.6449C37.7077 59.6562 37.06 60.6619 36.0629 60.6619ZM40.9027 62H47.1243V60.4915H43.4595V60.4318L44.7337 59.1832C46.5277 57.5469 47.0092 56.7287 47.0092 55.7358C47.0092 54.223 45.7734 53.1534 43.9027 53.1534C42.0703 53.1534 40.8132 54.2486 40.8175 55.9616H42.5689C42.5646 55.1264 43.093 54.6151 43.8899 54.6151C44.657 54.6151 45.228 55.0923 45.228 55.8594C45.228 56.554 44.8018 57.0312 44.0092 57.794L40.9027 60.6705V62ZM52.2582 53.2727H50.5238L48.3633 54.6406V56.277L50.3619 55.0241H50.413V62H52.2582V53.2727Z" fill="white"/>
</svg>
