<svg width="80" height="80" viewBox="0 0 80 80" fill="none" xmlns="http://www.w3.org/2000/svg">
<rect width="80" height="80" rx="20" fill="#4353FF"/>
<path d="M40.2644 29.0909C40.2644 21.9531 35.8326 17.8835 30.0478 17.8835C24.231 17.8835 19.8311 21.9531 19.8311 29.0909C19.8311 36.1967 24.231 40.2983 30.0478 40.2983C31.4114 40.2983 32.7005 40.0746 33.8723 39.6271L35.6301 41.7898H39.9341L36.8127 37.8693C38.9434 35.9624 40.2644 32.9794 40.2644 29.0909ZM28.4498 32.4148L31.2409 36.1009C30.8681 36.1754 30.4632 36.218 30.0478 36.218C26.6919 36.218 24.508 33.7145 24.508 29.0909C24.508 24.4673 26.6919 21.9638 30.0478 21.9638C33.3929 21.9638 35.5875 24.4673 35.5875 29.0909C35.5875 31.4666 35.0016 33.2884 33.9895 34.4922L32.3702 32.4148H28.4498ZM43.5536 40H59.1076V36.2287H49.9457V36.0795L53.131 32.9581C57.6161 28.8672 58.82 26.8217 58.82 24.3395C58.82 20.5575 55.7305 17.8835 51.0536 17.8835C46.4727 17.8835 43.3299 20.6214 43.3406 24.9041H47.7191C47.7085 22.8161 49.0295 21.5376 51.0217 21.5376C52.9393 21.5376 54.3668 22.7308 54.3668 24.6484C54.3668 26.3849 53.3015 27.5781 51.32 29.4851L43.5536 36.6761V40Z" fill="white"/>
<path d="M26.0824 62H32.304V60.4915H28.6392V60.4318L29.9134 59.1832C31.7074 57.5469 32.1889 56.7287 32.1889 55.7358C32.1889 54.223 30.9531 53.1534 29.0824 53.1534C27.25 53.1534 25.9929 54.2486 25.9972 55.9616H27.7486C27.7443 55.1264 28.2727 54.6151 29.0696 54.6151C29.8366 54.6151 30.4077 55.0923 30.4077 55.8594C30.4077 56.554 29.9815 57.0312 29.1889 57.794L26.0824 60.6705V62ZM37.0629 62.1918C39.2575 62.1918 40.5827 60.5213 40.587 57.6449C40.5913 54.7898 39.2489 53.1534 37.0629 53.1534C34.8725 53.1534 33.543 54.7855 33.5387 57.6449C33.5302 60.5128 34.864 62.1875 37.0629 62.1918ZM37.0629 60.6619C36.0614 60.6619 35.4137 59.6562 35.418 57.6449C35.4222 55.6634 36.0657 54.6662 37.0629 54.6662C38.0558 54.6662 38.7035 55.6634 38.7035 57.6449C38.7077 59.6562 38.06 60.6619 37.0629 60.6619ZM41.9027 62H48.1243V60.4915H44.4595V60.4318L45.7337 59.1832C47.5277 57.5469 48.0092 56.7287 48.0092 55.7358C48.0092 54.223 46.7734 53.1534 44.9027 53.1534C43.0703 53.1534 41.8132 54.2486 41.8175 55.9616H43.5689C43.5646 55.1264 44.093 54.6151 44.8899 54.6151C45.657 54.6151 46.228 55.0923 46.228 55.8594C46.228 56.554 45.8018 57.0312 45.0092 57.794L41.9027 60.6705V62ZM53.2582 53.2727H51.5238L49.3633 54.6406V56.277L51.3619 55.0241H51.413V62H53.2582V53.2727Z" fill="white"/>
</svg>
