<svg width="80" height="80" viewBox="0 0 80 80" fill="none" xmlns="http://www.w3.org/2000/svg">
<rect width="80" height="80" rx="20" fill="#F150A7"/>
<path d="M40.3249 29.0909C40.3249 21.9531 35.8931 17.8835 30.1083 17.8835C24.2915 17.8835 19.8917 21.9531 19.8917 29.0909C19.8917 36.1967 24.2915 40.2983 30.1083 40.2983C31.4719 40.2983 32.761 40.0746 33.9329 39.6271L35.6907 41.7898H39.9947L36.8732 37.8693C39.0039 35.9624 40.3249 32.9794 40.3249 29.0909ZM28.5103 32.4148L31.3015 36.1009C30.9286 36.1754 30.5238 36.218 30.1083 36.218C26.7525 36.218 24.5685 33.7145 24.5685 29.0909C24.5685 24.4673 26.7525 21.9638 30.1083 21.9638C33.4535 21.9638 35.6481 24.4673 35.6481 29.0909C35.6481 31.4666 35.0621 33.2884 34.0501 34.4922L32.4308 32.4148H28.5103ZM51.6788 40.2983C56.5794 40.2983 60.0843 37.603 60.0737 33.8743C60.0843 31.1577 58.3585 29.2188 55.1518 28.8139V28.6435C57.5914 28.2067 59.2747 26.4808 59.264 24.0305C59.2747 20.5895 56.2598 17.8835 51.7427 17.8835C47.2683 17.8835 43.9018 20.5043 43.8379 24.2756H48.2591C48.3123 22.6136 49.8358 21.5376 51.7214 21.5376C53.5858 21.5376 54.8322 22.6669 54.8216 24.3075C54.8322 26.0227 53.3727 27.1839 51.274 27.1839H49.2392V30.5717H51.274C53.7456 30.5717 55.2903 31.8075 55.2797 33.5653C55.2903 35.3018 53.7988 36.495 51.6895 36.495C49.6547 36.495 48.1312 35.4297 48.046 33.8317H43.4011C43.4757 37.6456 46.8848 40.2983 51.6788 40.2983Z" fill="white"/>
<path d="M26.0824 62H32.304V60.4915H28.6392V60.4318L29.9134 59.1832C31.7074 57.5469 32.1889 56.7287 32.1889 55.7358C32.1889 54.223 30.9531 53.1534 29.0824 53.1534C27.25 53.1534 25.9929 54.2486 25.9972 55.9616H27.7486C27.7443 55.1264 28.2727 54.6151 29.0696 54.6151C29.8366 54.6151 30.4077 55.0923 30.4077 55.8594C30.4077 56.554 29.9815 57.0312 29.1889 57.794L26.0824 60.6705V62ZM37.0629 62.1918C39.2575 62.1918 40.5827 60.5213 40.587 57.6449C40.5913 54.7898 39.2489 53.1534 37.0629 53.1534C34.8725 53.1534 33.543 54.7855 33.5387 57.6449C33.5302 60.5128 34.864 62.1875 37.0629 62.1918ZM37.0629 60.6619C36.0614 60.6619 35.4137 59.6562 35.418 57.6449C35.4222 55.6634 36.0657 54.6662 37.0629 54.6662C38.0558 54.6662 38.7035 55.6634 38.7035 57.6449C38.7077 59.6562 38.06 60.6619 37.0629 60.6619ZM41.9027 62H48.1243V60.4915H44.4595V60.4318L45.7337 59.1832C47.5277 57.5469 48.0092 56.7287 48.0092 55.7358C48.0092 54.223 46.7734 53.1534 44.9027 53.1534C43.0703 53.1534 41.8132 54.2486 41.8175 55.9616H43.5689C43.5646 55.1264 44.093 54.6151 44.8899 54.6151C45.657 54.6151 46.228 55.0923 46.228 55.8594C46.228 56.554 45.8018 57.0312 45.0092 57.794L41.9027 60.6705V62ZM53.2582 53.2727H51.5238L49.3633 54.6406V56.277L51.3619 55.0241H51.413V62H53.2582V53.2727Z" fill="white"/>
</svg>
