<svg width="80" height="80" viewBox="0 0 80 80" fill="none" xmlns="http://www.w3.org/2000/svg">
<rect width="80" height="80" rx="20" fill="#43A6FF"/>
<path d="M39.5466 29.0909C39.5466 21.9531 35.1148 17.8835 29.33 17.8835C23.5132 17.8835 19.1134 21.9531 19.1134 29.0909C19.1134 36.1967 23.5132 40.2983 29.33 40.2983C30.6936 40.2983 31.9827 40.0746 33.1546 39.6271L34.9124 41.7898H39.2164L36.0949 37.8693C38.2256 35.9624 39.5466 32.9794 39.5466 29.0909ZM27.732 32.4148L30.5232 36.1009C30.1503 36.1754 29.7455 36.218 29.33 36.218C25.9742 36.218 23.7902 33.7145 23.7902 29.0909C23.7902 24.4673 25.9742 21.9638 29.33 21.9638C32.6752 21.9638 34.8698 24.4673 34.8698 29.0909C34.8698 31.4666 34.2838 33.2884 33.2718 34.4922L31.6524 32.4148H27.732ZM42.5056 36.1648H52.9779V40H57.3884V36.1648H60.0944V32.468H57.3884V18.1818H51.6143L42.5056 32.532V36.1648ZM53.0631 32.468H47.1505V32.2976L52.8927 23.2102H53.0631V32.468Z" fill="white"/>
<path d="M26.0824 62H32.304V60.4915H28.6392V60.4318L29.9134 59.1832C31.7074 57.5469 32.1889 56.7287 32.1889 55.7358C32.1889 54.223 30.9531 53.1534 29.0824 53.1534C27.25 53.1534 25.9929 54.2486 25.9972 55.9616H27.7486C27.7443 55.1264 28.2727 54.6151 29.0696 54.6151C29.8366 54.6151 30.4077 55.0923 30.4077 55.8594C30.4077 56.554 29.9815 57.0312 29.1889 57.794L26.0824 60.6705V62ZM37.0629 62.1918C39.2575 62.1918 40.5827 60.5213 40.587 57.6449C40.5913 54.7898 39.2489 53.1534 37.0629 53.1534C34.8725 53.1534 33.543 54.7855 33.5387 57.6449C33.5302 60.5128 34.864 62.1875 37.0629 62.1918ZM37.0629 60.6619C36.0614 60.6619 35.4137 59.6562 35.418 57.6449C35.4222 55.6634 36.0657 54.6662 37.0629 54.6662C38.0558 54.6662 38.7035 55.6634 38.7035 57.6449C38.7077 59.6562 38.06 60.6619 37.0629 60.6619ZM41.9027 62H48.1243V60.4915H44.4595V60.4318L45.7337 59.1832C47.5277 57.5469 48.0092 56.7287 48.0092 55.7358C48.0092 54.223 46.7734 53.1534 44.9027 53.1534C43.0703 53.1534 41.8132 54.2486 41.8175 55.9616H43.5689C43.5646 55.1264 44.093 54.6151 44.8899 54.6151C45.657 54.6151 46.228 55.0923 46.228 55.8594C46.228 56.554 45.8018 57.0312 45.0092 57.794L41.9027 60.6705V62ZM53.2582 53.2727H51.5238L49.3633 54.6406V56.277L51.3619 55.0241H51.413V62H53.2582V53.2727Z" fill="white"/>
</svg>
