<svg width="22" height="22" viewBox="0 0 22 22" fill="none" xmlns="http://www.w3.org/2000/svg">
<path d="M0.25 0.5V21.5H21.25V0.5H0.25ZM17.6969 5.47344L16.5719 6.55156C16.4734 6.62656 16.4266 6.74844 16.4453 6.86563V14.8016C16.4266 14.9234 16.4734 15.0453 16.5719 15.1156L17.6734 16.1937V16.4328H12.1422V16.2031L13.2812 15.0969C13.3938 14.9844 13.3937 14.9516 13.3937 14.7828V8.36563L10.225 16.4094H9.79844L6.10938 8.36563V13.7562C6.07656 13.9812 6.15625 14.2109 6.31562 14.375L7.79688 16.1703V16.4094H3.5875V16.1703L5.06875 14.375C5.22813 14.2109 5.29844 13.9812 5.26094 13.7562V7.52188C5.27969 7.34844 5.21406 7.17969 5.08281 7.0625L3.76562 5.47344V5.23438H7.85781L11.0172 12.1719L13.7969 5.23906H17.6969V5.47344Z" fill="#D0CED6"/>
</svg>
