<svg width="24" height="24" viewBox="0 0 24 24" fill="none" xmlns="http://www.w3.org/2000/svg">
<path d="M11.625 0.375C5.20312 0.375 0 5.57812 0 12C0 18.4219 5.20312 23.625 11.625 23.625C18.0469 23.625 23.25 18.4219 23.25 12C23.25 5.57812 18.0469 0.375 11.625 0.375ZM17.3344 8.33906L15.4266 17.3297C15.2859 17.9672 14.9063 18.1219 14.3766 17.8219L11.4703 15.6797L10.0688 17.0297C9.91406 17.1844 9.78281 17.3156 9.48281 17.3156L9.68906 14.3578L15.075 9.49219C15.3094 9.28594 15.0234 9.16875 14.7141 9.375L8.05781 13.5656L5.18906 12.6703C4.56562 12.4734 4.55156 12.0469 5.32031 11.7469L16.5281 7.425C17.0484 7.2375 17.5031 7.55156 17.3344 8.33906Z" fill="#D0CED6"/>
</svg>
