<svg width="1148" height="413" viewBox="0 0 1148 413" fill="none" xmlns="http://www.w3.org/2000/svg">
    <g opacity="0.6">
        <path d="M45 307V363C45 376.255 55.7451 387 69 387H1036C1049.25 387 1060 376.255 1060 363V307" stroke="#3b82f6" stroke-width="3"/>
        <rect width="14" height="14" rx="7" transform="matrix(-1 0 0 1 1067 293)" fill="#3b82f6"/>
        <path d="M43.9393 292.939C44.5251 292.354 45.4749 292.354 46.0607 292.939L55.6066 302.485C56.1924 303.071 56.1924 304.021 55.6066 304.607C55.0208 305.192 54.0711 305.192 53.4853 304.607L45 296.121L36.5147 304.607C35.9289 305.192 34.9792 305.192 34.3934 304.607C33.8076 304.021 33.8076 303.071 34.3934 302.485L43.9393 292.939ZM43.5 307L43.5 294L46.5 294L46.5 307L43.5 307Z" fill="#3b82f6"/>
    </g>
    <g opacity="0.6">
        <path d="M110 236.5C109.172 236.5 108.5 237.172 108.5 238C108.5 238.828 109.172 239.5 110 239.5L110 236.5ZM161.061 239.061C161.646 238.475 161.646 237.525 161.061 236.939L151.515 227.393C150.929 226.808 149.979 226.808 149.393 227.393C148.808 227.979 148.808 228.929 149.393 229.515L157.879 238L149.393 246.485C148.808 247.071 148.808 248.021 149.393 248.607C149.979 249.192 150.929 249.192 151.515 248.607L161.061 239.061ZM110 239.5L160 239.5L160 236.5L110 236.5L110 239.5Z" fill="#3b82f6"/>
    </g>
    <g opacity="0.6">
        <path d="M365 236.5C364.172 236.5 363.5 237.172 363.5 238C363.5 238.828 364.172 239.5 365 239.5L365 236.5ZM416.061 239.061C416.646 238.475 416.646 237.525 416.061 236.939L406.515 227.393C405.929 226.808 404.979 226.808 404.393 227.393C403.808 227.979 403.808 228.929 404.393 229.515L412.879 238L404.393 246.485C403.808 247.071 403.808 248.021 404.393 248.607C404.979 249.192 405.929 249.192 406.515 248.607L416.061 239.061ZM365 239.5L415 239.5L415 236.5L365 236.5L365 239.5Z" fill="#3b82f6"/>
    </g>
    <g opacity="0.6">
        <path d="M635 236.5C634.172 236.5 633.5 237.172 633.5 238C633.5 238.828 634.172 239.5 635 239.5L635 236.5ZM686.061 239.061C686.646 238.475 686.646 237.525 686.061 236.939L676.515 227.393C675.929 226.808 674.979 226.808 674.393 227.393C673.808 227.979 673.808 228.929 674.393 229.515L682.879 238L674.393 246.485C673.808 247.071 673.808 248.021 674.393 248.607C674.979 249.192 675.929 249.192 676.515 248.607L686.061 239.061ZM635 239.5L685 239.5L685 236.5L635 236.5L635 239.5Z" fill="#3b82f6"/>
    </g>
    <g opacity="0.6">
        <path d="M872 236.5C871.172 236.5 870.5 237.172 870.5 238C870.5 238.828 871.172 239.5 872 239.5L872 236.5ZM923.061 239.061C923.646 238.475 923.646 237.525 923.061 236.939L913.515 227.393C912.929 226.808 911.979 226.808 911.393 227.393C910.808 227.979 910.808 228.929 911.393 229.515L919.879 238L911.393 246.485C910.808 247.071 910.808 248.021 911.393 248.607C911.979 249.192 912.929 249.192 913.515 248.607L923.061 239.061ZM872 239.5L922 239.5L922 236.5L872 236.5L872 239.5Z" fill="#3b82f6"/>
    </g>
    <g opacity="0.6">
        <path d="M1049.5 119C1049.5 118.172 1048.83 117.5 1048 117.5C1047.17 117.5 1046.5 118.172 1046.5 119L1049.5 119ZM1046.94 170.061C1047.53 170.646 1048.47 170.646 1049.06 170.061L1058.61 160.515C1059.19 159.929 1059.19 158.979 1058.61 158.393C1058.02 157.808 1057.07 157.808 1056.49 158.393L1048 166.879L1039.51 158.393C1038.93 157.808 1037.98 157.808 1037.39 158.393C1036.81 158.979 1036.81 159.929 1037.39 160.515L1046.94 170.061ZM1046.5 119L1046.5 169L1049.5 169L1049.5 119L1046.5 119Z" fill="#3b82f6"/>
    </g>
    <rect x="949" y="1" width="198" height="97" rx="5" fill="white"/>
    <path d="M984.045 36.6477C983.647 34.1591 981.698 32.7045 979.238 32.7045C976.227 32.7045 974.005 34.9602 974.005 38.6818C974.005 42.4034 976.215 44.6591 979.238 44.6591C981.795 44.6591 983.664 43.0568 984.045 40.7557L982.272 40.75C981.971 42.2386 980.721 43.0568 979.249 43.0568C977.255 43.0568 975.749 41.5284 975.749 38.6818C975.749 35.858 977.249 34.3068 979.255 34.3068C980.738 34.3068 981.982 35.142 982.272 36.6477H984.045ZM986.009 44.5H987.708V39.1705C987.708 38.0284 988.589 37.2045 989.793 37.2045C990.146 37.2045 990.543 37.267 990.68 37.3068V35.6818C990.509 35.6591 990.174 35.642 989.958 35.642C988.935 35.642 988.06 36.2216 987.742 37.1591H987.651V35.7727H986.009V44.5ZM995.599 44.6761C997.502 44.6761 998.849 43.7386 999.235 42.3182L997.627 42.0284C997.32 42.8523 996.582 43.2727 995.616 43.2727C994.161 43.2727 993.184 42.3295 993.138 40.6477H999.343V40.0455C999.343 36.892 997.457 35.6591 995.479 35.6591C993.048 35.6591 991.445 37.5114 991.445 40.1932C991.445 42.9034 993.025 44.6761 995.599 44.6761ZM993.144 39.375C993.212 38.1364 994.11 37.0625 995.491 37.0625C996.809 37.0625 997.673 38.0398 997.678 39.375H993.144ZM1003.77 44.6932C1005.21 44.6932 1006.02 43.9602 1006.35 43.3068H1006.42V44.5H1008.07V38.7045C1008.07 36.1648 1006.07 35.6591 1004.69 35.6591C1003.11 35.6591 1001.65 36.2955 1001.09 37.8864L1002.68 38.25C1002.93 37.6307 1003.57 37.0341 1004.71 37.0341C1005.81 37.0341 1006.37 37.608 1006.37 38.5966V38.6364C1006.37 39.2557 1005.73 39.2443 1004.17 39.4261C1002.51 39.6193 1000.82 40.0511 1000.82 42.0341C1000.82 43.75 1002.11 44.6932 1003.77 44.6932ZM1004.14 43.3295C1003.18 43.3295 1002.48 42.8977 1002.48 42.0568C1002.48 41.1477 1003.29 40.8239 1004.27 40.6932C1004.82 40.6193 1006.13 40.4716 1006.38 40.2273V41.3523C1006.38 42.3864 1005.55 43.3295 1004.14 43.3295ZM1014.41 35.7727H1012.62V33.6818H1010.92V35.7727H1009.64V37.1364H1010.92V42.2898C1010.92 43.875 1012.13 44.642 1013.47 44.6136C1014.01 44.608 1014.37 44.5057 1014.57 44.4318L1014.26 43.0284C1014.15 43.0511 1013.94 43.1023 1013.67 43.1023C1013.12 43.1023 1012.62 42.9205 1012.62 41.9375V37.1364H1014.41V35.7727ZM1019.87 44.6761C1022.33 44.6761 1023.94 42.875 1023.94 40.1761C1023.94 37.4602 1022.33 35.6591 1019.87 35.6591C1017.41 35.6591 1015.8 37.4602 1015.8 40.1761C1015.8 42.875 1017.41 44.6761 1019.87 44.6761ZM1019.88 43.25C1018.27 43.25 1017.52 41.8466 1017.52 40.1705C1017.52 38.5 1018.27 37.0795 1019.88 37.0795C1021.48 37.0795 1022.23 38.5 1022.23 40.1705C1022.23 41.8466 1021.48 43.25 1019.88 43.25ZM1025.84 44.5H1027.54V39.1705C1027.54 38.0284 1028.42 37.2045 1029.62 37.2045C1029.97 37.2045 1030.37 37.267 1030.51 37.3068V35.6818C1030.34 35.6591 1030 35.642 1029.79 35.642C1028.76 35.642 1027.89 36.2216 1027.57 37.1591H1027.48V35.7727H1025.84V44.5ZM1033.7 32.8636H1032.25V33.9716C1032.25 34.8523 1031.86 35.5739 1031.42 36.2273L1032.26 36.8295C1033.14 36.125 1033.7 34.9205 1033.7 33.9545V32.8636ZM1040.78 37.9034C1040.43 36.5455 1039.37 35.6591 1037.48 35.6591C1035.51 35.6591 1034.11 36.6989 1034.11 38.2443C1034.11 39.483 1034.86 40.3068 1036.5 40.6705L1037.98 40.9943C1038.82 41.1818 1039.21 41.5568 1039.21 42.1023C1039.21 42.7784 1038.49 43.3068 1037.37 43.3068C1036.36 43.3068 1035.7 42.8693 1035.5 42.0114L1033.86 42.2614C1034.14 43.8068 1035.43 44.6761 1037.39 44.6761C1039.49 44.6761 1040.95 43.5568 1040.95 41.9773C1040.95 40.7443 1040.17 39.983 1038.57 39.6136L1037.18 39.2955C1036.22 39.0682 1035.81 38.7443 1035.81 38.1534C1035.81 37.483 1036.53 37.0057 1037.5 37.0057C1038.56 37.0057 1039.04 37.5909 1039.24 38.1761L1040.78 37.9034ZM1056.86 36.6477C1056.46 34.1591 1054.51 32.7045 1052.05 32.7045C1049.04 32.7045 1046.82 34.9602 1046.82 38.6818C1046.82 42.4034 1049.03 44.6591 1052.05 44.6591C1054.61 44.6591 1056.48 43.0568 1056.86 40.7557L1055.08 40.75C1054.78 42.2386 1053.53 43.0568 1052.06 43.0568C1050.07 43.0568 1048.56 41.5284 1048.56 38.6818C1048.56 35.858 1050.06 34.3068 1052.07 34.3068C1053.55 34.3068 1054.79 35.142 1055.08 36.6477H1056.86ZM1062.5 44.6761C1064.96 44.6761 1066.57 42.875 1066.57 40.1761C1066.57 37.4602 1064.96 35.6591 1062.5 35.6591C1060.04 35.6591 1058.43 37.4602 1058.43 40.1761C1058.43 42.875 1060.04 44.6761 1062.5 44.6761ZM1062.5 43.25C1060.9 43.25 1060.15 41.8466 1060.15 40.1705C1060.15 38.5 1060.9 37.0795 1062.5 37.0795C1064.1 37.0795 1064.85 38.5 1064.85 40.1705C1064.85 41.8466 1064.1 43.25 1062.5 43.25ZM1070.16 32.8636H1068.46V44.5H1070.16V32.8636ZM1074.15 32.8636H1072.45V44.5H1074.15V32.8636ZM1080.19 44.6761C1082.1 44.6761 1083.44 43.7386 1083.83 42.3182L1082.22 42.0284C1081.91 42.8523 1081.18 43.2727 1080.21 43.2727C1078.75 43.2727 1077.78 42.3295 1077.73 40.6477H1083.94V40.0455C1083.94 36.892 1082.05 35.6591 1080.07 35.6591C1077.64 35.6591 1076.04 37.5114 1076.04 40.1932C1076.04 42.9034 1077.62 44.6761 1080.19 44.6761ZM1077.74 39.375C1077.81 38.1364 1078.7 37.0625 1080.08 37.0625C1081.4 37.0625 1082.27 38.0398 1082.27 39.375H1077.74ZM1089.5 44.6761C1091.56 44.6761 1092.9 43.4375 1093.08 41.7386H1091.43C1091.21 42.6818 1090.48 43.2386 1089.51 43.2386C1088.07 43.2386 1087.15 42.0398 1087.15 40.1364C1087.15 38.267 1088.09 37.0909 1089.51 37.0909C1090.59 37.0909 1091.25 37.7727 1091.43 38.5909H1093.08C1092.9 36.8295 1091.46 35.6591 1089.48 35.6591C1087.02 35.6591 1085.43 37.5114 1085.43 40.1761C1085.43 42.8068 1086.96 44.6761 1089.5 44.6761ZM1098.97 35.7727H1097.18V33.6818H1095.49V35.7727H1094.21V37.1364H1095.49V42.2898C1095.48 43.875 1096.69 44.642 1098.03 44.6136C1098.57 44.608 1098.93 44.5057 1099.13 44.4318L1098.83 43.0284C1098.71 43.0511 1098.5 43.1023 1098.23 43.1023C1097.68 43.1023 1097.18 42.9205 1097.18 41.9375V37.1364H1098.97V35.7727ZM1100.85 44.5H1102.55V35.7727H1100.85V44.5ZM1101.71 34.4261C1102.3 34.4261 1102.78 33.9716 1102.78 33.4148C1102.78 32.858 1102.3 32.3977 1101.71 32.3977C1101.12 32.3977 1100.64 32.858 1100.64 33.4148C1100.64 33.9716 1101.12 34.4261 1101.71 34.4261ZM1108.51 44.6761C1110.97 44.6761 1112.58 42.875 1112.58 40.1761C1112.58 37.4602 1110.97 35.6591 1108.51 35.6591C1106.05 35.6591 1104.45 37.4602 1104.45 40.1761C1104.45 42.875 1106.05 44.6761 1108.51 44.6761ZM1108.52 43.25C1106.91 43.25 1106.16 41.8466 1106.16 40.1705C1106.16 38.5 1106.91 37.0795 1108.52 37.0795C1110.12 37.0795 1110.87 38.5 1110.87 40.1705C1110.87 41.8466 1110.12 43.25 1108.52 43.25ZM1116.18 39.3182C1116.18 37.9261 1117.03 37.1307 1118.21 37.1307C1119.36 37.1307 1120.06 37.8864 1120.06 39.1534V44.5H1121.76V38.9489C1121.76 36.7898 1120.57 35.6591 1118.79 35.6591C1117.48 35.6591 1116.62 36.267 1116.22 37.1932H1116.11V35.7727H1114.48V44.5H1116.18V39.3182ZM1013.25 56.375H1016.88V66.5H1018.63V56.375H1022.26V54.8636H1013.25V56.375ZM1026.61 66.6761C1028.51 66.6761 1029.86 65.7386 1030.24 64.3182L1028.63 64.0284C1028.33 64.8523 1027.59 65.2727 1026.62 65.2727C1025.17 65.2727 1024.19 64.3295 1024.15 62.6477H1030.35V62.0455C1030.35 58.892 1028.46 57.6591 1026.49 57.6591C1024.06 57.6591 1022.45 59.5114 1022.45 62.1932C1022.45 64.9034 1024.03 66.6761 1026.61 66.6761ZM1024.15 61.375C1024.22 60.1364 1025.12 59.0625 1026.5 59.0625C1027.82 59.0625 1028.68 60.0398 1028.69 61.375H1024.15ZM1032.24 66.5H1033.93V61.1193C1033.93 59.9432 1034.76 59.125 1035.72 59.125C1036.67 59.125 1037.32 59.75 1037.32 60.6989V66.5H1039.01V60.9375C1039.01 59.8864 1039.66 59.125 1040.76 59.125C1041.66 59.125 1042.4 59.625 1042.4 60.8068V66.5H1044.1V60.6477C1044.1 58.6534 1042.99 57.6591 1041.41 57.6591C1040.15 57.6591 1039.21 58.2614 1038.79 59.1932H1038.7C1038.32 58.2386 1037.51 57.6591 1036.35 57.6591C1035.2 57.6591 1034.34 58.233 1033.97 59.1932H1033.87V57.7727H1032.24V66.5ZM1046.38 69.7727H1048.08V65.142H1048.18C1048.48 65.6989 1049.11 66.6705 1050.7 66.6705C1052.81 66.6705 1054.35 64.9773 1054.35 62.1534C1054.35 59.3239 1052.79 57.6591 1050.68 57.6591C1049.06 57.6591 1048.48 58.6477 1048.18 59.1875H1048.04V57.7727H1046.38V69.7727ZM1048.04 62.1364C1048.04 60.3125 1048.84 59.1023 1050.32 59.1023C1051.86 59.1023 1052.63 60.4034 1052.63 62.1364C1052.63 63.8864 1051.84 65.2216 1050.32 65.2216C1048.86 65.2216 1048.04 63.9716 1048.04 62.1364ZM1057.95 54.8636H1056.25V66.5H1057.95V54.8636ZM1062.78 66.6932C1064.22 66.6932 1065.03 65.9602 1065.36 65.3068H1065.42V66.5H1067.08V60.7045C1067.08 58.1648 1065.08 57.6591 1063.7 57.6591C1062.12 57.6591 1060.66 58.2955 1060.09 59.8864L1061.69 60.25C1061.94 59.6307 1062.58 59.0341 1063.72 59.0341C1064.82 59.0341 1065.38 59.608 1065.38 60.5966V60.6364C1065.38 61.2557 1064.74 61.2443 1063.17 61.4261C1061.52 61.6193 1059.83 62.0511 1059.83 64.0341C1059.83 65.75 1061.12 66.6932 1062.78 66.6932ZM1063.14 65.3295C1062.18 65.3295 1061.49 64.8977 1061.49 64.0568C1061.49 63.1477 1062.3 62.8239 1063.28 62.6932C1063.83 62.6193 1065.14 62.4716 1065.38 62.2273V63.3523C1065.38 64.3864 1064.56 65.3295 1063.14 65.3295ZM1073.42 57.7727H1071.63V55.6818H1069.93V57.7727H1068.65V59.1364H1069.93V64.2898C1069.92 65.875 1071.13 66.642 1072.48 66.6136C1073.02 66.608 1073.38 66.5057 1073.58 66.4318L1073.27 65.0284C1073.16 65.0511 1072.95 65.1023 1072.67 65.1023C1072.12 65.1023 1071.63 64.9205 1071.63 63.9375V59.1364H1073.42V57.7727ZM1078.97 66.6761C1080.87 66.6761 1082.22 65.7386 1082.6 64.3182L1080.99 64.0284C1080.69 64.8523 1079.95 65.2727 1078.98 65.2727C1077.53 65.2727 1076.55 64.3295 1076.51 62.6477H1082.71V62.0455C1082.71 58.892 1080.82 57.6591 1078.85 57.6591C1076.41 57.6591 1074.81 59.5114 1074.81 62.1932C1074.81 64.9034 1076.39 66.6761 1078.97 66.6761ZM1076.51 61.375C1076.58 60.1364 1077.48 59.0625 1078.86 59.0625C1080.18 59.0625 1081.04 60.0398 1081.05 61.375H1076.51Z" fill="#0A2540"/>
    <rect x="949" y="1" width="198" height="97" rx="5" stroke="#0A2540" stroke-width="2" stroke-dasharray="5 5"/>
    <rect x="949" y="190" width="198" height="97" rx="5" fill="white"/>
    <path d="M1002.88 221.864H1001.14V230.409H1001.03L995.114 221.864H993.489V233.5H995.245V224.966H995.353L1001.27 233.5H1002.88V221.864ZM1009.07 233.676C1010.97 233.676 1012.32 232.739 1012.7 231.318L1011.1 231.028C1010.79 231.852 1010.05 232.273 1009.08 232.273C1007.63 232.273 1006.65 231.33 1006.61 229.648H1012.81V229.045C1012.81 225.892 1010.93 224.659 1008.95 224.659C1006.52 224.659 1004.91 226.511 1004.91 229.193C1004.91 231.903 1006.49 233.676 1009.07 233.676ZM1006.61 228.375C1006.68 227.136 1007.58 226.062 1008.96 226.062C1010.28 226.062 1011.14 227.04 1011.15 228.375H1006.61ZM1016.57 233.5H1018.3L1020.07 227.199H1020.2L1021.98 233.5H1023.71L1026.27 224.773H1024.52L1022.82 231.153H1022.73L1021.03 224.773H1019.27L1017.56 231.182H1017.47L1015.76 224.773H1014L1016.57 233.5ZM1041.92 225.648C1041.52 223.159 1039.57 221.705 1037.11 221.705C1034.1 221.705 1031.88 223.96 1031.88 227.682C1031.88 231.403 1034.09 233.659 1037.11 233.659C1039.67 233.659 1041.54 232.057 1041.92 229.756L1040.15 229.75C1039.85 231.239 1038.6 232.057 1037.12 232.057C1035.13 232.057 1033.62 230.528 1033.62 227.682C1033.62 224.858 1035.12 223.307 1037.13 223.307C1038.61 223.307 1039.86 224.142 1040.15 225.648H1041.92ZM1043.88 233.5H1045.58V228.17C1045.58 227.028 1046.46 226.205 1047.67 226.205C1048.02 226.205 1048.42 226.267 1048.55 226.307V224.682C1048.38 224.659 1048.05 224.642 1047.83 224.642C1046.81 224.642 1045.94 225.222 1045.62 226.159H1045.53V224.773H1043.88V233.5ZM1053.47 233.676C1055.38 233.676 1056.72 232.739 1057.11 231.318L1055.5 231.028C1055.2 231.852 1054.46 232.273 1053.49 232.273C1052.04 232.273 1051.06 231.33 1051.01 229.648H1057.22V229.045C1057.22 225.892 1055.33 224.659 1053.35 224.659C1050.92 224.659 1049.32 226.511 1049.32 229.193C1049.32 231.903 1050.9 233.676 1053.47 233.676ZM1051.02 228.375C1051.09 227.136 1051.99 226.062 1053.37 226.062C1054.68 226.062 1055.55 227.04 1055.55 228.375H1051.02ZM1061.64 233.693C1063.09 233.693 1063.9 232.96 1064.22 232.307H1064.29V233.5H1065.95V227.705C1065.95 225.165 1063.95 224.659 1062.56 224.659C1060.98 224.659 1059.53 225.295 1058.96 226.886L1060.56 227.25C1060.81 226.631 1061.44 226.034 1062.59 226.034C1063.68 226.034 1064.25 226.608 1064.25 227.597V227.636C1064.25 228.256 1063.61 228.244 1062.04 228.426C1060.39 228.619 1058.69 229.051 1058.69 231.034C1058.69 232.75 1059.98 233.693 1061.64 233.693ZM1062.01 232.33C1061.05 232.33 1060.36 231.898 1060.36 231.057C1060.36 230.148 1061.17 229.824 1062.15 229.693C1062.7 229.619 1064.01 229.472 1064.25 229.227V230.352C1064.25 231.386 1063.43 232.33 1062.01 232.33ZM1072.29 224.773H1070.5V222.682H1068.8V224.773H1067.52V226.136H1068.8V231.29C1068.79 232.875 1070 233.642 1071.34 233.614C1071.88 233.608 1072.25 233.506 1072.45 233.432L1072.14 232.028C1072.02 232.051 1071.81 232.102 1071.54 232.102C1070.99 232.102 1070.5 231.92 1070.5 230.938V226.136H1072.29V224.773ZM1077.75 233.676C1080.21 233.676 1081.82 231.875 1081.82 229.176C1081.82 226.46 1080.21 224.659 1077.75 224.659C1075.29 224.659 1073.68 226.46 1073.68 229.176C1073.68 231.875 1075.29 233.676 1077.75 233.676ZM1077.75 232.25C1076.15 232.25 1075.4 230.847 1075.4 229.17C1075.4 227.5 1076.15 226.08 1077.75 226.08C1079.35 226.08 1080.1 227.5 1080.1 229.17C1080.1 230.847 1079.35 232.25 1077.75 232.25ZM1083.71 233.5H1085.41V228.17C1085.41 227.028 1086.29 226.205 1087.5 226.205C1087.85 226.205 1088.25 226.267 1088.38 226.307V224.682C1088.21 224.659 1087.88 224.642 1087.66 224.642C1086.64 224.642 1085.76 225.222 1085.45 226.159H1085.35V224.773H1083.71V233.5ZM1091.58 221.864H1090.12V222.972C1090.12 223.852 1089.74 224.574 1089.29 225.227L1090.14 225.83C1091.01 225.125 1091.58 223.92 1091.58 222.955V221.864ZM1098.66 226.903C1098.31 225.545 1097.24 224.659 1095.36 224.659C1093.39 224.659 1091.99 225.699 1091.99 227.244C1091.99 228.483 1092.74 229.307 1094.37 229.67L1095.85 229.994C1096.69 230.182 1097.08 230.557 1097.08 231.102C1097.08 231.778 1096.36 232.307 1095.25 232.307C1094.23 232.307 1093.58 231.869 1093.37 231.011L1091.73 231.261C1092.02 232.807 1093.3 233.676 1095.26 233.676C1097.37 233.676 1098.83 232.557 1098.83 230.977C1098.83 229.744 1098.04 228.983 1096.44 228.614L1095.06 228.295C1094.1 228.068 1093.68 227.744 1093.69 227.153C1093.68 226.483 1094.41 226.006 1095.37 226.006C1096.43 226.006 1096.92 226.591 1097.12 227.176L1098.66 226.903ZM1020.45 247.648C1020.05 245.159 1018.1 243.705 1015.64 243.705C1012.63 243.705 1010.41 245.96 1010.41 249.682C1010.41 253.403 1012.62 255.659 1015.64 255.659C1018.2 255.659 1020.07 254.057 1020.45 251.756L1018.68 251.75C1018.38 253.239 1017.13 254.057 1015.66 254.057C1013.66 254.057 1012.16 252.528 1012.16 249.682C1012.16 246.858 1013.66 245.307 1015.66 245.307C1017.14 245.307 1018.39 246.142 1018.68 247.648H1020.45ZM1026.09 255.676C1028.55 255.676 1030.16 253.875 1030.16 251.176C1030.16 248.46 1028.55 246.659 1026.09 246.659C1023.63 246.659 1022.02 248.46 1022.02 251.176C1022.02 253.875 1023.63 255.676 1026.09 255.676ZM1026.1 254.25C1024.49 254.25 1023.74 252.847 1023.74 251.17C1023.74 249.5 1024.49 248.08 1026.1 248.08C1027.69 248.08 1028.44 249.5 1028.44 251.17C1028.44 252.847 1027.69 254.25 1026.1 254.25ZM1033.75 243.864H1032.06V255.5H1033.75V243.864ZM1037.74 243.864H1036.04V255.5H1037.74V243.864ZM1043.79 255.676C1045.69 255.676 1047.04 254.739 1047.42 253.318L1045.81 253.028C1045.51 253.852 1044.77 254.273 1043.8 254.273C1042.35 254.273 1041.37 253.33 1041.33 251.648H1047.53V251.045C1047.53 247.892 1045.64 246.659 1043.67 246.659C1041.24 246.659 1039.63 248.511 1039.63 251.193C1039.63 253.903 1041.21 255.676 1043.79 255.676ZM1041.33 250.375C1041.4 249.136 1042.3 248.062 1043.68 248.062C1045 248.062 1045.86 249.04 1045.87 250.375H1041.33ZM1053.09 255.676C1055.15 255.676 1056.49 254.438 1056.68 252.739H1055.02C1054.81 253.682 1054.07 254.239 1053.1 254.239C1051.67 254.239 1050.74 253.04 1050.74 251.136C1050.74 249.267 1051.68 248.091 1053.1 248.091C1054.18 248.091 1054.84 248.773 1055.02 249.591H1056.68C1056.5 247.83 1055.06 246.659 1053.07 246.659C1050.61 246.659 1049.02 248.511 1049.02 251.176C1049.02 253.807 1050.56 255.676 1053.09 255.676ZM1062.57 246.773H1060.78V244.682H1059.08V246.773H1057.8V248.136H1059.08V253.29C1059.07 254.875 1060.28 255.642 1061.62 255.614C1062.16 255.608 1062.53 255.506 1062.73 255.432L1062.42 254.028C1062.31 254.051 1062.1 254.102 1061.82 254.102C1061.27 254.102 1060.78 253.92 1060.78 252.938V248.136H1062.57V246.773ZM1064.45 255.5H1066.15V246.773H1064.45V255.5ZM1065.3 245.426C1065.89 245.426 1066.38 244.972 1066.38 244.415C1066.38 243.858 1065.89 243.398 1065.3 243.398C1064.71 243.398 1064.23 243.858 1064.23 244.415C1064.23 244.972 1064.71 245.426 1065.3 245.426ZM1072.11 255.676C1074.57 255.676 1076.18 253.875 1076.18 251.176C1076.18 248.46 1074.57 246.659 1072.11 246.659C1069.65 246.659 1068.04 248.46 1068.04 251.176C1068.04 253.875 1069.65 255.676 1072.11 255.676ZM1072.11 254.25C1070.5 254.25 1069.75 252.847 1069.75 251.17C1069.75 249.5 1070.5 248.08 1072.11 248.08C1073.71 248.08 1074.46 249.5 1074.46 251.17C1074.46 252.847 1073.71 254.25 1072.11 254.25ZM1079.77 250.318C1079.77 248.926 1080.62 248.131 1081.8 248.131C1082.96 248.131 1083.66 248.886 1083.66 250.153V255.5H1085.36V249.949C1085.36 247.79 1084.17 246.659 1082.38 246.659C1081.07 246.659 1080.21 247.267 1079.81 248.193H1079.7V246.773H1078.07V255.5H1079.77V250.318Z" fill="#0A2540"/>
    <rect x="949" y="190" width="198" height="97" rx="5" stroke="#0A2540" stroke-width="2" stroke-dasharray="5 5"/>
    <rect x="426" y="190" width="198" height="97" rx="5" fill="white"/>
    <path d="M483.552 233.5H490.915V231.989H485.308V228.426H490.467V226.92H485.308V223.375H490.847V221.864H483.552V233.5ZM494.755 228.318C494.755 226.926 495.607 226.131 496.789 226.131C497.942 226.131 498.641 226.886 498.641 228.153V233.5H500.34V227.949C500.34 225.79 499.153 224.659 497.369 224.659C496.056 224.659 495.198 225.267 494.795 226.193H494.687V224.773H493.056V233.5H494.755V228.318ZM506.692 224.773H504.903V222.682H503.204V224.773H501.925V226.136H503.204V231.29C503.198 232.875 504.408 233.642 505.749 233.614C506.289 233.608 506.653 233.506 506.852 233.432L506.545 232.028C506.431 232.051 506.221 232.102 505.948 232.102C505.397 232.102 504.903 231.92 504.903 230.938V226.136H506.692V224.773ZM508.572 233.5H510.271V228.17C510.271 227.028 511.151 226.205 512.356 226.205C512.708 226.205 513.106 226.267 513.242 226.307V224.682C513.072 224.659 512.737 224.642 512.521 224.642C511.498 224.642 510.623 225.222 510.305 226.159H510.214V224.773H508.572V233.5ZM516.052 236.773C517.455 236.773 518.342 236.04 518.847 234.665L522.455 224.79L520.62 224.773L518.41 231.545H518.319L516.109 224.773H514.29L517.484 233.614L517.273 234.193C516.842 235.352 516.234 235.449 515.302 235.193L514.893 236.585C515.097 236.676 515.54 236.773 516.052 236.773ZM536.302 225.54H538.103C537.711 223.273 535.773 221.705 533.262 221.705C530.251 221.705 528.052 223.972 528.052 227.688C528.052 231.369 530.188 233.659 533.342 233.659C536.165 233.659 538.183 231.807 538.183 228.869V227.545H533.609V228.994H536.484C536.444 230.869 535.205 232.057 533.342 232.057C531.29 232.057 529.796 230.506 529.796 227.676C529.796 224.858 531.302 223.307 533.273 223.307C534.819 223.307 535.864 224.159 536.302 225.54ZM542.815 233.693C544.258 233.693 545.07 232.96 545.394 232.307H545.462V233.5H547.121V227.705C547.121 225.165 545.121 224.659 543.735 224.659C542.156 224.659 540.701 225.295 540.133 226.886L541.729 227.25C541.979 226.631 542.616 226.034 543.758 226.034C544.854 226.034 545.417 226.608 545.417 227.597V227.636C545.417 228.256 544.781 228.244 543.212 228.426C541.559 228.619 539.866 229.051 539.866 231.034C539.866 232.75 541.156 233.693 542.815 233.693ZM543.184 232.33C542.224 232.33 541.531 231.898 541.531 231.057C541.531 230.148 542.337 229.824 543.32 229.693C543.871 229.619 545.178 229.472 545.423 229.227V230.352C545.423 231.386 544.599 232.33 543.184 232.33ZM553.458 224.773H551.668V222.682H549.969V224.773H548.691V226.136H549.969V231.29C549.964 232.875 551.174 233.642 552.515 233.614C553.055 233.608 553.418 233.506 553.617 233.432L553.31 232.028C553.197 232.051 552.987 232.102 552.714 232.102C552.163 232.102 551.668 231.92 551.668 230.938V226.136H553.458V224.773ZM559.005 233.676C560.908 233.676 562.255 232.739 562.641 231.318L561.033 231.028C560.727 231.852 559.988 232.273 559.022 232.273C557.567 232.273 556.59 231.33 556.545 229.648H562.749V229.045C562.749 225.892 560.863 224.659 558.886 224.659C556.454 224.659 554.852 226.511 554.852 229.193C554.852 231.903 556.431 233.676 559.005 233.676ZM556.55 228.375C556.619 227.136 557.516 226.062 558.897 226.062C560.215 226.062 561.079 227.04 561.085 228.375H556.55ZM497.451 247.648C497.053 245.159 495.104 243.705 492.644 243.705C489.633 243.705 487.411 245.96 487.411 249.682C487.411 253.403 489.621 255.659 492.644 255.659C495.201 255.659 497.07 254.057 497.451 251.756L495.678 251.75C495.377 253.239 494.127 254.057 492.656 254.057C490.661 254.057 489.156 252.528 489.156 249.682C489.156 246.858 490.656 245.307 492.661 245.307C494.144 245.307 495.388 246.142 495.678 247.648H497.451ZM503.092 255.676C505.552 255.676 507.16 253.875 507.16 251.176C507.16 248.46 505.552 246.659 503.092 246.659C500.631 246.659 499.023 248.46 499.023 251.176C499.023 253.875 500.631 255.676 503.092 255.676ZM503.097 254.25C501.489 254.25 500.739 252.847 500.739 251.17C500.739 249.5 501.489 248.08 503.097 248.08C504.694 248.08 505.444 249.5 505.444 251.17C505.444 252.847 504.694 254.25 503.097 254.25ZM510.755 243.864H509.056V255.5H510.755V243.864ZM514.739 243.864H513.04V255.5H514.739V243.864ZM520.786 255.676C522.69 255.676 524.036 254.739 524.423 253.318L522.815 253.028C522.508 253.852 521.769 254.273 520.803 254.273C519.349 254.273 518.371 253.33 518.326 251.648H524.531V251.045C524.531 247.892 522.644 246.659 520.667 246.659C518.235 246.659 516.633 248.511 516.633 251.193C516.633 253.903 518.212 255.676 520.786 255.676ZM518.332 250.375C518.4 249.136 519.298 248.062 520.678 248.062C521.996 248.062 522.86 249.04 522.866 250.375H518.332ZM530.092 255.676C532.154 255.676 533.489 254.438 533.677 252.739H532.023C531.808 253.682 531.075 254.239 530.103 254.239C528.665 254.239 527.739 253.04 527.739 251.136C527.739 249.267 528.683 248.091 530.103 248.091C531.183 248.091 531.842 248.773 532.023 249.591H533.677C533.495 247.83 532.058 246.659 530.075 246.659C527.614 246.659 526.023 248.511 526.023 251.176C526.023 253.807 527.558 255.676 530.092 255.676ZM539.567 246.773H537.778V244.682H536.079V246.773H534.8V248.136H536.079V253.29C536.073 254.875 537.283 255.642 538.624 255.614C539.164 255.608 539.528 255.506 539.727 255.432L539.42 254.028C539.306 254.051 539.096 254.102 538.823 254.102C538.272 254.102 537.778 253.92 537.778 252.938V248.136H539.567V246.773ZM541.447 255.5H543.146V246.773H541.447V255.5ZM542.305 245.426C542.89 245.426 543.379 244.972 543.379 244.415C543.379 243.858 542.89 243.398 542.305 243.398C541.714 243.398 541.231 243.858 541.231 244.415C541.231 244.972 541.714 245.426 542.305 245.426ZM549.107 255.676C551.567 255.676 553.175 253.875 553.175 251.176C553.175 248.46 551.567 246.659 549.107 246.659C546.647 246.659 545.039 248.46 545.039 251.176C545.039 253.875 546.647 255.676 549.107 255.676ZM549.113 254.25C547.505 254.25 546.755 252.847 546.755 251.17C546.755 249.5 547.505 248.08 549.113 248.08C550.71 248.08 551.46 249.5 551.46 251.17C551.46 252.847 550.71 254.25 549.113 254.25ZM556.771 250.318C556.771 248.926 557.623 248.131 558.805 248.131C559.958 248.131 560.657 248.886 560.657 250.153V255.5H562.356V249.949C562.356 247.79 561.168 246.659 559.384 246.659C558.072 246.659 557.214 247.267 556.81 248.193H556.702V246.773H555.072V255.5H556.771V250.318Z" fill="#0A2540"/>
    <rect x="426" y="190" width="198" height="97" rx="5" stroke="#0A2540" stroke-width="2" stroke-dasharray="5 5"/>
    <rect x="695" y="212" width="167" height="52" rx="26" fill="#F2F2F2"/>
    <path d="M763.771 236.148C763.374 233.659 761.425 232.205 758.964 232.205C755.953 232.205 753.732 234.46 753.732 238.182C753.732 241.903 755.942 244.159 758.964 244.159C761.521 244.159 763.391 242.557 763.771 240.256L761.999 240.25C761.697 241.739 760.447 242.557 758.976 242.557C756.982 242.557 755.476 241.028 755.476 238.182C755.476 235.358 756.976 233.807 758.982 233.807C760.464 233.807 761.709 234.642 761.999 236.148H763.771ZM765.736 244H767.435V238.67C767.435 237.528 768.315 236.705 769.52 236.705C769.872 236.705 770.27 236.767 770.406 236.807V235.182C770.236 235.159 769.901 235.142 769.685 235.142C768.662 235.142 767.787 235.722 767.469 236.659H767.378V235.273H765.736V244ZM775.325 244.176C777.229 244.176 778.575 243.239 778.962 241.818L777.354 241.528C777.047 242.352 776.308 242.773 775.342 242.773C773.888 242.773 772.911 241.83 772.865 240.148H779.07V239.545C779.07 236.392 777.183 235.159 775.206 235.159C772.774 235.159 771.172 237.011 771.172 239.693C771.172 242.403 772.751 244.176 775.325 244.176ZM772.871 238.875C772.939 237.636 773.837 236.562 775.217 236.562C776.536 236.562 777.399 237.54 777.405 238.875H772.871ZM783.494 244.193C784.938 244.193 785.75 243.46 786.074 242.807H786.142V244H787.801V238.205C787.801 235.665 785.801 235.159 784.415 235.159C782.835 235.159 781.381 235.795 780.812 237.386L782.409 237.75C782.659 237.131 783.295 236.534 784.438 236.534C785.534 236.534 786.097 237.108 786.097 238.097V238.136C786.097 238.756 785.46 238.744 783.892 238.926C782.239 239.119 780.545 239.551 780.545 241.534C780.545 243.25 781.835 244.193 783.494 244.193ZM783.864 242.83C782.903 242.83 782.21 242.398 782.21 241.557C782.21 240.648 783.017 240.324 784 240.193C784.551 240.119 785.858 239.972 786.102 239.727V240.852C786.102 241.886 785.278 242.83 783.864 242.83ZM794.138 235.273H792.348V233.182H790.649V235.273H789.371V236.636H790.649V241.79C790.643 243.375 791.854 244.142 793.195 244.114C793.734 244.108 794.098 244.006 794.297 243.932L793.99 242.528C793.876 242.551 793.666 242.602 793.393 242.602C792.842 242.602 792.348 242.42 792.348 241.438V236.636H794.138V235.273ZM799.685 244.176C801.588 244.176 802.935 243.239 803.321 241.818L801.713 241.528C801.406 242.352 800.668 242.773 799.702 242.773C798.247 242.773 797.27 241.83 797.224 240.148H803.429V239.545C803.429 236.392 801.543 235.159 799.565 235.159C797.134 235.159 795.531 237.011 795.531 239.693C795.531 242.403 797.111 244.176 799.685 244.176ZM797.23 238.875C797.298 237.636 798.196 236.562 799.577 236.562C800.895 236.562 801.759 237.54 801.764 238.875H797.23Z" fill="#0A2540"/>
    <rect x="458" y="361" width="167" height="52" rx="26" fill="#F2F2F2"/>
    <path d="M517.902 393L518.97 389.92H523.516L524.578 393H526.442L522.254 381.364H520.226L516.038 393H517.902ZM519.482 388.443L521.197 383.477H521.288L523.004 388.443H519.482ZM534.463 386.403C534.111 385.045 533.048 384.159 531.162 384.159C529.19 384.159 527.793 385.199 527.793 386.744C527.793 387.983 528.543 388.807 530.179 389.17L531.656 389.494C532.497 389.682 532.889 390.057 532.889 390.602C532.889 391.278 532.168 391.807 531.054 391.807C530.037 391.807 529.384 391.369 529.179 390.511L527.537 390.761C527.821 392.307 529.105 393.176 531.065 393.176C533.173 393.176 534.634 392.057 534.634 390.477C534.634 389.244 533.849 388.483 532.247 388.114L530.861 387.795C529.901 387.568 529.486 387.244 529.491 386.653C529.486 385.983 530.213 385.506 531.179 385.506C532.236 385.506 532.724 386.091 532.923 386.676L534.463 386.403ZM543.041 386.403C542.689 385.045 541.626 384.159 539.74 384.159C537.768 384.159 536.371 385.199 536.371 386.744C536.371 387.983 537.121 388.807 538.757 389.17L540.234 389.494C541.075 389.682 541.467 390.057 541.467 390.602C541.467 391.278 540.746 391.807 539.632 391.807C538.615 391.807 537.962 391.369 537.757 390.511L536.115 390.761C536.399 392.307 537.683 393.176 539.643 393.176C541.751 393.176 543.212 392.057 543.212 390.477C543.212 389.244 542.428 388.483 540.825 388.114L539.439 387.795C538.479 387.568 538.064 387.244 538.07 386.653C538.064 385.983 538.791 385.506 539.757 385.506C540.814 385.506 541.303 386.091 541.501 386.676L543.041 386.403ZM545.08 393H546.778V384.273H545.08V393ZM545.938 382.926C546.523 382.926 547.011 382.472 547.011 381.915C547.011 381.358 546.523 380.898 545.938 380.898C545.347 380.898 544.864 381.358 544.864 381.915C544.864 382.472 545.347 382.926 545.938 382.926ZM552.723 396.455C554.945 396.455 556.661 395.438 556.661 393.193V384.273H554.996V385.688H554.871C554.57 385.148 553.967 384.159 552.342 384.159C550.234 384.159 548.683 385.824 548.683 388.602C548.683 391.386 550.268 392.869 552.331 392.869C553.933 392.869 554.553 391.966 554.859 391.409H554.967V393.125C554.967 394.494 554.03 395.085 552.74 395.085C551.325 395.085 550.774 394.375 550.473 393.875L549.013 394.477C549.473 395.545 550.638 396.455 552.723 396.455ZM552.706 391.46C551.189 391.46 550.399 390.295 550.399 388.58C550.399 386.903 551.172 385.602 552.706 385.602C554.189 385.602 554.984 386.812 554.984 388.58C554.984 390.381 554.172 391.46 552.706 391.46ZM560.638 387.818C560.638 386.426 561.49 385.631 562.672 385.631C563.825 385.631 564.524 386.386 564.524 387.653V393H566.223V387.449C566.223 385.29 565.036 384.159 563.251 384.159C561.939 384.159 561.081 384.767 560.678 385.693H560.57V384.273H558.939V393H560.638V387.818Z" fill="#0A2540"/>
    <path fill-rule="evenodd" clip-rule="evenodd" d="M83.3333 222.75V210.25H16.6667V222.75H37.5V238.792L30.75 274.833H43.5L49.2084 243.583H50.7917L56.5 274.833H69.25L62.5 238.792V222.75H83.3333ZM39.5834 193.583C39.5834 187.829 44.2458 183.167 50 183.167C55.7542 183.167 60.4167 187.829 60.4167 193.583C60.4167 199.338 55.7542 204 50 204C44.2458 204 39.5834 199.338 39.5834 193.583Z" fill="url(#paint0_linear)"/>
    <path d="M12.3111 142.166C11.8636 139.366 9.67116 137.73 6.90341 137.73C3.51562 137.73 1.01634 140.268 1.01634 144.455C1.01634 148.641 3.50284 151.179 6.90341 151.179C9.77983 151.179 11.8828 149.376 12.3111 146.788L10.3168 146.781C9.97798 148.456 8.57173 149.376 6.91619 149.376C4.67259 149.376 2.97869 147.657 2.97869 144.455C2.97869 141.278 4.66619 139.533 6.92259 139.533C8.59091 139.533 9.99077 140.472 10.3168 142.166H12.3111ZM18.6568 151.198C21.4245 151.198 23.2335 149.172 23.2335 146.136C23.2335 143.08 21.4245 141.054 18.6568 141.054C15.889 141.054 14.0801 143.08 14.0801 146.136C14.0801 149.172 15.889 151.198 18.6568 151.198ZM18.6632 149.594C16.8542 149.594 16.0105 148.015 16.0105 146.129C16.0105 144.25 16.8542 142.652 18.6632 142.652C20.4593 142.652 21.3031 144.25 21.3031 146.129C21.3031 148.015 20.4593 149.594 18.6632 149.594ZM27.2781 145.17C27.2781 143.604 28.2369 142.71 29.5664 142.71C30.864 142.71 31.6502 143.56 31.6502 144.985V151H33.5614V144.755C33.5614 142.326 32.2255 141.054 30.2184 141.054C28.7418 141.054 27.7766 141.738 27.3228 142.78H27.2013V141.182H25.3668V151H27.2781V145.17ZM40.7077 141.182H38.6942V138.83H36.783V141.182H35.3448V142.716H36.783V148.513C36.7766 150.297 38.1381 151.16 39.6467 151.128C40.2539 151.121 40.663 151.006 40.8867 150.923L40.5415 149.344C40.4137 149.37 40.1772 149.428 39.8704 149.428C39.2504 149.428 38.6942 149.223 38.6942 148.117V142.716H40.7077V141.182ZM46.948 151.198C49.0893 151.198 50.6042 150.143 51.0389 148.545L49.2299 148.219C48.8848 149.146 48.0538 149.619 46.9672 149.619C45.3308 149.619 44.2314 148.558 44.1802 146.666H51.1603V145.989C51.1603 142.441 49.0382 141.054 46.8137 141.054C44.0779 141.054 42.2754 143.138 42.2754 146.155C42.2754 149.204 44.0524 151.198 46.948 151.198ZM44.1866 145.234C44.2633 143.841 45.2733 142.633 46.8265 142.633C48.3095 142.633 49.2811 143.732 49.2875 145.234H44.1866ZM55.1921 145.17C55.1921 143.604 56.1509 142.71 57.4805 142.71C58.7781 142.71 59.5643 143.56 59.5643 144.985V151H61.4755V144.755C61.4755 142.326 60.1396 141.054 58.1325 141.054C56.6559 141.054 55.6907 141.738 55.2369 142.78H55.1154V141.182H53.2809V151H55.1921V145.17ZM68.6218 141.182H66.6083V138.83H64.6971V141.182H63.2589V142.716H64.6971V148.513C64.6907 150.297 66.0522 151.16 67.5607 151.128C68.168 151.121 68.5771 151.006 68.8008 150.923L68.4556 149.344C68.3278 149.37 68.0913 149.428 67.7844 149.428C67.1644 149.428 66.6083 149.223 66.6083 148.117V142.716H68.6218V141.182ZM86.5259 142.166C86.0785 139.366 83.886 137.73 81.1183 137.73C77.7305 137.73 75.2312 140.268 75.2312 144.455C75.2312 148.641 77.7177 151.179 81.1183 151.179C83.9947 151.179 86.0977 149.376 86.5259 146.788L84.5316 146.781C84.1928 148.456 82.7866 149.376 81.131 149.376C78.8874 149.376 77.1935 147.657 77.1935 144.455C77.1935 141.278 78.881 139.533 81.1374 139.533C82.8058 139.533 84.2056 140.472 84.5316 142.166H86.5259ZM88.736 151H90.6472V145.004C90.6472 143.719 91.638 142.793 92.9931 142.793C93.3894 142.793 93.8368 142.863 93.9902 142.908V141.08C93.7985 141.054 93.4213 141.035 93.1784 141.035C92.0279 141.035 91.0435 141.687 90.6855 142.741H90.5833V141.182H88.736V151ZM99.5241 151.198C101.665 151.198 103.18 150.143 103.615 148.545L101.806 148.219C101.461 149.146 100.63 149.619 99.5433 149.619C97.907 149.619 96.8075 148.558 96.7564 146.666H103.737V145.989C103.737 142.441 101.614 141.054 99.3899 141.054C96.6541 141.054 94.8516 143.138 94.8516 146.155C94.8516 149.204 96.6286 151.198 99.5241 151.198ZM96.7628 145.234C96.8395 143.841 97.8494 142.633 99.4027 142.633C100.886 142.633 101.857 143.732 101.864 145.234H96.7628ZM108.714 151.217C110.338 151.217 111.252 150.393 111.616 149.658H111.693V151H113.559V144.48C113.559 141.623 111.309 141.054 109.75 141.054C107.973 141.054 106.336 141.77 105.697 143.56L107.493 143.969C107.775 143.272 108.491 142.601 109.775 142.601C111.009 142.601 111.642 143.246 111.642 144.359V144.403C111.642 145.1 110.926 145.087 109.162 145.292C107.302 145.509 105.397 145.995 105.397 148.226C105.397 150.156 106.848 151.217 108.714 151.217ZM109.13 149.683C108.05 149.683 107.27 149.197 107.27 148.251C107.27 147.229 108.177 146.864 109.283 146.717C109.903 146.634 111.373 146.468 111.648 146.193V147.459C111.648 148.622 110.721 149.683 109.13 149.683ZM120.688 141.182H118.675V138.83H116.763V141.182H115.325V142.716H116.763V148.513C116.757 150.297 118.119 151.16 119.627 151.128C120.234 151.121 120.643 151.006 120.867 150.923L120.522 149.344C120.394 149.37 120.158 149.428 119.851 149.428C119.231 149.428 118.675 149.223 118.675 148.117V142.716H120.688V141.182ZM126.833 151.198C129.6 151.198 131.409 149.172 131.409 146.136C131.409 143.08 129.6 141.054 126.833 141.054C124.065 141.054 122.256 143.08 122.256 146.136C122.256 149.172 124.065 151.198 126.833 151.198ZM126.839 149.594C125.03 149.594 124.186 148.015 124.186 146.129C124.186 144.25 125.03 142.652 126.839 142.652C128.635 142.652 129.479 144.25 129.479 146.129C129.479 148.015 128.635 149.594 126.839 149.594ZM133.543 151H135.454V145.004C135.454 143.719 136.445 142.793 137.8 142.793C138.196 142.793 138.643 142.863 138.797 142.908V141.08C138.605 141.054 138.228 141.035 137.985 141.035C136.835 141.035 135.85 141.687 135.492 142.741H135.39V141.182H133.543V151Z" fill="#0A2540"/>
    <rect x="170" y="214" width="185" height="52" rx="26" fill="#F2F2F2"/>
    <path d="M207.162 238.148C206.764 235.659 204.815 234.205 202.355 234.205C199.344 234.205 197.122 236.46 197.122 240.182C197.122 243.903 199.332 246.159 202.355 246.159C204.912 246.159 206.781 244.557 207.162 242.256L205.389 242.25C205.088 243.739 203.838 244.557 202.366 244.557C200.372 244.557 198.866 243.028 198.866 240.182C198.866 237.358 200.366 235.807 202.372 235.807C203.855 235.807 205.099 236.642 205.389 238.148H207.162ZM209.126 246H210.825V240.67C210.825 239.528 211.706 238.705 212.911 238.705C213.263 238.705 213.661 238.767 213.797 238.807V237.182C213.626 237.159 213.291 237.142 213.075 237.142C212.053 237.142 211.178 237.722 210.859 238.659H210.768V237.273H209.126V246ZM218.716 246.176C220.619 246.176 221.966 245.239 222.352 243.818L220.744 243.528C220.438 244.352 219.699 244.773 218.733 244.773C217.278 244.773 216.301 243.83 216.256 242.148H222.46V241.545C222.46 238.392 220.574 237.159 218.597 237.159C216.165 237.159 214.562 239.011 214.562 241.693C214.562 244.403 216.142 246.176 218.716 246.176ZM216.261 240.875C216.33 239.636 217.227 238.562 218.608 238.562C219.926 238.562 220.79 239.54 220.795 240.875H216.261ZM226.885 246.193C228.328 246.193 229.141 245.46 229.464 244.807H229.533V246H231.192V240.205C231.192 237.665 229.192 237.159 227.805 237.159C226.226 237.159 224.771 237.795 224.203 239.386L225.8 239.75C226.05 239.131 226.686 238.534 227.828 238.534C228.925 238.534 229.487 239.108 229.487 240.097V240.136C229.487 240.756 228.851 240.744 227.283 240.926C225.629 241.119 223.936 241.551 223.936 243.534C223.936 245.25 225.226 246.193 226.885 246.193ZM227.254 244.83C226.294 244.83 225.601 244.398 225.601 243.557C225.601 242.648 226.408 242.324 227.391 242.193C227.942 242.119 229.249 241.972 229.493 241.727V242.852C229.493 243.886 228.669 244.83 227.254 244.83ZM237.528 237.273H235.739V235.182H234.04V237.273H232.761V238.636H234.04V243.79C234.034 245.375 235.244 246.142 236.585 246.114C237.125 246.108 237.489 246.006 237.688 245.932L237.381 244.528C237.267 244.551 237.057 244.602 236.784 244.602C236.233 244.602 235.739 244.42 235.739 243.438V238.636H237.528V237.273ZM243.075 246.176C244.979 246.176 246.325 245.239 246.712 243.818L245.104 243.528C244.797 244.352 244.058 244.773 243.092 244.773C241.638 244.773 240.661 243.83 240.615 242.148H246.82V241.545C246.82 238.392 244.933 237.159 242.956 237.159C240.524 237.159 238.922 239.011 238.922 241.693C238.922 244.403 240.501 246.176 243.075 246.176ZM240.621 240.875C240.689 239.636 241.587 238.562 242.967 238.562C244.286 238.562 245.149 239.54 245.155 240.875H240.621ZM262.74 238.148C262.342 235.659 260.393 234.205 257.933 234.205C254.922 234.205 252.7 236.46 252.7 240.182C252.7 243.903 254.911 246.159 257.933 246.159C260.49 246.159 262.359 244.557 262.74 242.256L260.967 242.25C260.666 243.739 259.416 244.557 257.945 244.557C255.95 244.557 254.445 243.028 254.445 240.182C254.445 237.358 255.945 235.807 257.95 235.807C259.433 235.807 260.678 236.642 260.967 238.148H262.74ZM268.381 246.176C270.841 246.176 272.449 244.375 272.449 241.676C272.449 238.96 270.841 237.159 268.381 237.159C265.92 237.159 264.312 238.96 264.312 241.676C264.312 244.375 265.92 246.176 268.381 246.176ZM268.386 244.75C266.778 244.75 266.028 243.347 266.028 241.67C266.028 240 266.778 238.58 268.386 238.58C269.983 238.58 270.733 240 270.733 241.67C270.733 243.347 269.983 244.75 268.386 244.75ZM276.044 234.364H274.345V246H276.044V234.364ZM280.028 234.364H278.33V246H280.028V234.364ZM286.075 246.176C287.979 246.176 289.325 245.239 289.712 243.818L288.104 243.528C287.797 244.352 287.058 244.773 286.092 244.773C284.638 244.773 283.661 243.83 283.615 242.148H289.82V241.545C289.82 238.392 287.933 237.159 285.956 237.159C283.524 237.159 281.922 239.011 281.922 241.693C281.922 244.403 283.501 246.176 286.075 246.176ZM283.621 240.875C283.689 239.636 284.587 238.562 285.967 238.562C287.286 238.562 288.149 239.54 288.155 240.875H283.621ZM295.381 246.176C297.443 246.176 298.778 244.938 298.966 243.239H297.312C297.097 244.182 296.364 244.739 295.392 244.739C293.955 244.739 293.028 243.54 293.028 241.636C293.028 239.767 293.972 238.591 295.392 238.591C296.472 238.591 297.131 239.273 297.312 240.091H298.966C298.784 238.33 297.347 237.159 295.364 237.159C292.903 237.159 291.312 239.011 291.312 241.676C291.312 244.307 292.847 246.176 295.381 246.176ZM304.857 237.273H303.067V235.182H301.368V237.273H300.089V238.636H301.368V243.79C301.362 245.375 302.572 246.142 303.913 246.114C304.453 246.108 304.817 246.006 305.016 245.932L304.709 244.528C304.595 244.551 304.385 244.602 304.112 244.602C303.561 244.602 303.067 244.42 303.067 243.438V238.636H304.857V237.273ZM306.736 246H308.435V237.273H306.736V246ZM307.594 235.926C308.179 235.926 308.668 235.472 308.668 234.915C308.668 234.358 308.179 233.898 307.594 233.898C307.003 233.898 306.52 234.358 306.52 234.915C306.52 235.472 307.003 235.926 307.594 235.926ZM314.396 246.176C316.857 246.176 318.464 244.375 318.464 241.676C318.464 238.96 316.857 237.159 314.396 237.159C311.936 237.159 310.328 238.96 310.328 241.676C310.328 244.375 311.936 246.176 314.396 246.176ZM314.402 244.75C312.794 244.75 312.044 243.347 312.044 241.67C312.044 240 312.794 238.58 314.402 238.58C315.999 238.58 316.749 240 316.749 241.67C316.749 243.347 315.999 244.75 314.402 244.75ZM322.06 240.818C322.06 239.426 322.912 238.631 324.094 238.631C325.247 238.631 325.946 239.386 325.946 240.653V246H327.645V240.449C327.645 238.29 326.457 237.159 324.673 237.159C323.361 237.159 322.503 237.767 322.099 238.693H321.991V237.273H320.361V246H322.06V240.818Z" fill="#0A2540"/>
    <path d="M235.625 300.455H236.693L236.699 299.176C239.102 299 240.477 297.625 240.477 295.784C240.477 293.688 238.608 292.875 237.131 292.511L236.716 292.403L236.727 288.756C237.79 288.898 238.517 289.489 238.625 290.42H240.318C240.273 288.688 238.841 287.392 236.733 287.222L236.739 285.909H235.67L235.665 287.233C233.625 287.438 232.131 288.71 232.131 290.545C232.131 292.165 233.29 293.114 235.159 293.619L235.648 293.75L235.636 297.619C234.528 297.483 233.67 296.881 233.58 295.784H231.818C231.926 297.744 233.341 299.006 235.631 299.176L235.625 300.455ZM236.705 297.619L236.716 294.045C237.869 294.364 238.739 294.784 238.739 295.767C238.739 296.761 237.909 297.46 236.705 297.619ZM235.653 292.119C234.807 291.869 233.875 291.42 233.881 290.443C233.881 289.591 234.557 288.926 235.659 288.761L235.653 292.119ZM244.854 299H246.626L249.075 290.284H249.166L251.615 299H253.382L256.615 287.364H254.763L252.501 296.381H252.393L250.036 287.364H248.206L245.848 296.375H245.74L243.473 287.364H241.626L244.854 299ZM259.972 287.364H258.216V299H259.972V287.364ZM271.92 287.364H270.182V295.909H270.074L264.153 287.364H262.528V299H264.284V290.466H264.392L270.307 299H271.92V287.364ZM273.908 288.875H277.533V299H279.283V288.875H282.913V287.364H273.908V288.875ZM284.903 299H286.659V294.597H289.045C289.085 294.597 289.119 294.597 289.159 294.597L291.523 299H293.523L290.943 294.29C292.369 293.761 293.08 292.574 293.08 291.011C293.08 288.869 291.75 287.364 289.051 287.364H284.903V299ZM286.659 293.085V288.869H288.864C290.597 288.869 291.312 289.693 291.312 291.011C291.312 292.324 290.597 293.085 288.886 293.085H286.659Z" fill="#0A2540"/>
    <defs>
        <linearGradient id="paint0_linear" x1="21.0128" y1="191.863" x2="91.3588" y2="251.458" gradientUnits="userSpaceOnUse">
            <stop stop-color="#3b82f6"/>
            <stop offset="1" stop-color="#3b82f6"/>
        </linearGradient>
    </defs>
</svg>
