<svg width="53" height="53" viewBox="0 0 53 53" fill="none" xmlns="http://www.w3.org/2000/svg">
<rect opacity="0.1" x="1" y="1" width="51" height="51" rx="13" stroke="#5B5B5B" stroke-width="2"/>
<g opacity="0.7">
<path d="M37.1618 20.6559C36.3984 20.9936 35.5888 21.2154 34.7598 21.3139C35.6336 20.7914 36.2875 19.9689 36.5998 18.9999C35.7798 19.4879 34.8808 19.8299 33.9438 20.0149C33.3144 19.3415 32.4802 18.8949 31.5708 18.7445C30.6614 18.5941 29.7277 18.7484 28.9151 19.1834C28.1024 19.6183 27.4562 20.3096 27.0769 21.1497C26.6976 21.9898 26.6066 22.9317 26.8178 23.8289C25.1549 23.7456 23.5281 23.3134 22.0431 22.5606C20.5581 21.8077 19.2479 20.751 18.1978 19.4589C17.8261 20.0974 17.6308 20.8232 17.6318 21.5619C17.6318 23.0119 18.3698 24.2929 19.4918 25.0429C18.8278 25.022 18.1784 24.8427 17.5978 24.5199V24.5719C17.598 25.5376 17.9322 26.4735 18.5437 27.221C19.1551 27.9684 20.0063 28.4814 20.9528 28.6729C20.3364 28.84 19.6901 28.8646 19.0628 28.7449C19.3297 29.5762 19.8498 30.3031 20.5504 30.824C21.251 31.3449 22.0969 31.6337 22.9698 31.6499C22.1023 32.3313 21.109 32.8349 20.0467 33.1321C18.9844 33.4293 17.8739 33.5142 16.7788 33.3819C18.6905 34.6114 20.9159 35.264 23.1888 35.2619C30.8818 35.2619 35.0888 28.8889 35.0888 23.3619C35.0888 23.1819 35.0838 22.9999 35.0758 22.8219C35.8947 22.2301 36.6014 21.4969 37.1628 20.6569L37.1618 20.6559Z" fill="#0A2540"/>
</g>
</svg>
