<?xml version="1.0" standalone="no"?>
<!DOCTYPE svg PUBLIC "-//W3C//DTD SVG 20010904//EN"
 "http://www.w3.org/TR/2001/REC-SVG-20010904/DTD/svg10.dtd">
<svg version="1.0" xmlns="http://www.w3.org/2000/svg"
 width="260.000000pt" height="260.000000pt" viewBox="0 0 260.000000 260.000000"
 preserveAspectRatio="xMidYMid meet">
<metadata>
Created by potrace 1.11, written by Peter Selinger 2001-2013
</metadata>
<g transform="translate(0.000000,260.000000) scale(0.100000,-0.100000)"
fill="#000000" stroke="none">
<path d="M0 1300 l0 -1300 1300 0 1300 0 0 1300 0 1300 -1300 0 -1300 0 0
-1300z m1328 598 l3 -128 -336 0 -335 0 0 -175 0 -175 270 0 270 0 0 -125 0
-125 -270 0 -270 0 -2 -302 -3 -303 -155 0 -155 0 -3 720 c-1 396 0 726 3 733
3 10 107 12 492 10 l488 -3 3 -127z m410 -475 l2 -603 318 -2 317 -3 0 -125 0
-125 -477 -3 -478 -2 0 735 0 736 158 -3 157 -3 3 -602z"/>
</g>
</svg>
